<svg width="584" height="536" viewBox="0 0 584 536" fill="none" xmlns="http://www.w3.org/2000/svg">
<g clip-path="url(#clip0_755_79)">
<rect x="0.866044" width="336.063" height="336.063" rx="15.5" transform="matrix(0.866044 -0.499967 0.866044 0.499967 0.116012 367.327)" fill="white"/>
<rect x="0.866044" width="336.063" height="336.063" rx="15.5" transform="matrix(0.866044 -0.499967 0.866044 0.499967 0.116012 367.327)" stroke="#30302E" stroke-dasharray="4 4"/>
<path d="M300.295 500.484L294.708 503.709L279.591 494.983L285.171 491.761C286.712 490.872 288.34 490.281 290.058 489.989C291.775 489.69 293.502 489.693 295.239 489.997C296.971 490.298 298.622 490.902 300.192 491.808C301.767 492.717 302.817 493.673 303.344 494.676C303.875 495.676 303.885 496.673 303.373 497.667C302.856 498.659 301.83 499.597 300.295 500.484ZM295.247 499.802L297.04 498.766C297.887 498.278 298.46 497.782 298.76 497.279C299.06 496.771 299.036 496.242 298.686 495.694C298.337 495.14 297.618 494.549 296.531 493.922C295.443 493.294 294.425 492.882 293.475 492.686C292.521 492.487 291.603 492.477 290.722 492.656C289.841 492.829 288.968 493.166 288.102 493.666L286.36 494.672L295.247 499.802ZM313.279 493.21C312.555 493.628 311.792 493.929 310.99 494.113C310.188 494.292 309.379 494.334 308.562 494.237C307.745 494.135 306.963 493.868 306.215 493.436C305.585 493.072 305.164 492.702 304.953 492.324C304.741 491.946 304.694 491.567 304.812 491.186C304.931 490.805 305.174 490.429 305.543 490.057C305.907 489.682 306.353 489.314 306.879 488.953C307.465 488.547 307.922 488.212 308.252 487.948C308.577 487.681 308.766 487.46 308.82 487.287C308.874 487.108 308.786 486.952 308.555 486.818L308.518 486.797C308.139 486.578 307.716 486.485 307.248 486.516C306.781 486.547 306.326 486.691 305.883 486.946C305.405 487.222 305.125 487.503 305.041 487.79C304.958 488.077 305.058 488.348 305.344 488.604L301.897 490.457C301.306 490.003 300.945 489.501 300.812 488.953C300.679 488.399 300.817 487.825 301.225 487.232C301.634 486.632 302.345 486.04 303.358 485.455C304.082 485.037 304.835 484.702 305.617 484.449C306.394 484.194 307.172 484.029 307.949 483.955C308.722 483.878 309.465 483.904 310.178 484.032C310.897 484.157 311.556 484.392 312.157 484.739L319.862 489.188L316.467 491.148L314.888 490.236L314.799 490.287C314.981 490.625 315.048 490.962 314.998 491.297C314.954 491.629 314.787 491.956 314.496 492.277C314.211 492.595 313.805 492.906 313.279 493.21ZM312.031 491.203C312.42 490.979 312.69 490.731 312.843 490.462C313 490.189 313.035 489.919 312.946 489.652C312.853 489.382 312.622 489.141 312.253 488.928L311.175 488.305C311.126 488.396 311.049 488.497 310.946 488.608C310.848 488.716 310.732 488.831 310.599 488.953C310.466 489.075 310.324 489.197 310.171 489.32C310.019 489.442 309.871 489.558 309.728 489.669C309.443 489.896 309.236 490.112 309.108 490.317C308.985 490.518 308.951 490.709 309.005 490.888C309.059 491.061 309.209 491.219 309.455 491.361C309.829 491.577 310.247 491.665 310.71 491.625C311.177 491.582 311.618 491.442 312.031 491.203ZM317.131 477.674L319.789 479.208L312.636 483.337L309.979 481.803L317.131 477.674ZM308.761 479.37L312.371 477.286L322.859 483.341C323.081 483.469 323.295 483.553 323.501 483.593C323.708 483.627 323.91 483.621 324.107 483.576C324.298 483.527 324.49 483.448 324.682 483.337C324.82 483.258 324.953 483.167 325.081 483.064C325.209 482.956 325.302 482.874 325.361 482.817L328.513 484.006C328.39 484.134 328.208 484.31 327.967 484.534C327.731 484.756 327.406 484.997 326.993 485.259C326.186 485.77 325.361 486.132 324.52 486.345C323.678 486.553 322.844 486.602 322.018 486.495C321.196 486.384 320.406 486.104 319.648 485.655L308.761 479.37ZM333.698 481.422C332.975 481.839 332.212 482.14 331.41 482.325C330.608 482.504 329.799 482.545 328.982 482.449C328.165 482.346 327.382 482.079 326.635 481.648C326.005 481.284 325.584 480.913 325.372 480.535C325.161 480.158 325.114 479.778 325.232 479.398C325.35 479.017 325.594 478.641 325.963 478.269C326.327 477.894 326.772 477.526 327.299 477.165C327.884 476.759 328.342 476.423 328.672 476.159C328.996 475.892 329.186 475.672 329.24 475.499C329.294 475.32 329.206 475.164 328.974 475.03L328.937 475.009C328.559 474.79 328.135 474.696 327.668 474.728C327.2 474.759 326.745 474.902 326.302 475.158C325.825 475.433 325.545 475.715 325.461 476.002C325.377 476.289 325.478 476.56 325.764 476.815L322.317 478.669C321.726 478.215 321.364 477.713 321.232 477.165C321.099 476.611 321.237 476.037 321.645 475.443C322.053 474.844 322.764 474.252 323.778 473.667C324.501 473.249 325.254 472.914 326.037 472.661C326.814 472.405 327.592 472.24 328.369 472.167C329.142 472.09 329.885 472.116 330.598 472.243C331.317 472.368 331.976 472.604 332.576 472.951L340.282 477.399L336.887 479.359L335.307 478.447L335.219 478.499C335.401 478.837 335.467 479.173 335.418 479.508C335.374 479.841 335.206 480.168 334.916 480.489C334.631 480.807 334.225 481.118 333.698 481.422ZM332.451 479.415C332.84 479.19 333.11 478.943 333.263 478.673C333.42 478.401 333.455 478.131 333.366 477.864C333.273 477.594 333.041 477.352 332.672 477.139L331.595 476.517C331.545 476.608 331.469 476.709 331.366 476.82C331.267 476.928 331.152 477.043 331.019 477.165C330.886 477.287 330.743 477.409 330.591 477.531C330.438 477.653 330.291 477.77 330.148 477.881C329.863 478.108 329.656 478.324 329.528 478.528C329.405 478.73 329.37 478.92 329.425 479.099C329.479 479.273 329.629 479.43 329.875 479.572C330.249 479.788 330.667 479.876 331.13 479.837C331.597 479.794 332.037 479.653 332.451 479.415ZM342.489 476.125L327.373 467.398L330.982 465.315L336.702 468.617L336.776 468.575C336.579 468.29 336.456 467.978 336.407 467.637C336.363 467.293 336.451 466.941 336.673 466.58C336.894 466.214 337.303 465.859 337.898 465.515C338.685 465.061 339.628 464.755 340.725 464.599C341.827 464.44 343.02 464.487 344.305 464.74C345.589 464.992 346.898 465.504 348.232 466.274C349.516 467.015 350.387 467.754 350.844 468.489C351.307 469.222 351.41 469.913 351.154 470.56C350.903 471.205 350.36 471.769 349.523 472.252C348.952 472.581 348.364 472.813 347.759 472.946C347.154 473.08 346.556 473.141 345.966 473.13C345.38 473.115 344.836 473.052 344.334 472.938L344.224 473.002L346.061 474.063L342.489 476.125ZM340.356 470.812C340.966 471.164 341.579 471.424 342.194 471.591C342.814 471.756 343.404 471.821 343.965 471.787C344.526 471.748 345.026 471.601 345.464 471.349C345.906 471.093 346.16 470.805 346.224 470.484C346.283 470.16 346.165 469.822 345.87 469.469C345.579 469.114 345.129 468.761 344.519 468.408C343.909 468.056 343.299 467.798 342.688 467.633C342.083 467.465 341.502 467.4 340.946 467.437C340.395 467.471 339.896 467.617 339.448 467.876C339.005 468.131 338.749 468.418 338.68 468.736C338.612 469.055 338.717 469.391 338.998 469.746C339.283 470.099 339.736 470.454 340.356 470.812ZM359.172 466.716C358.449 467.133 357.686 467.434 356.884 467.619C356.082 467.798 355.272 467.839 354.456 467.743C353.639 467.64 352.856 467.373 352.108 466.941C351.479 466.578 351.058 466.207 350.846 465.829C350.635 465.452 350.588 465.072 350.706 464.692C350.824 464.311 351.068 463.935 351.437 463.562C351.801 463.187 352.246 462.82 352.773 462.459C353.358 462.053 353.816 461.717 354.146 461.453C354.47 461.186 354.66 460.966 354.714 460.793C354.768 460.614 354.679 460.458 354.448 460.324L354.411 460.303C354.032 460.084 353.609 459.99 353.142 460.021C352.674 460.053 352.219 460.196 351.776 460.452C351.299 460.727 351.018 461.009 350.935 461.296C350.851 461.582 350.952 461.854 351.237 462.109L347.791 463.963C347.2 463.508 346.838 463.007 346.705 462.459C346.573 461.905 346.71 461.331 347.119 460.737C347.527 460.138 348.238 459.546 349.252 458.96C349.975 458.543 350.728 458.208 351.511 457.955C352.288 457.699 353.065 457.534 353.843 457.461C354.616 457.384 355.359 457.409 356.072 457.537C356.79 457.662 357.45 457.898 358.05 458.245L365.756 462.693L362.361 464.653L360.781 463.741L360.693 463.793C360.875 464.131 360.941 464.467 360.892 464.802C360.848 465.135 360.68 465.461 360.39 465.782C360.105 466.101 359.699 466.412 359.172 466.716ZM357.925 464.709C358.313 464.484 358.584 464.237 358.737 463.967C358.894 463.695 358.929 463.425 358.84 463.158C358.746 462.888 358.515 462.646 358.146 462.433L357.068 461.811C357.019 461.902 356.943 462.003 356.84 462.114C356.741 462.222 356.626 462.337 356.493 462.459C356.36 462.581 356.217 462.703 356.065 462.825C355.912 462.947 355.765 463.064 355.622 463.175C355.336 463.402 355.13 463.618 355.002 463.822C354.879 464.024 354.844 464.214 354.898 464.393C354.953 464.567 355.103 464.724 355.349 464.866C355.723 465.082 356.141 465.17 356.603 465.131C357.071 465.088 357.511 464.947 357.925 464.709ZM369.985 451.158L366.76 453.123C366.489 453.006 366.187 452.94 365.852 452.923C365.512 452.903 365.168 452.934 364.819 453.016C364.469 453.093 364.135 453.224 363.815 453.408C363.397 453.65 363.123 453.904 362.995 454.171C362.872 454.435 362.956 454.648 363.246 454.81C363.463 454.941 363.743 455 364.088 454.989C364.437 454.975 364.9 454.858 365.476 454.64L368.074 453.617C369.422 453.089 370.623 452.81 371.676 452.782C372.734 452.751 373.678 452.972 374.51 453.447C375.282 453.898 375.728 454.422 375.846 455.019C375.969 455.613 375.797 456.229 375.329 456.868C374.857 457.505 374.114 458.115 373.1 458.701C371.481 459.635 369.872 460.181 368.273 460.337C366.674 460.487 365.247 460.277 363.992 459.706L367.468 457.597C367.96 457.79 368.48 457.854 369.026 457.789C369.572 457.723 370.101 457.543 370.613 457.248C371.075 456.98 371.366 456.713 371.484 456.446C371.602 456.179 371.521 455.962 371.24 455.794C370.979 455.65 370.662 455.597 370.288 455.637C369.909 455.674 369.439 455.803 368.878 456.025L366.524 456.949C365.18 457.486 363.953 457.755 362.84 457.755C361.723 457.752 360.734 457.499 359.873 456.996C359.111 456.561 358.665 456.071 358.537 455.526C358.404 454.978 358.572 454.404 359.039 453.805C359.507 453.205 360.252 452.61 361.276 452.019C362.811 451.133 364.344 450.62 365.874 450.481C367.4 450.339 368.77 450.565 369.985 451.158ZM385.432 451.581C384.246 452.266 382.989 452.722 381.66 452.949C380.332 453.171 379.001 453.164 377.667 452.928C376.334 452.686 375.064 452.218 373.859 451.522C372.687 450.846 371.895 450.121 371.482 449.349C371.064 448.573 371.032 447.802 371.386 447.035C371.735 446.265 372.481 445.55 373.622 444.891C374.429 444.426 375.293 444.072 376.213 443.83C377.133 443.589 378.083 443.47 379.062 443.472C380.041 443.475 381.028 443.607 382.022 443.869C383.011 444.127 383.971 444.525 384.901 445.062L385.801 445.582L375.947 451.27L373.851 450.06L380.347 446.31C379.958 446.092 379.525 445.947 379.047 445.876C378.57 445.805 378.093 445.81 377.616 445.893C377.138 445.969 376.7 446.123 376.302 446.353C375.898 446.586 375.628 446.847 375.49 447.137C375.347 447.424 375.337 447.711 375.46 447.998C375.578 448.282 375.827 448.539 376.206 448.769L378.339 450C378.801 450.267 379.298 450.449 379.83 450.546C380.356 450.64 380.883 450.645 381.409 450.563C381.936 450.481 382.43 450.306 382.893 450.039C383.213 449.854 383.459 449.661 383.631 449.459C383.803 449.258 383.897 449.053 383.912 448.846C383.926 448.638 383.855 448.435 383.698 448.236L387.108 446.379C387.713 446.887 388.057 447.435 388.141 448.023C388.225 448.606 388.042 449.202 387.595 449.813C387.142 450.421 386.421 451.01 385.432 451.581Z" fill="#30302E"/>
<rect x="0.866044" width="336.063" height="336.063" rx="15.5" transform="matrix(0.866044 -0.499967 0.866044 0.499967 0.116012 301.203)" fill="#C5D1E7"/>
<rect x="0.866044" width="336.063" height="336.063" rx="15.5" transform="matrix(0.866044 -0.499967 0.866044 0.499967 0.116012 301.203)" stroke="#30302E"/>
<path d="M294.449 425.982C294.056 425.852 293.66 425.765 293.261 425.722C292.858 425.677 292.454 425.674 292.051 425.714C291.647 425.754 291.251 425.837 290.862 425.965C290.469 426.09 290.09 426.258 289.726 426.468C288.992 426.891 288.535 427.36 288.353 427.874C288.176 428.386 288.281 428.921 288.67 429.481C289.054 430.037 289.728 430.594 290.692 431.151C291.662 431.711 292.629 432.107 293.593 432.34C294.558 432.573 295.485 432.64 296.376 432.54C297.267 432.441 298.091 432.172 298.849 431.735C299.518 431.348 299.975 430.959 300.221 430.567C300.467 430.17 300.509 429.785 300.347 429.413C300.185 429.04 299.83 428.697 299.284 428.381L300.044 428.036L296.369 430.158L293.704 428.62L300.221 424.857L302.222 426.012C303.575 426.793 304.446 427.629 304.835 428.518C305.228 429.404 305.181 430.286 304.694 431.164C304.212 432.039 303.321 432.851 302.022 433.601C300.581 434.434 299.001 434.985 297.284 435.254C295.566 435.524 293.825 435.502 292.058 435.186C290.287 434.868 288.604 434.249 287.009 433.328C285.769 432.613 284.854 431.871 284.264 431.104C283.668 430.334 283.366 429.566 283.356 428.799C283.351 428.029 283.612 427.293 284.138 426.592C284.67 425.887 285.44 425.244 286.448 424.661C287.324 424.156 288.264 423.758 289.268 423.468C290.277 423.176 291.3 422.994 292.338 422.923C293.382 422.849 294.4 422.889 295.394 423.042C296.388 423.196 297.306 423.464 298.147 423.848L294.449 425.982ZM310.642 428.387L295.525 419.66L299.179 417.551L311.328 424.564L317.617 420.934L320.584 422.647L310.642 428.387ZM328.596 409.295C330.259 410.255 331.349 411.254 331.866 412.29C332.383 413.327 332.395 414.334 331.903 415.312C331.416 416.286 330.495 417.164 329.142 417.945C327.784 418.729 326.259 419.26 324.566 419.539C322.873 419.817 321.131 419.808 319.34 419.513C317.549 419.212 315.824 418.583 314.166 417.625C312.503 416.665 311.41 415.668 310.889 414.634C310.372 413.597 310.357 412.592 310.845 411.617C311.332 410.643 312.254 409.764 313.613 408.98C314.966 408.198 316.486 407.667 318.174 407.386C319.867 407.102 321.611 407.109 323.407 407.407C325.203 407.705 326.933 408.335 328.596 409.295ZM324.861 411.451C323.877 410.883 322.905 410.484 321.946 410.254C320.991 410.021 320.078 409.954 319.207 410.053C318.341 410.15 317.544 410.408 316.816 410.829C316.093 411.246 315.645 411.707 315.473 412.209C315.3 412.712 315.413 413.241 315.812 413.795C316.216 414.346 316.909 414.905 317.894 415.473C318.878 416.042 319.847 416.442 320.802 416.675C321.761 416.905 322.676 416.971 323.547 416.871C324.418 416.772 325.216 416.513 325.939 416.096C326.667 415.675 327.115 415.215 327.282 414.715C327.454 414.212 327.339 413.685 326.935 413.134C326.537 412.58 325.845 412.019 324.861 411.451ZM341.16 410.768L321.645 404.581L325.682 402.25L337.869 406.652L337.994 406.58L330.694 399.357L333.986 397.457L346.519 401.684L346.645 401.611L339.005 394.559L343.035 392.232L353.76 403.494L350.239 405.527L338.348 401.807L338.23 401.875L344.674 408.74L341.16 410.768Z" fill="#30302E"/>
<rect width="337.063" height="337.063" rx="16" transform="matrix(0.866044 -0.499967 0.866044 0.499967 0 234.645)" fill="#F6F8FF"/>
<rect x="0.866044" width="336.063" height="336.063" rx="15.5" transform="matrix(0.866044 -0.499967 0.866044 0.499967 0.116012 235.078)" stroke="#4D58EB" stroke-opacity="0.5"/>
<path d="M292.294 360.633C291.704 360.349 291.064 360.233 290.375 360.284C289.686 360.329 288.985 360.558 288.271 360.97C287.799 361.243 287.467 361.505 287.275 361.758C287.083 362.011 287.017 362.245 287.076 362.461C287.13 362.674 287.292 362.862 287.563 363.024C287.779 363.16 288.023 363.25 288.294 363.292C288.569 363.332 288.869 363.335 289.194 363.301C289.519 363.261 289.868 363.19 290.242 363.088C290.616 362.985 291.012 362.856 291.431 362.7L293.025 362.12C293.935 361.782 294.811 361.527 295.653 361.353C296.499 361.177 297.303 361.085 298.066 361.077C298.834 361.065 299.562 361.142 300.251 361.307C300.94 361.471 301.589 361.727 302.2 362.074C303.149 362.628 303.727 363.24 303.934 363.91C304.141 364.581 303.978 365.279 303.447 366.007C302.92 366.731 302.027 367.457 300.768 368.184C299.503 368.914 298.211 369.441 296.893 369.765C295.574 370.089 294.267 370.178 292.973 370.033C291.679 369.888 290.434 369.479 289.238 368.806L292.737 366.786C293.254 367.051 293.79 367.21 294.346 367.264C294.902 367.318 295.466 367.276 296.036 367.14C296.612 367.001 297.168 366.776 297.704 366.467C298.197 366.183 298.548 365.903 298.76 365.627C298.976 365.349 299.06 365.088 299.011 364.843C298.962 364.599 298.787 364.387 298.487 364.208C298.197 364.046 297.864 363.957 297.49 363.94C297.112 363.92 296.669 363.971 296.162 364.093C295.655 364.21 295.062 364.39 294.383 364.635L292.434 365.333C290.825 365.916 289.31 366.231 287.888 366.279C286.461 366.325 285.176 366.015 284.035 365.35C283.095 364.813 282.527 364.196 282.33 363.497C282.133 362.798 282.285 362.076 282.787 361.332C283.289 360.588 284.113 359.885 285.26 359.223C286.431 358.547 287.647 358.075 288.906 357.808C290.166 357.536 291.391 357.467 292.582 357.604C293.773 357.74 294.843 358.077 295.793 358.614L292.294 360.633ZM310.85 356.492L304.406 352.772L308.008 350.692L319.346 357.237L315.906 359.223L313.795 358.004L313.677 358.072C314.12 358.618 314.243 359.183 314.046 359.768C313.849 360.348 313.325 360.883 312.474 361.375C311.701 361.821 310.845 362.111 309.905 362.244C308.966 362.378 308.016 362.355 307.056 362.176C306.092 361.994 305.179 361.657 304.318 361.166L297.092 356.994L300.701 354.911L307.219 358.673C307.839 359.026 308.486 359.212 309.16 359.231C309.834 359.251 310.447 359.102 310.998 358.784C311.357 358.577 311.601 358.345 311.728 358.089C311.856 357.828 311.852 357.561 311.714 357.288C311.576 357.01 311.288 356.744 310.85 356.492ZM325.895 358.365L310.306 349.366L313.878 347.304L315.819 348.424L315.93 348.36C315.733 348.076 315.61 347.764 315.561 347.423C315.517 347.079 315.605 346.727 315.827 346.366C316.048 346 316.457 345.645 317.052 345.301C317.839 344.846 318.782 344.541 319.879 344.385C320.981 344.226 322.175 344.273 323.459 344.525C324.743 344.778 326.052 345.29 327.386 346.059C328.67 346.801 329.541 347.539 329.998 348.275C330.461 349.008 330.564 349.698 330.308 350.346C330.058 350.991 329.514 351.555 328.677 352.038C328.106 352.367 327.518 352.599 326.913 352.732C326.308 352.866 325.71 352.927 325.12 352.915C324.534 352.901 323.99 352.837 323.488 352.724L323.415 352.766L329.504 356.282L325.895 358.365ZM319.51 350.597C320.12 350.95 320.733 351.21 321.348 351.377C321.968 351.542 322.558 351.607 323.119 351.573C323.68 351.533 324.18 351.387 324.618 351.134C325.061 350.879 325.314 350.59 325.378 350.269C325.437 349.945 325.319 349.607 325.024 349.255C324.733 348.9 324.283 348.546 323.673 348.194C323.063 347.842 322.453 347.583 321.842 347.419C321.237 347.251 320.656 347.186 320.1 347.223C319.549 347.257 319.05 347.403 318.602 347.662C318.159 347.917 317.903 348.204 317.834 348.522C317.766 348.84 317.871 349.177 318.152 349.532C318.437 349.884 318.89 350.24 319.51 350.597ZM339.19 350.69L323.601 341.691L327.173 339.628L329.115 340.749L329.225 340.685C329.028 340.401 328.905 340.089 328.856 339.748C328.812 339.404 328.901 339.052 329.122 338.691C329.343 338.324 329.752 337.969 330.347 337.626C331.135 337.171 332.077 336.866 333.174 336.71C334.276 336.55 335.47 336.597 336.754 336.85C338.038 337.103 339.347 337.614 340.681 338.384C341.965 339.126 342.836 339.864 343.294 340.6C343.756 341.333 343.859 342.023 343.604 342.671C343.353 343.316 342.809 343.879 341.972 344.362C341.402 344.692 340.814 344.923 340.208 345.057C339.603 345.19 339.005 345.252 338.415 345.24C337.829 345.226 337.285 345.162 336.783 345.048L336.71 345.091L342.799 348.606L339.19 350.69ZM332.805 342.922C333.415 343.274 334.028 343.534 334.643 343.702C335.263 343.867 335.853 343.932 336.414 343.898C336.975 343.858 337.475 343.712 337.913 343.459C338.356 343.203 338.609 342.915 338.673 342.594C338.732 342.27 338.614 341.932 338.319 341.58C338.028 341.225 337.578 340.871 336.968 340.519C336.358 340.167 335.748 339.908 335.138 339.743C334.532 339.576 333.952 339.51 333.396 339.547C332.844 339.581 332.345 339.728 331.897 339.986C331.454 340.242 331.198 340.529 331.13 340.847C331.061 341.165 331.167 341.502 331.447 341.857C331.732 342.209 332.185 342.564 332.805 342.922ZM336.726 329.75L351.843 338.477L348.233 340.56L333.117 331.834L336.726 329.75ZM360.598 338.331C360.165 338.581 359.723 338.797 359.27 338.979C358.822 339.163 358.406 339.304 358.022 339.4L356.199 337.427C356.672 337.291 357.06 337.146 357.366 336.993C357.676 336.837 357.877 336.666 357.971 336.482C358.074 336.297 358.042 336.091 357.875 335.864L357.676 335.587L341.895 331.13L345.674 328.948L355.852 332.412L355.971 332.344L349.999 326.451L353.801 324.256L361.949 333.895C362.363 334.372 362.616 334.857 362.709 335.348C362.813 335.84 362.702 336.335 362.377 336.835C362.057 337.332 361.465 337.831 360.598 338.331ZM376.575 324.199L370.987 327.425L355.871 318.698L361.451 315.477C362.991 314.587 364.62 313.996 366.337 313.704C368.055 313.406 369.782 313.408 371.519 313.712C373.251 314.014 374.902 314.617 376.471 315.523C378.046 316.432 379.097 317.388 379.623 318.391C380.155 319.391 380.164 320.388 379.653 321.382C379.136 322.374 378.11 323.313 376.575 324.199ZM371.526 323.517L373.32 322.482C374.166 321.993 374.739 321.497 375.04 320.995C375.34 320.486 375.315 319.958 374.966 319.409C374.616 318.856 373.898 318.265 372.81 317.637C371.723 317.009 370.704 316.597 369.755 316.401C368.8 316.202 367.882 316.192 367.002 316.371C366.121 316.545 365.247 316.881 364.381 317.381L362.639 318.387L371.526 323.517ZM391.684 315.724C390.498 316.408 389.241 316.864 387.912 317.091C386.584 317.313 385.252 317.306 383.919 317.07C382.585 316.829 381.316 316.36 380.11 315.664C378.939 314.988 378.147 314.264 377.734 313.491C377.315 312.715 377.283 311.944 377.638 311.177C377.987 310.407 378.733 309.693 379.874 309.034C380.681 308.568 381.545 308.214 382.465 307.973C383.385 307.731 384.335 307.612 385.314 307.615C386.293 307.618 387.28 307.75 388.274 308.011C389.263 308.27 390.222 308.667 391.152 309.204L392.053 309.724L382.199 315.413L380.103 314.202L386.598 310.453C386.21 310.234 385.777 310.089 385.299 310.018C384.822 309.947 384.345 309.953 383.867 310.035C383.39 310.112 382.952 310.265 382.553 310.495C382.15 310.728 381.879 310.99 381.742 311.279C381.599 311.566 381.589 311.853 381.712 312.14C381.83 312.424 382.079 312.681 382.457 312.911L384.591 314.143C385.053 314.41 385.55 314.592 386.082 314.688C386.608 314.782 387.135 314.788 387.661 314.705C388.188 314.623 388.682 314.448 389.145 314.181C389.465 313.996 389.711 313.803 389.883 313.602C390.055 313.4 390.149 313.195 390.163 312.988C390.178 312.781 390.107 312.578 389.949 312.379L393.359 310.521C393.965 311.029 394.309 311.578 394.393 312.166C394.476 312.748 394.294 313.345 393.846 313.955C393.394 314.563 392.673 315.153 391.684 315.724ZM400.716 301.169L397.491 303.133C397.22 303.017 396.918 302.95 396.583 302.933C396.243 302.913 395.899 302.944 395.55 303.027C395.2 303.103 394.866 303.234 394.546 303.419C394.128 303.66 393.854 303.914 393.727 304.181C393.604 304.446 393.687 304.659 393.977 304.821C394.194 304.951 394.474 305.011 394.819 305C395.168 304.985 395.631 304.869 396.207 304.65L398.805 303.627C400.153 303.099 401.354 302.821 402.407 302.792C403.465 302.761 404.409 302.983 405.241 303.457C406.014 303.909 406.459 304.433 406.577 305.029C406.7 305.623 406.528 306.24 406.06 306.879C405.588 307.515 404.845 308.126 403.831 308.711C402.212 309.646 400.603 310.191 399.004 310.347C397.405 310.498 395.978 310.288 394.723 309.717L398.199 307.607C398.692 307.801 399.211 307.864 399.757 307.799C400.303 307.734 400.832 307.553 401.344 307.258C401.806 306.991 402.097 306.724 402.215 306.457C402.333 306.19 402.252 305.973 401.971 305.805C401.71 305.66 401.393 305.607 401.019 305.647C400.64 305.684 400.17 305.813 399.609 306.035L397.255 306.96C395.911 307.497 394.684 307.765 393.572 307.765C392.455 307.762 391.465 307.509 390.604 307.007C389.842 306.572 389.396 306.082 389.268 305.536C389.136 304.988 389.303 304.414 389.77 303.815C390.238 303.216 390.983 302.62 392.007 302.03C393.542 301.143 395.075 300.631 396.605 300.491C398.131 300.349 399.501 300.575 400.716 301.169ZM410.649 304.528L399.312 297.983L402.921 295.899L414.259 302.444L410.649 304.528ZM399.799 296.176C399.292 296.469 398.69 296.623 397.991 296.64C397.287 296.655 396.697 296.524 396.219 296.248C395.747 295.976 395.526 295.638 395.555 295.234C395.58 294.828 395.846 294.479 396.352 294.186C396.864 293.891 397.469 293.737 398.168 293.726C398.867 293.709 399.452 293.837 399.925 294.109C400.402 294.385 400.628 294.726 400.604 295.132C400.579 295.532 400.311 295.88 399.799 296.176ZM426.329 300.658C425.251 301.28 424.178 301.726 423.111 301.996C422.043 302.265 421.029 302.376 420.07 302.328C419.11 302.28 418.256 302.091 417.508 301.761L420.734 299.677C421.029 299.774 421.349 299.822 421.693 299.822C422.043 299.82 422.404 299.764 422.778 299.656C423.157 299.545 423.539 299.379 423.922 299.158C424.528 298.808 424.88 298.435 424.978 298.037C425.086 297.639 424.776 297.23 424.048 296.81L422.055 295.659L421.93 295.732C422.136 296.016 422.232 296.321 422.217 296.648C422.203 296.975 422.057 297.308 421.782 297.649C421.511 297.987 421.098 298.317 420.542 298.638C419.715 299.115 418.766 299.442 417.693 299.618C416.62 299.788 415.471 299.758 414.246 299.528C413.021 299.293 411.766 298.804 410.482 298.063C409.158 297.298 408.28 296.547 407.846 295.808C407.409 295.067 407.325 294.38 407.596 293.746C407.871 293.11 408.405 292.563 409.197 292.106C409.793 291.762 410.405 291.527 411.035 291.402C411.665 291.272 412.278 291.219 412.873 291.245C413.468 291.27 414.01 291.341 414.497 291.458L414.6 291.398L412.659 290.278L416.254 288.202L427.635 294.773C428.595 295.327 429.163 295.933 429.34 296.592C429.517 297.251 429.343 297.929 428.816 298.625C428.294 299.324 427.465 300.001 426.329 300.658ZM419.169 296.396C419.607 296.144 419.865 295.861 419.944 295.548C420.023 295.236 419.929 294.906 419.664 294.56C419.398 294.213 418.962 293.865 418.357 293.516C417.742 293.161 417.129 292.904 416.519 292.745C415.909 292.58 415.326 292.519 414.77 292.561C414.219 292.601 413.724 292.748 413.286 293C412.839 293.259 412.583 293.549 412.519 293.87C412.455 294.191 412.565 294.527 412.851 294.879C413.136 295.226 413.582 295.574 414.187 295.923C414.792 296.273 415.392 296.526 415.988 296.682C416.583 296.838 417.149 296.895 417.685 296.852C418.227 296.807 418.721 296.655 419.169 296.396ZM427.035 287.603L433.501 291.335L429.892 293.419L418.555 286.874L421.987 284.893L424.068 286.094L424.194 286.022C423.751 285.476 423.635 284.915 423.847 284.339C424.053 283.759 424.575 283.228 425.412 282.745C426.209 282.285 427.08 281.989 428.024 281.859C428.969 281.722 429.924 281.745 430.888 281.927C431.853 282.103 432.758 282.438 433.605 282.932L440.831 287.104L437.221 289.188L430.704 285.425C430.079 285.059 429.427 284.867 428.748 284.85C428.074 284.83 427.451 284.985 426.88 285.314C426.502 285.533 426.251 285.775 426.128 286.039C426.005 286.297 426.017 286.56 426.164 286.827C426.317 287.091 426.607 287.35 427.035 287.603ZM445.117 272.409C444.527 272.125 443.887 272.008 443.198 272.059C442.509 272.105 441.808 272.333 441.094 272.745C440.622 273.018 440.29 273.281 440.098 273.534C439.906 273.786 439.84 274.021 439.899 274.237C439.953 274.45 440.115 274.637 440.386 274.799C440.602 274.935 440.846 275.025 441.117 275.068C441.392 275.107 441.692 275.11 442.017 275.076C442.342 275.036 442.691 274.965 443.065 274.863C443.439 274.761 443.835 274.632 444.254 274.475L445.848 273.896C446.758 273.558 447.634 273.302 448.476 273.129C449.322 272.953 450.126 272.86 450.889 272.852C451.657 272.84 452.385 272.917 453.074 273.082C453.763 273.247 454.412 273.502 455.023 273.849C455.972 274.403 456.55 275.015 456.757 275.685C456.964 276.356 456.801 277.055 456.27 277.782C455.743 278.506 454.85 279.232 453.591 279.959C452.326 280.689 451.034 281.216 449.716 281.54C448.397 281.864 447.09 281.953 445.796 281.809C444.502 281.664 443.257 281.255 442.061 280.581L445.56 278.562C446.077 278.826 446.613 278.985 447.169 279.039C447.725 279.093 448.289 279.052 448.859 278.915C449.435 278.776 449.991 278.552 450.527 278.242C451.02 277.958 451.371 277.678 451.583 277.403C451.799 277.124 451.883 276.863 451.834 276.619C451.785 276.374 451.61 276.163 451.31 275.984C451.02 275.822 450.687 275.732 450.313 275.715C449.935 275.695 449.492 275.747 448.985 275.869C448.478 275.985 447.885 276.166 447.206 276.41L445.257 277.109C443.648 277.691 442.133 278.006 440.711 278.055C439.284 278.1 437.999 277.79 436.858 277.126C435.918 276.589 435.35 275.971 435.153 275.272C434.956 274.573 435.108 273.852 435.61 273.107C436.112 272.363 436.936 271.66 438.083 270.998C439.254 270.322 440.47 269.851 441.729 269.584C442.989 269.311 444.214 269.243 445.405 269.379C446.596 269.515 447.666 269.852 448.616 270.389L445.117 272.409ZM467.711 276.495C467.278 276.745 466.835 276.961 466.382 277.143C465.934 277.327 465.518 277.468 465.135 277.565L463.311 275.592C463.784 275.455 464.173 275.31 464.478 275.157C464.788 275.001 464.989 274.83 465.083 274.646C465.186 274.461 465.154 274.255 464.987 274.028L464.788 273.751L449.007 269.294L452.786 267.112L462.965 270.576L463.083 270.508L457.111 264.615L460.913 262.421L469.061 272.059C469.475 272.536 469.728 273.021 469.822 273.512C469.925 274.004 469.814 274.499 469.489 274.999C469.17 275.497 468.577 275.995 467.711 276.495ZM475.656 257.906L472.431 259.87C472.16 259.754 471.857 259.687 471.523 259.67C471.183 259.65 470.839 259.681 470.49 259.764C470.14 259.841 469.806 259.971 469.486 260.156C469.067 260.397 468.794 260.652 468.666 260.919C468.543 261.183 468.627 261.396 468.917 261.558C469.134 261.688 469.414 261.748 469.759 261.737C470.108 261.723 470.571 261.606 471.146 261.387L473.745 260.365C475.093 259.836 476.294 259.558 477.347 259.53C478.404 259.498 479.349 259.72 480.181 260.194C480.953 260.646 481.399 261.17 481.517 261.767C481.64 262.36 481.468 262.977 481 263.616C480.528 264.252 479.785 264.863 478.771 265.448C477.152 266.383 475.543 266.928 473.944 267.084C472.345 267.235 470.918 267.025 469.663 266.454L473.139 264.345C473.631 264.538 474.151 264.602 474.697 264.536C475.243 264.471 475.772 264.291 476.284 263.995C476.746 263.728 477.037 263.461 477.155 263.194C477.273 262.927 477.192 262.71 476.911 262.542C476.65 262.397 476.333 262.345 475.959 262.384C475.58 262.421 475.11 262.551 474.549 262.772L472.195 263.697C470.851 264.234 469.623 264.502 468.511 264.502C467.394 264.499 466.405 264.247 465.544 263.744C464.782 263.309 464.336 262.819 464.208 262.274C464.075 261.725 464.243 261.152 464.71 260.552C465.178 259.953 465.923 259.358 466.947 258.767C468.482 257.88 470.015 257.368 471.545 257.229C473.07 257.086 474.441 257.312 475.656 257.906ZM480.651 251.025L483.309 252.559L476.156 256.688L473.499 255.154L480.651 251.025ZM472.281 252.721L475.891 250.638L486.379 256.693C486.601 256.821 486.815 256.904 487.021 256.944C487.228 256.978 487.43 256.973 487.627 256.927C487.818 256.879 488.01 256.799 488.202 256.688C488.34 256.609 488.473 256.518 488.601 256.416C488.729 256.308 488.822 256.225 488.881 256.169L492.033 257.357C491.91 257.485 491.728 257.661 491.487 257.886C491.251 258.107 490.926 258.349 490.513 258.61C489.706 259.122 488.881 259.484 488.04 259.697C487.198 259.904 486.364 259.954 485.538 259.846C484.716 259.735 483.926 259.455 483.168 259.006L472.281 252.721ZM499.222 253.642C498.036 254.326 496.779 254.782 495.45 255.01C494.122 255.231 492.791 255.224 491.457 254.988C490.124 254.747 488.854 254.278 487.649 253.582C486.478 252.906 485.685 252.182 485.272 251.409C484.854 250.633 484.822 249.862 485.176 249.095C485.525 248.325 486.271 247.611 487.412 246.952C488.219 246.486 489.083 246.132 490.003 245.891C490.923 245.649 491.873 245.53 492.852 245.533C493.832 245.536 494.818 245.668 495.812 245.929C496.801 246.188 497.761 246.585 498.691 247.122L499.591 247.642L489.737 253.331L487.641 252.121L494.137 248.371C493.748 248.152 493.315 248.007 492.838 247.936C492.36 247.865 491.883 247.871 491.406 247.953C490.928 248.03 490.49 248.183 490.092 248.413C489.688 248.646 489.418 248.908 489.28 249.197C489.137 249.484 489.127 249.771 489.25 250.058C489.368 250.342 489.617 250.599 489.996 250.829L492.129 252.061C492.592 252.328 493.088 252.51 493.62 252.606C494.146 252.7 494.673 252.706 495.199 252.623C495.726 252.541 496.221 252.366 496.683 252.099C497.003 251.915 497.249 251.721 497.421 251.52C497.593 251.318 497.687 251.114 497.702 250.906C497.716 250.699 497.645 250.496 497.488 250.297L500.898 248.439C501.503 248.947 501.847 249.496 501.931 250.084C502.015 250.666 501.833 251.263 501.385 251.873C500.932 252.481 500.211 253.071 499.222 253.642ZM506.232 249.348L494.895 242.803L498.327 240.821L500.409 242.023L500.534 241.95C500.081 241.416 499.936 240.872 500.099 240.318C500.261 239.764 500.731 239.263 501.508 238.814C502.296 238.36 503.172 238.087 504.136 237.996C505.101 237.905 505.999 238.012 506.83 238.316L506.948 238.248C506.486 237.736 506.36 237.187 506.572 236.598C506.779 236.008 507.3 235.471 508.137 234.988C509.209 234.369 510.425 234.065 511.783 234.076C513.136 234.084 514.411 234.434 515.606 235.124L523.238 239.53L519.629 241.614L512.824 237.685C512.258 237.358 511.682 237.194 511.096 237.191C510.506 237.185 509.979 237.316 509.517 237.583C509.02 237.87 508.791 238.189 508.83 238.542C508.87 238.888 509.16 239.218 509.701 239.53L516.47 243.438L513.001 245.44L506.159 241.49C505.632 241.186 505.073 241.029 504.483 241.017C503.893 241.006 503.364 241.135 502.896 241.405C502.581 241.587 502.379 241.791 502.291 242.019C502.197 242.243 502.219 242.475 502.357 242.713C502.5 242.949 502.758 243.175 503.132 243.391L509.842 247.264L506.232 249.348Z" fill="#221098"/>
<rect width="337.063" height="337.063" rx="16" transform="matrix(0.866044 -0.499967 0.866044 0.499967 0 168.521)" fill="#371EE1"/>
<path d="M263.365 277.808C262.774 277.524 262.135 277.408 261.446 277.459C260.757 277.504 260.056 277.733 259.342 278.145C258.87 278.418 258.538 278.68 258.346 278.933C258.154 279.186 258.088 279.42 258.147 279.636C258.201 279.849 258.363 280.037 258.634 280.199C258.85 280.335 259.094 280.424 259.364 280.467C259.64 280.507 259.94 280.51 260.265 280.476C260.59 280.436 260.939 280.365 261.313 280.263C261.687 280.16 262.083 280.031 262.501 279.875L264.096 279.295C265.006 278.957 265.882 278.702 266.723 278.528C267.57 278.352 268.374 278.26 269.137 278.251C269.905 278.24 270.633 278.317 271.322 278.481C272.011 278.646 272.66 278.902 273.27 279.248C274.22 279.802 274.798 280.415 275.005 281.085C275.212 281.755 275.049 282.454 274.518 283.181C273.991 283.906 273.098 284.632 271.838 285.359C270.574 286.089 269.282 286.616 267.963 286.94C266.645 287.264 265.338 287.353 264.044 287.208C262.75 287.063 261.505 286.654 260.309 285.981L263.808 283.961C264.325 284.225 264.861 284.384 265.417 284.438C265.973 284.492 266.536 284.451 267.107 284.315C267.683 284.176 268.239 283.951 268.775 283.642C269.267 283.358 269.619 283.078 269.831 282.802C270.047 282.524 270.131 282.262 270.082 282.018C270.033 281.774 269.858 281.562 269.558 281.383C269.267 281.221 268.935 281.132 268.561 281.115C268.182 281.095 267.739 281.146 267.233 281.268C266.726 281.385 266.133 281.565 265.454 281.809L263.505 282.508C261.896 283.09 260.381 283.406 258.958 283.454C257.531 283.5 256.247 283.19 255.106 282.525C254.166 281.988 253.597 281.37 253.401 280.672C253.204 279.973 253.356 279.251 253.858 278.507C254.36 277.763 255.184 277.06 256.331 276.398C257.502 275.722 258.717 275.25 259.977 274.983C261.237 274.71 262.462 274.642 263.653 274.779C264.844 274.915 265.914 275.252 266.864 275.788L263.365 277.808ZM281.921 273.666L275.477 269.946L279.079 267.867L290.417 274.412L286.977 276.398L284.866 275.179L284.748 275.247C285.191 275.793 285.314 276.358 285.117 276.943C284.92 277.523 284.396 278.058 283.545 278.55C282.772 278.996 281.916 279.285 280.976 279.419C280.036 279.552 279.087 279.53 278.127 279.351C277.163 279.169 276.25 278.832 275.389 278.341L268.163 274.169L271.772 272.086L278.289 275.848C278.909 276.2 279.557 276.386 280.231 276.406C280.905 276.426 281.517 276.277 282.069 275.959C282.428 275.751 282.671 275.52 282.799 275.264C282.927 275.003 282.922 274.736 282.785 274.463C282.647 274.185 282.359 273.919 281.921 273.666ZM296.965 275.54L281.377 266.541L284.949 264.478L286.89 265.599L287.001 265.535C286.804 265.251 286.681 264.939 286.632 264.598C286.588 264.254 286.676 263.902 286.898 263.541C287.119 263.175 287.527 262.819 288.123 262.476C288.91 262.021 289.853 261.716 290.95 261.56C292.052 261.401 293.245 261.447 294.53 261.7C295.814 261.953 297.123 262.464 298.456 263.234C299.741 263.976 300.612 264.714 301.069 265.45C301.532 266.183 301.635 266.873 301.379 267.521C301.128 268.166 300.585 268.73 299.748 269.212C299.177 269.542 298.589 269.774 297.984 269.907C297.379 270.041 296.781 270.102 296.19 270.09C295.605 270.076 295.061 270.012 294.559 269.899L294.485 269.941L300.575 273.457L296.965 275.54ZM290.581 267.772C291.191 268.125 291.804 268.384 292.419 268.552C293.039 268.717 293.629 268.782 294.19 268.748C294.751 268.708 295.251 268.562 295.688 268.309C296.131 268.053 296.385 267.765 296.449 267.444C296.508 267.12 296.39 266.782 296.094 266.43C295.804 266.075 295.354 265.721 294.744 265.369C294.134 265.017 293.523 264.758 292.913 264.593C292.308 264.426 291.727 264.361 291.171 264.397C290.62 264.432 290.121 264.578 289.673 264.836C289.23 265.092 288.974 265.379 288.905 265.697C288.836 266.015 288.942 266.352 289.223 266.707C289.508 267.059 289.961 267.414 290.581 267.772ZM310.261 267.865L294.672 258.866L298.244 256.803L300.185 257.924L300.296 257.86C300.099 257.576 299.976 257.263 299.927 256.922C299.883 256.579 299.971 256.226 300.193 255.866C300.414 255.499 300.823 255.144 301.418 254.8C302.205 254.346 303.148 254.041 304.245 253.884C305.347 253.725 306.54 253.772 307.825 254.025C309.109 254.278 310.418 254.789 311.751 255.559C313.036 256.3 313.907 257.039 314.364 257.775C314.827 258.508 314.93 259.198 314.674 259.846C314.423 260.49 313.88 261.054 313.043 261.537C312.472 261.867 311.884 262.098 311.279 262.232C310.674 262.365 310.076 262.426 309.486 262.415C308.9 262.401 308.356 262.337 307.854 262.223L307.78 262.266L313.87 265.781L310.261 267.865ZM303.876 260.097C304.486 260.449 305.099 260.709 305.714 260.877C306.334 261.042 306.924 261.107 307.485 261.073C308.046 261.033 308.546 260.887 308.984 260.634C309.426 260.378 309.68 260.09 309.744 259.769C309.803 259.445 309.685 259.107 309.39 258.755C309.099 258.4 308.649 258.046 308.039 257.694C307.429 257.341 306.818 257.083 306.208 256.918C305.603 256.751 305.022 256.685 304.466 256.722C303.915 256.756 303.416 256.903 302.968 257.161C302.525 257.417 302.269 257.704 302.2 258.022C302.132 258.34 302.237 258.677 302.518 259.032C302.803 259.384 303.256 259.739 303.876 260.097ZM307.797 246.925L322.914 255.652L319.304 257.735L304.188 249.009L307.797 246.925ZM331.669 255.506C331.236 255.756 330.793 255.972 330.341 256.153C329.893 256.338 329.477 256.479 329.093 256.575L327.27 254.602C327.743 254.466 328.131 254.321 328.436 254.168C328.746 254.011 328.948 253.841 329.042 253.656C329.145 253.472 329.113 253.266 328.946 253.038L328.746 252.762L312.966 248.304L316.745 246.123L326.923 249.587L327.041 249.519L321.07 243.626L324.871 241.431L333.02 251.07C333.433 251.547 333.687 252.031 333.78 252.523C333.884 253.014 333.773 253.51 333.448 254.01C333.128 254.507 332.535 255.006 331.669 255.506ZM344.176 243.376L329.887 238.536L333.511 236.444L342.302 239.755L342.398 239.699L336.773 234.56L340.309 232.519L349.203 235.711L349.299 235.655L343.571 230.636L347.195 228.544L355.573 236.797L351.713 239.026L343.335 236.235L343.21 236.307L348.044 241.144L344.176 243.376ZM365.251 231.457C364.065 232.142 362.808 232.598 361.48 232.825C360.151 233.047 358.82 233.039 357.486 232.804C356.153 232.562 354.883 232.093 353.678 231.397C352.507 230.721 351.714 229.997 351.301 229.224C350.883 228.449 350.851 227.678 351.205 226.911C351.554 226.141 352.3 225.426 353.442 224.767C354.249 224.301 355.112 223.948 356.032 223.706C356.952 223.465 357.902 223.345 358.881 223.348C359.861 223.351 360.847 223.483 361.841 223.745C362.83 224.003 363.79 224.401 364.72 224.938L365.62 225.458L355.767 231.146L353.67 229.936L360.166 226.186C359.777 225.967 359.344 225.823 358.867 225.752C358.389 225.681 357.912 225.686 357.435 225.769C356.957 225.845 356.519 225.999 356.121 226.229C355.717 226.462 355.447 226.723 355.309 227.013C355.166 227.3 355.156 227.587 355.279 227.874C355.398 228.158 355.646 228.415 356.025 228.645L358.158 229.876C358.621 230.143 359.118 230.325 359.649 230.422C360.176 230.515 360.702 230.521 361.229 230.439C361.755 230.356 362.25 230.182 362.712 229.915C363.032 229.73 363.278 229.537 363.45 229.335C363.623 229.133 363.716 228.929 363.731 228.722C363.746 228.514 363.674 228.311 363.517 228.112L366.927 226.254C367.532 226.763 367.876 227.311 367.96 227.899C368.044 228.481 367.862 229.078 367.414 229.689C366.961 230.297 366.24 230.886 365.251 231.457ZM372.261 227.163L357.145 218.436L360.754 216.353L366.475 219.655L366.548 219.612C366.352 219.328 366.229 219.016 366.179 218.675C366.135 218.331 366.224 217.979 366.445 217.618C366.667 217.252 367.075 216.897 367.67 216.553C368.458 216.098 369.4 215.793 370.497 215.637C371.6 215.478 372.793 215.525 374.077 215.777C375.361 216.03 376.67 216.542 378.004 217.311C379.288 218.053 380.159 218.791 380.617 219.527C381.079 220.26 381.183 220.95 380.927 221.598C380.676 222.243 380.132 222.807 379.296 223.29C378.725 223.619 378.137 223.851 377.531 223.984C376.926 224.118 376.328 224.179 375.738 224.167C375.152 224.153 374.609 224.089 374.107 223.976L373.996 224.04L375.834 225.101L372.261 227.163ZM370.128 221.849C370.738 222.202 371.351 222.462 371.966 222.629C372.586 222.794 373.177 222.859 373.738 222.825C374.299 222.785 374.798 222.639 375.236 222.386C375.679 222.131 375.932 221.842 375.996 221.521C376.055 221.198 375.937 220.859 375.642 220.507C375.352 220.152 374.901 219.798 374.291 219.446C373.681 219.094 373.071 218.835 372.461 218.671C371.855 218.503 371.275 218.438 370.719 218.475C370.168 218.509 369.668 218.655 369.22 218.914C368.778 219.169 368.522 219.456 368.453 219.774C368.384 220.092 368.49 220.429 368.77 220.784C369.056 221.136 369.508 221.492 370.128 221.849ZM393.41 215.176C392.687 215.593 391.924 215.894 391.122 216.079C390.32 216.258 389.51 216.299 388.694 216.202C387.877 216.1 387.094 215.833 386.346 215.401C385.716 215.038 385.296 214.667 385.084 214.289C384.873 213.911 384.826 213.532 384.944 213.152C385.062 212.771 385.306 212.394 385.675 212.022C386.039 211.647 386.484 211.279 387.011 210.919C387.596 210.512 388.054 210.177 388.383 209.913C388.708 209.646 388.898 209.426 388.952 209.253C389.006 209.074 388.917 208.917 388.686 208.784L388.649 208.763C388.27 208.544 387.847 208.45 387.38 208.481C386.912 208.513 386.457 208.656 386.014 208.912C385.537 209.187 385.256 209.469 385.173 209.755C385.089 210.042 385.19 210.314 385.475 210.569L382.028 212.423C381.438 211.968 381.076 211.467 380.943 210.919C380.811 210.365 380.948 209.791 381.357 209.197C381.765 208.598 382.476 208.006 383.49 207.42C384.213 207.003 384.966 206.668 385.748 206.415C386.526 206.159 387.303 205.994 388.081 205.92C388.853 205.844 389.596 205.869 390.31 205.997C391.028 206.122 391.688 206.358 392.288 206.704L399.994 211.153L396.599 213.113L395.019 212.201L394.93 212.252C395.113 212.59 395.179 212.927 395.13 213.262C395.086 213.595 394.918 213.921 394.628 214.242C394.342 214.561 393.937 214.872 393.41 215.176ZM392.163 213.169C392.551 212.944 392.822 212.697 392.975 212.427C393.132 212.154 393.166 211.885 393.078 211.618C392.984 211.348 392.753 211.106 392.384 210.893L391.306 210.271C391.257 210.362 391.181 210.463 391.078 210.574C390.979 210.682 390.864 210.797 390.731 210.919C390.598 211.041 390.455 211.163 390.303 211.285C390.15 211.407 390.002 211.524 389.86 211.635C389.574 211.862 389.368 212.078 389.24 212.282C389.117 212.484 389.082 212.674 389.136 212.853C389.19 213.027 389.341 213.184 389.587 213.326C389.961 213.542 390.379 213.63 390.841 213.59C391.309 213.548 391.749 213.407 392.163 213.169ZM406.452 212.333L390.864 203.334L394.436 201.272L396.377 202.392L396.488 202.328C396.291 202.044 396.168 201.732 396.119 201.391C396.075 201.047 396.163 200.695 396.385 200.334C396.606 199.968 397.014 199.613 397.61 199.269C398.397 198.814 399.339 198.509 400.437 198.353C401.539 198.194 402.732 198.241 404.017 198.493C405.301 198.746 406.61 199.258 407.943 200.027C409.228 200.769 410.099 201.507 410.556 202.243C411.019 202.976 411.122 203.666 410.866 204.314C410.615 204.959 410.072 205.523 409.235 206.006C408.664 206.335 408.076 206.567 407.471 206.7C406.866 206.834 406.268 206.895 405.677 206.883C405.092 206.869 404.548 206.805 404.046 206.692L403.972 206.734L410.062 210.25L406.452 212.333ZM400.068 204.565C400.678 204.918 401.291 205.178 401.906 205.345C402.526 205.51 403.116 205.575 403.677 205.541C404.238 205.501 404.737 205.355 405.175 205.102C405.618 204.847 405.872 204.558 405.936 204.237C405.995 203.913 405.877 203.575 405.581 203.223C405.291 202.868 404.841 202.514 404.231 202.162C403.62 201.81 403.01 201.551 402.4 201.387C401.795 201.219 401.214 201.154 400.658 201.191C400.107 201.225 399.608 201.371 399.16 201.63C398.717 201.885 398.461 202.172 398.392 202.49C398.323 202.808 398.429 203.145 398.71 203.5C398.995 203.852 399.448 204.208 400.068 204.565ZM419.747 204.658L404.159 195.659L407.731 193.596L409.672 194.717L409.783 194.653C409.586 194.369 409.463 194.057 409.414 193.716C409.37 193.372 409.458 193.02 409.68 192.659C409.901 192.292 410.31 191.937 410.905 191.594C411.692 191.139 412.635 190.834 413.732 190.677C414.834 190.518 416.027 190.565 417.312 190.818C418.596 191.071 419.905 191.582 421.238 192.352C422.523 193.094 423.394 193.832 423.851 194.568C424.314 195.301 424.417 195.991 424.161 196.639C423.91 197.284 423.367 197.847 422.53 198.33C421.959 198.66 421.371 198.891 420.766 199.025C420.161 199.158 419.563 199.22 418.972 199.208C418.387 199.194 417.843 199.13 417.341 199.016L417.267 199.059L423.357 202.574L419.747 204.658ZM413.363 196.89C413.973 197.242 414.586 197.502 415.201 197.67C415.821 197.835 416.411 197.9 416.972 197.866C417.533 197.826 418.033 197.68 418.471 197.427C418.913 197.171 419.167 196.883 419.231 196.562C419.29 196.238 419.172 195.9 418.877 195.548C418.586 195.193 418.136 194.839 417.526 194.487C416.916 194.135 416.305 193.876 415.695 193.711C415.09 193.544 414.509 193.478 413.953 193.515C413.402 193.549 412.903 193.696 412.455 193.954C412.012 194.21 411.756 194.497 411.687 194.815C411.618 195.133 411.724 195.47 412.005 195.825C412.29 196.177 412.743 196.532 413.363 196.89ZM430.814 184.268L427.588 186.232C427.317 186.116 427.015 186.049 426.68 186.032C426.341 186.012 425.996 186.043 425.647 186.126C425.297 186.202 424.963 186.333 424.643 186.518C424.225 186.759 423.952 187.013 423.824 187.28C423.701 187.545 423.784 187.758 424.075 187.92C424.291 188.05 424.572 188.11 424.916 188.098C425.265 188.084 425.728 187.968 426.304 187.749L428.902 186.726C430.25 186.198 431.451 185.92 432.504 185.891C433.562 185.86 434.507 186.082 435.338 186.556C436.111 187.008 436.556 187.532 436.674 188.128C436.797 188.722 436.625 189.338 436.157 189.978C435.685 190.614 434.942 191.225 433.928 191.81C432.309 192.744 430.7 193.29 429.101 193.446C427.502 193.597 426.075 193.386 424.82 192.815L428.297 190.706C428.789 190.899 429.308 190.963 429.854 190.898C430.4 190.833 430.929 190.652 431.441 190.357C431.903 190.09 432.194 189.823 432.312 189.556C432.43 189.289 432.349 189.071 432.068 188.904C431.808 188.759 431.49 188.706 431.116 188.746C430.737 188.783 430.267 188.912 429.706 189.134L427.352 190.059C426.008 190.595 424.781 190.864 423.669 190.864C422.552 190.861 421.563 190.608 420.701 190.105C419.939 189.671 419.493 189.181 419.365 188.635C419.233 188.087 419.4 187.513 419.867 186.914C420.335 186.314 421.08 185.719 422.104 185.128C423.639 184.242 425.172 183.729 426.702 183.59C428.228 183.448 429.598 183.674 430.814 184.268ZM297.743 307.089L282.155 298.09L285.727 296.027L287.668 297.148L287.779 297.084C287.582 296.8 287.459 296.487 287.41 296.146C287.366 295.803 287.454 295.45 287.676 295.09C287.897 294.723 288.306 294.368 288.901 294.024C289.688 293.57 290.631 293.265 291.728 293.108C292.83 292.949 294.023 292.996 295.308 293.249C296.592 293.502 297.901 294.013 299.234 294.783C300.519 295.524 301.39 296.263 301.847 296.999C302.31 297.732 302.413 298.422 302.157 299.07C301.906 299.714 301.363 300.278 300.526 300.761C299.955 301.091 299.367 301.322 298.762 301.456C298.157 301.589 297.559 301.65 296.968 301.639C296.383 301.625 295.839 301.561 295.337 301.447L295.263 301.49L301.353 305.005L297.743 307.089ZM291.359 299.321C291.969 299.673 292.582 299.933 293.197 300.101C293.817 300.266 294.407 300.331 294.968 300.297C295.529 300.257 296.029 300.111 296.467 299.858C296.909 299.602 297.163 299.314 297.227 298.993C297.286 298.669 297.168 298.331 296.873 297.979C296.582 297.624 296.132 297.27 295.522 296.918C294.912 296.565 294.301 296.307 293.691 296.142C293.086 295.975 292.505 295.909 291.949 295.946C291.398 295.98 290.899 296.127 290.451 296.385C290.008 296.641 289.752 296.928 289.683 297.246C289.614 297.564 289.72 297.901 290.001 298.256C290.286 298.608 290.739 298.963 291.359 299.321ZM312.293 294.028C311.103 294.715 309.835 295.165 308.492 295.378C307.149 295.586 305.808 295.57 304.469 295.332C303.131 295.087 301.881 294.63 300.72 293.959C299.554 293.286 298.761 292.565 298.343 291.795C297.925 291.019 297.898 290.245 298.262 289.473C298.626 288.694 299.404 287.961 300.594 287.274C301.785 286.586 303.052 286.139 304.396 285.932C305.739 285.719 307.08 285.734 308.418 285.978C309.757 286.217 311.009 286.673 312.175 287.346C313.337 288.017 314.126 288.74 314.545 289.515C314.963 290.285 314.99 291.059 314.626 291.837C314.262 292.61 313.484 293.34 312.293 294.028ZM309.592 292.443C310.025 292.193 310.259 291.904 310.293 291.578C310.328 291.251 310.187 290.906 309.872 290.542C309.562 290.176 309.097 289.813 308.477 289.455C307.848 289.092 307.215 288.821 306.58 288.642C305.951 288.46 305.353 288.379 304.787 288.399C304.221 288.419 303.722 288.554 303.288 288.804C302.841 289.062 302.595 289.357 302.55 289.69C302.511 290.019 302.646 290.367 302.956 290.734C303.271 291.097 303.744 291.461 304.374 291.825C304.994 292.183 305.618 292.452 306.248 292.634C306.883 292.813 307.486 292.891 308.057 292.869C308.632 292.843 309.144 292.701 309.592 292.443ZM321.531 288.448L307.241 283.607L310.865 281.515L319.656 284.826L319.752 284.77L314.128 279.632L317.663 277.591L326.557 280.782L326.653 280.727L320.926 275.707L324.55 273.615L332.927 281.869L329.067 284.097L320.689 281.306L320.564 281.379L325.398 286.215L321.531 288.448ZM342.606 276.528C341.42 277.213 340.162 277.669 338.834 277.896C337.505 278.118 336.174 278.111 334.841 277.875C333.507 277.633 332.238 277.165 331.032 276.469C329.861 275.793 329.069 275.068 328.655 274.296C328.237 273.52 328.205 272.749 328.559 271.982C328.909 271.212 329.654 270.498 330.796 269.839C331.603 269.373 332.466 269.019 333.387 268.778C334.307 268.536 335.256 268.417 336.236 268.42C337.215 268.422 338.202 268.555 339.196 268.816C340.185 269.074 341.144 269.472 342.074 270.009L342.975 270.529L333.121 276.217L331.025 275.007L337.52 271.257C337.131 271.039 336.698 270.894 336.221 270.823C335.744 270.752 335.266 270.757 334.789 270.84C334.312 270.917 333.874 271.07 333.475 271.3C333.072 271.533 332.801 271.794 332.663 272.084C332.521 272.371 332.511 272.658 332.634 272.945C332.752 273.229 333 273.486 333.379 273.716L335.512 274.948C335.975 275.215 336.472 275.396 337.003 275.493C337.53 275.587 338.056 275.592 338.583 275.51C339.109 275.428 339.604 275.253 340.066 274.986C340.386 274.801 340.632 274.608 340.805 274.406C340.977 274.205 341.07 274 341.085 273.793C341.1 273.585 341.028 273.382 340.871 273.183L344.281 271.326C344.886 271.834 345.231 272.382 345.314 272.97C345.398 273.553 345.216 274.149 344.768 274.76C344.316 275.368 343.595 275.957 342.606 276.528ZM349.616 272.234L338.278 265.689L341.784 263.665L343.851 264.858L343.969 264.79C343.428 264.239 343.209 263.724 343.312 263.243C343.411 262.761 343.77 262.34 344.39 261.982C344.557 261.886 344.742 261.793 344.944 261.705C345.14 261.614 345.337 261.538 345.534 261.475L348.671 263.286C348.44 263.351 348.167 263.455 347.852 263.597C347.542 263.736 347.278 263.868 347.062 263.993C346.634 264.241 346.343 264.519 346.191 264.829C346.038 265.133 346.033 265.439 346.176 265.749C346.319 266.053 346.617 266.336 347.069 266.597L353.225 270.151L349.616 272.234ZM363.289 264.588C362.103 265.272 360.846 265.728 359.517 265.956C358.189 266.177 356.858 266.17 355.524 265.934C354.191 265.693 352.921 265.224 351.716 264.528C350.544 263.852 349.752 263.128 349.339 262.355C348.921 261.579 348.889 260.808 349.243 260.041C349.592 259.271 350.338 258.557 351.479 257.898C352.286 257.432 353.15 257.078 354.07 256.837C354.99 256.595 355.94 256.476 356.919 256.479C357.898 256.482 358.885 256.614 359.879 256.875C360.868 257.134 361.828 257.531 362.758 258.068L363.658 258.588L353.804 264.277L351.708 263.067L358.204 259.317C357.815 259.098 357.382 258.953 356.905 258.882C356.427 258.811 355.95 258.817 355.473 258.899C354.995 258.976 354.557 259.129 354.159 259.359C353.755 259.592 353.485 259.854 353.347 260.143C353.204 260.43 353.194 260.717 353.317 261.004C353.435 261.288 353.684 261.545 354.063 261.775L356.196 263.007C356.658 263.274 357.155 263.456 357.687 263.552C358.213 263.646 358.74 263.652 359.266 263.569C359.793 263.487 360.287 263.312 360.75 263.045C361.07 262.861 361.316 262.667 361.488 262.466C361.66 262.264 361.754 262.06 361.769 261.852C361.783 261.645 361.712 261.442 361.555 261.243L364.965 259.385C365.57 259.894 365.914 260.442 365.998 261.03C366.082 261.612 365.9 262.209 365.452 262.819C364.999 263.427 364.278 264.017 363.289 264.588ZM374.602 257.997C373.766 258.48 372.789 258.794 371.672 258.939C370.555 259.084 369.359 259.024 368.085 258.76C366.811 258.496 365.531 257.993 364.247 257.251C362.913 256.481 362.028 255.726 361.59 254.984C361.152 254.243 361.068 253.555 361.339 252.922C361.614 252.286 362.148 251.739 362.94 251.281C363.536 250.938 364.148 250.703 364.778 250.578C365.403 250.451 366.013 250.399 366.609 250.425C367.204 250.451 367.745 250.522 368.233 250.638L368.306 250.595L362.586 247.293L366.195 245.209L381.312 253.936L377.739 255.999L375.902 254.938L375.791 255.001C375.988 255.291 376.098 255.605 376.123 255.943C376.148 256.281 376.042 256.626 375.806 256.979C375.574 257.328 375.173 257.667 374.602 257.997ZM373.045 255.649C373.483 255.396 373.734 255.109 373.798 254.788C373.857 254.465 373.744 254.124 373.458 253.766C373.173 253.408 372.725 253.053 372.115 252.7C371.495 252.343 370.877 252.083 370.262 251.921C369.652 251.756 369.069 251.695 368.513 251.737C367.962 251.777 367.467 251.923 367.029 252.176C366.582 252.435 366.326 252.725 366.262 253.046C366.198 253.367 366.309 253.703 366.594 254.055C366.884 254.405 367.335 254.756 367.945 255.108C368.555 255.46 369.168 255.72 369.783 255.888C370.398 256.055 370.983 256.124 371.539 256.092C372.095 256.055 372.597 255.908 373.045 255.649ZM388.06 250.04L372.944 241.314L376.553 239.23L382.273 242.532L382.347 242.49C382.15 242.206 382.027 241.893 381.978 241.552C381.934 241.209 382.022 240.856 382.244 240.496C382.465 240.129 382.874 239.774 383.469 239.43C384.256 238.976 385.199 238.67 386.296 238.514C387.398 238.355 388.591 238.402 389.876 238.655C391.16 238.908 392.469 239.419 393.802 240.189C395.087 240.93 395.958 241.669 396.415 242.405C396.878 243.137 396.981 243.828 396.725 244.475C396.474 245.12 395.931 245.684 395.094 246.167C394.523 246.497 393.935 246.728 393.33 246.862C392.725 246.995 392.127 247.056 391.536 247.045C390.951 247.031 390.407 246.967 389.905 246.853L389.795 246.917L391.632 247.978L388.06 250.04ZM385.927 244.727C386.537 245.079 387.15 245.339 387.765 245.507C388.385 245.671 388.975 245.737 389.536 245.703C390.097 245.663 390.597 245.517 391.035 245.264C391.477 245.008 391.731 244.72 391.795 244.399C391.854 244.075 391.736 243.737 391.44 243.385C391.15 243.03 390.7 242.676 390.09 242.324C389.48 241.971 388.869 241.713 388.259 241.548C387.654 241.381 387.073 241.315 386.517 241.352C385.966 241.386 385.467 241.532 385.019 241.791C384.576 242.047 384.32 242.334 384.251 242.652C384.182 242.97 384.288 243.307 384.569 243.662C384.854 244.014 385.307 244.369 385.927 244.727ZM407.448 243.756C407.015 244.006 406.572 244.222 406.12 244.404C405.672 244.589 405.256 244.729 404.872 244.826L403.049 242.853C403.521 242.717 403.91 242.572 404.215 242.418C404.525 242.262 404.727 242.092 404.821 241.907C404.924 241.722 404.892 241.517 404.725 241.289L404.525 241.012L388.745 236.555L392.524 234.374L402.702 237.838L402.82 237.77L396.849 231.877L400.65 229.682L408.799 239.321C409.212 239.798 409.466 240.282 409.559 240.774C409.662 241.265 409.552 241.761 409.227 242.261C408.907 242.758 408.314 243.256 407.448 243.756ZM417.579 221.247C417.185 221.117 416.789 221.03 416.39 220.987C415.987 220.942 415.583 220.939 415.18 220.979C414.776 221.019 414.38 221.102 413.991 221.23C413.598 221.355 413.219 221.523 412.855 221.733C412.122 222.156 411.664 222.625 411.482 223.139C411.305 223.65 411.411 224.186 411.799 224.746C412.183 225.302 412.857 225.859 413.822 226.416C414.791 226.976 415.758 227.372 416.722 227.605C417.687 227.838 418.614 227.904 419.505 227.805C420.396 227.706 421.22 227.437 421.978 227C422.647 226.613 423.105 226.224 423.351 225.832C423.597 225.434 423.639 225.05 423.476 224.677C423.314 224.305 422.959 223.962 422.413 223.646L423.174 223.301L419.498 225.423L416.833 223.885L423.351 220.122L425.351 221.277C426.704 222.058 427.575 222.893 427.964 223.783C428.357 224.669 428.311 225.551 427.824 226.429C427.341 227.304 426.451 228.116 425.152 228.866C423.71 229.698 422.13 230.249 420.413 230.519C418.696 230.789 416.954 230.766 415.187 230.451C413.416 230.133 411.733 229.514 410.139 228.593C408.899 227.877 407.983 227.136 407.393 226.369C406.797 225.599 406.495 224.831 406.485 224.064C406.48 223.294 406.741 222.558 407.267 221.857C407.799 221.152 408.569 220.509 409.578 219.926C410.453 219.421 411.393 219.023 412.397 218.733C413.406 218.441 414.429 218.259 415.468 218.188C416.511 218.114 417.529 218.154 418.523 218.307C419.517 218.46 420.435 218.729 421.277 219.112L417.579 221.247ZM433.771 223.652L418.654 214.925L422.308 212.816L434.457 219.829L440.746 216.199L443.713 217.912L433.771 223.652ZM451.725 204.56C453.388 205.52 454.478 206.518 454.995 207.555C455.512 208.592 455.524 209.599 455.032 210.576C454.545 211.551 453.625 212.429 452.271 213.21C450.913 213.994 449.388 214.525 447.695 214.803C446.003 215.082 444.261 215.073 442.469 214.778C440.678 214.477 438.954 213.847 437.295 212.89C435.632 211.93 434.54 210.933 434.018 209.899C433.501 208.862 433.487 207.856 433.974 206.882C434.461 205.908 435.384 205.028 436.742 204.244C438.095 203.463 439.615 202.932 441.303 202.651C442.996 202.367 444.74 202.374 446.536 202.672C448.332 202.97 450.062 203.6 451.725 204.56ZM447.99 206.716C447.006 206.148 446.034 205.749 445.075 205.518C444.12 205.286 443.208 205.219 442.337 205.318C441.471 205.415 440.673 205.673 439.945 206.094C439.222 206.511 438.774 206.972 438.602 207.474C438.43 207.977 438.543 208.506 438.941 209.059C439.345 209.611 440.039 210.17 441.023 210.738C442.007 211.306 442.976 211.707 443.931 211.94C444.89 212.17 445.806 212.235 446.677 212.136C447.548 212.037 448.345 211.778 449.068 211.36C449.796 210.94 450.244 210.48 450.411 209.98C450.584 209.477 450.468 208.95 450.065 208.399C449.666 207.845 448.975 207.284 447.99 206.716ZM464.29 206.033L444.774 199.846L448.812 197.515L460.998 201.917L461.123 201.844L453.823 194.622L457.115 192.721L469.648 196.948L469.774 196.876L462.134 189.824L466.164 187.497L476.889 198.759L473.368 200.792L461.478 197.072L461.359 197.14L467.803 204.005L464.29 206.033Z" fill="white"/>
</g>
<defs>
<clipPath id="clip0_755_79">
<rect width="584" height="536" fill="white"/>
</clipPath>
</defs>
</svg>
