<svg width="1000" height="128" viewBox="0 0 1000 128" fill="none" xmlns="http://www.w3.org/2000/svg">
<g clip-path="url(#clip0_750_126)">
<rect width="1000" height="128" fill="#371EE1"/>
<g clip-path="url(#clip1_750_126)">
<path d="M1004.3 114.748L1001.41 123.384L997.259 134.19L990.644 145.625L977.33 163.067L966.732 174.393L954.205 185.671L939.967 196.688L924.263 207.235L907.387 217.118L889.646 226.14L871.38 234.126L852.933 240.926L834.651 246.41L816.887 250.479L799.97 253.063L784.214 254.117L761.973 253.338L748.637 251.226L737.318 247.565L728.799 244.245L719.359 238.91L711.927 232.932L704.758 225.995L699.306 218.037L694.791 209.83L691.833 200.547L690.022 191.31L689.846 181.725L690.669 171.825L693.251 162.886L696.452 152.722L702.04 141.909L706.66 135.189L713.976 124.731L723.273 114.061L734.346 103.396L747.004 92.9032L761.032 82.7384L776.205 73.0566L792.281 64.0042L809.006 55.7166L826.126 48.3155L843.382 41.916L860.508 36.615L877.246 32.4957L893.334 29.6229L908.521 28.0544L922.567 27.8218L935.241 28.9455L943.163 29.7941L954.886 32.4102L964.748 36.4401L972.982 40.1889L981.126 45.8168L988.157 52.0589L994.143 59.2277L999.212 67.3567L1002.75 75.9221L1005.29 85.1664L1006.19 94.8637L1006 104.282L1004.28 114.745L1004.3 114.748ZM705.423 225.484L712.481 232.302L719.825 238.213L729.158 243.48L737.601 246.768L748.832 250.408L762.052 252.502L769.928 252.798L784.2 253.277L799.882 252.227L816.732 249.653L834.439 245.601L852.667 240.13L871.069 233.348L889.29 225.381L906.985 216.382L923.819 206.528L939.476 196.009L953.669 185.029L966.147 173.797L976.693 162.525L980.996 156.923L989.946 145.159L996.5 133.827L1000.62 123.098L1003.48 114.545L1005.17 104.206L1005.36 94.8926L1004.47 85.3175L1001.96 76.1945L998.475 67.7396L993.474 59.7155L987.567 52.6357L980.618 46.4693L972.576 40.9116L964.421 37.2057L954.641 33.2054L943.031 30.6203L935.163 29.782L922.539 28.6589L908.573 28.8882L893.452 30.4466L877.422 33.3074L860.737 37.4139L843.659 42.7013L826.448 49.0863L809.368 56.4676L792.679 64.7345L776.645 73.7627L761.514 83.4158L747.529 93.552L734.915 104.007L723.887 114.625L714.64 125.232L707.349 135.653L702.748 142.349L697.228 153.024L694.06 163.111L691.495 171.961L690.687 181.735L690.857 191.208L692.65 200.322L695.567 209.482L700.025 217.581L705.43 225.471L705.423 225.484Z" fill="white"/>
<path d="M916.789 107.221C916.751 107.417 916.58 107.563 916.378 107.561L914.411 107.56L903.435 108.549L891.784 110.513L879.652 113.416L867.234 117.211L854.724 121.836L842.326 127.224L830.232 133.282L818.634 139.919L807.724 147.029L797.679 154.504L788.662 162.218L780.828 170.054L780.114 170.911C779.965 171.089 779.703 171.112 779.523 170.967C779.345 170.818 779.317 170.554 779.471 170.377L780.208 169.492L788.089 161.606L797.151 153.85L807.244 146.343L818.196 139.204L829.835 132.543L841.97 126.465L854.412 121.063L866.967 116.419L879.435 112.605L891.62 109.69L903.329 107.714L914.374 106.72L916.379 106.719C916.609 106.717 916.799 106.906 916.8 107.14C916.799 107.168 916.798 107.195 916.793 107.222L916.789 107.221Z" fill="white"/>
<path d="M925.969 92.6799L925.968 92.6844L925.598 94.4866C925.555 94.7129 925.329 94.8581 925.102 94.8145C924.875 94.7709 924.729 94.5494 924.773 94.323L924.774 94.3186L925.144 92.5164C925.187 92.29 925.413 92.1448 925.64 92.1885C925.866 92.2321 926.013 92.4536 925.969 92.6799Z" fill="white"/>
<path d="M927.53 89.9335C927.525 89.9601 927.519 89.9912 927.504 90.0205L924.647 96.7479L921.554 101.754C921.433 101.952 921.173 102.012 920.975 101.891C920.777 101.771 920.717 101.51 920.838 101.313L923.901 96.3604L926.729 89.6873C926.821 89.4748 927.066 89.3747 927.279 89.4663C927.467 89.5439 927.562 89.7418 927.525 89.9326L927.53 89.9335Z" fill="white"/>
<path d="M924.989 97.3889C924.976 97.4555 924.951 97.5151 924.903 97.5704L918.558 105.495L910.698 113.565L901.467 121.597L891.035 129.453L879.575 136.982L867.295 144.049L854.422 150.519L841.188 156.275L827.836 161.207L814.618 165.231L801.77 168.267L789.531 170.265L778.121 171.19L767.734 171.036C767.505 171.033 767.316 170.84 767.323 170.611C767.327 170.377 767.519 170.193 767.749 170.196L778.094 170.351L789.429 169.431L801.606 167.444L814.396 164.42L827.565 160.414L840.872 155.496L854.061 149.759L866.894 143.309L879.132 136.266L890.55 128.766L900.938 120.947L910.119 112.957L917.928 104.941L924.244 97.0431C924.389 96.8639 924.654 96.8319 924.833 96.9769C924.961 97.0797 925.013 97.2372 924.985 97.3836L924.989 97.3889Z" fill="white"/>
<path d="M853.447 97.866C853.421 97.9992 853.334 98.1204 853.199 98.1728C852.984 98.2603 852.74 98.1627 852.648 97.947L848.823 88.8146L845.404 79.0285L842.65 69.2875L840.737 60.2701L839.808 52.6066L839.917 46.7266L841.128 43.0196L843.356 41.9295C843.565 41.827 843.815 41.9121 843.918 42.1206C844.016 42.3282 843.936 42.5797 843.727 42.6822L841.819 43.6176L840.76 46.8705L840.654 52.567L841.574 60.1322L843.472 69.0823L846.214 78.7702L849.618 88.512L853.43 97.6188C853.465 97.6993 853.472 97.7834 853.458 97.8589L853.447 97.866Z" fill="white"/>
<path d="M853.447 97.866C853.42 98.0036 853.323 98.1275 853.18 98.1782L842.931 101.973L832.792 106.368C832.581 106.461 832.333 106.363 832.24 106.151C832.152 105.937 832.245 105.692 832.457 105.599L842.616 101.194L852.884 97.3939C853.102 97.3117 853.343 97.4226 853.421 97.6401C853.448 97.7144 853.452 97.7933 853.438 97.8643L853.447 97.866Z" fill="white"/>
<path d="M867.521 116.889C867.515 116.924 867.508 116.96 867.488 116.988C867.388 117.199 867.137 117.284 866.93 117.185L864.276 115.919L852.862 120.142L841.023 125.283L835.925 114.124L832.248 106.157C832.15 105.945 832.244 105.696 832.452 105.598C832.664 105.501 832.914 105.595 833.007 105.802L841.442 124.181L852.542 119.363L864.313 115.01L867.288 116.425C867.465 116.51 867.554 116.697 867.518 116.884L867.521 116.889Z" fill="white"/>
<path d="M842.569 126.92C842.544 127.049 842.457 127.166 842.326 127.224C842.115 127.316 841.867 127.218 841.774 127.007L841.027 125.312L830.224 130.716L818.958 137.16L818.276 131.399L816.208 124.598L812.676 116.166L822.502 110.569L832.07 105.792L815.611 70.4614L808.881 56.3646C808.73 56.1883 808.749 55.9249 808.921 55.7739C809.097 55.6237 809.361 55.6422 809.512 55.814L809.689 56.0415L810.92 58.5754L816.37 70.1059L833.17 106.178L822.895 111.307L813.735 116.527L816.995 124.316L819.091 131.229L819.639 135.804L829.822 129.981L841.436 124.166L842.539 126.671C842.574 126.751 842.58 126.84 842.564 126.92L842.569 126.92Z" fill="white"/>
<path d="M819.714 136.564C819.693 136.671 819.632 136.774 819.532 136.838L809.434 143.414L799.391 150.879L800.101 143.987L798.787 136.618L795.536 128.07L804.021 121.805L812.668 116.206L808.338 107.709L803.07 98.8186L797.389 90.4748L791.703 83.2535L786.409 77.6773L781.937 74.1556L778.659 72.8986L776.611 73.7977C776.399 73.8905 776.151 73.792 776.058 73.5808C775.965 73.3696 776.064 73.1216 776.275 73.0288L778.644 71.9935L782.412 73.4599L786.979 77.0643L792.342 82.7091L798.073 89.9807L803.783 98.3712L809.075 107.307L813.764 116.5L804.505 122.497L796.551 128.372L799.598 136.401L800.947 144.017L800.425 149.072L808.957 142.733L819.076 136.142C819.271 136.014 819.532 136.069 819.656 136.263C819.716 136.358 819.737 136.467 819.717 136.569L819.714 136.564Z" fill="white"/>
<path d="M796.572 128.311L788.924 134.797L782.724 140.941L785.631 149.339L786.349 157.432L784.719 164.441C784.666 164.666 784.441 164.807 784.216 164.754C783.991 164.702 783.871 164.49 783.903 164.252L785.499 157.374L784.796 149.469L781.753 140.721L788.352 134.181L795.5 128.114L790.862 119.755L784.788 111.414L777.835 103.93L770.502 97.8229L763.347 93.5639L756.835 91.3712L751.477 91.3982L747.485 93.5893C747.279 93.7016 747.026 93.6254 746.913 93.424C746.801 93.2183 746.877 92.966 747.078 92.8529L751.261 90.5602L756.969 90.5316L763.738 92.8244L770.986 97.1475L778.412 103.327L785.438 110.885L791.574 119.312L796.576 128.316L796.572 128.311Z" fill="white"/>
<path d="M746.392 100.099C746.359 100.273 746.216 100.415 746.029 100.434L739.689 101.179L734.851 104.055C734.653 104.173 734.393 104.109 734.276 103.907C734.157 103.709 734.221 103.45 734.423 103.332L739.503 100.352L745.927 99.5957C746.158 99.571 746.367 99.7309 746.396 99.962C746.402 100.005 746.397 100.05 746.39 100.09L746.392 100.099Z" fill="white"/>
<path d="M746.393 100.1C746.377 100.18 746.339 100.26 746.272 100.321L736.743 109.519C736.573 109.68 736.312 109.676 736.15 109.511C735.988 109.347 735.993 109.081 736.158 108.919L745.687 99.7201C745.856 99.5593 746.118 99.5637 746.28 99.7283C746.38 99.8304 746.417 99.9711 746.393 100.1Z" fill="white"/>
<path d="M782.755 140.878L777.234 147.442L773.115 153.618L770.329 159.406L773.112 168.255L773.154 170.694C773.155 170.929 772.976 171.115 772.74 171.12C772.509 171.126 772.318 170.943 772.313 170.707L772.268 168.332L769.423 159.347L772.383 153.21L776.561 146.944L781.724 140.799L776.817 132.572L770.08 124.803L762.081 118.232L753.396 113.306L744.681 110.403L736.41 109.644C736.179 109.623 736.007 109.419 736.028 109.188C736.058 108.96 736.253 108.785 736.483 108.811L744.849 109.579L753.731 112.546L762.549 117.549L770.66 124.211L777.491 132.09L782.749 140.886L782.755 140.878Z" fill="white"/>
<path d="M736.864 109.294C736.834 109.454 736.711 109.591 736.538 109.627L729.397 111.111L723.82 114.691C723.625 114.814 723.364 114.759 723.24 114.565C723.116 114.371 723.171 114.11 723.366 113.986L729.151 110.308L736.368 108.812C736.594 108.763 736.818 108.912 736.862 109.137C736.874 109.195 736.873 109.25 736.863 109.303L736.864 109.294Z" fill="white"/>
<path d="M780.704 164.239C780.693 164.292 780.674 164.344 780.642 164.393L776.158 171.17L775.53 171.155L775.486 170.76L775.197 162.235L772.383 153.569L767.186 145.341L759.983 138.127L751.249 132.45L741.603 128.687L731.718 127.125L722.457 127.823L718.118 136.313L715.633 144.433L715.075 152.238L705.757 157.372L698.519 164.144L700.094 171.877L704.011 178.785L710.221 184.579L719.03 189.341L714.777 199.703L712.905 210.841L702.948 205.32L695.979 198.657L691.598 190.711L689.825 181.688L692.514 172.199L697.62 163.911L697.605 163.844L697.656 163.794L698.359 155.023L698.368 154.978L701.377 145.399L706.67 135.14L713.625 130.003L721.937 127.055L728.129 118.153L736.132 108.936C736.285 108.763 736.547 108.74 736.725 108.894C736.898 109.047 736.917 109.309 736.767 109.487L728.789 118.671L723.048 126.929L731.802 126.28L741.821 127.864L751.667 131.716L760.541 137.498L767.865 144.851L773.158 153.253L776.026 162.141L776.271 169.461L779.93 163.924C780.059 163.733 780.319 163.677 780.511 163.806C780.658 163.903 780.722 164.072 780.69 164.236L780.704 164.239ZM713.979 199.471L713.996 199.428L717.98 189.719L709.7 185.229L703.322 179.256L699.294 172.109L697.871 165.12L693.267 172.592L690.697 181.727L692.42 190.487L696.695 198.196L703.5 204.676L712.286 209.53L713.98 199.467L713.979 199.471ZM714.811 144.275L717.354 135.996L721.354 128.167L713.976 130.784L707.339 135.706L702.162 145.725L699.201 155.194L698.582 162.955L705.321 156.667L714.284 151.727L714.815 144.28L714.811 144.275Z" fill="white"/>
<path d="M1001.88 96.5377L1001.86 96.5759L997.386 108.096L990.236 120.322L980.522 132.97L968.392 145.82L954.038 158.637L937.709 171.185L919.687 183.219L900.31 194.512L879.936 204.836L858.961 213.995L837.786 221.803L816.82 228.118L796.469 232.817L777.113 235.82L759.119 237.083L742.803 236.593L728.459 234.379L716.316 230.499C716.094 230.429 715.966 230.188 716.044 229.973C716.114 229.752 716.349 229.631 716.571 229.701L728.648 233.569L742.875 235.765L759.095 236.25L777.014 234.996L796.303 232.003L816.601 227.317L837.518 221.019L858.644 213.225L879.578 204.086L899.907 193.781L919.241 182.516L937.221 170.511L953.506 158.001L967.81 145.229L979.887 132.438L989.545 119.867L996.633 107.744L1001.07 96.3262L1002.84 85.744L1001.97 76.2326L996.963 68.1757L990.516 62.2992L991.211 70.631L989.307 81.5005L979.759 75.7956L969.704 72.5294L959.266 71.6152L949.165 73.086L940.117 76.8631L932.676 82.6848C932.491 82.8288 932.23 82.7969 932.086 82.6127C931.942 82.4284 931.975 82.1631 932.158 82.0235L939.741 76.114L948.991 72.2654L959.289 70.7773L969.873 71.7011L969.922 71.7105L980.155 75.0525L988.696 80.1538L990.381 70.5402L989.613 61.5361L980.859 57.0658L970.857 54.8179L960.443 55.0684L950.34 57.7722L941.259 62.7721L933.308 70.162L931.107 64.2007L927.301 59.3481L934.562 51.1625L943.195 45.1331L952.849 41.4359L962.854 40.2964L972.466 41.7927L972.521 41.8171L981.239 45.9029L987.075 52.9415L990.349 60.9644L990.416 61.0003L990.421 61.0703L997.657 67.6833L1002.8 75.9546L1003.69 85.8249L1001.89 96.5455L1001.88 96.5377ZM933.648 68.6854L940.798 62.0573L950.061 56.9684L960.361 54.2241L970.928 53.9708L981.184 56.286L989.187 60.3724L986.309 53.3095L980.644 46.5064L972.215 42.5958L962.776 41.1285L952.994 42.2602L943.541 45.8948L935.08 51.8193L928.386 59.3822L931.866 63.8496L933.652 68.6907L933.648 68.6854Z" fill="white"/>
<path d="M934.218 75.6074L932.825 82.4326C932.782 82.6589 932.556 82.8041 932.329 82.7605C932.103 82.7169 931.977 82.5086 932.001 82.2646L933.373 75.5415L933.055 69.441C933.045 69.2088 933.221 69.0126 933.453 69.0021C933.686 68.9916 933.882 69.1675 933.893 69.3997L934.218 75.6074Z" fill="white"/>
<path d="M933.887 69.5002C933.878 69.549 933.859 69.6006 933.831 69.646L928.519 78.0732L925.732 87.3088L925.979 92.5809C925.985 92.8122 925.813 93.0094 925.577 93.019C925.344 93.0295 925.149 92.8491 925.137 92.6214L924.885 87.2057L927.775 77.6768L933.116 69.1998C933.241 69.003 933.496 68.9462 933.694 69.0672C933.846 69.1609 933.914 69.3351 933.883 69.4993L933.887 69.5002Z" fill="white"/>
<path d="M928.818 83.673C928.818 83.673 928.812 83.704 928.809 83.7218L925.96 92.7292C925.89 92.9504 925.655 93.0709 925.433 93.0006C925.212 92.9304 925.095 92.7007 925.157 92.4733L928.006 83.4659C928.076 83.2447 928.311 83.1242 928.533 83.1945C928.736 83.2613 928.858 83.4688 928.818 83.673Z" fill="white"/>
<path d="M928.818 83.6728L928.817 83.6772L927.529 89.9379C927.485 90.1642 927.259 90.3094 927.033 90.2658C926.806 90.2222 926.644 90.0115 926.705 89.7699L927.993 83.5092C928.036 83.2829 928.262 83.1377 928.489 83.1813C928.716 83.2249 928.862 83.4464 928.818 83.6728Z" fill="white"/>
<path d="M932.821 82.4321C932.81 82.4898 932.786 82.545 932.753 82.594L927.461 90.0999C927.328 90.2906 927.066 90.3367 926.876 90.1989C926.689 90.0663 926.643 89.8043 926.776 89.6136L932.068 82.1076C932.202 81.917 932.464 81.8708 932.654 82.0087C932.792 82.1043 932.856 82.2732 932.826 82.433L932.821 82.4321Z" fill="white"/>
<path d="M932.822 82.4277C932.817 82.4543 932.811 82.4854 932.797 82.5103L929.712 89.7969L924.939 97.527C924.818 97.7247 924.558 97.785 924.36 97.6641C924.162 97.5431 924.106 97.2838 924.223 97.0853L928.966 89.4138L932.021 82.186C932.112 81.9735 932.357 81.8733 932.57 81.9649C932.758 82.0425 932.853 82.2404 932.817 82.4313L932.822 82.4277Z" fill="white"/>
<path d="M978.223 103.537L968.514 116.015L956.426 128.694L948.194 121.01L939.637 115.229L931.055 111.464L922.991 109.898L916.055 110.652L910.603 113.649C910.398 113.761 910.145 113.685 910.032 113.483C909.918 113.282 909.996 113.025 910.197 112.912L915.877 109.826L923.083 109.059L931.345 110.677L940.035 114.5L948.71 120.359L956.39 127.518L967.877 115.469L977.03 103.703L968.675 97.5884L959.138 93.1422L949.301 90.8523L939.89 90.8679L931.565 93.1915L924.808 97.6582C924.613 97.7863 924.356 97.7322 924.227 97.5417C924.099 97.3467 924.153 97.0901 924.343 96.9611L931.274 92.4036L939.831 90.0279L949.397 90.0148L959.454 92.3652L969.099 96.8735L978.222 103.542L978.223 103.537Z" fill="white"/>
<path d="M999.996 125.957L999.974 126.022L997.267 134.173C997.192 134.393 996.957 134.514 996.736 134.439C996.516 134.364 996.391 134.129 996.47 133.909L999.155 125.823L999.191 117.047L996.603 108.116L991.525 99.6495L984.32 92.2322L975.459 86.4019L965.577 82.5521L955.359 80.9715L944.779 81.7931L948.641 72.5526L950.2 64.6225L949.754 57.4618L947.348 51.1757L943.043 45.8266L936.904 41.4825L929.257 38.2978L922.159 44.6552L916.348 53.014C916.215 53.2047 915.953 53.2508 915.766 53.1183C915.575 52.9849 915.528 52.7272 915.662 52.5366L921.564 44.0618L929.091 37.3176L937.351 40.7674L943.661 45.2505L948.109 50.8113L950.592 57.3469L951.036 64.7283L949.434 72.8342L946.085 80.8478L955.442 80.1314L965.799 81.7341L975.885 85.6738L984.891 91.6103L992.221 99.1712L997.397 107.823L1000.03 116.984L999.997 125.953L999.996 125.957Z" fill="white"/>
<path d="M925.662 94.1814C925.624 94.3767 925.453 94.5233 925.246 94.5203C925.016 94.5175 924.827 94.3291 924.831 94.0951L924.89 87.3262L923.236 82.7316L920.05 78.5829L922.6 68.3764L927.297 59.4855L922.44 55.9727L915.845 53.161C915.633 53.0694 915.532 52.8246 915.624 52.612C915.716 52.3995 915.961 52.2994 916.173 52.391L922.895 55.2639L928.377 59.2332L923.367 68.7221L920.962 78.3904L924.004 82.3822L925.728 87.2574L925.668 94.0998C925.663 94.1264 925.663 94.1495 925.658 94.1761L925.662 94.1814Z" fill="white"/>
<path d="M925.144 95.5546C925.116 95.6966 925.019 95.8205 924.871 95.8703C924.653 95.9481 924.413 95.8328 924.335 95.6152L923.207 92.4521C923.129 92.2346 923.24 91.9936 923.462 91.9167C923.68 91.8389 923.92 91.9542 923.998 92.1718L925.126 95.3349C925.153 95.4091 925.157 95.4836 925.144 95.5546Z" fill="white"/>
<path d="M925.009 95.874C924.98 96.0249 924.867 96.1551 924.711 96.1987C924.487 96.2615 924.254 96.1337 924.191 95.9098L923.198 92.4276C923.136 92.2037 923.263 91.9705 923.487 91.9078C923.711 91.8451 923.945 91.9729 924.008 92.1967L925 95.679C925.02 95.7427 925.021 95.8118 925.009 95.874Z" fill="white"/>
<path d="M922.767 99.7417C922.746 99.8526 922.681 99.9506 922.58 100.019C922.386 100.142 922.125 100.083 922.001 99.8889L918.728 94.6833L915.982 85.3766C915.914 85.1563 916.042 84.9232 916.267 84.856C916.486 84.7924 916.725 84.9166 916.788 85.1404L919.518 94.3888L922.71 99.4407C922.77 99.5351 922.786 99.644 922.766 99.7461L922.767 99.7417Z" fill="white"/>
<path d="M924.012 92.3909C923.993 92.4886 923.938 92.5794 923.852 92.6456C923.668 92.7852 923.404 92.748 923.264 92.5646L920.332 88.7227L916.13 85.5892C915.945 85.4522 915.904 85.1865 916.045 85.002C916.182 84.8167 916.447 84.7802 916.633 84.9172L920.964 88.1677L923.929 92.0528C924.003 92.1498 924.029 92.2747 924.008 92.3856L924.012 92.3909Z" fill="white"/>
<path d="M924.011 92.395C923.973 92.5903 923.802 92.7369 923.6 92.7348C923.369 92.7364 923.179 92.548 923.179 92.3131L923.184 82.4729L923.195 82.4152L925.894 72.7529C925.956 72.5299 926.188 72.3997 926.411 72.4611C926.634 72.5225 926.769 72.7556 926.703 72.9777L924.024 82.584L924.018 92.309C924.017 92.3365 924.016 92.364 924.011 92.3906L924.011 92.395Z" fill="white"/>
<path d="M1004.44 105.638L1004.42 105.676L1000 117.135L992.937 129.289L983.329 141.86L971.331 154.625L957.128 167.352L940.969 179.804L923.131 191.744L903.952 202.942L883.784 213.177L863.015 222.251L842.048 229.979L821.285 236.223L801.125 240.862L781.949 243.817L764.114 245.042L747.941 244.529L733.715 242.301L721.588 238.387L711.902 232.918L706.38 224.794L703.369 215.477L696.307 208.677L691.815 200.521L691.811 200.419L691.601 190.578L694.149 180.933L692.459 172.386L693.244 162.853L698.505 154.789L705.96 148.371L715.138 143.938L725.421 141.812L736.044 142.099L746.421 144.842L755.862 149.859L755.583 155.591L756.727 160.369L764.149 166.617C764.327 166.766 764.35 167.033 764.201 167.207C764.051 167.385 763.784 167.408 763.61 167.259L755.978 160.837L754.74 155.613L754.997 150.355L746.07 145.612L735.924 142.941L725.446 142.659L715.364 144.755L706.38 149.11L699.103 155.392L694.068 163.14L693.303 172.402L695.013 180.966L692.446 190.686L692.653 200.305L697.016 208.224L704.105 215.025L707.163 224.484L712.484 232.289L721.962 237.639L733.908 241.491L748.018 243.696L764.096 244.205L781.851 242.984L800.961 240.039L821.063 235.412L841.774 229.181L862.696 221.466L883.42 212.412L903.542 202.2L922.68 191.026L940.471 179.114L956.585 166.7L970.738 154.018L982.684 141.312L992.235 128.817L999.245 116.768L1003.62 105.412L1005.35 94.9184L1002.86 85.9096L997.801 77.7042L990.54 70.8839L981.544 65.9482L971.45 63.2177L960.945 62.9166L950.76 65.0386L941.612 69.4592L934.112 75.8451L928.054 84.8652L927.719 77.9697L925.912 72.9958C925.834 72.7783 925.945 72.5373 926.163 72.4595C926.38 72.3817 926.622 72.4926 926.699 72.7102L928.554 77.8637L928.771 82.292L933.528 75.2401L941.204 68.7271L950.548 64.2245L960.928 62.071L971.58 62.3773L981.913 65.1814L991.085 70.2294L998.495 77.2073L1003.67 85.6185L1006.2 94.9541L1004.44 105.62L1004.44 105.638Z" fill="white"/>
<path d="M996.741 88.1148L996.724 88.153L992.255 99.5459L985.13 111.643L975.46 124.156L963.397 136.872L949.129 149.559L932.902 161.984L914.998 173.906L895.756 185.097L875.527 195.334L854.705 204.42L833.687 212.176L812.88 218.453L792.686 223.131L773.481 226.136L755.631 227.417L739.45 226.967L725.225 224.808L713.107 220.965L703.322 215.505L702.823 204.988L704.929 194.815L698.391 188.622L694.095 180.95L699.403 171.735L706.854 164.138L716.03 158.453L726.314 155.098L736.987 154.266L747.218 156.015C747.446 156.055 747.602 156.273 747.563 156.501C747.545 156.713 747.305 156.884 747.077 156.844L736.894 155.105L726.425 155.929L716.335 159.234L707.335 164.825L700.034 172.285L695.052 180.955L699.084 188.157L705.836 194.53L703.657 205.056L704.129 215.002L713.469 220.211L725.405 223.991L739.514 226.133L755.604 226.579L773.379 225.302L792.517 222.307L812.654 217.641L833.412 211.377L854.385 203.641L875.162 194.573L895.345 184.359L914.545 173.193L932.406 161.304L948.584 148.915L962.804 136.27L974.815 123.608L984.424 111.171L991.488 99.1772L995.914 87.8866L997.698 77.4266L996.856 67.9939L993.468 59.7467L986.421 53.4462L977.691 49.2337L967.911 47.4106L957.741 48.1408L947.885 51.3527L939.035 56.8571L931.793 64.25L926.34 73.6214L922.664 68.8814L918.468 65.8134L916.468 75.2466L916.818 85.9194L910.758 83.2475L904.271 81.6672L896.787 80.8892L888.436 80.9337L879.36 81.7962L869.71 83.4597L859.645 85.8947L849.332 89.0646L838.935 92.9133L828.626 97.3819L818.561 102.399L808.913 107.884L799.837 113.75L791.479 119.901L783.98 126.237L777.473 132.657L772.068 139.055L767.863 145.316L764.94 151.335L763.365 156.952L763.136 162.141L764.284 166.85C764.337 167.077 764.197 167.303 763.974 167.357C763.748 167.41 763.521 167.269 763.467 167.047L762.297 162.164L762.534 156.819L764.158 151.042L767.136 144.904L771.395 138.553L776.854 132.091L783.412 125.621L790.956 119.244L799.357 113.059L808.475 107.169L818.164 101.66L828.27 96.6229L838.624 92.1354L849.067 88.2678L859.428 85.0842L869.542 82.6356L879.253 80.961L888.399 80.0935L896.839 80.0475L904.422 80.8355L911.036 82.4495L915.946 84.6099L915.639 75.17L917.93 64.3704L923.306 68.3237L926.255 72.1229L931.171 63.7021L938.563 56.1725L947.589 50.5728L957.642 47.3117L968.024 46.5809L977.969 48.4357L986.953 52.7891L994.188 59.2594L997.705 67.8674L998.549 77.5261L996.739 88.1237L996.741 88.1148Z" fill="white"/>
<path d="M980.336 75.5247L976.044 86.1875L969.284 97.4661L960.149 109.139L948.781 120.999L935.358 132.831L920.113 144.419L903.312 155.541L885.268 165.987L866.312 175.548L846.81 184.046L827.13 191.314L807.65 197.211L788.744 201.631L770.765 204.494L754.047 205.759L738.887 205.413L725.555 203.472L714.183 199.962L704.842 194.858L709.655 184.669L716.16 176.512L710.46 171.231L706.662 164.585L705.091 157L705.726 148.68L705.735 148.632L708.513 139.707L713.39 130.216L720.235 120.408L728.913 110.442L739.258 100.475L751.094 90.6618L764.216 81.1514L778.418 72.0926L793.466 63.6156L809.131 55.8559L825.166 48.9269L841.325 42.9332L857.359 37.9696L873.023 34.1131L888.076 31.4276L902.28 29.9644L915.409 29.7533L927.247 30.8128L937.599 33.1372L946.169 36.67L955.552 35.222L964.758 36.433L972.657 41.9261L978.226 48.6785L981.412 56.6337L982.118 65.6489L980.334 75.5335L980.336 75.5247ZM714.547 199.199L725.736 202.651L738.957 204.57L754.025 204.912L770.668 203.656L788.586 200.8L807.438 196.397L826.87 190.513L846.505 183.265L865.962 174.785L884.872 165.243L902.874 154.821L919.633 143.728L934.83 132.177L948.202 120.39L959.518 108.589L968.596 96.9931L975.3 85.8142L979.529 75.291L981.285 65.5439L980.582 56.7548L977.473 49.0445L972.049 42.4995L964.447 37.2339L955.502 36.0548L947.213 37.3541L953.213 41.5796L958.063 47.5675L960.792 54.6155L961.321 62.5886L959.651 71.312L959.634 71.3502L955.768 80.7096L949.713 90.6508L941.571 100.922L931.478 111.352L919.588 121.754L906.111 131.932L891.284 141.704L875.374 150.88L858.672 159.287L841.496 166.76L824.167 173.16L807.016 178.369L790.363 182.288L774.519 184.849L759.775 186.01L746.388 185.762L734.598 184.118L724.593 181.119L716.842 176.989L710.338 185.141L705.936 194.489L714.543 199.193L714.547 199.199ZM716.978 176.117L724.91 180.356L734.777 183.305L746.456 184.932L759.751 185.177L774.421 184.019L790.203 181.465L806.804 177.559L823.905 172.364L841.186 165.978L858.317 158.524L874.973 150.14L890.841 140.988L905.626 131.245L919.056 121.099L930.895 110.743L940.936 100.367L949.018 90.1673L955.017 80.3301L958.836 71.0677L960.48 62.4819L959.954 54.7349L957.301 47.9363L952.595 42.1557L946.068 37.5803L937.325 41.4758L929.403 47.7343L923.003 55.8279L918.406 65.6312L911.923 62.8364L904.652 61.1189L896.269 60.2966L886.918 60.3881L876.761 61.3876L865.962 63.2764L854.704 66.0203L843.17 69.5764L831.542 73.8832L820.002 78.8791L808.739 84.4758L797.932 90.5933L787.759 97.1318L778.382 103.985L769.96 111.045L762.64 118.197L756.541 125.322L751.784 132.3L748.451 139.01L746.632 145.279L746.318 151.073L747.55 156.328C747.603 156.554 747.463 156.78 747.236 156.834C747.009 156.887 746.783 156.746 746.73 156.52L745.472 151.09L745.792 145.14L745.802 145.091L747.667 138.707L751.054 131.879L755.87 124.815L762.017 117.626L769.389 110.424L777.86 103.323L787.28 96.4366L797.495 89.8738L808.338 83.7358L819.642 78.1192L831.221 73.108L842.894 68.7823L854.477 65.2125L865.784 62.4549L876.64 60.5542L886.867 59.5498L896.302 59.456L904.789 60.2891L912.187 62.0402L917.99 64.5384L922.312 55.3451L928.843 47.1017L936.934 40.7286L945.048 37.1122L937.34 33.9298L927.112 31.6382L915.372 30.5887L902.321 30.8009L888.183 32.2584L873.184 34.9311L857.568 38.7739L841.578 43.723L825.464 49.6978L809.469 56.6115L793.844 64.3514L778.838 72.8041L764.678 81.8387L751.598 91.3204L739.806 101.096L729.511 111.018L720.887 120.925L714.099 130.647L709.276 140.024L706.543 148.838L705.92 157.003L707.455 164.346L711.137 170.753L716.954 176.118L716.978 176.117Z" fill="white"/>
<path d="M941.8 69.1504L941.79 69.2037L940.305 76.5818L936.937 84.6009L931.744 93.0281L924.8 101.721L916.219 110.537L906.14 119.316L894.733 127.905L882.202 136.139L868.767 143.873L854.678 150.956L840.192 157.258L825.581 162.656L811.115 167.057L797.061 170.376L783.676 172.559L771.204 173.568L759.868 173.393L749.859 172.041L741.342 169.545L734.371 165.888L729.226 161.219L725.929 155.608L724.519 149.197L724.985 142.161L727.282 134.561L731.361 126.509L737.12 118.181L744.45 109.71L753.21 101.228L763.25 92.869L774.402 84.7651L786.482 77.0377L799.294 69.8105L812.638 63.192L826.302 57.2841L840.074 52.1795L853.741 47.9568L867.086 44.6849L879.902 42.4158L891.982 41.1927L903.133 41.0381L913.171 41.9719L921.933 43.9857L929.343 47.1108L935.109 51.259L939.165 56.3944L941.41 62.4193L941.792 69.1673L941.8 69.1504ZM734.904 165.226L741.668 168.765L750.046 171.216L759.943 172.551L771.192 172.723L783.589 171.722L796.911 169.551L810.908 166.243L825.325 161.857L839.892 156.472L854.333 150.189L868.381 143.126L881.774 135.417L894.264 127.207L905.622 118.655L915.652 109.916L924.181 101.155L931.069 92.5346L936.202 84.2062L939.516 76.3241L940.961 69.081L940.592 62.5057L938.42 56.725L934.507 51.8014L928.907 47.7956L921.688 44.7578L913.049 42.7768L903.109 41.8573L892.037 42.0087L880.022 43.2261L867.263 45.4877L853.97 48.7512L840.352 52.9603L826.625 58.0504L813.001 63.943L799.697 70.5416L786.925 77.7491L774.884 85.447L763.774 93.5222L753.778 101.844L745.068 110.28L737.791 118.693L732.089 126.939L728.065 134.873L725.826 142.313L725.373 149.191L726.742 155.36L729.923 160.732L734.9 165.221L734.904 165.226Z" fill="white"/>
<path d="M921.791 101.316C921.785 101.347 921.779 101.379 921.76 101.407C921.664 101.619 921.415 101.714 921.208 101.618L918.493 100.405L912.004 98.7877L904.522 97.9777L896.172 97.9903L887.102 98.8218L877.465 100.465L867.418 102.88L857.122 106.035L846.749 109.875L836.464 114.339L826.432 119.353L816.815 124.843L807.77 130.715L799.447 136.878L791.981 143.234L785.506 149.679L780.133 156.101L775.959 162.391L773.062 168.443L772.436 170.739C772.374 170.962 772.142 171.092 771.919 171.031C771.696 170.97 771.543 170.733 771.627 170.514L772.276 168.145L775.224 161.973L779.452 155.593L784.879 149.107L791.405 142.612L798.916 136.214L807.282 130.018L816.37 124.118L826.027 118.608L836.1 113.573L846.43 109.09L856.847 105.236L867.187 102.067L877.288 99.6389L886.985 97.9893L896.126 97.1485L904.559 97.138L912.145 97.9587L918.761 99.6099L921.545 100.85C921.727 100.931 921.823 101.125 921.787 101.311L921.791 101.316Z" fill="white"/>
<path d="M873.544 92.3545C873.518 92.4921 873.42 92.616 873.281 92.6675C873.063 92.7497 872.822 92.6389 872.738 92.4249L869.251 83.1872L866.761 73.1013L865.479 62.9164L865.481 53.3333L866.782 44.9715L866.8 44.9288L869.335 38.3881L872.879 34.1683L877.21 32.5164C877.424 32.4334 877.671 32.5407 877.753 32.7591C877.835 32.9775 877.725 33.2185 877.511 33.3015L873.383 34.8775L870.024 38.8753L867.602 45.1891L866.321 53.3983L866.322 62.867L867.591 72.9527L870.059 82.9422L873.532 92.1312C873.559 92.2055 873.567 92.2852 873.553 92.3562L873.544 92.3545Z" fill="white"/>
<path d="M873.544 92.3546C873.514 92.51 873.396 92.6438 873.232 92.6857L863.304 95.0781L853.158 98.1928C852.938 98.2608 852.699 98.1366 852.636 97.9172C852.563 97.6961 852.691 97.4629 852.911 97.3949L863.08 94.2756L873.033 91.8742C873.26 91.8212 873.486 91.9614 873.54 92.1836C873.557 92.242 873.554 92.3058 873.543 92.3591L873.544 92.3546Z" fill="white"/>
<path d="M892.125 110.178C892.081 110.405 891.864 110.552 891.637 110.512L887.035 109.695L875.888 112.364L864.159 115.952L860.537 111.959L856.653 105.862L852.66 97.9816C852.557 97.7776 852.638 97.5217 852.847 97.4191C853.051 97.3158 853.307 97.3973 853.41 97.6058L857.382 105.45L861.202 111.451L864.422 114.994L875.666 111.557L887.095 108.856L891.786 109.69C892.013 109.733 892.165 109.947 892.126 110.174L892.125 110.178Z" fill="white"/>
<path d="M777.664 117.881C777.65 117.957 777.613 118.028 777.56 118.087C777.403 118.254 777.135 118.262 776.967 118.106L769.414 111.031L761.645 105.706L753.903 113.233L747.095 121.146L737.427 118.838L728.543 118.822L720.778 121.033L714.573 125.315C714.381 125.449 714.119 125.398 713.99 125.208C713.856 125.016 713.907 124.754 714.098 124.625L720.483 120.244L728.489 117.978L737.529 117.997L746.796 120.21L753.299 112.656L761.559 104.621L769.945 110.379L777.545 117.495C777.654 117.598 777.695 117.744 777.669 117.882L777.664 117.881Z" fill="white"/>
<path d="M770.334 159.306L768.466 166.04L762.63 157.155L754.953 150.25L756.646 144.33L747.914 139.219L738.322 136.134L736.404 142.601L736.001 149.336L725.013 149.646L715.18 152.287L716.561 158.707L719.994 164.592L725.394 169.517L732.745 173.4C732.95 173.508 733.03 173.763 732.922 173.968C732.813 174.172 732.558 174.252 732.353 174.143L724.871 170.176L719.302 165.076L715.753 158.956L714.19 151.691L724.938 148.817L735.208 148.525L735.57 142.459L735.579 142.41L737.76 135.078L748.296 138.478L756.967 143.549L759.877 137.619L764.354 130.997L770.084 124.256L776.958 117.506C777.123 117.344 777.39 117.345 777.552 117.51C777.713 117.675 777.713 117.941 777.548 118.103L770.698 124.826L765.023 131.498L760.604 138.035L757.656 144.036L764.923 150.918L770.338 159.307L770.334 159.306ZM768.152 164.032L769.422 159.448L764.242 151.417L757.35 144.907L755.904 149.978L763.303 156.654L768.152 164.037L768.152 164.032Z" fill="white"/>
<path d="M912.454 119.114C912.435 119.212 912.381 119.303 912.294 119.369L899.873 128.729L886.19 137.726C885.995 137.855 885.738 137.801 885.61 137.606C885.481 137.411 885.536 137.15 885.731 137.026L899.392 128.043L911.788 118.696C911.971 118.556 912.236 118.594 912.376 118.777C912.449 118.874 912.476 118.999 912.455 119.11L912.454 119.114Z" fill="white"/>
<path d="M912.453 119.114C912.416 119.309 912.245 119.456 912.038 119.453L905.964 119.416L901.376 121.663C901.167 121.765 900.916 121.68 900.814 121.471C900.716 121.264 900.801 121.013 901.005 120.91L905.771 118.578L912.043 118.616C912.272 118.619 912.462 118.807 912.459 119.037C912.458 119.064 912.458 119.092 912.453 119.114Z" fill="white"/>
<path d="M927.588 126.102C927.569 126.199 927.514 126.29 927.428 126.356L913.021 137.272L897.129 147.768C896.933 147.896 896.677 147.842 896.547 147.652C896.419 147.457 896.474 147.196 896.664 147.071L912.534 136.594L926.92 125.692C927.104 125.553 927.368 125.59 927.508 125.773C927.581 125.87 927.608 125.995 927.587 126.106L927.588 126.102Z" fill="white"/>
<path d="M927.587 126.102C927.579 126.146 927.561 126.193 927.539 126.235C927.422 126.433 927.165 126.503 926.966 126.387L919.143 121.82L911.913 119.434C911.692 119.359 911.572 119.124 911.646 118.904C911.721 118.683 911.956 118.563 912.177 118.637L919.526 121.074L927.386 125.662C927.544 125.753 927.62 125.933 927.587 126.106L927.587 126.102Z" fill="white"/>
<path d="M932.73 99.9658C932.716 100.041 932.678 100.117 932.62 100.179L923.306 109.765L912.321 119.351C912.144 119.501 911.88 119.487 911.729 119.311C911.578 119.139 911.593 118.87 911.769 118.72L922.732 109.157L932.023 99.5949C932.184 99.428 932.452 99.4243 932.619 99.5854C932.724 99.6884 932.765 99.8299 932.739 99.9675L932.73 99.9658Z" fill="white"/>
<path d="M932.731 99.9613C932.699 100.125 932.572 100.258 932.4 100.293L924.631 101.854L918.452 105.594C918.254 105.713 917.994 105.649 917.876 105.451C917.757 105.253 917.821 104.994 918.019 104.876L924.395 101.045L932.236 99.4701C932.461 99.4259 932.686 99.5706 932.73 99.7999C932.741 99.8575 932.741 99.908 932.731 99.9613Z" fill="white"/>
<path d="M957.311 181.261L942.128 193.003L925.599 204.1L924.427 207.05C924.34 207.263 924.099 207.369 923.88 207.285C923.666 207.198 923.556 206.96 923.644 206.738L924.914 203.544L925.02 203.472L941.633 192.319L956.534 180.799L957.508 174.781L956.437 167.136L953.362 158.461L948.479 149.438L942.137 140.673L934.767 132.791L926.902 126.338C926.723 126.188 926.695 125.925 926.845 125.747C926.99 125.568 927.258 125.541 927.436 125.691L935.341 132.179L942.783 140.139L949.187 148.99L954.124 158.116L957.257 166.968L958.34 174.84L957.305 181.246L957.311 181.261Z" fill="white"/>
<path d="M951.037 103.799C951.023 103.874 950.985 103.95 950.928 104.008L940.168 115.17L927.45 126.337C927.273 126.492 927.009 126.473 926.859 126.297C926.708 126.121 926.722 125.857 926.899 125.706L939.593 114.567L950.326 103.427C950.487 103.26 950.75 103.256 950.917 103.417C951.022 103.52 951.063 103.666 951.037 103.799Z" fill="white"/>
<path d="M951.037 103.799C951.037 103.799 951.031 103.835 951.027 103.852C950.957 104.074 950.717 104.193 950.497 104.118L941.16 101.073L932.284 100.299C932.053 100.277 931.88 100.074 931.901 99.8432C931.914 99.6109 932.127 99.4401 932.357 99.4615L941.328 100.245L950.757 103.317C950.961 103.384 951.078 103.59 951.038 103.795L951.037 103.799Z" fill="white"/>
<path d="M945.849 81.4052C945.84 81.454 945.822 81.5011 945.794 81.5465L940.196 90.669L932.649 100.148C932.504 100.327 932.24 100.359 932.06 100.214C931.881 100.069 931.849 99.8054 931.994 99.6262L939.51 90.1871L945.081 81.1101C945.202 80.9124 945.463 80.8521 945.656 80.9722C945.809 81.0659 945.881 81.241 945.848 81.4096L945.849 81.4052Z" fill="white"/>
<path d="M945.849 81.4049C945.822 81.5469 945.725 81.6709 945.577 81.7207L936.753 84.8136L929.629 89.9416L924.607 96.8366C924.47 97.022 924.209 97.0637 924.022 96.9311C923.837 96.7941 923.795 96.5329 923.932 96.3476L929.088 89.308L936.425 84.0509L945.307 80.9415C945.525 80.8638 945.766 80.9791 945.843 81.2011C945.87 81.2753 945.874 81.3498 945.86 81.4208L945.849 81.4049Z" fill="white"/>
<path d="M983.816 150.005L981.711 157.397L970.464 169.414L957.246 181.309L954.282 185.603C954.149 185.794 953.891 185.841 953.699 185.712C953.508 185.579 953.461 185.321 953.59 185.129L956.646 180.719L969.88 168.813L980.964 156.968L982.979 149.903L982.586 141.676L979.811 132.879L974.771 124.097L967.872 116.021L959.559 109.191L950.427 104.073C950.227 103.961 950.152 103.707 950.265 103.503C950.378 103.299 950.635 103.229 950.835 103.341L960.028 108.499L968.458 115.42L975.454 123.612L980.597 132.579L983.421 141.574L983.819 149.991L983.816 150.005Z" fill="white"/>
<path d="M970.19 72.2317L966.081 82.3038L959.639 92.9578L950.957 103.977C950.811 104.161 950.548 104.188 950.368 104.048C950.187 103.907 950.152 103.638 950.297 103.459L958.948 92.4796L965.329 81.9243L969.375 71.9875L971.087 62.7842L970.47 54.4811L967.575 47.194L962.486 41.0083L955.288 35.9952L946.086 32.2213L935.211 29.796L927.369 31.6188L919.937 35.9785L913.47 42.6231L908.419 51.0821L905.163 60.7891L903.915 71.053L904.789 81.1547L907.693 90.3859L912.432 98.0971L918.691 103.827C918.863 103.984 918.872 104.248 918.715 104.421C918.557 104.593 918.293 104.602 918.121 104.444L911.744 98.5859L906.902 90.6893L903.951 81.2741L903.069 70.996L904.333 60.6017L907.665 50.6885L912.826 42.0709L919.454 35.278L927.106 30.8086L935.198 28.9282L935.292 28.9461L946.329 31.4164L955.722 35.2732L963.088 40.4199L968.321 46.8129L971.29 54.3397L971.909 62.8688L970.171 72.2097L970.19 72.2317Z" fill="white"/>
<path d="M918.825 104.23C918.784 104.443 918.585 104.589 918.369 104.566L910.343 103.683L904.215 97.776L899.656 90.2054L891.63 90.2299C891.4 90.2315 891.21 90.0431 891.208 89.8126C891.202 89.5813 891.395 89.3929 891.626 89.3913L900.13 89.367L904.905 97.3013L910.718 102.885L918.459 103.74C918.689 103.766 918.856 103.974 918.83 104.203C918.828 104.217 918.826 104.225 918.823 104.239L918.825 104.23Z" fill="white"/>
<path d="M917.501 106.489C917.487 106.564 917.449 106.64 917.391 106.702L917.143 106.958L907.876 106.951L901.454 103.574L895.815 97.784L891.265 90.0218C891.146 89.8241 891.215 89.5656 891.417 89.4481C891.619 89.3305 891.873 89.3979 891.991 89.6001L896.517 97.3207L902.013 102.945L908.087 106.117L916.793 106.122C916.954 105.955 917.222 105.952 917.389 106.113C917.494 106.216 917.536 106.357 917.509 106.495L917.501 106.489Z" fill="white"/>
<path d="M917.501 106.489C917.494 106.524 917.487 106.56 917.468 106.588C917.368 106.799 917.121 106.885 916.91 106.784L910.433 103.696L901.753 103.696L892.066 104.574L886.701 98.6067L882.289 90.8436L878.927 81.5058L876.88 71.3209L876.303 60.9866L877.166 51.7671L865.974 53.7367L854.129 56.6345L855.032 65.5633L857.102 75.8446L845.926 79.2856L835.052 83.314L824.265 87.9899L813.738 93.2313C813.529 93.3338 813.278 93.2487 813.175 93.0446C813.072 92.8362 813.157 92.5856 813.362 92.4822L823.909 87.2309L834.74 82.5405L845.659 78.4976L856.129 75.2752L854.2 65.6977L853.219 56.0036L865.799 52.925L878.103 50.7552L877.142 61.01L877.714 71.2238L879.738 81.2891L883.055 90.5031L887.418 98.1602L892.417 103.707L901.725 102.862L910.631 102.86L917.277 106.026C917.454 106.111 917.542 106.299 917.506 106.485L917.501 106.489Z" fill="white"/>
<path d="M830.45 132.988C830.412 133.183 830.242 133.325 830.039 133.328C829.808 133.329 829.619 133.141 829.617 132.91L829.612 130.401L828.344 125.715L825.858 119.128L822.33 111.107L818 102.204L813.177 93.0589C813.069 92.854 813.15 92.5981 813.35 92.4938C813.555 92.386 813.808 92.4623 813.92 92.668L818.749 101.828L823.093 110.756L826.637 118.813L829.145 125.459L830.456 130.347L830.46 132.912C830.459 132.939 830.459 132.967 830.454 132.993L830.45 132.988Z" fill="white"/>
<path d="M854.991 121.528C854.977 121.599 854.945 121.671 854.888 121.729C854.73 121.902 854.465 121.915 854.297 121.758L852.362 119.987L849.648 115.92L846.243 109.681L842.409 101.762L838.408 92.6828L834.515 83.0863L831.008 73.6422L828.271 65.4374L816.169 70.6748L803.633 76.8966L799.165 70.4069L795.74 66.2076L793.595 64.4506L792.631 64.7667C792.41 64.8392 792.175 64.7203 792.102 64.4992C792.03 64.2781 792.148 64.0432 792.37 63.9707L793.772 63.5088L796.337 65.6183L799.838 69.9057L803.913 75.8228L815.818 69.9122L828.784 64.3026L831.808 73.3636L835.306 82.7829L839.189 92.3591L843.181 101.413L846.998 109.301L850.376 115.489L853.04 119.482L854.868 121.137C854.982 121.237 855.027 121.388 855.001 121.526L854.991 121.528Z" fill="white"/>
<path d="M769.433 82.2432C769.391 82.4607 769.183 82.6093 768.958 82.5799L764.538 81.9221L761.475 83.4498C761.266 83.5523 761.016 83.4672 760.912 83.2632C760.809 83.0547 760.89 82.8032 761.099 82.7007L764.397 81.0526L769.082 81.7475C769.31 81.7822 769.467 81.9965 769.437 82.2254L769.433 82.2432Z" fill="white"/>
<path d="M769.433 82.2432C769.414 82.3453 769.358 82.4406 769.268 82.5015L757.15 91.2939L746.253 100.344C746.073 100.494 745.811 100.466 745.66 100.29C745.511 100.109 745.538 99.8478 745.714 99.6976L756.632 90.6326L768.772 81.8259C768.959 81.6916 769.223 81.7332 769.357 81.9202C769.431 82.0172 769.449 82.1359 769.428 82.2468L769.433 82.2432Z" fill="white"/>
<path d="M813.96 92.9378C813.938 93.0532 813.867 93.1592 813.753 93.2248L803.637 98.9641L793.812 105.294L787.214 97.045L780.926 90.6284L771.017 97.8485L761.663 105.659L753.375 101.927L745.9 100.433C745.673 100.389 745.527 100.168 745.571 99.9413C745.614 99.7149 745.837 99.5644 746.067 99.6133L753.677 101.148L761.528 104.685L770.499 97.1917L781.013 89.5267L787.836 96.4928L793.989 104.182L803.193 98.2527L813.33 92.5034C813.531 92.3903 813.79 92.4585 813.903 92.6599C813.955 92.7482 813.967 92.8518 813.95 92.945L813.96 92.9378Z" fill="white"/>
<path d="M813.96 92.9378C813.938 93.0532 813.867 93.1592 813.757 93.2256C813.556 93.3387 813.297 93.2705 813.184 93.0691L808.199 84.3118L803.629 76.9186L792.241 83.3522L780.948 90.5865L774.396 85.4217L768.83 82.5318C768.625 82.4233 768.548 82.1738 768.652 81.9683C768.761 81.7637 769.016 81.6839 769.221 81.7923L774.852 84.727L781.002 89.5613L791.813 82.6345L803.92 75.7916L808.926 83.8856L813.918 92.6535C813.97 92.7462 813.983 92.8454 813.965 92.9386L813.96 92.9378Z" fill="white"/>
<path d="M854.083 56.6347L841.27 60.589L828.242 65.418L826.069 57.7775L825.075 52.9415L810.713 59.1478L796.244 66.3184L782.348 74.1472L769.243 82.5148C769.049 82.6385 768.787 82.5836 768.663 82.3895C768.54 82.1953 768.599 81.9351 768.793 81.8114L781.92 73.4295L795.857 65.5765L810.367 58.386L825.03 52.0491L825.896 48.6025C825.953 48.3787 826.182 48.2432 826.406 48.3002C826.63 48.3571 826.763 48.576 826.709 48.8096L825.984 51.6851L840.188 46.4197L855.727 41.6138L854.279 48.4421L854.086 56.6445L854.083 56.6347ZM828.799 64.3193L840.998 59.8002L853.258 56.0155L853.446 48.3415L854.607 42.8344L840.455 47.2121L825.864 52.6239L826.88 57.5838L828.799 64.3237L828.799 64.3193Z" fill="white"/>
<path d="M879.965 113.084C879.965 113.084 879.961 113.106 879.958 113.12C879.897 113.343 879.664 113.473 879.441 113.411L875.519 112.274L871.521 108.844L860.971 112.074L850.143 116.079L839.41 120.742L828.938 125.981L818.901 131.717L809.648 137.733L809.618 143.154L807.869 146.854C807.768 147.065 807.521 147.151 807.31 147.055C807.099 146.954 807.013 146.703 807.109 146.496L808.78 142.96L808.803 138.339L800.768 144.3L792.388 151.455L791.3 143.011L788.259 134.618L783.349 126.115L776.669 117.74L784.86 110.847L794.012 104.135L799.959 113.161L804.64 121.942L807.936 130.209L809.494 136.787L809.655 136.666L809.658 136.727L818.468 130.998L828.547 125.238L839.059 119.98L849.837 115.302L860.71 111.278L871.725 107.907L875.999 111.575L879.671 112.604C879.885 112.664 880.01 112.876 879.97 113.085L879.965 113.084ZM793.027 149.81L800.25 143.643L808.759 137.327L807.133 130.455L803.878 122.288L799.237 113.583L793.796 105.332L785.379 111.504L777.831 117.853L784.039 125.645L789.013 134.266L792.127 142.857L793.023 149.81L793.027 149.81Z" fill="white"/>
<path d="M921.269 102.04C921.255 102.111 921.224 102.179 921.171 102.237C921.018 102.41 920.752 102.428 920.579 102.275L918.316 100.247L913.368 92.3023L910.519 82.8837L909.941 72.6504L911.691 62.3449L915.437 53.0821L907.942 51.3308L898.233 50.4052L902.82 41.18L908.55 34.3154L915.313 29.7715L922.475 27.8454C922.698 27.7871 922.93 27.9193 922.989 28.1423C923.052 28.3661 922.916 28.5931 922.692 28.6559L915.598 30.563L909.068 34.9766L903.498 41.6787L899.528 49.6878L908.078 50.5054L916.583 52.4881L912.504 62.5706L910.781 72.7429L911.358 82.7874L914.157 92.0077L919 99.7572L921.14 101.656C921.255 101.756 921.299 101.908 921.272 102.05L921.269 102.04Z" fill="white"/>
<path d="M861.051 37.0968C861.026 37.2299 860.939 37.3467 860.803 37.4035L857.771 38.7022L855.523 42.4352C855.402 42.6328 855.145 42.6984 854.947 42.5775C854.749 42.4565 854.688 42.2008 854.804 42.0023L857.189 38.0379L860.472 36.6355C860.684 36.5427 860.932 36.6411 861.024 36.8568C861.059 36.9372 861.066 37.0213 861.05 37.1012L861.051 37.0968Z" fill="white"/>
<path d="M893.824 30.1178C893.797 30.2598 893.695 30.3829 893.546 30.4371L888.372 32.2075L883.758 36.5758L869.724 39.0706L855.265 42.6251C855.038 42.6781 854.811 42.5423 854.757 42.3202C854.703 42.0981 854.84 41.8666 855.062 41.8127L869.545 38.2536L883.36 35.7949L888.012 31.4476L893.274 29.6483C893.496 29.5713 893.731 29.6902 893.809 29.9078C893.833 29.9768 893.837 30.0512 893.823 30.1222L893.824 30.1178Z" fill="white"/>
<path d="M955.219 32.9026C955.178 33.1157 954.979 33.266 954.759 33.2374L946.267 32.2608L937.646 33.9428L929.234 38.2518L919.585 36.0581L908.745 35.0758L896.681 35.2572L883.827 36.5753L880.366 42.97L878.199 50.783L888.64 49.7415L899.418 49.6117L896.717 59.9824L896.028 70.2848L897.257 80.4089L900.209 89.3915L907.359 90.156L913.868 91.7635L919.383 94.2247L923.57 97.3646C923.755 97.5016 923.792 97.7664 923.655 97.9517C923.518 98.1371 923.253 98.1735 923.067 98.0365L918.921 94.9274L913.599 92.5589L907.218 90.9849L899.584 90.1734L896.448 80.5937L895.203 70.3101L895.904 59.8489L898.341 50.4677L888.7 50.5815L877.074 51.7447L879.614 42.6181L883.305 35.7936L896.638 34.4295L908.781 34.2449L919.72 35.2371L929.127 37.3704L937.433 33.1375L946.304 31.4254L954.858 32.4096C955.088 32.4355 955.256 32.6426 955.229 32.8768C955.227 32.8857 955.225 32.899 955.223 32.9079L955.219 32.9026Z" fill="white"/>
<path d="M923.729 97.7818C923.7 97.9327 923.593 98.0594 923.432 98.1066C923.212 98.1702 922.979 98.0424 922.911 97.8177L920.213 88.4327L920.086 78.7051L915.844 75.5683L910.187 73.0984L903.401 71.4697L895.569 70.6799L886.831 70.7466L877.335 71.6617L867.24 73.4143L857.144 75.8664L859.955 85.3606L863.597 94.513L867.7 102.277L871.799 107.904L882.049 105.444L892.33 103.704L897.958 107.039L903.454 107.71C903.683 107.741 903.846 107.947 903.82 108.177C903.802 108.417 903.584 108.569 903.354 108.543L897.683 107.847L892.166 104.58L882.218 106.264L871.452 108.845L866.993 102.716L862.839 94.8596L859.166 85.6321L856.09 75.2586L867.071 72.5902L877.224 70.8256L886.787 69.9003L895.608 69.8356L903.539 70.6354L910.452 72.2978L916.303 74.8559L920.917 78.2666L921.052 88.355L923.718 97.5771C923.737 97.6453 923.738 97.71 923.726 97.7721L923.729 97.7818Z" fill="white"/>
<path d="M993.132 137.796C993.12 137.858 993.095 137.918 993.053 137.969L983.726 150.208L972.119 162.593L970.491 169.373L966.766 174.359C966.629 174.544 966.364 174.581 966.179 174.444C965.993 174.307 965.957 174.042 966.094 173.856L969.764 168.938L971.019 163.587L958.208 175.095L941.94 187.66L940.295 179.55L937.058 170.996L932.275 161.84L926.079 152.408L942.225 140.091L956.459 127.49L963.421 136.315L968.451 145.32L971.441 154.292L972.07 161.41L983.086 149.657L992.388 137.45C992.53 137.266 992.795 137.229 992.979 137.371C993.112 137.47 993.164 137.632 993.135 137.783L993.132 137.796ZM942.497 186.179L957.676 174.459L971.301 162.219L970.613 154.427L967.692 145.671L962.731 136.79L956.356 128.718L942.762 140.752L927.215 152.612L932.999 161.427L937.823 170.664L941.102 179.328L942.497 186.179Z" fill="white"/>
<path d="M908.982 28.5575C908.954 28.704 908.847 28.8307 908.694 28.8796L902.527 30.7624L896.991 35.1328L892.405 41.7943L889.083 50.3147L887.334 60.0449L887.248 70.3298L888.857 80.4441L892.027 89.676C892.104 89.898 891.985 90.1329 891.768 90.2107C891.551 90.284 891.311 90.1687 891.233 89.9511L888.044 80.6466L886.411 70.3942L886.496 59.971L888.273 50.0944L891.677 41.3641L896.413 34.5198L902.202 29.9864L908.447 28.0817C908.668 28.0137 908.902 28.137 908.969 28.3617C908.988 28.4299 908.993 28.4998 908.981 28.562L908.982 28.5575Z" fill="white"/>
<path d="M892.041 89.8901C892.007 90.0677 891.86 90.2097 891.667 90.2279L882.698 91.0648L873.203 92.6891C872.975 92.728 872.755 92.5752 872.721 92.3476C872.677 92.1183 872.835 91.9 873.063 91.8612L882.591 90.2296L891.594 89.3897C891.823 89.3695 892.031 89.5383 892.051 89.7677C892.052 89.8094 892.054 89.8466 892.046 89.8866L892.041 89.8901Z" fill="white"/>
<path d="M914.822 107.22C914.782 107.429 914.587 107.58 914.37 107.557L907.936 106.949L897.845 107.864L886.922 109.711L881.812 106.122L877.074 100.321L872.76 92.4798C872.647 92.2785 872.724 92.0217 872.925 91.9086C873.127 91.7955 873.384 91.8726 873.497 92.0739L877.768 99.8514L882.426 105.545L887.12 108.824L897.738 107.034L907.935 106.115L914.447 106.725C914.678 106.746 914.846 106.949 914.825 107.179C914.823 107.193 914.82 107.206 914.817 107.219L914.822 107.22Z" fill="white"/>
<path d="M927.062 152.592C927.044 152.685 926.995 152.772 926.913 152.84C926.733 152.984 926.467 152.956 926.322 152.776L919.532 144.348L912.465 137.238L905.605 131.931L899.491 128.798L894.54 128.001L890.946 129.509C890.731 129.597 890.487 129.499 890.395 129.284C890.307 129.073 890.405 128.825 890.621 128.733L894.436 127.13L899.757 127.988L906.055 131.222L913.021 136.604L920.157 143.783L926.977 152.244C927.059 152.343 927.086 152.468 927.063 152.588L927.062 152.592Z" fill="white"/>
<path d="M793.12 150.717C793.104 150.797 793.067 150.872 793.004 150.934L786.223 157.702L779.934 165.246L779.4 155.91L776.533 147.349L771.397 138.995L764.398 131.511L755.988 125.395L747.092 121.21L742.073 128.516L738.297 136.047L727.711 135.109L717.873 136.529L709.146 140.197L702.107 145.82L697.212 153.081C697.083 153.272 696.82 153.323 696.628 153.194C696.437 153.065 696.385 152.806 696.515 152.61L701.534 145.204L708.771 139.444L717.705 135.705L727.739 134.267L737.804 135.16L741.353 128.092L746.807 120.152L756.42 124.682L764.959 130.892L772.069 138.498L777.324 147.045L780.247 155.815L780.663 163.085L785.617 157.144L792.426 150.349C792.591 150.187 792.853 150.187 793.02 150.348C793.12 150.45 793.162 150.592 793.137 150.725L793.12 150.717Z" fill="white"/>
<path d="M1004.3 114.759L999.971 126.04L993.085 137.925C992.968 138.123 992.711 138.193 992.512 138.077C992.309 137.959 992.243 137.703 992.36 137.504L999.216 125.678L1003.47 114.598L1003.61 105.586L1001.08 96.5965L996.003 88.2627L989.152 81.5628L984.984 92.0607L977.991 103.833C977.874 104.032 977.613 104.096 977.415 103.98C977.216 103.863 977.151 103.602 977.267 103.404L984.231 91.6902L988.839 80.0801L996.694 87.7835L1001.88 96.3116L1004.45 105.535L1004.3 114.759Z" fill="white"/>
<path d="M993.132 137.796C993.096 137.987 992.929 138.134 992.726 138.136C992.494 138.143 992.305 137.954 992.299 137.723L992.153 129.147L989.483 120.283L984.423 111.677L977.313 103.905C977.158 103.733 977.172 103.468 977.34 103.312C977.513 103.156 977.778 103.166 977.934 103.339L985.125 111.214L990.271 119.993L992.987 129.077L993.134 137.713C993.134 137.741 993.132 137.773 993.127 137.799L993.132 137.796Z" fill="white"/>
</g>
</g>
<defs>
<clipPath id="clip0_750_126">
<rect width="1000" height="128" fill="white"/>
</clipPath>
<clipPath id="clip1_750_126">
<rect width="254.211" height="297.189" fill="white" transform="translate(678 237.626) rotate(-79.1021)"/>
</clipPath>
</defs>
</svg>
