<svg width="420" height="240" viewBox="0 0 420 240" fill="none" xmlns="http://www.w3.org/2000/svg">
<g clip-path="url(#clip0_762_11160)">
<rect width="420" height="240" fill="#EAF1FE"/>
<path d="M336.476 60.6997L148 182.091L338.133 308.8L524.931 184.997L336.476 60.6997Z" fill="#EAF1FE" stroke="#391CE1" stroke-opacity="0.4" stroke-miterlimit="10"/>
<path d="M148 182.091V188.089L338.116 315.641V308.8L148 182.091Z" fill="#F8FBFF" stroke="#391CE1" stroke-opacity="0.4" stroke-miterlimit="10"/>
<path d="M524.931 184.983V190.981L338.189 315.641V308.8L524.931 184.983Z" fill="#D5E3FE" stroke="#391CE1" stroke-opacity="0.4" stroke-miterlimit="10"/>
<path d="M347.158 93.5085C347.158 95.6253 345.278 97.487 342.437 98.5541C340.835 99.156 338.929 99.5052 336.883 99.5052C334.837 99.5052 332.929 99.156 331.327 98.5541C328.487 97.487 326.606 95.6253 326.606 93.5085C326.606 90.1959 331.207 87.5107 336.883 87.5107C342.558 87.5107 347.158 90.1959 347.158 93.5085Z" fill="#F8FBFF" stroke="#391CE1" stroke-opacity="0.4" stroke-miterlimit="10"/>
<path d="M347.158 93.5088V103.599C347.158 106.911 342.558 109.596 336.883 109.596C331.207 109.596 326.606 106.911 326.606 103.599V93.5088C326.606 95.6256 328.487 97.4872 331.327 98.5543C332.929 99.1563 334.837 99.5054 336.883 99.5054C338.929 99.5054 340.835 99.1563 342.437 98.5543C345.278 97.4872 347.158 95.6256 347.158 93.5088Z" fill="#D5E3FE" stroke="#391CE1" stroke-opacity="0.4" stroke-miterlimit="10"/>
<path d="M347.042 60.9978C347.042 63.1146 345.162 64.9762 342.321 66.0433C340.719 66.6453 338.812 66.9944 336.766 66.9944C334.72 66.9944 332.812 66.6453 331.21 66.0433C328.371 64.9762 326.49 63.1146 326.49 60.9978C326.49 57.6851 331.091 55 336.766 55C342.442 55 347.042 57.6851 347.042 60.9978Z" fill="#F8FBFF" stroke="#391CE1" stroke-opacity="0.4" stroke-miterlimit="10"/>
<path d="M347.042 60.998V71.0879C347.042 74.4006 342.442 77.0857 336.766 77.0857C331.091 77.0857 326.49 74.4006 326.49 71.0879V60.998C326.49 63.1148 328.371 64.9765 331.21 66.0436C332.812 66.6456 334.72 66.9947 336.766 66.9947C338.812 66.9947 340.719 66.6456 342.321 66.0436C345.162 64.9765 347.042 63.1148 347.042 60.998Z" fill="#D5E3FE" stroke="#391CE1" stroke-opacity="0.4" stroke-miterlimit="10"/>
<path d="M371.309 77.2434C371.309 79.3602 369.429 81.2218 366.589 82.2889C364.987 82.8909 363.08 83.24 361.034 83.24C358.988 83.24 357.08 82.8909 355.478 82.2889C352.639 81.2218 350.757 79.3602 350.757 77.2434C350.757 73.9308 355.359 71.2456 361.034 71.2456C366.709 71.2456 371.309 73.9308 371.309 77.2434Z" fill="#F8FBFF" stroke="#391CE1" stroke-opacity="0.4" stroke-miterlimit="10"/>
<path d="M371.309 77.2437V87.3335C371.309 90.6462 366.709 93.3313 361.034 93.3313C355.359 93.3313 350.757 90.6462 350.757 87.3335V77.2437C350.757 79.3605 352.639 81.2221 355.478 82.2892C357.08 82.8912 358.988 83.2403 361.034 83.2403C363.08 83.2403 364.987 82.8912 366.589 82.2892C369.429 81.2221 371.309 79.3605 371.309 77.2437Z" fill="#D5E3FE" stroke="#391CE1" stroke-opacity="0.4" stroke-miterlimit="10"/>
<path d="M322.953 77.2434C322.953 79.3602 321.073 81.2218 318.233 82.2889C316.631 82.8909 314.724 83.24 312.678 83.24C310.632 83.24 308.724 82.8909 307.122 82.2889C304.283 81.2218 302.401 79.3602 302.401 77.2434C302.401 73.9308 307.003 71.2456 312.678 71.2456C318.353 71.2456 322.953 73.9308 322.953 77.2434Z" fill="#F8FBFF" stroke="#391CE1" stroke-opacity="0.4" stroke-miterlimit="10"/>
<path d="M322.953 77.2437V87.3335C322.953 90.6462 318.353 93.3313 312.678 93.3313C307.003 93.3313 302.401 90.6462 302.401 87.3335V77.2437C302.401 79.3605 304.283 81.2221 307.122 82.2892C308.724 82.8912 310.632 83.2403 312.678 83.2403C314.724 83.2403 316.631 82.8912 318.233 82.2892C321.073 81.2221 322.953 79.3605 322.953 77.2437Z" fill="#D5E3FE" stroke="#391CE1" stroke-opacity="0.4" stroke-miterlimit="10"/>
<path d="M395.514 126C395.514 128.117 393.634 129.978 390.794 131.045C389.192 131.647 387.285 131.996 385.239 131.996C383.193 131.996 381.285 131.647 379.683 131.045C376.844 129.978 374.962 128.117 374.962 126C374.962 122.687 379.564 120.002 385.239 120.002C390.914 120.002 395.514 122.687 395.514 126Z" fill="#F8FBFF" stroke="#391CE1" stroke-opacity="0.4" stroke-miterlimit="10"/>
<path d="M395.514 126V136.089C395.514 139.402 390.914 142.087 385.239 142.087C379.564 142.087 374.962 139.402 374.962 136.089V126C374.962 128.116 376.844 129.978 379.683 131.045C381.285 131.647 383.193 131.996 385.239 131.996C387.285 131.996 389.192 131.647 390.794 131.045C393.634 129.978 395.514 128.116 395.514 126Z" fill="#D5E3FE" stroke="#391CE1" stroke-opacity="0.4" stroke-miterlimit="10"/>
<path d="M395.399 93.489C395.399 95.6058 393.519 97.4674 390.678 98.5345C389.076 99.1365 387.169 99.4856 385.123 99.4856C383.077 99.4856 381.169 99.1365 379.567 98.5345C376.728 97.4674 374.847 95.6058 374.847 93.489C374.847 90.1764 379.448 87.4912 385.123 87.4912C390.799 87.4912 395.399 90.1764 395.399 93.489Z" fill="#F8FBFF" stroke="#391CE1" stroke-opacity="0.4" stroke-miterlimit="10"/>
<path d="M395.399 93.4893V103.579C395.399 106.892 390.799 109.577 385.123 109.577C379.448 109.577 374.847 106.892 374.847 103.579V93.4893C374.847 95.6061 376.728 97.4677 379.567 98.5348C381.169 99.1368 383.077 99.4859 385.123 99.4859C387.169 99.4859 389.076 99.1368 390.678 98.5348C393.519 97.4677 395.399 95.6061 395.399 93.4893Z" fill="#D5E3FE" stroke="#391CE1" stroke-opacity="0.4" stroke-miterlimit="10"/>
<path d="M419.666 109.735C419.666 111.851 417.786 113.713 414.945 114.78C413.343 115.382 411.436 115.731 409.39 115.731C407.344 115.731 405.436 115.382 403.835 114.78C400.995 113.713 399.114 111.851 399.114 109.735C399.114 106.422 403.715 103.737 409.39 103.737C415.066 103.737 419.666 106.422 419.666 109.735Z" fill="#F8FBFF" stroke="#391CE1" stroke-opacity="0.4" stroke-miterlimit="10"/>
<path d="M419.666 109.734V119.824C419.666 123.137 415.066 125.822 409.39 125.822C403.715 125.822 399.114 123.137 399.114 119.824V109.734C399.114 111.851 400.995 113.713 403.835 114.78C405.436 115.382 407.344 115.731 409.39 115.731C411.436 115.731 413.343 115.382 414.945 114.78C417.786 113.713 419.666 111.851 419.666 109.734Z" fill="#D5E3FE" stroke="#391CE1" stroke-opacity="0.4" stroke-miterlimit="10"/>
<path d="M371.309 109.735C371.309 111.851 369.429 113.713 366.589 114.78C364.987 115.382 363.08 115.731 361.034 115.731C358.988 115.731 357.08 115.382 355.478 114.78C352.639 113.713 350.757 111.851 350.757 109.735C350.757 106.422 355.359 103.737 361.034 103.737C366.709 103.737 371.309 106.422 371.309 109.735Z" fill="#F8FBFF" stroke="#391CE1" stroke-opacity="0.4" stroke-miterlimit="10"/>
<path d="M371.309 109.734V119.824C371.309 123.137 366.709 125.822 361.034 125.822C355.359 125.822 350.757 123.137 350.757 119.824V109.734C350.757 111.851 352.639 113.713 355.478 114.78C357.08 115.382 358.988 115.731 361.034 115.731C363.08 115.731 364.987 115.382 366.589 114.78C369.429 113.713 371.309 111.851 371.309 109.734Z" fill="#D5E3FE" stroke="#391CE1" stroke-opacity="0.4" stroke-miterlimit="10"/>
<path d="M419.666 142.225C419.666 144.342 417.786 146.203 414.945 147.27C413.343 147.872 411.436 148.221 409.39 148.221C407.344 148.221 405.436 147.872 403.835 147.27C400.995 146.203 399.114 144.342 399.114 142.225C399.114 138.912 403.715 136.227 409.39 136.227C415.066 136.227 419.666 138.912 419.666 142.225Z" fill="#F8FBFF" stroke="#391CE1" stroke-opacity="0.4" stroke-miterlimit="10"/>
<path d="M419.666 142.225V152.315C419.666 155.628 415.066 158.313 409.39 158.313C403.715 158.313 399.114 155.628 399.114 152.315V142.225C399.114 144.342 400.995 146.204 403.835 147.271C405.436 147.873 407.344 148.222 409.39 148.222C411.436 148.222 413.343 147.873 414.945 147.271C417.786 146.204 419.666 144.342 419.666 142.225Z" fill="#D5E3FE" stroke="#391CE1" stroke-opacity="0.4" stroke-miterlimit="10"/>
<path d="M298.854 126.013C298.854 128.13 296.974 129.992 294.134 131.059C292.532 131.661 290.625 132.01 288.579 132.01C286.533 132.01 284.625 131.661 283.023 131.059C280.184 129.992 278.302 128.13 278.302 126.013C278.302 122.701 282.904 120.016 288.579 120.016C294.254 120.016 298.854 122.701 298.854 126.013Z" fill="#F8FBFF" stroke="#391CE1" stroke-opacity="0.4" stroke-miterlimit="10"/>
<path d="M298.854 126.014V136.104C298.854 139.416 294.254 142.101 288.579 142.101C282.904 142.101 278.302 139.416 278.302 136.104V126.014C278.302 128.13 280.184 129.992 283.023 131.059C284.625 131.661 286.533 132.01 288.579 132.01C290.625 132.01 292.532 131.661 294.134 131.059C296.974 129.992 298.854 128.13 298.854 126.014Z" fill="#D5E3FE" stroke="#391CE1" stroke-opacity="0.4" stroke-miterlimit="10"/>
<path d="M298.738 93.5027C298.738 95.6195 296.858 97.4811 294.017 98.5482C292.416 99.1502 290.509 99.4993 288.463 99.4993C286.417 99.4993 284.509 99.1502 282.907 98.5482C280.067 97.4811 278.186 95.6195 278.186 93.5027C278.186 90.19 282.787 87.5049 288.463 87.5049C294.138 87.5049 298.738 90.19 298.738 93.5027Z" fill="#F8FBFF" stroke="#391CE1" stroke-opacity="0.4" stroke-miterlimit="10"/>
<path d="M298.738 93.5029V103.593C298.738 106.905 294.138 109.591 288.463 109.591C282.787 109.591 278.186 106.905 278.186 103.593V93.5029C278.186 95.6197 280.067 97.4814 282.907 98.5485C284.509 99.1504 286.417 99.4996 288.463 99.4996C290.509 99.4996 292.416 99.1504 294.017 98.5485C296.858 97.4814 298.738 95.6197 298.738 93.5029Z" fill="#D5E3FE" stroke="#391CE1" stroke-opacity="0.4" stroke-miterlimit="10"/>
<path d="M323.007 109.748C323.007 111.865 321.126 113.727 318.286 114.794C316.684 115.396 314.777 115.745 312.731 115.745C310.685 115.745 308.777 115.396 307.175 114.794C304.336 113.727 302.455 111.865 302.455 109.748C302.455 106.436 307.056 103.75 312.731 103.75C318.407 103.75 323.007 106.436 323.007 109.748Z" fill="#F8FBFF" stroke="#391CE1" stroke-opacity="0.4" stroke-miterlimit="10"/>
<path d="M323.007 109.749V119.838C323.007 123.151 318.407 125.836 312.731 125.836C307.056 125.836 302.455 123.151 302.455 119.838V109.749C302.455 111.865 304.336 113.727 307.175 114.794C308.777 115.396 310.685 115.745 312.731 115.745C314.777 115.745 316.684 115.396 318.286 114.794C321.126 113.727 323.007 111.865 323.007 109.749Z" fill="#D5E3FE" stroke="#391CE1" stroke-opacity="0.4" stroke-miterlimit="10"/>
<path d="M274.65 109.748C274.65 111.865 272.77 113.727 269.929 114.794C268.327 115.396 266.42 115.745 264.374 115.745C262.328 115.745 260.42 115.396 258.818 114.794C255.979 113.727 254.098 111.865 254.098 109.748C254.098 106.436 258.699 103.75 264.374 103.75C270.05 103.75 274.65 106.436 274.65 109.748Z" fill="#F8FBFF" stroke="#391CE1" stroke-opacity="0.4" stroke-miterlimit="10"/>
<path d="M274.65 109.749V119.838C274.65 123.151 270.05 125.836 264.374 125.836C258.699 125.836 254.098 123.151 254.098 119.838V109.749C254.098 111.865 255.979 113.727 258.818 114.794C260.42 115.396 262.328 115.745 264.374 115.745C266.42 115.745 268.327 115.396 269.929 114.794C272.77 113.727 274.65 111.865 274.65 109.749Z" fill="#D5E3FE" stroke="#391CE1" stroke-opacity="0.4" stroke-miterlimit="10"/>
<path d="M347.211 158.504C347.211 160.621 345.331 162.483 342.491 163.55C340.889 164.152 338.982 164.501 336.936 164.501C334.89 164.501 332.982 164.152 331.38 163.55C328.541 162.483 326.659 160.621 326.659 158.504C326.659 155.191 331.26 152.506 336.936 152.506C342.611 152.506 347.211 155.191 347.211 158.504Z" fill="#F8FBFF" stroke="#391CE1" stroke-opacity="0.4" stroke-miterlimit="10"/>
<path d="M347.211 158.504V168.594C347.211 171.906 342.611 174.592 336.936 174.592C331.26 174.592 326.659 171.906 326.659 168.594V158.504C326.659 160.621 328.541 162.482 331.38 163.549C332.982 164.151 334.89 164.501 336.936 164.501C338.982 164.501 340.889 164.151 342.491 163.549C345.331 162.482 347.211 160.621 347.211 158.504Z" fill="#D5E3FE" stroke="#391CE1" stroke-opacity="0.4" stroke-miterlimit="10"/>
<path d="M347.096 125.994C347.096 128.111 345.215 129.972 342.375 131.039C340.773 131.641 338.866 131.991 336.82 131.991C334.774 131.991 332.866 131.641 331.264 131.039C328.425 129.972 326.543 128.111 326.543 125.994C326.543 122.681 331.145 119.996 336.82 119.996C342.495 119.996 347.096 122.681 347.096 125.994Z" fill="#F8FBFF" stroke="#391CE1" stroke-opacity="0.4" stroke-miterlimit="10"/>
<path d="M347.096 125.994V136.084C347.096 139.396 342.495 142.081 336.82 142.081C331.145 142.081 326.543 139.396 326.543 136.084V125.994C326.543 128.11 328.425 129.972 331.264 131.039C332.866 131.641 334.774 131.99 336.82 131.99C338.866 131.99 340.773 131.641 342.375 131.039C345.215 129.972 347.096 128.11 347.096 125.994Z" fill="#D5E3FE" stroke="#391CE1" stroke-opacity="0.4" stroke-miterlimit="10"/>
<path d="M371.364 142.239C371.364 144.356 369.483 146.217 366.643 147.285C365.041 147.887 363.134 148.236 361.088 148.236C359.042 148.236 357.134 147.887 355.532 147.285C352.693 146.217 350.812 144.356 350.812 142.239C350.812 138.926 355.413 136.241 361.088 136.241C366.763 136.241 371.364 138.926 371.364 142.239Z" fill="#F8FBFF" stroke="#391CE1" stroke-opacity="0.4" stroke-miterlimit="10"/>
<path d="M371.364 142.239V152.329C371.364 155.641 366.763 158.326 361.088 158.326C355.413 158.326 350.812 155.641 350.812 152.329V142.239C350.812 144.356 352.693 146.217 355.532 147.284C357.134 147.886 359.042 148.235 361.088 148.235C363.134 148.235 365.041 147.886 366.643 147.284C369.483 146.217 371.364 144.356 371.364 142.239Z" fill="#D5E3FE" stroke="#391CE1" stroke-opacity="0.4" stroke-miterlimit="10"/>
<path d="M323.007 142.239C323.007 144.356 321.126 146.217 318.286 147.285C316.684 147.887 314.777 148.236 312.731 148.236C310.685 148.236 308.777 147.887 307.175 147.285C304.336 146.217 302.455 144.356 302.455 142.239C302.455 138.926 307.056 136.241 312.731 136.241C318.407 136.241 323.007 138.926 323.007 142.239Z" fill="#F8FBFF" stroke="#391CE1" stroke-opacity="0.4" stroke-miterlimit="10"/>
<path d="M323.007 142.239V152.329C323.007 155.641 318.407 158.326 312.731 158.326C307.056 158.326 302.455 155.641 302.455 152.329V142.239C302.455 144.356 304.336 146.217 307.175 147.284C308.777 147.886 310.685 148.235 312.731 148.235C314.777 148.235 316.684 147.886 318.286 147.284C321.126 146.217 323.007 144.356 323.007 142.239Z" fill="#D5E3FE" stroke="#391CE1" stroke-opacity="0.4" stroke-miterlimit="10"/>
<path d="M419.719 207.22C419.719 209.337 417.839 211.199 414.998 212.266C413.397 212.868 411.49 213.217 409.444 213.217C407.398 213.217 405.49 212.868 403.888 212.266C401.048 211.199 399.167 209.337 399.167 207.22C399.167 203.908 403.768 201.223 409.444 201.223C415.119 201.223 419.719 203.908 419.719 207.22Z" fill="#F8FBFF" stroke="#391CE1" stroke-opacity="0.4" stroke-miterlimit="10"/>
<path d="M419.719 207.221V217.311C419.719 220.623 415.119 223.308 409.444 223.308C403.768 223.308 399.167 220.623 399.167 217.311V207.221C399.167 209.338 401.048 211.199 403.888 212.266C405.49 212.868 407.398 213.217 409.444 213.217C411.49 213.217 413.397 212.868 414.998 212.266C417.839 211.199 419.719 209.338 419.719 207.221Z" fill="#D5E3FE" stroke="#391CE1" stroke-opacity="0.4" stroke-miterlimit="10"/>
<path d="M395.568 190.995C395.568 193.112 393.688 194.973 390.847 196.04C389.246 196.642 387.339 196.991 385.293 196.991C383.247 196.991 381.339 196.642 379.737 196.04C376.897 194.973 375.016 193.112 375.016 190.995C375.016 187.682 379.617 184.997 385.293 184.997C390.968 184.997 395.568 187.682 395.568 190.995Z" fill="#F8FBFF" stroke="#391CE1" stroke-opacity="0.4" stroke-miterlimit="10"/>
<path d="M395.568 190.995V201.085C395.568 204.398 390.968 207.083 385.293 207.083C379.617 207.083 375.016 204.398 375.016 201.085V190.995C375.016 193.112 376.897 194.974 379.737 196.041C381.339 196.643 383.247 196.992 385.293 196.992C387.339 196.992 389.246 196.643 390.847 196.041C393.688 194.974 395.568 193.112 395.568 190.995Z" fill="#D5E3FE" stroke="#391CE1" stroke-opacity="0.4" stroke-miterlimit="10"/>
<path d="M395.452 158.484C395.452 160.601 393.572 162.463 390.731 163.53C389.129 164.132 387.223 164.481 385.177 164.481C383.13 164.481 381.222 164.132 379.621 163.53C376.781 162.463 374.9 160.601 374.9 158.484C374.9 155.171 379.501 152.486 385.177 152.486C390.852 152.486 395.452 155.171 395.452 158.484Z" fill="#F8FBFF" stroke="#391CE1" stroke-opacity="0.4" stroke-miterlimit="10"/>
<path d="M395.452 158.484V168.574C395.452 171.887 390.852 174.572 385.177 174.572C379.501 174.572 374.9 171.887 374.9 168.574V158.484C374.9 160.601 376.781 162.463 379.621 163.53C381.222 164.132 383.13 164.481 385.177 164.481C387.223 164.481 389.129 164.132 390.731 163.53C393.572 162.463 395.452 160.601 395.452 158.484Z" fill="#D5E3FE" stroke="#391CE1" stroke-opacity="0.4" stroke-miterlimit="10"/>
<path d="M419.719 174.73C419.719 176.847 417.839 178.708 414.998 179.775C413.397 180.377 411.49 180.726 409.444 180.726C407.398 180.726 405.49 180.377 403.888 179.775C401.048 178.708 399.167 176.847 399.167 174.73C399.167 171.417 403.768 168.732 409.444 168.732C415.119 168.732 419.719 171.417 419.719 174.73Z" fill="#F8FBFF" stroke="#391CE1" stroke-opacity="0.4" stroke-miterlimit="10"/>
<path d="M419.719 174.73V184.82C419.719 188.133 415.119 190.818 409.444 190.818C403.768 190.818 399.167 188.133 399.167 184.82V174.73C399.167 176.847 401.048 178.708 403.888 179.776C405.49 180.377 407.398 180.727 409.444 180.727C411.49 180.727 413.397 180.377 414.998 179.776C417.839 178.708 419.719 176.847 419.719 174.73Z" fill="#D5E3FE" stroke="#391CE1" stroke-opacity="0.4" stroke-miterlimit="10"/>
<path d="M371.364 174.73C371.364 176.847 369.483 178.708 366.643 179.775C365.041 180.377 363.134 180.726 361.088 180.726C359.042 180.726 357.134 180.377 355.532 179.775C352.693 178.708 350.812 176.847 350.812 174.73C350.812 171.417 355.413 168.732 361.088 168.732C366.763 168.732 371.364 171.417 371.364 174.73Z" fill="#F8FBFF" stroke="#391CE1" stroke-opacity="0.4" stroke-miterlimit="10"/>
<path d="M371.364 174.73V184.82C371.364 188.133 366.763 190.818 361.088 190.818C355.413 190.818 350.812 188.133 350.812 184.82V174.73C350.812 176.847 352.693 178.708 355.532 179.776C357.134 180.377 359.042 180.727 361.088 180.727C363.134 180.727 365.041 180.377 366.643 179.776C369.483 178.708 371.364 176.847 371.364 174.73Z" fill="#D5E3FE" stroke="#391CE1" stroke-opacity="0.4" stroke-miterlimit="10"/>
<path d="M274.534 142.245C274.534 144.362 272.653 146.223 269.813 147.29C268.211 147.892 266.304 148.241 264.258 148.241C262.212 148.241 260.304 147.892 258.702 147.29C255.863 146.223 253.981 144.362 253.981 142.245C253.981 138.932 258.583 136.247 264.258 136.247C269.933 136.247 274.534 138.932 274.534 142.245Z" fill="#F8FBFF" stroke="#391CE1" stroke-opacity="0.4" stroke-miterlimit="10"/>
<path d="M274.534 142.245V152.335C274.534 155.647 269.933 158.332 264.258 158.332C258.583 158.332 253.981 155.647 253.981 152.335V142.245C253.981 144.361 255.863 146.223 258.702 147.29C260.304 147.892 262.212 148.241 264.258 148.241C266.304 148.241 268.211 147.892 269.813 147.29C272.653 146.223 274.534 144.361 274.534 142.245Z" fill="#D5E3FE" stroke="#391CE1" stroke-opacity="0.4" stroke-miterlimit="10"/>
<path d="M250.328 125.98C250.328 128.097 248.448 129.958 245.607 131.025C244.005 131.627 242.099 131.976 240.052 131.976C238.006 131.976 236.098 131.627 234.497 131.025C231.657 129.958 229.776 128.097 229.776 125.98C229.776 122.667 234.377 119.982 240.052 119.982C245.728 119.982 250.328 122.667 250.328 125.98Z" fill="#F8FBFF" stroke="#391CE1" stroke-opacity="0.4" stroke-miterlimit="10"/>
<path d="M250.328 125.98V136.07C250.328 139.383 245.728 142.068 240.052 142.068C234.377 142.068 229.776 139.383 229.776 136.07V125.98C229.776 128.097 231.657 129.958 234.497 131.026C236.098 131.627 238.006 131.977 240.052 131.977C242.099 131.977 244.005 131.627 245.607 131.026C248.448 129.958 250.328 128.097 250.328 125.98Z" fill="#D5E3FE" stroke="#391CE1" stroke-opacity="0.4" stroke-miterlimit="10"/>
<path d="M322.891 174.736C322.891 176.852 321.011 178.714 318.17 179.781C316.568 180.383 314.662 180.732 312.615 180.732C310.569 180.732 308.661 180.383 307.06 179.781C304.22 178.714 302.339 176.852 302.339 174.736C302.339 171.423 306.94 168.738 312.615 168.738C318.291 168.738 322.891 171.423 322.891 174.736Z" fill="#F8FBFF" stroke="#391CE1" stroke-opacity="0.4" stroke-miterlimit="10"/>
<path d="M322.891 174.736V184.826C322.891 188.138 318.291 190.824 312.615 190.824C306.94 190.824 302.339 188.138 302.339 184.826V174.736C302.339 176.853 304.22 178.714 307.06 179.781C308.661 180.383 310.569 180.732 312.615 180.732C314.662 180.732 316.568 180.383 318.17 179.781C321.011 178.714 322.891 176.853 322.891 174.736Z" fill="#D5E3FE" stroke="#391CE1" stroke-opacity="0.4" stroke-miterlimit="10"/>
<path d="M298.685 158.47C298.685 160.587 296.805 162.449 293.964 163.516C292.362 164.118 290.455 164.467 288.409 164.467C286.363 164.467 284.455 164.118 282.854 163.516C280.014 162.449 278.133 160.587 278.133 158.47C278.133 155.158 282.734 152.473 288.409 152.473C294.085 152.473 298.685 155.158 298.685 158.47Z" fill="#F8FBFF" stroke="#391CE1" stroke-opacity="0.4" stroke-miterlimit="10"/>
<path d="M298.685 158.471V168.561C298.685 171.873 294.085 174.558 288.409 174.558C282.734 174.558 278.133 171.873 278.133 168.561V158.471C278.133 160.588 280.014 162.449 282.854 163.516C284.455 164.118 286.363 164.467 288.409 164.467C290.455 164.467 292.362 164.118 293.964 163.516C296.805 162.449 298.685 160.588 298.685 158.471Z" fill="#D5E3FE" stroke="#391CE1" stroke-opacity="0.4" stroke-miterlimit="10"/>
<path d="M419.603 239.718C419.603 241.834 417.723 243.696 414.883 244.763C413.281 245.365 411.374 245.714 409.328 245.714C407.282 245.714 405.374 245.365 403.772 244.763C400.933 243.696 399.051 241.834 399.051 239.718C399.051 236.405 403.653 233.72 409.328 233.72C415.003 233.72 419.603 236.405 419.603 239.718Z" fill="#F8FBFF" stroke="#391CE1" stroke-opacity="0.4" stroke-miterlimit="10"/>
<path d="M419.603 239.717V249.807C419.603 253.12 415.003 255.805 409.328 255.805C403.653 255.805 399.051 253.12 399.051 249.807V239.717C399.051 241.834 400.933 243.696 403.772 244.763C405.374 245.365 407.282 245.714 409.328 245.714C411.374 245.714 413.281 245.365 414.883 244.763C417.723 243.696 419.603 241.834 419.603 239.717Z" fill="#D5E3FE" stroke="#391CE1" stroke-opacity="0.4" stroke-miterlimit="10"/>
<path d="M395.399 223.452C395.399 225.569 393.519 227.431 390.678 228.498C389.076 229.1 387.169 229.449 385.123 229.449C383.077 229.449 381.169 229.1 379.567 228.498C376.728 227.431 374.847 225.569 374.847 223.452C374.847 220.14 379.448 217.455 385.123 217.455C390.799 217.455 395.399 220.14 395.399 223.452Z" fill="#F8FBFF" stroke="#391CE1" stroke-opacity="0.4" stroke-miterlimit="10"/>
<path d="M395.399 223.452V233.542C395.399 236.855 390.799 239.54 385.123 239.54C379.448 239.54 374.847 236.855 374.847 233.542V223.452C374.847 225.569 376.728 227.431 379.567 228.498C381.169 229.1 383.077 229.449 385.123 229.449C387.169 229.449 389.076 229.1 390.678 228.498C393.519 227.431 395.399 225.569 395.399 223.452Z" fill="#D5E3FE" stroke="#391CE1" stroke-opacity="0.4" stroke-miterlimit="10"/>
<path d="M371.248 207.226C371.248 209.343 369.368 211.205 366.527 212.272C364.925 212.874 363.018 213.223 360.972 213.223C358.926 213.223 357.018 212.874 355.417 212.272C352.577 211.205 350.696 209.343 350.696 207.226C350.696 203.914 355.297 201.229 360.972 201.229C366.648 201.229 371.248 203.914 371.248 207.226Z" fill="#F8FBFF" stroke="#391CE1" stroke-opacity="0.4" stroke-miterlimit="10"/>
<path d="M371.248 207.227V217.316C371.248 220.629 366.648 223.314 360.972 223.314C355.297 223.314 350.696 220.629 350.696 217.316V207.227C350.696 209.343 352.577 211.205 355.417 212.272C357.018 212.874 358.926 213.223 360.972 213.223C363.018 213.223 364.925 212.874 366.527 212.272C369.368 211.205 371.248 209.343 371.248 207.227Z" fill="#D5E3FE" stroke="#391CE1" stroke-opacity="0.4" stroke-miterlimit="10"/>
<path d="M347.042 190.961C347.042 193.078 345.162 194.94 342.321 196.007C340.719 196.609 338.812 196.958 336.766 196.958C334.72 196.958 332.812 196.609 331.21 196.007C328.371 194.94 326.49 193.078 326.49 190.961C326.49 187.649 331.091 184.963 336.766 184.963C342.442 184.963 347.042 187.649 347.042 190.961Z" fill="#F8FBFF" stroke="#391CE1" stroke-opacity="0.4" stroke-miterlimit="10"/>
<path d="M347.042 190.961V201.051C347.042 204.364 342.442 207.049 336.766 207.049C331.091 207.049 326.49 204.364 326.49 201.051V190.961C326.49 193.078 328.371 194.94 331.21 196.007C332.812 196.609 334.72 196.958 336.766 196.958C338.812 196.958 340.719 196.609 342.321 196.007C345.162 194.94 347.042 193.078 347.042 190.961Z" fill="#D5E3FE" stroke="#391CE1" stroke-opacity="0.4" stroke-miterlimit="10"/>
<path d="M225.998 174.755C225.998 176.872 224.118 178.734 221.277 179.801C219.675 180.403 217.768 180.752 215.722 180.752C213.676 180.752 211.768 180.403 210.167 179.801C207.327 178.734 205.446 176.872 205.446 174.755C205.446 171.442 210.047 168.757 215.722 168.757C221.398 168.757 225.998 171.442 225.998 174.755Z" fill="#F8FBFF" stroke="#391CE1" stroke-opacity="0.4" stroke-miterlimit="10"/>
<path d="M225.998 174.755V184.845C225.998 188.158 221.398 190.843 215.722 190.843C210.047 190.843 205.446 188.158 205.446 184.845V174.755C205.446 176.872 207.327 178.734 210.167 179.801C211.768 180.403 213.676 180.752 215.722 180.752C217.768 180.752 219.675 180.403 221.277 179.801C224.118 178.734 225.998 176.872 225.998 174.755Z" fill="#D5E3FE" stroke="#391CE1" stroke-opacity="0.4" stroke-miterlimit="10"/>
<path d="M225.882 142.245C225.882 144.362 224.002 146.223 221.161 147.29C219.56 147.892 217.653 148.241 215.607 148.241C213.561 148.241 211.653 147.892 210.051 147.29C207.211 146.223 205.33 144.362 205.33 142.245C205.33 138.932 209.931 136.247 215.607 136.247C221.282 136.247 225.882 138.932 225.882 142.245Z" fill="#F8FBFF" stroke="#391CE1" stroke-opacity="0.4" stroke-miterlimit="10"/>
<path d="M225.882 142.245V152.335C225.882 155.647 221.282 158.332 215.607 158.332C209.931 158.332 205.33 155.647 205.33 152.335V142.245C205.33 144.361 207.211 146.223 210.051 147.29C211.653 147.892 213.561 148.241 215.607 148.241C217.653 148.241 219.56 147.892 221.161 147.29C224.002 146.223 225.882 144.361 225.882 142.245Z" fill="#D5E3FE" stroke="#391CE1" stroke-opacity="0.4" stroke-miterlimit="10"/>
<path d="M250.15 158.49C250.15 160.607 248.27 162.468 245.429 163.535C243.828 164.137 241.921 164.487 239.875 164.487C237.829 164.487 235.921 164.137 234.319 163.535C231.479 162.468 229.598 160.607 229.598 158.49C229.598 155.177 234.199 152.492 239.875 152.492C245.55 152.492 250.15 155.177 250.15 158.49Z" fill="#F8FBFF" stroke="#391CE1" stroke-opacity="0.4" stroke-miterlimit="10"/>
<path d="M250.15 158.49V168.58C250.15 171.893 245.55 174.578 239.875 174.578C234.199 174.578 229.598 171.893 229.598 168.58V158.49C229.598 160.607 231.479 162.469 234.319 163.536C235.921 164.138 237.829 164.487 239.875 164.487C241.921 164.487 243.828 164.138 245.429 163.536C248.27 162.469 250.15 160.607 250.15 158.49Z" fill="#D5E3FE" stroke="#391CE1" stroke-opacity="0.4" stroke-miterlimit="10"/>
<path d="M201.793 158.49C201.793 160.607 199.913 162.468 197.073 163.535C195.471 164.137 193.564 164.487 191.518 164.487C189.472 164.487 187.564 164.137 185.962 163.535C183.123 162.468 181.241 160.607 181.241 158.49C181.241 155.177 185.842 152.492 191.518 152.492C197.193 152.492 201.793 155.177 201.793 158.49Z" fill="#F8FBFF" stroke="#391CE1" stroke-opacity="0.4" stroke-miterlimit="10"/>
<path d="M201.793 158.49V168.58C201.793 171.893 197.193 174.578 191.518 174.578C185.842 174.578 181.241 171.893 181.241 168.58V158.49C181.241 160.607 183.123 162.469 185.962 163.536C187.564 164.138 189.472 164.487 191.518 164.487C193.564 164.487 195.471 164.138 197.073 163.536C199.913 162.469 201.793 160.607 201.793 158.49Z" fill="#D5E3FE" stroke="#391CE1" stroke-opacity="0.4" stroke-miterlimit="10"/>
<path d="M274.355 207.246C274.355 209.363 272.475 211.225 269.635 212.292C268.033 212.894 266.126 213.243 264.08 213.243C262.034 213.243 260.126 212.894 258.524 212.292C255.685 211.225 253.803 209.363 253.803 207.246C253.803 203.934 258.405 201.249 264.08 201.249C269.755 201.249 274.355 203.934 274.355 207.246Z" fill="#F8FBFF" stroke="#391CE1" stroke-opacity="0.4" stroke-miterlimit="10"/>
<path d="M274.355 207.246V217.336C274.355 220.649 269.755 223.334 264.08 223.334C258.405 223.334 253.803 220.649 253.803 217.336V207.246C253.803 209.363 255.685 211.225 258.524 212.292C260.126 212.894 262.034 213.243 264.08 213.243C266.126 213.243 268.033 212.894 269.635 212.292C272.475 211.225 274.355 209.363 274.355 207.246Z" fill="#D5E3FE" stroke="#391CE1" stroke-opacity="0.4" stroke-miterlimit="10"/>
<path d="M274.239 174.736C274.239 176.852 272.359 178.714 269.518 179.781C267.917 180.383 266.01 180.732 263.964 180.732C261.918 180.732 260.01 180.383 258.408 179.781C255.568 178.714 253.687 176.852 253.687 174.736C253.687 171.423 258.288 168.738 263.964 168.738C269.639 168.738 274.239 171.423 274.239 174.736Z" fill="#F8FBFF" stroke="#391CE1" stroke-opacity="0.4" stroke-miterlimit="10"/>
<path d="M274.239 174.736V184.826C274.239 188.138 269.639 190.824 263.964 190.824C258.288 190.824 253.687 188.138 253.687 184.826V174.736C253.687 176.853 255.568 178.714 258.408 179.781C260.01 180.383 261.918 180.732 263.964 180.732C266.01 180.732 267.917 180.383 269.518 179.781C272.359 178.714 274.239 176.853 274.239 174.736Z" fill="#D5E3FE" stroke="#391CE1" stroke-opacity="0.4" stroke-miterlimit="10"/>
<path d="M298.506 190.981C298.506 193.098 296.626 194.96 293.785 196.027C292.184 196.629 290.277 196.978 288.231 196.978C286.185 196.978 284.277 196.629 282.675 196.027C279.835 194.96 277.954 193.098 277.954 190.981C277.954 187.669 282.555 184.983 288.231 184.983C293.906 184.983 298.506 187.669 298.506 190.981Z" fill="#F8FBFF" stroke="#391CE1" stroke-opacity="0.4" stroke-miterlimit="10"/>
<path d="M298.506 190.981V201.071C298.506 204.383 293.906 207.069 288.231 207.069C282.555 207.069 277.954 204.383 277.954 201.071V190.981C277.954 193.098 279.835 194.959 282.675 196.026C284.277 196.628 286.185 196.978 288.231 196.978C290.277 196.978 292.184 196.628 293.785 196.026C296.626 194.959 298.506 193.098 298.506 190.981Z" fill="#D5E3FE" stroke="#391CE1" stroke-opacity="0.4" stroke-miterlimit="10"/>
<path d="M250.15 190.981C250.15 193.098 248.27 194.96 245.429 196.027C243.828 196.629 241.921 196.978 239.875 196.978C237.829 196.978 235.921 196.629 234.319 196.027C231.479 194.96 229.598 193.098 229.598 190.981C229.598 187.669 234.199 184.983 239.875 184.983C245.55 184.983 250.15 187.669 250.15 190.981Z" fill="#F8FBFF" stroke="#391CE1" stroke-opacity="0.4" stroke-miterlimit="10"/>
<path d="M250.15 190.981V201.071C250.15 204.383 245.55 207.069 239.875 207.069C234.199 207.069 229.598 204.383 229.598 201.071V190.981C229.598 193.098 231.479 194.959 234.319 196.026C235.921 196.628 237.829 196.978 239.875 196.978C241.921 196.978 243.828 196.628 245.429 196.026C248.27 194.959 250.15 193.098 250.15 190.981Z" fill="#D5E3FE" stroke="#391CE1" stroke-opacity="0.4" stroke-miterlimit="10"/>
<path d="M370.953 239.718C370.953 241.834 369.073 243.696 366.232 244.763C364.63 245.365 362.724 245.714 360.677 245.714C358.631 245.714 356.723 245.365 355.122 244.763C352.282 243.696 350.401 241.834 350.401 239.718C350.401 236.405 355.002 233.72 360.677 233.72C366.353 233.72 370.953 236.405 370.953 239.718Z" fill="#F8FBFF" stroke="#391CE1" stroke-opacity="0.4" stroke-miterlimit="10"/>
<path d="M370.953 239.717V249.807C370.953 253.12 366.353 255.805 360.677 255.805C355.002 255.805 350.401 253.12 350.401 249.807V239.717C350.401 241.834 352.282 243.696 355.122 244.763C356.723 245.365 358.631 245.714 360.677 245.714C362.724 245.714 364.63 245.365 366.232 244.763C369.073 243.696 370.953 241.834 370.953 239.717Z" fill="#D5E3FE" stroke="#391CE1" stroke-opacity="0.4" stroke-miterlimit="10"/>
<path d="M322.712 239.737C322.712 241.854 320.832 243.715 317.991 244.783C316.39 245.385 314.483 245.734 312.437 245.734C310.391 245.734 308.483 245.385 306.881 244.783C304.041 243.715 302.16 241.854 302.16 239.737C302.16 236.424 306.761 233.739 312.437 233.739C318.112 233.739 322.712 236.424 322.712 239.737Z" fill="#F8FBFF" stroke="#391CE1" stroke-opacity="0.4" stroke-miterlimit="10"/>
<path d="M322.712 239.737V249.827C322.712 253.14 318.112 255.825 312.437 255.825C306.761 255.825 302.16 253.14 302.16 249.827V239.737C302.16 241.854 304.041 243.716 306.881 244.783C308.483 245.385 310.391 245.734 312.437 245.734C314.483 245.734 316.39 245.385 317.991 244.783C320.832 243.716 322.712 241.854 322.712 239.737Z" fill="#D5E3FE" stroke="#391CE1" stroke-opacity="0.4" stroke-miterlimit="10"/>
<path d="M322.596 207.226C322.596 209.343 320.716 211.205 317.875 212.272C316.273 212.874 314.367 213.223 312.321 213.223C310.275 213.223 308.366 212.874 306.765 212.272C303.925 211.205 302.044 209.343 302.044 207.226C302.044 203.914 306.645 201.229 312.321 201.229C317.996 201.229 322.596 203.914 322.596 207.226Z" fill="#F8FBFF" stroke="#391CE1" stroke-opacity="0.4" stroke-miterlimit="10"/>
<path d="M322.596 207.227V217.316C322.596 220.629 317.996 223.314 312.321 223.314C306.645 223.314 302.044 220.629 302.044 217.316V207.227C302.044 209.343 303.925 211.205 306.765 212.272C308.366 212.874 310.275 213.223 312.321 213.223C314.367 213.223 316.273 212.874 317.875 212.272C320.716 211.205 322.596 209.343 322.596 207.227Z" fill="#D5E3FE" stroke="#391CE1" stroke-opacity="0.4" stroke-miterlimit="10"/>
<path d="M346.864 223.472C346.864 225.589 344.983 227.45 342.143 228.517C340.541 229.119 338.634 229.469 336.588 229.469C334.542 229.469 332.634 229.119 331.032 228.517C328.193 227.45 326.312 225.589 326.312 223.472C326.312 220.159 330.913 217.474 336.588 217.474C342.263 217.474 346.864 220.159 346.864 223.472Z" fill="#F8FBFF" stroke="#391CE1" stroke-opacity="0.4" stroke-miterlimit="10"/>
<path d="M346.864 223.472V233.562C346.864 236.875 342.263 239.56 336.588 239.56C330.913 239.56 326.312 236.875 326.312 233.562V223.472C326.312 225.589 328.193 227.451 331.032 228.518C332.634 229.12 334.542 229.469 336.588 229.469C338.634 229.469 340.541 229.12 342.143 228.518C344.983 227.451 346.864 225.589 346.864 223.472Z" fill="#D5E3FE" stroke="#391CE1" stroke-opacity="0.4" stroke-miterlimit="10"/>
<path d="M298.506 223.472C298.506 225.589 296.626 227.45 293.785 228.517C292.184 229.119 290.277 229.469 288.231 229.469C286.185 229.469 284.277 229.119 282.675 228.517C279.835 227.45 277.954 225.589 277.954 223.472C277.954 220.159 282.555 217.474 288.231 217.474C293.906 217.474 298.506 220.159 298.506 223.472Z" fill="#F8FBFF" stroke="#391CE1" stroke-opacity="0.4" stroke-miterlimit="10"/>
<path d="M298.506 223.472V233.562C298.506 236.875 293.906 239.56 288.231 239.56C282.555 239.56 277.954 236.875 277.954 233.562V223.472C277.954 225.589 279.835 227.451 282.675 228.518C284.277 229.12 286.185 229.469 288.231 229.469C290.277 229.469 292.184 229.12 293.785 228.518C296.626 227.451 298.506 225.589 298.506 223.472Z" fill="#D5E3FE" stroke="#391CE1" stroke-opacity="0.4" stroke-miterlimit="10"/>
<path d="M200.172 188.09C200.172 190.206 198.292 192.068 195.451 193.135C193.85 193.737 191.943 194.086 189.897 194.086C187.851 194.086 185.943 193.737 184.341 193.135C181.501 192.068 179.62 190.206 179.62 188.09C179.62 184.777 184.221 182.092 189.897 182.092C195.572 182.092 200.172 184.777 200.172 188.09Z" fill="#F8FBFF" stroke="#391CE1" stroke-opacity="0.4" stroke-miterlimit="10"/>
<path d="M200.172 188.089V198.179C200.172 201.492 195.572 204.177 189.897 204.177C184.221 204.177 179.62 201.492 179.62 198.179V188.089C179.62 190.206 181.501 192.068 184.341 193.135C185.943 193.737 187.851 194.086 189.897 194.086C191.943 194.086 193.85 193.737 195.451 193.135C198.292 192.068 200.172 190.206 200.172 188.089Z" fill="#D5E3FE" stroke="#391CE1" stroke-opacity="0.4" stroke-miterlimit="10"/>
<path d="M175.966 171.825C175.966 173.942 174.086 175.804 171.245 176.871C169.644 177.473 167.737 177.822 165.691 177.822C163.645 177.822 161.737 177.473 160.135 176.871C157.295 175.804 155.414 173.942 155.414 171.825C155.414 168.513 160.015 165.828 165.691 165.828C171.366 165.828 175.966 168.513 175.966 171.825Z" fill="#F8FBFF" stroke="#391CE1" stroke-opacity="0.4" stroke-miterlimit="10"/>
<path d="M175.966 171.826V181.916C175.966 185.228 171.366 187.913 165.691 187.913C160.015 187.913 155.414 185.228 155.414 181.916V171.826C155.414 173.942 157.295 175.804 160.135 176.871C161.737 177.473 163.645 177.822 165.691 177.822C167.737 177.822 169.644 177.473 171.245 176.871C174.086 175.804 175.966 173.942 175.966 171.826Z" fill="#D5E3FE" stroke="#391CE1" stroke-opacity="0.4" stroke-miterlimit="10"/>
<path d="M248.529 220.58C248.529 222.697 246.649 224.559 243.808 225.626C242.207 226.228 240.3 226.577 238.254 226.577C236.208 226.577 234.3 226.228 232.698 225.626C229.858 224.559 227.977 222.697 227.977 220.58C227.977 217.268 232.578 214.583 238.254 214.583C243.929 214.583 248.529 217.268 248.529 220.58Z" fill="#F8FBFF" stroke="#391CE1" stroke-opacity="0.4" stroke-miterlimit="10"/>
<path d="M248.529 220.581V230.67C248.529 233.983 243.929 236.668 238.254 236.668C232.578 236.668 227.977 233.983 227.977 230.67V220.581C227.977 222.697 229.858 224.559 232.698 225.626C234.3 226.228 236.208 226.577 238.254 226.577C240.3 226.577 242.207 226.228 243.808 225.626C246.649 224.559 248.529 222.697 248.529 220.581Z" fill="#D5E3FE" stroke="#391CE1" stroke-opacity="0.4" stroke-miterlimit="10"/>
<path d="M224.323 204.316C224.323 206.433 222.443 208.295 219.602 209.362C218.001 209.964 216.094 210.313 214.048 210.313C212.002 210.313 210.094 209.964 208.492 209.362C205.652 208.295 203.771 206.433 203.771 204.316C203.771 201.003 208.372 198.318 214.048 198.318C219.723 198.318 224.323 201.003 224.323 204.316Z" fill="#F8FBFF" stroke="#391CE1" stroke-opacity="0.4" stroke-miterlimit="10"/>
<path d="M224.323 204.316V214.406C224.323 217.719 219.723 220.404 214.048 220.404C208.372 220.404 203.771 217.719 203.771 214.406V204.316C203.771 206.433 205.652 208.295 208.492 209.362C210.094 209.964 212.002 210.313 214.048 210.313C216.094 210.313 218.001 209.964 219.602 209.362C222.443 208.295 224.323 206.433 224.323 204.316Z" fill="#D5E3FE" stroke="#391CE1" stroke-opacity="0.4" stroke-miterlimit="10"/>
<path d="M272.68 236.807C272.68 238.924 270.8 240.786 267.96 241.853C266.358 242.455 264.451 242.804 262.405 242.804C260.359 242.804 258.451 242.455 256.849 241.853C254.01 240.786 252.128 238.924 252.128 236.807C252.128 233.495 256.73 230.81 262.405 230.81C268.08 230.81 272.68 233.495 272.68 236.807Z" fill="#F8FBFF" stroke="#391CE1" stroke-opacity="0.4" stroke-miterlimit="10"/>
<path d="M272.68 236.807V246.897C272.68 250.21 268.08 252.895 262.405 252.895C256.73 252.895 252.128 250.21 252.128 246.897V236.807C252.128 238.924 254.01 240.786 256.849 241.853C258.451 242.455 260.359 242.804 262.405 242.804C264.451 242.804 266.358 242.455 267.96 241.853C270.8 240.786 272.68 238.924 272.68 236.807Z" fill="#D5E3FE" stroke="#391CE1" stroke-opacity="0.4" stroke-miterlimit="10"/>
<g clip-path="url(#clip1_762_11160)">
<path d="M111.182 39.408C111.182 39.8606 111.548 40.2276 112 40.2276C112.452 40.2276 112.818 39.8606 112.818 39.408C112.818 38.9553 112.452 38.5884 112 38.5884C111.548 38.5884 111.182 38.9553 111.182 39.408Z" fill="#4D58EB"/>
<path d="M111.182 51.7019C111.182 51.2542 111.546 50.8823 112 50.8823C112.455 50.8823 112.818 51.2466 112.818 51.7019C112.818 52.1573 112.455 52.5215 112 52.5215C111.546 52.5215 111.182 52.1573 111.182 51.7019Z" fill="#4D58EB"/>
<path d="M111.182 63.9964C111.182 64.449 111.548 64.816 112 64.816C112.452 64.816 112.818 64.449 112.818 63.9964C112.818 63.5437 112.452 63.1768 112 63.1768C111.548 63.1768 111.182 63.5437 111.182 63.9964Z" fill="#4D58EB"/>
<path d="M123.454 76.2903C123.454 76.743 123.82 77.1099 124.272 77.1099C124.724 77.1099 125.09 76.743 125.09 76.2903C125.09 75.8377 124.724 75.4707 124.272 75.4707C123.82 75.4707 123.454 75.8377 123.454 76.2903Z" fill="#4D58EB"/>
<path d="M111.182 76.2903C111.182 76.743 111.548 77.1099 112 77.1099C112.452 77.1099 112.818 76.743 112.818 76.2903C112.818 75.8377 112.452 75.4707 112 75.4707C111.548 75.4707 111.182 75.8377 111.182 76.2903Z" fill="#4D58EB"/>
<path d="M123.454 88.5921C123.454 89.0447 123.82 89.4117 124.272 89.4117C124.724 89.4117 125.09 89.0447 125.09 88.5921C125.09 88.1394 124.724 87.7725 124.272 87.7725C123.82 87.7725 123.454 88.1394 123.454 88.5921Z" fill="#4D58EB"/>
<path d="M111.182 88.5921C111.182 89.0447 111.548 89.4117 112 89.4117C112.452 89.4117 112.818 89.0447 112.818 88.5921C112.818 88.1394 112.452 87.7725 112 87.7725C111.548 87.7725 111.182 88.1394 111.182 88.5921Z" fill="#4D58EB"/>
<path d="M124.272 101.706C123.825 101.706 123.454 101.341 123.454 100.886C123.454 100.431 123.817 100.066 124.272 100.066C124.726 100.066 125.09 100.431 125.09 100.886C125.09 101.341 124.726 101.706 124.272 101.706Z" fill="#4D58EB"/>
<path d="M111.182 100.886C111.182 100.438 111.546 100.066 112 100.066C112.455 100.066 112.818 100.431 112.818 100.886C112.818 101.341 112.455 101.706 112 101.706C111.553 101.706 111.182 101.341 111.182 100.886Z" fill="#4D58EB"/>
<path d="M111.182 113.18C111.182 113.633 111.548 114 112 114C112.452 114 112.818 113.633 112.818 113.18C112.818 112.728 112.452 112.361 112 112.361C111.548 112.361 111.182 112.728 111.182 113.18Z" fill="#4D58EB"/>
<path d="M98.9101 39.408C98.9101 39.8606 99.2764 40.2276 99.7283 40.2276C100.18 40.2276 100.546 39.8606 100.546 39.408C100.546 38.9553 100.18 38.5884 99.7283 38.5884C99.2764 38.5884 98.9101 38.9553 98.9101 39.408Z" fill="#4D58EB"/>
<path d="M98.9101 51.7019C98.9101 51.2542 99.2738 50.8823 99.7283 50.8823C100.183 50.8823 100.546 51.2466 100.546 51.7019C100.546 52.1573 100.183 52.5215 99.7283 52.5215C99.2738 52.5215 98.9101 52.1573 98.9101 51.7019Z" fill="#4D58EB"/>
<path d="M98.9101 63.9964C98.9101 64.449 99.2764 64.816 99.7283 64.816C100.18 64.816 100.546 64.449 100.546 63.9964C100.546 63.5437 100.18 63.1768 99.7283 63.1768C99.2764 63.1768 98.9101 63.5437 98.9101 63.9964Z" fill="#4D58EB"/>
<path d="M98.9101 76.2903C98.9101 76.743 99.2764 77.1099 99.7283 77.1099C100.18 77.1099 100.546 76.743 100.546 76.2903C100.546 75.8377 100.18 75.4707 99.7283 75.4707C99.2764 75.4707 98.9101 75.8377 98.9101 76.2903Z" fill="#4D58EB"/>
<path d="M98.9101 88.5921C98.9101 89.0447 99.2764 89.4117 99.7283 89.4117C100.18 89.4117 100.546 89.0447 100.546 88.5921C100.546 88.1394 100.18 87.7725 99.7283 87.7725C99.2764 87.7725 98.9101 88.1394 98.9101 88.5921Z" fill="#4D58EB"/>
<path d="M98.9101 100.886C98.9101 100.438 99.2738 100.066 99.7283 100.066C100.183 100.066 100.546 100.431 100.546 100.886C100.546 101.341 100.183 101.706 99.7283 101.706C99.2738 101.706 98.9101 101.341 98.9101 100.886Z" fill="#4D58EB"/>
<path d="M98.9101 113.18C98.9101 113.633 99.2764 114 99.7283 114C100.18 114 100.546 113.633 100.546 113.18C100.546 112.728 100.18 112.361 99.7283 112.361C99.2764 112.361 98.9101 112.728 98.9101 113.18Z" fill="#4D58EB"/>
<path d="M86.6382 39.408C86.6382 38.9602 87.0018 38.5884 87.4563 38.5884C87.9108 38.5884 88.2744 38.9526 88.2744 39.408C88.2744 39.8633 87.9108 40.2276 87.4563 40.2276C87.0018 40.2276 86.6382 39.8633 86.6382 39.408Z" fill="#4D58EB"/>
<path d="M86.6382 51.7019C86.6382 51.2542 87.0018 50.8823 87.4563 50.8823C87.9108 50.8823 88.2744 51.2466 88.2744 51.7019C88.2744 52.1573 87.9108 52.5215 87.4563 52.5215C87.0018 52.5215 86.6382 52.1573 86.6382 51.7019Z" fill="#4D58EB"/>
<path d="M86.6382 63.9964C86.6382 63.5486 87.0018 63.1768 87.4563 63.1768C87.9108 63.1768 88.2744 63.541 88.2744 63.9964C88.2744 64.4517 87.9108 64.816 87.4563 64.816C87.0094 64.816 86.6382 64.4517 86.6382 63.9964Z" fill="#4D58EB"/>
<path d="M86.6382 76.2903C86.6382 75.8426 87.0018 75.4707 87.4563 75.4707C87.9108 75.4707 88.2744 75.835 88.2744 76.2903C88.2744 76.7457 87.9108 77.1099 87.4563 77.1099C87.0018 77.1099 86.6382 76.7457 86.6382 76.2903Z" fill="#4D58EB"/>
<path d="M86.6382 88.5921C86.6382 88.1443 87.0018 87.7725 87.4563 87.7725C87.9108 87.7725 88.2744 88.1367 88.2744 88.5921C88.2744 89.0474 87.9108 89.4117 87.4563 89.4117C87.0018 89.4117 86.6382 89.0474 86.6382 88.5921Z" fill="#4D58EB"/>
<path d="M86.6382 100.886C86.6382 100.438 87.0018 100.066 87.4563 100.066C87.9108 100.066 88.2744 100.431 88.2744 100.886C88.2744 101.341 87.9108 101.706 87.4563 101.706C87.0094 101.706 86.6382 101.341 86.6382 100.886Z" fill="#4D58EB"/>
<path d="M86.6382 113.18C86.6382 112.733 87.0018 112.361 87.4563 112.361C87.9108 112.361 88.2744 112.725 88.2744 113.18C88.2744 113.636 87.9108 114 87.4563 114C87.0018 114 86.6382 113.636 86.6382 113.18Z" fill="#4D58EB"/>
<path d="M74.3589 88.5921C74.3589 89.0447 74.7252 89.4117 75.177 89.4117C75.6288 89.4117 75.9951 89.0447 75.9951 88.5921C75.9951 88.1394 75.6288 87.7725 75.177 87.7725C74.7252 87.7725 74.3589 88.1394 74.3589 88.5921Z" fill="#4D58EB"/>
<path d="M74.3667 100.886C74.3667 100.438 74.7303 100.066 75.1848 100.066C75.6393 100.066 76.0029 100.431 76.0029 100.886C76.0029 101.341 75.6393 101.706 75.1848 101.706C74.7303 101.706 74.3667 101.341 74.3667 100.886Z" fill="#4D58EB"/>
<path d="M74.3589 113.18C74.3589 113.633 74.7252 114 75.177 114C75.6288 114 75.9951 113.633 75.9951 113.18C75.9951 112.728 75.6288 112.361 75.177 112.361C74.7252 112.361 74.3589 112.728 74.3589 113.18Z" fill="#4D58EB"/>
<path d="M62.0874 88.5921C62.0874 89.0447 62.4537 89.4117 62.9055 89.4117C63.3573 89.4117 63.7236 89.0447 63.7236 88.5921C63.7236 88.1394 63.3573 87.7725 62.9055 87.7725C62.4537 87.7725 62.0874 88.1394 62.0874 88.5921Z" fill="#4D58EB"/>
<path d="M62.0947 100.886C62.0947 100.438 62.4583 100.066 62.9128 100.066C63.3673 100.066 63.731 100.431 63.731 100.886C63.731 101.341 63.3673 101.706 62.9128 101.706C62.4583 101.706 62.0947 101.341 62.0947 100.886Z" fill="#4D58EB"/>
<path d="M123.454 14.8196C123.454 15.2723 123.82 15.6392 124.272 15.6392C124.724 15.6392 125.09 15.2723 125.09 14.8196C125.09 14.367 124.724 14 124.272 14C123.82 14 123.454 14.367 123.454 14.8196Z" fill="#4D58EB"/>
<path d="M111.182 14.8196C111.182 15.2723 111.548 15.6392 112 15.6392C112.452 15.6392 112.818 15.2723 112.818 14.8196C112.818 14.367 112.452 14 112 14C111.548 14 111.182 14.367 111.182 14.8196Z" fill="#4D58EB"/>
<path d="M123.454 27.1136C123.454 27.5662 123.82 27.9332 124.272 27.9332C124.724 27.9332 125.09 27.5662 125.09 27.1136C125.09 26.6609 124.724 26.2939 124.272 26.2939C123.82 26.2939 123.454 26.6609 123.454 27.1136Z" fill="#4D58EB"/>
<path d="M111.182 27.1136C111.182 27.5662 111.548 27.9332 112 27.9332C112.452 27.9332 112.818 27.5662 112.818 27.1136C112.818 26.6609 112.452 26.2939 112 26.2939C111.548 26.2939 111.182 26.6609 111.182 27.1136Z" fill="#4D58EB"/>
<path d="M98.9101 14.8196C98.9101 15.2723 99.2764 15.6392 99.7283 15.6392C100.18 15.6392 100.546 15.2723 100.546 14.8196C100.546 14.367 100.18 14 99.7283 14C99.2764 14 98.9101 14.367 98.9101 14.8196Z" fill="#4D58EB"/>
<path d="M98.9101 27.1136C98.9101 27.5662 99.2764 27.9332 99.7283 27.9332C100.18 27.9332 100.546 27.5662 100.546 27.1136C100.546 26.6609 100.18 26.2939 99.7283 26.2939C99.2764 26.2939 98.9101 26.6609 98.9101 27.1136Z" fill="#4D58EB"/>
<path d="M86.6382 14.8196C86.6382 14.3719 87.0018 14 87.4563 14C87.9108 14 88.2744 14.3643 88.2744 14.8196C88.2744 15.2749 87.9108 15.6392 87.4563 15.6392C87.0018 15.6392 86.6382 15.2749 86.6382 14.8196Z" fill="#4D58EB"/>
<path d="M86.6382 27.1136C86.6382 26.6658 87.0018 26.2939 87.4563 26.2939C87.9108 26.2939 88.2744 26.6582 88.2744 27.1136C88.2744 27.5689 87.9108 27.9332 87.4563 27.9332C87.0018 27.9332 86.6382 27.5689 86.6382 27.1136Z" fill="#4D58EB"/>
<path d="M74.3589 39.408C74.3589 39.8606 74.7252 40.2276 75.177 40.2276C75.6288 40.2276 75.9951 39.8606 75.9951 39.408C75.9951 38.9553 75.6288 38.5884 75.177 38.5884C74.7252 38.5884 74.3589 38.9553 74.3589 39.408Z" fill="#4D58EB"/>
<path d="M74.3667 51.7019C74.3667 51.2542 74.7303 50.8823 75.1848 50.8823C75.6393 50.8823 76.0029 51.2466 76.0029 51.7019C76.0029 52.1573 75.6393 52.5215 75.1848 52.5215C74.7303 52.5215 74.3667 52.1573 74.3667 51.7019Z" fill="#4D58EB"/>
<path d="M74.3589 63.9964C74.3589 64.449 74.7252 64.816 75.177 64.816C75.6288 64.816 75.9951 64.449 75.9951 63.9964C75.9951 63.5437 75.6288 63.1768 75.177 63.1768C74.7252 63.1768 74.3589 63.5437 74.3589 63.9964Z" fill="#4D58EB"/>
<path d="M74.3589 76.2903C74.3589 76.743 74.7252 77.1099 75.177 77.1099C75.6288 77.1099 75.9951 76.743 75.9951 76.2903C75.9951 75.8377 75.6288 75.4707 75.177 75.4707C74.7252 75.4707 74.3589 75.8377 74.3589 76.2903Z" fill="#4D58EB"/>
<path d="M62.0874 39.408C62.0874 39.8606 62.4537 40.2276 62.9055 40.2276C63.3573 40.2276 63.7236 39.8606 63.7236 39.408C63.7236 38.9553 63.3573 38.5884 62.9055 38.5884C62.4537 38.5884 62.0874 38.9553 62.0874 39.408Z" fill="#4D58EB"/>
<path d="M62.0947 51.7019C62.0947 51.2542 62.4583 50.8823 62.9128 50.8823C63.3673 50.8823 63.731 51.2466 63.731 51.7019C63.731 52.1573 63.3673 52.5215 62.9128 52.5215C62.4583 52.5215 62.0947 52.1573 62.0947 51.7019Z" fill="#4D58EB"/>
<path d="M62.0874 63.9964C62.0874 64.449 62.4537 64.816 62.9055 64.816C63.3573 64.816 63.7236 64.449 63.7236 63.9964C63.7236 63.5437 63.3573 63.1768 62.9055 63.1768C62.4537 63.1768 62.0874 63.5437 62.0874 63.9964Z" fill="#4D58EB"/>
<path d="M62.0874 76.2903C62.0874 76.743 62.4537 77.1099 62.9055 77.1099C63.3573 77.1099 63.7236 76.743 63.7236 76.2903C63.7236 75.8377 63.3573 75.4707 62.9055 75.4707C62.4537 75.4707 62.0874 75.8377 62.0874 76.2903Z" fill="#4D58EB"/>
<path d="M49.8154 39.408C49.8154 39.8606 50.1817 40.2276 50.6335 40.2276C51.0854 40.2276 51.4517 39.8606 51.4517 39.408C51.4517 38.9553 51.0854 38.5884 50.6335 38.5884C50.1817 38.5884 49.8154 38.9553 49.8154 39.408Z" fill="#4D58EB"/>
<path d="M49.8154 51.7019C49.8154 51.2542 50.179 50.8823 50.6335 50.8823C51.0881 50.8823 51.4517 51.2466 51.4517 51.7019C51.4517 52.1573 51.0881 52.5215 50.6335 52.5215C50.179 52.5215 49.8154 52.1573 49.8154 51.7019Z" fill="#4D58EB"/>
<path d="M49.8154 63.9964C49.8154 64.449 50.1817 64.816 50.6335 64.816C51.0854 64.816 51.4517 64.449 51.4517 63.9964C51.4517 63.5437 51.0854 63.1768 50.6335 63.1768C50.1817 63.1768 49.8154 63.5437 49.8154 63.9964Z" fill="#4D58EB"/>
<path d="M49.8154 76.2903C49.8154 76.743 50.1817 77.1099 50.6335 77.1099C51.0854 77.1099 51.4517 76.743 51.4517 76.2903C51.4517 75.8377 51.0854 75.4707 50.6335 75.4707C50.1817 75.4707 49.8154 75.8377 49.8154 76.2903Z" fill="#4D58EB"/>
<path d="M74.3589 14.8196C74.3589 15.2723 74.7252 15.6392 75.177 15.6392C75.6288 15.6392 75.9951 15.2723 75.9951 14.8196C75.9951 14.367 75.6288 14 75.177 14C74.7252 14 74.3589 14.367 74.3589 14.8196Z" fill="#4D58EB"/>
<path d="M74.3589 27.1136C74.3589 27.5662 74.7252 27.9332 75.177 27.9332C75.6288 27.9332 75.9951 27.5662 75.9951 27.1136C75.9951 26.6609 75.6288 26.2939 75.177 26.2939C74.7252 26.2939 74.3589 26.6609 74.3589 27.1136Z" fill="#4D58EB"/>
<path d="M62.0874 14.8196C62.0874 15.2723 62.4537 15.6392 62.9055 15.6392C63.3573 15.6392 63.7236 15.2723 63.7236 14.8196C63.7236 14.367 63.3573 14 62.9055 14C62.4537 14 62.0874 14.367 62.0874 14.8196Z" fill="#4D58EB"/>
<path d="M62.0874 27.1136C62.0874 27.5662 62.4537 27.9332 62.9055 27.9332C63.3573 27.9332 63.7236 27.5662 63.7236 27.1136C63.7236 26.6609 63.3573 26.2939 62.9055 26.2939C62.4537 26.2939 62.0874 26.6609 62.0874 27.1136Z" fill="#4D58EB"/>
<path d="M49.8154 14.8196C49.8154 15.2723 50.1817 15.6392 50.6335 15.6392C51.0854 15.6392 51.4517 15.2723 51.4517 14.8196C51.4517 14.367 51.0854 14 50.6335 14C50.1817 14 49.8154 14.367 49.8154 14.8196Z" fill="#4D58EB"/>
<path d="M49.8154 27.1136C49.8154 27.5662 50.1817 27.9332 50.6335 27.9332C51.0854 27.9332 51.4517 27.5662 51.4517 27.1136C51.4517 26.6609 51.0854 26.2939 50.6335 26.2939C50.1817 26.2939 49.8154 26.6609 49.8154 27.1136Z" fill="#4D58EB"/>
<path d="M135.726 88.5921C135.726 89.0447 136.092 89.4117 136.544 89.4117C136.996 89.4117 137.362 89.0447 137.362 88.5921C137.362 88.1394 136.996 87.7725 136.544 87.7725C136.092 87.7725 135.726 88.1394 135.726 88.5921Z" fill="#4D58EB"/>
<path d="M172.548 14.8196C172.548 15.2723 172.915 15.6392 173.366 15.6392C173.818 15.6392 174.185 15.2723 174.185 14.8196C174.185 14.367 173.818 14 173.366 14C172.915 14 172.548 14.367 172.548 14.8196Z" fill="#4D58EB"/>
<path d="M160.277 14.8196C160.277 15.2723 160.643 15.6392 161.095 15.6392C161.547 15.6392 161.913 15.2723 161.913 14.8196C161.913 14.367 161.547 14 161.095 14C160.643 14 160.277 14.367 160.277 14.8196Z" fill="#4D58EB"/>
<path d="M172.548 27.1136C172.548 27.5662 172.915 27.9332 173.366 27.9332C173.818 27.9332 174.185 27.5662 174.185 27.1136C174.185 26.6609 173.818 26.2939 173.366 26.2939C172.915 26.2939 172.548 26.6609 172.548 27.1136Z" fill="#4D58EB"/>
<path d="M160.277 27.1136C160.277 27.5662 160.643 27.9332 161.095 27.9332C161.547 27.9332 161.913 27.5662 161.913 27.1136C161.913 26.6609 161.547 26.2939 161.095 26.2939C160.643 26.2939 160.277 26.6609 160.277 27.1136Z" fill="#4D58EB"/>
<path d="M148.005 14.8196C148.005 14.3719 148.368 14 148.823 14C149.278 14 149.641 14.3643 149.641 14.8196C149.641 15.2749 149.278 15.6392 148.823 15.6392C148.368 15.6392 148.005 15.2749 148.005 14.8196Z" fill="#4D58EB"/>
<path d="M135.726 14.8196C135.726 15.2723 136.092 15.6392 136.544 15.6392C136.996 15.6392 137.362 15.2723 137.362 14.8196C137.362 14.367 136.996 14 136.544 14C136.092 14 135.726 14.367 135.726 14.8196Z" fill="#4D58EB"/>
<path d="M210.182 15.6314C209.735 15.6314 209.364 15.2671 209.364 14.8118C209.364 14.3565 209.727 13.9922 210.182 13.9922C210.636 13.9922 211 14.364 211 14.8194C211 15.2671 210.636 15.639 210.182 15.639L210.182 15.6314Z" fill="#4D58EB"/>
<path d="M197.1 14.8196C197.1 14.3719 197.463 14 197.918 14C198.372 14 198.736 14.3643 198.736 14.8196C198.736 15.2749 198.372 15.6392 197.918 15.6392C197.463 15.6392 197.1 15.2749 197.1 14.8196Z" fill="#4D58EB"/>
<path d="M184.82 14.8196C184.82 15.2723 185.187 15.6392 185.638 15.6392C186.09 15.6392 186.457 15.2723 186.457 14.8196C186.457 14.367 186.09 14 185.638 14C185.187 14 184.82 14.367 184.82 14.8196Z" fill="#4D58EB"/>
<path d="M184.82 27.1136C184.82 27.5662 185.187 27.9332 185.638 27.9332C186.09 27.9332 186.457 27.5662 186.457 27.1136C186.457 26.6609 186.09 26.2939 185.638 26.2939C185.187 26.2939 184.82 26.6609 184.82 27.1136Z" fill="#4D58EB"/>
<path d="M135.726 27.1136C135.726 27.5662 136.092 27.9332 136.544 27.9332C136.996 27.9332 137.362 27.5662 137.362 27.1136C137.362 26.6609 136.996 26.2939 136.544 26.2939C136.092 26.2939 135.726 26.6609 135.726 27.1136Z" fill="#4D58EB"/>
<path d="M37.5435 39.408C37.5435 38.9602 37.9071 38.5884 38.3616 38.5884C38.8161 38.5884 39.1797 38.9526 39.1797 39.408C39.1797 39.8633 38.8161 40.2276 38.3616 40.2276C37.9071 40.2276 37.5435 39.8633 37.5435 39.408Z" fill="#4D58EB"/>
<path d="M37.5435 51.7019C37.5435 51.2542 37.9071 50.8823 38.3616 50.8823C38.8161 50.8823 39.1797 51.2466 39.1797 51.7019C39.1797 52.1573 38.8161 52.5215 38.3616 52.5215C37.9071 52.5215 37.5435 52.1573 37.5435 51.7019Z" fill="#4D58EB"/>
<path d="M37.5435 63.9964C37.5435 63.5486 37.9071 63.1768 38.3616 63.1768C38.8161 63.1768 39.1797 63.541 39.1797 63.9964C39.1797 64.4517 38.8161 64.816 38.3616 64.816C37.9146 64.816 37.5435 64.4517 37.5435 63.9964Z" fill="#4D58EB"/>
<path d="M25.272 39.408C25.272 39.8606 25.6382 40.2276 26.0901 40.2276C26.5419 40.2276 26.9082 39.8606 26.9082 39.408C26.9082 38.9553 26.5419 38.5884 26.0901 38.5884C25.6382 38.5884 25.272 38.9553 25.272 39.408Z" fill="#4D58EB"/>
<path d="M25.272 51.7019C25.272 51.2542 25.6356 50.8823 26.0901 50.8823C26.5446 50.8823 26.9082 51.2466 26.9082 51.7019C26.9082 52.1573 26.5446 52.5215 26.0901 52.5215C25.6356 52.5215 25.272 52.1573 25.272 51.7019Z" fill="#4D58EB"/>
<path d="M37.5435 14.8196C37.5435 14.3719 37.9071 14 38.3616 14C38.8161 14 39.1797 14.3643 39.1797 14.8196C39.1797 15.2749 38.8161 15.6392 38.3616 15.6392C37.9071 15.6392 37.5435 15.2749 37.5435 14.8196Z" fill="#4D58EB"/>
<path d="M37.5435 27.1136C37.5435 26.6658 37.9071 26.2939 38.3616 26.2939C38.8161 26.2939 39.1797 26.6582 39.1797 27.1136C39.1797 27.5689 38.8161 27.9332 38.3616 27.9332C37.9071 27.9332 37.5435 27.5689 37.5435 27.1136Z" fill="#4D58EB"/>
<path d="M25.272 14.8196C25.272 15.2723 25.6382 15.6392 26.0901 15.6392C26.5419 15.6392 26.9082 15.2723 26.9082 14.8196C26.9082 14.367 26.5419 14 26.0901 14C25.6382 14 25.272 14.367 25.272 14.8196Z" fill="#4D58EB"/>
<path d="M25.272 27.1136C25.272 27.5662 25.6382 27.9332 26.0901 27.9332C26.5419 27.9332 26.9082 27.5662 26.9082 27.1136C26.9082 26.6609 26.5419 26.2939 26.0901 26.2939C25.6382 26.2939 25.272 26.6609 25.272 27.1136Z" fill="#4D58EB"/>
<path d="M12.9922 14.8196C12.9922 15.2723 13.3585 15.6392 13.8103 15.6392C14.2621 15.6392 14.6284 15.2723 14.6284 14.8196C14.6284 14.367 14.2621 14 13.8103 14C13.3585 14 12.9922 14.367 12.9922 14.8196Z" fill="#4D58EB"/>
<path d="M12.9922 27.1136C12.9922 27.5662 13.3585 27.9332 13.8103 27.9332C14.2621 27.9332 14.6284 27.5662 14.6284 27.1136C14.6284 26.6609 14.2621 26.2939 13.8103 26.2939C13.3585 26.2939 12.9922 26.6609 12.9922 27.1136Z" fill="#4D58EB"/>
</g>
<path d="M129.925 197.412L85.3747 227.112L62.5434 242.517L62.4274 242.44L40.0787 227.519L19 213.446L20.4638 212.503L28.0622 207.609L31.2241 205.574L45.0175 196.69L52.152 192.094L55.9413 189.654L86.8593 169.375L93.3813 173.622L96.4005 175.587L104.356 180.766L118 189.649L120.668 191.386L129.925 197.412Z" fill="#D2E2FF" stroke="#391CE1" stroke-opacity="0.4" stroke-miterlimit="10"/>
<path d="M72.8197 217.509C72.8197 219.625 70.9395 221.487 68.0989 222.554C66.4971 223.156 64.5902 223.505 62.5442 223.505C60.4982 223.505 58.5901 223.156 56.9883 222.554C54.1489 221.487 52.2676 219.625 52.2676 217.509C52.2676 214.196 56.8689 211.511 62.5442 211.511C68.2195 211.511 72.8197 214.196 72.8197 217.509Z" fill="#EAF1FE" stroke="#391CE1" stroke-opacity="0.4" stroke-miterlimit="10"/>
<path d="M72.8197 217.509V227.599C72.8197 230.911 68.2195 233.596 62.5442 233.596C56.8689 233.596 52.2676 230.911 52.2676 227.599V217.509C52.2676 219.626 54.1489 221.487 56.9883 222.554C58.5901 223.156 60.4982 223.505 62.5442 223.505C64.5902 223.505 66.4971 223.156 68.0989 222.554C70.9395 221.487 72.8197 219.626 72.8197 217.509Z" fill="#B8D1FF" stroke="#391CE1" stroke-opacity="0.4" stroke-miterlimit="10"/>
<path d="M72.7039 184.998C72.7039 187.115 70.8238 188.976 67.9832 190.043C66.3814 190.645 64.4745 190.994 62.4285 190.994C60.3824 190.994 58.4744 190.645 56.8726 190.043C54.0332 188.976 52.1519 187.115 52.1519 184.998C52.1519 181.685 56.7531 179 62.4285 179C68.1038 179 72.7039 181.685 72.7039 184.998Z" fill="#EAF1FE" stroke="#391CE1" stroke-opacity="0.4" stroke-miterlimit="10"/>
<path d="M72.7039 184.998V195.088C72.7039 198.401 68.1038 201.086 62.4285 201.086C56.7531 201.086 52.1519 198.401 52.1519 195.088V184.998C52.1519 187.115 54.0332 188.976 56.8726 190.044C58.4744 190.646 60.3824 190.995 62.4285 190.995C64.4745 190.995 66.3814 190.646 67.9832 190.044C70.8238 188.976 72.7039 187.115 72.7039 184.998Z" fill="#B8D1FF" stroke="#391CE1" stroke-opacity="0.4" stroke-miterlimit="10"/>
<path d="M96.971 201.243C96.971 203.36 95.0908 205.222 92.2503 206.289C90.6485 206.891 88.7416 207.24 86.6956 207.24C84.6495 207.24 82.7415 206.891 81.1397 206.289C78.3003 205.222 76.4189 203.36 76.4189 201.243C76.4189 197.931 81.0202 195.246 86.6956 195.246C92.3709 195.246 96.971 197.931 96.971 201.243Z" fill="#EAF1FE" stroke="#391CE1" stroke-opacity="0.4" stroke-miterlimit="10"/>
<path d="M96.971 201.244V211.334C96.971 214.646 92.3709 217.331 86.6956 217.331C81.0202 217.331 76.4189 214.646 76.4189 211.334V201.244C76.4189 203.36 78.3003 205.222 81.1397 206.289C82.7415 206.891 84.6495 207.24 86.6956 207.24C88.7416 207.24 90.6485 206.891 92.2503 206.289C95.0908 205.222 96.971 203.36 96.971 201.244Z" fill="#B8D1FF" stroke="#391CE1" stroke-opacity="0.4" stroke-miterlimit="10"/>
<path d="M48.599 201.237C48.599 203.353 46.7188 205.215 43.8782 206.282C42.2764 206.884 40.3695 207.233 38.3235 207.233C36.2775 207.233 34.3694 206.884 32.7676 206.282C29.9282 205.215 28.0469 203.353 28.0469 201.237C28.0469 197.924 32.6482 195.239 38.3235 195.239C43.9988 195.239 48.599 197.924 48.599 201.237Z" fill="#EAF1FE" stroke="#391CE1" stroke-opacity="0.4" stroke-miterlimit="10"/>
<path d="M48.599 201.236V211.326C48.599 214.639 43.9988 217.324 38.3235 217.324C32.6482 217.324 28.0469 214.639 28.0469 211.326V201.236C28.0469 203.353 29.9282 205.215 32.7676 206.282C34.3694 206.884 36.2775 207.233 38.3235 207.233C40.3695 207.233 42.2764 206.884 43.8782 206.282C46.7188 205.215 48.599 203.353 48.599 201.236Z" fill="#B8D1FF" stroke="#391CE1" stroke-opacity="0.4" stroke-miterlimit="10"/>
<path d="M96.6571 168.998C96.6571 171.115 94.7769 172.976 91.9363 174.043C90.3345 174.645 88.4276 174.994 86.3816 174.994C84.3356 174.994 82.4275 174.645 80.8257 174.043C77.9863 172.976 76.105 171.115 76.105 168.998C76.105 165.685 80.7063 163 86.3816 163C92.0569 163 96.6571 165.685 96.6571 168.998Z" fill="#EAF1FE" stroke="#391CE1" stroke-opacity="0.4" stroke-miterlimit="10"/>
<path d="M96.6571 168.998V179.088C96.6571 182.401 92.0569 185.086 86.3816 185.086C80.7063 185.086 76.105 182.401 76.105 179.088V168.998C76.105 171.115 77.9863 172.976 80.8257 174.044C82.4275 174.646 84.3356 174.995 86.3816 174.995C88.4276 174.995 90.3345 174.646 91.9363 174.044C94.7769 172.976 96.6571 171.115 96.6571 168.998Z" fill="#B8D1FF" stroke="#391CE1" stroke-opacity="0.4" stroke-miterlimit="10"/>
<path d="M120.924 185.243C120.924 187.36 119.044 189.222 116.203 190.289C114.602 190.891 112.695 191.24 110.649 191.24C108.603 191.24 106.695 190.891 105.093 190.289C102.253 189.222 100.372 187.36 100.372 185.243C100.372 181.931 104.973 179.246 110.649 179.246C116.324 179.246 120.924 181.931 120.924 185.243Z" fill="#EAF1FE" stroke="#391CE1" stroke-opacity="0.4" stroke-miterlimit="10"/>
<path d="M120.924 185.244V195.334C120.924 198.646 116.324 201.331 110.649 201.331C104.973 201.331 100.372 198.646 100.372 195.334V185.244C100.372 187.36 102.253 189.222 105.093 190.289C106.695 190.891 108.603 191.24 110.649 191.24C112.695 191.24 114.602 190.891 116.203 190.289C119.044 189.222 120.924 187.36 120.924 185.244Z" fill="#B8D1FF" stroke="#391CE1" stroke-opacity="0.4" stroke-miterlimit="10"/>
<path d="M62.4274 242.434V270.082L19 241.09V213.44L40.0787 227.513L62.4274 242.434Z" fill="#EAF1FE" stroke="#391CE1" stroke-opacity="0.4" stroke-miterlimit="10"/>
<path d="M62.4985 242.546V270.078L129.5 225L129.571 197.293L84.8473 227.625L62.4985 242.546Z" fill="#B8D1FF" stroke="#391CE1" stroke-opacity="0.4" stroke-miterlimit="10"/>
</g>
<defs>
<clipPath id="clip0_762_11160">
<rect width="420" height="240" fill="white"/>
</clipPath>
<clipPath id="clip1_762_11160">
<rect width="100" height="198" fill="white" transform="translate(211 14) rotate(90)"/>
</clipPath>
</defs>
</svg>
