<svg width="420" height="240" viewBox="0 0 420 240" fill="none" xmlns="http://www.w3.org/2000/svg">
<g clip-path="url(#clip0_762_11163)">
<rect width="420" height="240" fill="#EAF1FE"/>
<path d="M88.4554 104.7L276.932 226.091L86.799 352.8L-99.9989 228.997L88.4554 104.7Z" fill="#EAF1FE" stroke="#391CE1" stroke-opacity="0.4" stroke-miterlimit="10"/>
<path d="M131.229 108.035L110.376 122.107L87.5444 137.512L87.4284 137.435L65.0797 122.514L44.001 108.441L45.4648 107.498L53.0632 102.604L56.2251 100.569L70.0185 91.6851L77.1529 87.0896L80.9423 84.6492L88.1638 79.998L94.6858 84.2444L97.705 86.2093L105.661 91.3882L119.305 100.272L121.972 102.008L131.229 108.035Z" fill="#D2E2FF" stroke="#391CE1" stroke-opacity="0.4" stroke-miterlimit="10"/>
<path d="M97.8206 112.509C97.8206 114.625 95.9405 116.487 93.0999 117.554C91.4981 118.156 89.5912 118.505 87.5452 118.505C85.4991 118.505 83.5911 118.156 81.9893 117.554C79.1499 116.487 77.2686 114.625 77.2686 112.509C77.2686 109.196 81.8698 106.511 87.5452 106.511C93.2205 106.511 97.8206 109.196 97.8206 112.509Z" fill="#EAF1FE" stroke="#391CE1" stroke-opacity="0.4" stroke-miterlimit="10"/>
<path d="M97.8206 112.509V122.599C97.8206 125.911 93.2205 128.596 87.5452 128.596C81.8698 128.596 77.2686 125.911 77.2686 122.599V112.509C77.2686 114.626 79.1499 116.487 81.9893 117.554C83.5911 118.156 85.4991 118.505 87.5452 118.505C89.5912 118.505 91.4981 118.156 93.0999 117.554C95.9405 116.487 97.8206 114.626 97.8206 112.509Z" fill="#B8D1FF" stroke="#391CE1" stroke-opacity="0.4" stroke-miterlimit="10"/>
<path d="M97.7049 79.9978C97.7049 82.1146 95.8247 83.9762 92.9842 85.0433C91.3824 85.6453 89.4755 85.9944 87.4295 85.9944C85.3834 85.9944 83.4754 85.6453 81.8736 85.0433C79.0342 83.9762 77.1528 82.1146 77.1528 79.9978C77.1528 76.6851 81.7541 74 87.4295 74C93.1048 74 97.7049 76.6851 97.7049 79.9978Z" fill="#EAF1FE" stroke="#391CE1" stroke-opacity="0.4" stroke-miterlimit="10"/>
<path d="M97.7049 79.998V90.0879C97.7049 93.4006 93.1048 96.0857 87.4295 96.0857C81.7541 96.0857 77.1528 93.4006 77.1528 90.0879V79.998C77.1528 82.1148 79.0342 83.9765 81.8736 85.0436C83.4754 85.6456 85.3834 85.9947 87.4295 85.9947C89.4755 85.9947 91.3824 85.6456 92.9842 85.0436C95.8247 83.9765 97.7049 82.1148 97.7049 79.998Z" fill="#B8D1FF" stroke="#391CE1" stroke-opacity="0.4" stroke-miterlimit="10"/>
<path d="M121.972 96.2434C121.972 98.3602 120.092 100.222 117.251 101.289C115.649 101.891 113.743 102.24 111.697 102.24C109.65 102.24 107.742 101.891 106.141 101.289C103.301 100.222 101.42 98.3602 101.42 96.2434C101.42 92.9308 106.021 90.2456 111.697 90.2456C117.372 90.2456 121.972 92.9308 121.972 96.2434Z" fill="#EAF1FE" stroke="#391CE1" stroke-opacity="0.4" stroke-miterlimit="10"/>
<path d="M121.972 96.2437V106.334C121.972 109.646 117.372 112.331 111.697 112.331C106.021 112.331 101.42 109.646 101.42 106.334V96.2437C101.42 98.3605 103.301 100.222 106.141 101.289C107.742 101.891 109.65 102.24 111.697 102.24C113.743 102.24 115.649 101.891 117.251 101.289C120.092 100.222 121.972 98.3605 121.972 96.2437Z" fill="#B8D1FF" stroke="#391CE1" stroke-opacity="0.4" stroke-miterlimit="10"/>
<path d="M73.5999 96.2366C73.5999 98.3534 71.7198 100.215 68.8792 101.282C67.2774 101.884 65.3705 102.233 63.3245 102.233C61.2784 102.233 59.3704 101.884 57.7686 101.282C54.9292 100.215 53.0479 98.3534 53.0479 96.2366C53.0479 92.9239 57.6491 90.2388 63.3245 90.2388C68.9998 90.2388 73.5999 92.9239 73.5999 96.2366Z" fill="#EAF1FE" stroke="#391CE1" stroke-opacity="0.4" stroke-miterlimit="10"/>
<path d="M73.5999 96.2363V106.326C73.5999 109.639 68.9998 112.324 63.3245 112.324C57.6491 112.324 53.0479 109.639 53.0479 106.326V96.2363C53.0479 98.3531 54.9292 100.215 57.7686 101.282C59.3704 101.884 61.2784 102.233 63.3245 102.233C65.3705 102.233 67.2774 101.884 68.8792 101.282C71.7198 100.215 73.5999 98.3531 73.5999 96.2363Z" fill="#B8D1FF" stroke="#391CE1" stroke-opacity="0.4" stroke-miterlimit="10"/>
<path d="M87.4284 137.434V165.082L44.001 136.09V108.44L65.0797 122.513L87.4284 137.434Z" fill="#EAF1FE" stroke="#391CE1" stroke-opacity="0.4" stroke-miterlimit="10"/>
<path d="M87.4995 137.55V165.083L131.159 135.742L131.23 108.035L109.848 122.63L87.4995 137.55Z" fill="#B8D1FF" stroke="#391CE1" stroke-opacity="0.4" stroke-miterlimit="10"/>
<path d="M276.932 226.091V232.089L86.8158 359.641V352.8L276.932 226.091Z" fill="#F8FBFF" stroke="#391CE1" stroke-opacity="0.4" stroke-miterlimit="10"/>
<path d="M-100 228.983V234.981L86.7407 359.641V352.8L-100 228.983Z" fill="#D5E3FE" stroke="#391CE1" stroke-opacity="0.4" stroke-miterlimit="10"/>
<path d="M29.4171 170C29.4171 172.117 31.2973 173.978 34.1379 175.045C35.7397 175.647 37.6466 175.996 39.6926 175.996C41.7387 175.996 43.6467 175.647 45.2485 175.045C48.0879 173.978 49.9692 172.117 49.9692 170C49.9692 166.687 45.368 164.002 39.6926 164.002C34.0173 164.002 29.4171 166.687 29.4171 170Z" fill="#F8FBFF" stroke="#391CE1" stroke-opacity="0.4" stroke-miterlimit="10"/>
<path d="M29.4171 170V180.089C29.4171 183.402 34.0173 186.087 39.6926 186.087C45.368 186.087 49.9692 183.402 49.9692 180.089V170C49.9692 172.116 48.0879 173.978 45.2485 175.045C43.6467 175.647 41.7387 175.996 39.6926 175.996C37.6466 175.996 35.7397 175.647 34.1379 175.045C31.2973 173.978 29.4171 172.116 29.4171 170Z" fill="#D5E3FE" stroke="#391CE1" stroke-opacity="0.4" stroke-miterlimit="10"/>
<path d="M5.26576 153.735C5.26576 155.851 7.14597 157.713 9.98654 158.78C11.5883 159.382 13.4952 159.731 15.5412 159.731C17.5873 159.731 19.4953 159.382 21.0971 158.78C23.9365 157.713 25.8179 155.851 25.8179 153.735C25.8179 150.422 21.2166 147.737 15.5412 147.737C9.8659 147.737 5.26576 150.422 5.26576 153.735Z" fill="#F8FBFF" stroke="#391CE1" stroke-opacity="0.4" stroke-miterlimit="10"/>
<path d="M5.26576 153.734V163.824C5.26576 167.137 9.8659 169.822 15.5412 169.822C21.2166 169.822 25.8179 167.137 25.8179 163.824V153.734C25.8179 155.851 23.9365 157.713 21.0971 158.78C19.4953 159.382 17.5873 159.731 15.5412 159.731C13.4952 159.731 11.5883 159.382 9.98654 158.78C7.14597 157.713 5.26576 155.851 5.26576 153.734Z" fill="#D5E3FE" stroke="#391CE1" stroke-opacity="0.4" stroke-miterlimit="10"/>
<path d="M-18.9398 202.49C-18.9398 204.607 -17.0596 206.468 -14.219 207.535C-12.6172 208.137 -10.7103 208.487 -8.6643 208.487C-6.61826 208.487 -4.71025 208.137 -3.10844 207.535C-0.269031 206.468 1.6123 204.607 1.6123 202.49C1.6123 199.177 -2.98896 196.492 -8.6643 196.492C-14.3396 196.492 -18.9398 199.177 -18.9398 202.49Z" fill="#F8FBFF" stroke="#391CE1" stroke-opacity="0.4" stroke-miterlimit="10"/>
<path d="M-18.9398 202.49V212.58C-18.9398 215.893 -14.3396 218.578 -8.6643 218.578C-2.98896 218.578 1.6123 215.893 1.6123 212.58V202.49C1.6123 204.607 -0.269031 206.469 -3.10844 207.536C-4.71025 208.138 -6.61826 208.487 -8.6643 208.487C-10.7103 208.487 -12.6172 208.138 -14.219 207.536C-17.0596 206.469 -18.9398 204.607 -18.9398 202.49Z" fill="#D5E3FE" stroke="#391CE1" stroke-opacity="0.4" stroke-miterlimit="10"/>
<path d="M-18.8241 169.98C-18.8241 172.097 -16.9439 173.958 -14.1033 175.025C-12.5015 175.627 -10.5946 175.976 -8.54858 175.976C-6.50253 175.976 -4.59453 175.627 -2.99272 175.025C-0.153308 173.958 1.72803 172.097 1.72803 169.98C1.72803 166.667 -2.87324 163.982 -8.54858 163.982C-14.2239 163.982 -18.8241 166.667 -18.8241 169.98Z" fill="#F8FBFF" stroke="#391CE1" stroke-opacity="0.4" stroke-miterlimit="10"/>
<path d="M-18.8241 169.98V180.07C-18.8241 183.383 -14.2239 186.068 -8.54858 186.068C-2.87324 186.068 1.72803 183.383 1.72803 180.07V169.98C1.72803 172.097 -0.153308 173.958 -2.99272 175.026C-4.59453 175.627 -6.50253 175.977 -8.54858 175.977C-10.5946 175.977 -12.5015 175.627 -14.1033 175.026C-16.9439 173.958 -18.8241 172.097 -18.8241 169.98Z" fill="#D5E3FE" stroke="#391CE1" stroke-opacity="0.4" stroke-miterlimit="10"/>
<path d="M5.26576 186.225C5.26576 188.342 7.14597 190.203 9.98654 191.27C11.5883 191.872 13.4952 192.221 15.5412 192.221C17.5873 192.221 19.4953 191.872 21.0971 191.27C23.9365 190.203 25.8179 188.342 25.8179 186.225C25.8179 182.912 21.2166 180.227 15.5412 180.227C9.8659 180.227 5.26576 182.912 5.26576 186.225Z" fill="#F8FBFF" stroke="#391CE1" stroke-opacity="0.4" stroke-miterlimit="10"/>
<path d="M5.26576 186.225V196.315C5.26576 199.628 9.8659 202.313 15.5412 202.313C21.2166 202.313 25.8179 199.628 25.8179 196.315V186.225C25.8179 188.342 23.9365 190.204 21.0971 191.271C19.4953 191.873 17.5873 192.222 15.5412 192.222C13.4952 192.222 11.5883 191.873 9.98654 191.271C7.14597 190.204 5.26576 188.342 5.26576 186.225Z" fill="#D5E3FE" stroke="#391CE1" stroke-opacity="0.4" stroke-miterlimit="10"/>
<path d="M126.077 170.013C126.077 172.13 127.957 173.992 130.798 175.059C132.4 175.661 134.307 176.01 136.353 176.01C138.399 176.01 140.307 175.661 141.909 175.059C144.748 173.992 146.629 172.13 146.629 170.013C146.629 166.701 142.028 164.016 136.353 164.016C130.677 164.016 126.077 166.701 126.077 170.013Z" fill="#F8FBFF" stroke="#391CE1" stroke-opacity="0.4" stroke-miterlimit="10"/>
<path d="M126.077 170.014V180.104C126.077 183.416 130.677 186.101 136.353 186.101C142.028 186.101 146.629 183.416 146.629 180.104V170.014C146.629 172.13 144.748 173.992 141.909 175.059C140.307 175.661 138.399 176.01 136.353 176.01C134.307 176.01 132.4 175.661 130.798 175.059C127.957 173.992 126.077 172.13 126.077 170.014Z" fill="#D5E3FE" stroke="#391CE1" stroke-opacity="0.4" stroke-miterlimit="10"/>
<path d="M150.282 153.748C150.282 155.865 152.162 157.727 155.003 158.794C156.604 159.396 158.511 159.745 160.557 159.745C162.603 159.745 164.511 159.396 166.113 158.794C168.953 157.727 170.834 155.865 170.834 153.748C170.834 150.436 166.233 147.75 160.557 147.75C154.882 147.75 150.282 150.436 150.282 153.748Z" fill="#F8FBFF" stroke="#391CE1" stroke-opacity="0.4" stroke-miterlimit="10"/>
<path d="M150.282 153.749V163.838C150.282 167.151 154.882 169.836 160.557 169.836C166.233 169.836 170.834 167.151 170.834 163.838V153.749C170.834 155.865 168.953 157.727 166.113 158.794C164.511 159.396 162.603 159.745 160.557 159.745C158.511 159.745 156.604 159.396 155.003 158.794C152.162 157.727 150.282 155.865 150.282 153.749Z" fill="#D5E3FE" stroke="#391CE1" stroke-opacity="0.4" stroke-miterlimit="10"/>
<path d="M77.7204 202.504C77.7204 204.621 79.6006 206.483 82.4411 207.55C84.0429 208.152 85.9498 208.501 87.9958 208.501C90.0419 208.501 91.9499 208.152 93.5517 207.55C96.3911 206.483 98.2725 204.621 98.2725 202.504C98.2725 199.191 93.6712 196.506 87.9958 196.506C82.3205 196.506 77.7204 199.191 77.7204 202.504Z" fill="#F8FBFF" stroke="#391CE1" stroke-opacity="0.4" stroke-miterlimit="10"/>
<path d="M77.7204 202.504V212.594C77.7204 215.906 82.3205 218.592 87.9958 218.592C93.6712 218.592 98.2725 215.906 98.2725 212.594V202.504C98.2725 204.621 96.3911 206.482 93.5517 207.549C91.9499 208.151 90.0419 208.501 87.9958 208.501C85.9498 208.501 84.0429 208.151 82.4411 207.549C79.6006 206.482 77.7204 204.621 77.7204 202.504Z" fill="#D5E3FE" stroke="#391CE1" stroke-opacity="0.4" stroke-miterlimit="10"/>
<path d="M53.5685 186.239C53.5685 188.356 55.4487 190.217 58.2893 191.285C59.8911 191.887 61.7979 192.236 63.844 192.236C65.89 192.236 67.798 191.887 69.3998 191.285C72.2393 190.217 74.1206 188.356 74.1206 186.239C74.1206 182.926 69.5193 180.241 63.844 180.241C58.1686 180.241 53.5685 182.926 53.5685 186.239Z" fill="#F8FBFF" stroke="#391CE1" stroke-opacity="0.4" stroke-miterlimit="10"/>
<path d="M53.5685 186.239V196.329C53.5685 199.641 58.1686 202.326 63.844 202.326C69.5193 202.326 74.1206 199.641 74.1206 196.329V186.239C74.1206 188.356 72.2393 190.217 69.3998 191.284C67.798 191.886 65.89 192.235 63.844 192.235C61.7979 192.235 59.8911 191.886 58.2893 191.284C55.4487 190.217 53.5685 188.356 53.5685 186.239Z" fill="#D5E3FE" stroke="#391CE1" stroke-opacity="0.4" stroke-miterlimit="10"/>
<path d="M101.925 186.239C101.925 188.356 103.805 190.217 106.646 191.285C108.248 191.887 110.154 192.236 112.2 192.236C114.246 192.236 116.154 191.887 117.756 191.285C120.596 190.217 122.477 188.356 122.477 186.239C122.477 182.926 117.876 180.241 112.2 180.241C106.525 180.241 101.925 182.926 101.925 186.239Z" fill="#F8FBFF" stroke="#391CE1" stroke-opacity="0.4" stroke-miterlimit="10"/>
<path d="M101.925 186.239V196.329C101.925 199.641 106.525 202.326 112.2 202.326C117.876 202.326 122.477 199.641 122.477 196.329V186.239C122.477 188.356 120.596 190.217 117.756 191.284C116.154 191.886 114.246 192.235 112.2 192.235C110.154 192.235 108.248 191.886 106.646 191.284C103.805 190.217 101.925 188.356 101.925 186.239Z" fill="#D5E3FE" stroke="#391CE1" stroke-opacity="0.4" stroke-miterlimit="10"/>
<path d="M-18.8773 234.975C-18.8773 237.092 -16.9971 238.954 -14.1565 240.021C-12.5547 240.623 -10.6478 240.972 -8.6018 240.972C-6.55576 240.972 -4.64775 240.623 -3.04594 240.021C-0.206531 238.954 1.6748 237.092 1.6748 234.975C1.6748 231.663 -2.92646 228.978 -8.6018 228.978C-14.2771 228.978 -18.8773 231.663 -18.8773 234.975Z" fill="#F8FBFF" stroke="#391CE1" stroke-opacity="0.4" stroke-miterlimit="10"/>
<path d="M-18.8773 234.975V245.065C-18.8773 248.378 -14.2771 251.063 -8.6018 251.063C-2.92646 251.063 1.6748 248.378 1.6748 245.065V234.975C1.6748 237.092 -0.206531 238.954 -3.04594 240.021C-4.64775 240.623 -6.55576 240.972 -8.6018 240.972C-10.6478 240.972 -12.5547 240.623 -14.1565 240.021C-16.9971 238.954 -18.8773 237.092 -18.8773 234.975Z" fill="#D5E3FE" stroke="#391CE1" stroke-opacity="0.4" stroke-miterlimit="10"/>
<path d="M29.3639 234.995C29.3639 237.112 31.2441 238.973 34.0847 240.04C35.6865 240.642 37.5934 240.991 39.6394 240.991C41.6854 240.991 43.5935 240.642 45.1953 240.04C48.0347 238.973 49.916 237.112 49.916 234.995C49.916 231.682 45.3147 228.997 39.6394 228.997C33.9641 228.997 29.3639 231.682 29.3639 234.995Z" fill="#F8FBFF" stroke="#391CE1" stroke-opacity="0.4" stroke-miterlimit="10"/>
<path d="M29.3639 234.995V245.085C29.3639 248.398 33.9641 251.083 39.6394 251.083C45.3147 251.083 49.916 248.398 49.916 245.085V234.995C49.916 237.112 48.0347 238.974 45.1953 240.041C43.5935 240.643 41.6854 240.992 39.6394 240.992C37.5934 240.992 35.6865 240.643 34.0847 240.041C31.2441 238.974 29.3639 237.112 29.3639 234.995Z" fill="#D5E3FE" stroke="#391CE1" stroke-opacity="0.4" stroke-miterlimit="10"/>
<path d="M29.4796 202.485C29.4796 204.601 31.3598 206.463 34.2004 207.53C35.8022 208.132 37.7091 208.481 39.7551 208.481C41.8012 208.481 43.7092 208.132 45.311 207.53C48.1504 206.463 50.0317 204.601 50.0317 202.485C50.0317 199.172 45.4305 196.487 39.7551 196.487C34.0798 196.487 29.4796 199.172 29.4796 202.485Z" fill="#F8FBFF" stroke="#391CE1" stroke-opacity="0.4" stroke-miterlimit="10"/>
<path d="M29.4796 202.485V212.575C29.4796 215.887 34.0798 218.573 39.7551 218.573C45.4305 218.573 50.0317 215.887 50.0317 212.575V202.485C50.0317 204.602 48.1504 206.463 45.311 207.53C43.7092 208.132 41.8012 208.481 39.7551 208.481C37.7091 208.481 35.8022 208.132 34.2004 207.53C31.3598 206.463 29.4796 204.602 29.4796 202.485Z" fill="#D5E3FE" stroke="#391CE1" stroke-opacity="0.4" stroke-miterlimit="10"/>
<path d="M5.21257 218.73C5.21257 220.847 7.09274 222.708 9.93331 223.775C11.5351 224.377 13.442 224.726 15.488 224.726C17.5341 224.726 19.4421 224.377 21.0439 223.775C23.8833 222.708 25.7646 220.847 25.7646 218.73C25.7646 215.417 21.1634 212.732 15.488 212.732C9.8127 212.732 5.21257 215.417 5.21257 218.73Z" fill="#F8FBFF" stroke="#391CE1" stroke-opacity="0.4" stroke-miterlimit="10"/>
<path d="M5.21257 218.73V228.82C5.21257 232.133 9.8127 234.818 15.488 234.818C21.1634 234.818 25.7646 232.133 25.7646 228.82V218.73C25.7646 220.847 23.8833 222.708 21.0439 223.776C19.4421 224.377 17.5341 224.727 15.488 224.727C13.442 224.727 11.5351 224.377 9.93331 223.776C7.09274 222.708 5.21257 220.847 5.21257 218.73Z" fill="#D5E3FE" stroke="#391CE1" stroke-opacity="0.4" stroke-miterlimit="10"/>
<path d="M53.5685 218.73C53.5685 220.847 55.4487 222.708 58.2893 223.775C59.8911 224.377 61.7979 224.726 63.844 224.726C65.89 224.726 67.798 224.377 69.3998 223.775C72.2393 222.708 74.1206 220.847 74.1206 218.73C74.1206 215.417 69.5193 212.732 63.844 212.732C58.1686 212.732 53.5685 215.417 53.5685 218.73Z" fill="#F8FBFF" stroke="#391CE1" stroke-opacity="0.4" stroke-miterlimit="10"/>
<path d="M53.5685 218.73V228.82C53.5685 232.133 58.1686 234.818 63.844 234.818C69.5193 234.818 74.1206 232.133 74.1206 228.82V218.73C74.1206 220.847 72.2393 222.708 69.3998 223.776C67.798 224.377 65.89 224.727 63.844 224.727C61.7979 224.727 59.8911 224.377 58.2893 223.776C55.4487 222.708 53.5685 220.847 53.5685 218.73Z" fill="#D5E3FE" stroke="#391CE1" stroke-opacity="0.4" stroke-miterlimit="10"/>
<path d="M150.398 186.245C150.398 188.362 152.278 190.223 155.119 191.29C156.721 191.892 158.628 192.241 160.674 192.241C162.72 192.241 164.628 191.892 166.229 191.29C169.069 190.223 170.95 188.362 170.95 186.245C170.95 182.932 166.349 180.247 160.674 180.247C154.998 180.247 150.398 182.932 150.398 186.245Z" fill="#F8FBFF" stroke="#391CE1" stroke-opacity="0.4" stroke-miterlimit="10"/>
<path d="M150.398 186.245V196.335C150.398 199.647 154.998 202.332 160.674 202.332C166.349 202.332 170.95 199.647 170.95 196.335V186.245C170.95 188.361 169.069 190.223 166.229 191.29C164.628 191.892 162.72 192.241 160.674 192.241C158.628 192.241 156.721 191.892 155.119 191.29C152.278 190.223 150.398 188.361 150.398 186.245Z" fill="#D5E3FE" stroke="#391CE1" stroke-opacity="0.4" stroke-miterlimit="10"/>
<path d="M174.604 169.98C174.604 172.097 176.484 173.958 179.324 175.025C180.926 175.627 182.833 175.976 184.879 175.976C186.925 175.976 188.833 175.627 190.435 175.025C193.274 173.958 195.156 172.097 195.156 169.98C195.156 166.667 190.554 163.982 184.879 163.982C179.204 163.982 174.604 166.667 174.604 169.98Z" fill="#F8FBFF" stroke="#391CE1" stroke-opacity="0.4" stroke-miterlimit="10"/>
<path d="M174.604 169.98V180.07C174.604 183.383 179.204 186.068 184.879 186.068C190.554 186.068 195.156 183.383 195.156 180.07V169.98C195.156 172.097 193.274 173.958 190.435 175.026C188.833 175.627 186.925 175.977 184.879 175.977C182.833 175.977 180.926 175.627 179.324 175.026C176.484 173.958 174.604 172.097 174.604 169.98Z" fill="#D5E3FE" stroke="#391CE1" stroke-opacity="0.4" stroke-miterlimit="10"/>
<path d="M102.041 218.736C102.041 220.852 103.921 222.714 106.762 223.781C108.364 224.383 110.271 224.732 112.317 224.732C114.363 224.732 116.271 224.383 117.873 223.781C120.712 222.714 122.593 220.852 122.593 218.736C122.593 215.423 117.992 212.738 112.317 212.738C106.641 212.738 102.041 215.423 102.041 218.736Z" fill="#F8FBFF" stroke="#391CE1" stroke-opacity="0.4" stroke-miterlimit="10"/>
<path d="M102.041 218.736V228.826C102.041 232.138 106.641 234.824 112.317 234.824C117.992 234.824 122.593 232.138 122.593 228.826V218.736C122.593 220.853 120.712 222.714 117.873 223.781C116.271 224.383 114.363 224.732 112.317 224.732C110.271 224.732 108.364 224.383 106.762 223.781C103.921 222.714 102.041 220.853 102.041 218.736Z" fill="#D5E3FE" stroke="#391CE1" stroke-opacity="0.4" stroke-miterlimit="10"/>
<path d="M126.247 202.47C126.247 204.587 128.127 206.449 130.967 207.516C132.569 208.118 134.476 208.467 136.522 208.467C138.568 208.467 140.476 208.118 142.078 207.516C144.917 206.449 146.799 204.587 146.799 202.47C146.799 199.158 142.198 196.473 136.522 196.473C130.847 196.473 126.247 199.158 126.247 202.47Z" fill="#F8FBFF" stroke="#391CE1" stroke-opacity="0.4" stroke-miterlimit="10"/>
<path d="M126.247 202.471V212.561C126.247 215.873 130.847 218.558 136.522 218.558C142.198 218.558 146.799 215.873 146.799 212.561V202.471C146.799 204.588 144.917 206.449 142.078 207.516C140.476 208.118 138.568 208.467 136.522 208.467C134.476 208.467 132.569 208.118 130.967 207.516C128.127 206.449 126.247 204.588 126.247 202.471Z" fill="#D5E3FE" stroke="#391CE1" stroke-opacity="0.4" stroke-miterlimit="10"/>
<path d="M77.8898 234.961C77.8898 237.078 79.77 238.94 82.6106 240.007C84.2124 240.609 86.1192 240.958 88.1653 240.958C90.2113 240.958 92.1193 240.609 93.7211 240.007C96.5606 238.94 98.4419 237.078 98.4419 234.961C98.4419 231.649 93.8406 228.963 88.1653 228.963C82.4899 228.963 77.8898 231.649 77.8898 234.961Z" fill="#F8FBFF" stroke="#391CE1" stroke-opacity="0.4" stroke-miterlimit="10"/>
<path d="M77.8898 234.961V245.051C77.8898 248.364 82.4899 251.049 88.1653 251.049C93.8406 251.049 98.4419 248.364 98.4419 245.051V234.961C98.4419 237.078 96.5606 238.94 93.7211 240.007C92.1193 240.609 90.2113 240.958 88.1653 240.958C86.1192 240.958 84.2124 240.609 82.6106 240.007C79.77 238.94 77.8898 237.078 77.8898 234.961Z" fill="#D5E3FE" stroke="#391CE1" stroke-opacity="0.4" stroke-miterlimit="10"/>
<path d="M198.934 218.755C198.934 220.872 200.814 222.734 203.655 223.801C205.256 224.403 207.163 224.752 209.209 224.752C211.255 224.752 213.163 224.403 214.765 223.801C217.604 222.734 219.486 220.872 219.486 218.755C219.486 215.442 214.885 212.757 209.209 212.757C203.534 212.757 198.934 215.442 198.934 218.755Z" fill="#F8FBFF" stroke="#391CE1" stroke-opacity="0.4" stroke-miterlimit="10"/>
<path d="M198.934 218.755V228.845C198.934 232.158 203.534 234.843 209.209 234.843C214.885 234.843 219.486 232.158 219.486 228.845V218.755C219.486 220.872 217.604 222.734 214.765 223.801C213.163 224.403 211.255 224.752 209.209 224.752C207.163 224.752 205.256 224.403 203.655 223.801C200.814 222.734 198.934 220.872 198.934 218.755Z" fill="#D5E3FE" stroke="#391CE1" stroke-opacity="0.4" stroke-miterlimit="10"/>
<path d="M199.05 186.245C199.05 188.362 200.93 190.223 203.771 191.29C205.373 191.892 207.279 192.241 209.325 192.241C211.371 192.241 213.279 191.892 214.881 191.29C217.721 190.223 219.602 188.362 219.602 186.245C219.602 182.932 215.001 180.247 209.325 180.247C203.65 180.247 199.05 182.932 199.05 186.245Z" fill="#F8FBFF" stroke="#391CE1" stroke-opacity="0.4" stroke-miterlimit="10"/>
<path d="M199.05 186.245V196.335C199.05 199.647 203.65 202.332 209.325 202.332C215.001 202.332 219.602 199.647 219.602 196.335V186.245C219.602 188.361 217.721 190.223 214.881 191.29C213.279 191.892 211.371 192.241 209.325 192.241C207.279 192.241 205.373 191.892 203.771 191.29C200.93 190.223 199.05 188.361 199.05 186.245Z" fill="#D5E3FE" stroke="#391CE1" stroke-opacity="0.4" stroke-miterlimit="10"/>
<path d="M174.781 202.49C174.781 204.607 176.662 206.468 179.502 207.535C181.104 208.137 183.011 208.487 185.057 208.487C187.103 208.487 189.011 208.137 190.613 207.535C193.452 206.468 195.333 204.607 195.333 202.49C195.333 199.177 190.732 196.492 185.057 196.492C179.382 196.492 174.781 199.177 174.781 202.49Z" fill="#F8FBFF" stroke="#391CE1" stroke-opacity="0.4" stroke-miterlimit="10"/>
<path d="M174.781 202.49V212.58C174.781 215.893 179.382 218.578 185.057 218.578C190.732 218.578 195.333 215.893 195.333 212.58V202.49C195.333 204.607 193.452 206.469 190.613 207.536C189.011 208.138 187.103 208.487 185.057 208.487C183.011 208.487 181.104 208.138 179.502 207.536C176.662 206.469 174.781 204.607 174.781 202.49Z" fill="#D5E3FE" stroke="#391CE1" stroke-opacity="0.4" stroke-miterlimit="10"/>
<path d="M223.138 202.49C223.138 204.607 225.019 206.468 227.859 207.535C229.461 208.137 231.368 208.487 233.414 208.487C235.46 208.487 237.368 208.137 238.97 207.535C241.809 206.468 243.69 204.607 243.69 202.49C243.69 199.177 239.089 196.492 233.414 196.492C227.738 196.492 223.138 199.177 223.138 202.49Z" fill="#F8FBFF" stroke="#391CE1" stroke-opacity="0.4" stroke-miterlimit="10"/>
<path d="M223.138 202.49V212.58C223.138 215.893 227.738 218.578 233.414 218.578C239.089 218.578 243.69 215.893 243.69 212.58V202.49C243.69 204.607 241.809 206.469 238.97 207.536C237.368 208.138 235.46 208.487 233.414 208.487C231.368 208.487 229.461 208.138 227.859 207.536C225.019 206.469 223.138 204.607 223.138 202.49Z" fill="#D5E3FE" stroke="#391CE1" stroke-opacity="0.4" stroke-miterlimit="10"/>
<path d="M150.693 218.736C150.693 220.852 152.573 222.714 155.413 223.781C157.015 224.383 158.922 224.732 160.968 224.732C163.014 224.732 164.922 224.383 166.524 223.781C169.363 222.714 171.245 220.852 171.245 218.736C171.245 215.423 166.643 212.738 160.968 212.738C155.293 212.738 150.693 215.423 150.693 218.736Z" fill="#F8FBFF" stroke="#391CE1" stroke-opacity="0.4" stroke-miterlimit="10"/>
<path d="M150.693 218.736V228.826C150.693 232.138 155.293 234.824 160.968 234.824C166.643 234.824 171.245 232.138 171.245 228.826V218.736C171.245 220.853 169.363 222.714 166.524 223.781C164.922 224.383 163.014 224.732 160.968 224.732C158.922 224.732 157.015 224.383 155.413 223.781C152.573 222.714 150.693 220.853 150.693 218.736Z" fill="#D5E3FE" stroke="#391CE1" stroke-opacity="0.4" stroke-miterlimit="10"/>
<path d="M126.425 234.981C126.425 237.098 128.306 238.96 131.146 240.027C132.748 240.629 134.655 240.978 136.701 240.978C138.747 240.978 140.655 240.629 142.257 240.027C145.096 238.96 146.978 237.098 146.978 234.981C146.978 231.669 142.376 228.983 136.701 228.983C131.026 228.983 126.425 231.669 126.425 234.981Z" fill="#F8FBFF" stroke="#391CE1" stroke-opacity="0.4" stroke-miterlimit="10"/>
<path d="M126.425 234.981V245.071C126.425 248.383 131.026 251.069 136.701 251.069C142.376 251.069 146.978 248.383 146.978 245.071V234.981C146.978 237.098 145.096 238.959 142.257 240.026C140.655 240.628 138.747 240.978 136.701 240.978C134.655 240.978 132.748 240.628 131.146 240.026C128.306 238.959 126.425 237.098 126.425 234.981Z" fill="#D5E3FE" stroke="#391CE1" stroke-opacity="0.4" stroke-miterlimit="10"/>
<path d="M174.781 234.981C174.781 237.098 176.662 238.96 179.502 240.027C181.104 240.629 183.011 240.978 185.057 240.978C187.103 240.978 189.011 240.629 190.613 240.027C193.452 238.96 195.333 237.098 195.333 234.981C195.333 231.669 190.732 228.983 185.057 228.983C179.382 228.983 174.781 231.669 174.781 234.981Z" fill="#F8FBFF" stroke="#391CE1" stroke-opacity="0.4" stroke-miterlimit="10"/>
<path d="M174.781 234.981V245.071C174.781 248.383 179.382 251.069 185.057 251.069C190.732 251.069 195.333 248.383 195.333 245.071V234.981C195.333 237.098 193.452 238.959 190.613 240.026C189.011 240.628 187.103 240.978 185.057 240.978C183.011 240.978 181.104 240.628 179.502 240.026C176.662 238.959 174.781 237.098 174.781 234.981Z" fill="#D5E3FE" stroke="#391CE1" stroke-opacity="0.4" stroke-miterlimit="10"/>
<path d="M224.76 232.09C224.76 234.206 226.64 236.068 229.481 237.135C231.082 237.737 232.989 238.086 235.035 238.086C237.081 238.086 238.989 237.737 240.591 237.135C243.431 236.068 245.312 234.206 245.312 232.09C245.312 228.777 240.711 226.092 235.035 226.092C229.36 226.092 224.76 228.777 224.76 232.09Z" fill="#F8FBFF" stroke="#391CE1" stroke-opacity="0.4" stroke-miterlimit="10"/>
<path d="M224.76 232.089V242.179C224.76 245.492 229.36 248.177 235.035 248.177C240.711 248.177 245.312 245.492 245.312 242.179V232.089C245.312 234.206 243.431 236.068 240.591 237.135C238.989 237.737 237.081 238.086 235.035 238.086C232.989 238.086 231.082 237.737 229.481 237.135C226.64 236.068 224.76 234.206 224.76 232.089Z" fill="#D5E3FE" stroke="#391CE1" stroke-opacity="0.4" stroke-miterlimit="10"/>
<path d="M248.965 215.825C248.965 217.942 250.846 219.804 253.686 220.871C255.288 221.473 257.195 221.822 259.241 221.822C261.287 221.822 263.195 221.473 264.797 220.871C267.636 219.804 269.518 217.942 269.518 215.825C269.518 212.513 264.916 209.828 259.241 209.828C253.566 209.828 248.965 212.513 248.965 215.825Z" fill="#F8FBFF" stroke="#391CE1" stroke-opacity="0.4" stroke-miterlimit="10"/>
<path d="M248.965 215.826V225.916C248.965 229.228 253.566 231.913 259.241 231.913C264.916 231.913 269.518 229.228 269.518 225.916V215.826C269.518 217.942 267.636 219.804 264.797 220.871C263.195 221.473 261.287 221.822 259.241 221.822C257.195 221.822 255.288 221.473 253.686 220.871C250.846 219.804 248.965 217.942 248.965 215.826Z" fill="#D5E3FE" stroke="#391CE1" stroke-opacity="0.4" stroke-miterlimit="10"/>
<path d="M29.5329 137.489C29.5329 139.606 31.4131 141.467 34.2536 142.535C35.8554 143.137 37.7623 143.486 39.8083 143.486C41.8544 143.486 43.7624 143.137 45.3642 142.535C48.2036 141.467 50.085 139.606 50.085 137.489C50.085 134.176 45.4837 131.491 39.8083 131.491C34.133 131.491 29.5329 134.176 29.5329 137.489Z" fill="#F8FBFF" stroke="#391CE1" stroke-opacity="0.4" stroke-miterlimit="10"/>
<path d="M29.5329 137.489V147.579C29.5329 150.892 34.133 153.577 39.8083 153.577C45.4837 153.577 50.085 150.892 50.085 147.579V137.489C50.085 139.606 48.2036 141.468 45.3642 142.535C43.7624 143.137 41.8544 143.486 39.8083 143.486C37.7623 143.486 35.8554 143.137 34.2536 142.535C31.4131 141.468 29.5329 139.606 29.5329 137.489Z" fill="#D5E3FE" stroke="#391CE1" stroke-opacity="0.4" stroke-miterlimit="10"/>
<path d="M53.6227 153.735C53.6227 155.851 55.5029 157.713 58.3435 158.78C59.9453 159.382 61.8521 159.731 63.8982 159.731C65.9442 159.731 67.8522 159.382 69.454 158.78C72.2935 157.713 74.1748 155.851 74.1748 153.735C74.1748 150.422 69.5735 147.737 63.8982 147.737C58.2228 147.737 53.6227 150.422 53.6227 153.735Z" fill="#F8FBFF" stroke="#391CE1" stroke-opacity="0.4" stroke-miterlimit="10"/>
<path d="M53.6227 153.734V163.824C53.6227 167.137 58.2228 169.822 63.8982 169.822C69.5735 169.822 74.1748 167.137 74.1748 163.824V153.734C74.1748 155.851 72.2935 157.713 69.454 158.78C67.8522 159.382 65.9442 159.731 63.8982 159.731C61.8521 159.731 59.9453 159.382 58.3435 158.78C55.5029 157.713 53.6227 155.851 53.6227 153.734Z" fill="#D5E3FE" stroke="#391CE1" stroke-opacity="0.4" stroke-miterlimit="10"/>
<path d="M126.194 137.503C126.194 139.62 128.074 141.482 130.914 142.549C132.516 143.151 134.423 143.5 136.469 143.5C138.515 143.5 140.423 143.151 142.025 142.549C144.864 141.482 146.746 139.62 146.746 137.503C146.746 134.191 142.144 131.505 136.469 131.505C130.794 131.505 126.194 134.191 126.194 137.503Z" fill="#F8FBFF" stroke="#391CE1" stroke-opacity="0.4" stroke-miterlimit="10"/>
<path d="M126.194 137.503V147.593C126.194 150.906 130.794 153.591 136.469 153.591C142.144 153.591 146.746 150.906 146.746 147.593V137.503C146.746 139.62 144.864 141.482 142.025 142.549C140.423 143.151 138.515 143.5 136.469 143.5C134.423 143.5 132.516 143.151 130.914 142.549C128.074 141.482 126.194 139.62 126.194 137.503Z" fill="#D5E3FE" stroke="#391CE1" stroke-opacity="0.4" stroke-miterlimit="10"/>
<path d="M101.925 153.748C101.925 155.865 103.805 157.727 106.646 158.794C108.248 159.396 110.154 159.745 112.2 159.745C114.246 159.745 116.154 159.396 117.756 158.794C120.596 157.727 122.477 155.865 122.477 153.748C122.477 150.436 117.876 147.75 112.2 147.75C106.525 147.75 101.925 150.436 101.925 153.748Z" fill="#F8FBFF" stroke="#391CE1" stroke-opacity="0.4" stroke-miterlimit="10"/>
<path d="M101.925 153.749V163.838C101.925 167.151 106.525 169.836 112.2 169.836C117.876 169.836 122.477 167.151 122.477 163.838V153.749C122.477 155.865 120.596 157.727 117.756 158.794C116.154 159.396 114.246 159.745 112.2 159.745C110.154 159.745 108.248 159.396 106.646 158.794C103.805 157.727 101.925 155.865 101.925 153.749Z" fill="#D5E3FE" stroke="#391CE1" stroke-opacity="0.4" stroke-miterlimit="10"/>
<path d="M77.8366 169.994C77.8366 172.111 79.7168 173.972 82.5573 175.039C84.1591 175.641 86.066 175.991 88.1121 175.991C90.1581 175.991 92.0661 175.641 93.6679 175.039C96.5073 173.972 98.3887 172.111 98.3887 169.994C98.3887 166.681 93.7874 163.996 88.1121 163.996C82.4367 163.996 77.8366 166.681 77.8366 169.994Z" fill="#F8FBFF" stroke="#391CE1" stroke-opacity="0.4" stroke-miterlimit="10"/>
<path d="M77.8366 169.994V180.084C77.8366 183.396 82.4367 186.081 88.1121 186.081C93.7874 186.081 98.3887 183.396 98.3887 180.084V169.994C98.3887 172.11 96.5073 173.972 93.6679 175.039C92.0661 175.641 90.1581 175.99 88.1121 175.99C86.066 175.99 84.1591 175.641 82.5573 175.039C79.7168 173.972 77.8366 172.11 77.8366 169.994Z" fill="#D5E3FE" stroke="#391CE1" stroke-opacity="0.4" stroke-miterlimit="10"/>
<path d="M300.925 182.412L256.375 212.112L233.543 227.517L233.427 227.44L211.079 212.519L190 198.446L191.464 197.503L199.062 192.609L202.224 190.574L216.017 181.69L223.152 177.094L226.941 174.654L257.859 154.375L264.381 158.622L267.401 160.587L275.356 165.766L289 174.649L291.668 176.386L300.925 182.412Z" fill="#D2E2FF" stroke="#391CE1" stroke-opacity="0.4" stroke-miterlimit="10"/>
<path d="M243.82 202.509C243.82 204.625 241.939 206.487 239.099 207.554C237.497 208.156 235.59 208.505 233.544 208.505C231.498 208.505 229.59 208.156 227.988 207.554C225.149 206.487 223.268 204.625 223.268 202.509C223.268 199.196 227.869 196.511 233.544 196.511C239.22 196.511 243.82 199.196 243.82 202.509Z" fill="#EAF1FE" stroke="#391CE1" stroke-opacity="0.4" stroke-miterlimit="10"/>
<path d="M243.82 202.509V212.599C243.82 215.911 239.22 218.596 233.544 218.596C227.869 218.596 223.268 215.911 223.268 212.599V202.509C223.268 204.626 225.149 206.487 227.988 207.554C229.59 208.156 231.498 208.505 233.544 208.505C235.59 208.505 237.497 208.156 239.099 207.554C241.939 206.487 243.82 204.626 243.82 202.509Z" fill="#B8D1FF" stroke="#391CE1" stroke-opacity="0.4" stroke-miterlimit="10"/>
<path d="M243.704 169.998C243.704 172.115 241.824 173.976 238.983 175.043C237.381 175.645 235.475 175.994 233.428 175.994C231.382 175.994 229.474 175.645 227.873 175.043C225.033 173.976 223.152 172.115 223.152 169.998C223.152 166.685 227.753 164 233.428 164C239.104 164 243.704 166.685 243.704 169.998Z" fill="#EAF1FE" stroke="#391CE1" stroke-opacity="0.4" stroke-miterlimit="10"/>
<path d="M243.704 169.998V180.088C243.704 183.401 239.104 186.086 233.428 186.086C227.753 186.086 223.152 183.401 223.152 180.088V169.998C223.152 172.115 225.033 173.976 227.873 175.044C229.474 175.646 231.382 175.995 233.428 175.995C235.475 175.995 237.381 175.646 238.983 175.044C241.824 173.976 243.704 172.115 243.704 169.998Z" fill="#B8D1FF" stroke="#391CE1" stroke-opacity="0.4" stroke-miterlimit="10"/>
<path d="M267.971 186.243C267.971 188.36 266.091 190.222 263.25 191.289C261.648 191.891 259.742 192.24 257.696 192.24C255.65 192.24 253.742 191.891 252.14 191.289C249.3 190.222 247.419 188.36 247.419 186.243C247.419 182.931 252.02 180.246 257.696 180.246C263.371 180.246 267.971 182.931 267.971 186.243Z" fill="#EAF1FE" stroke="#391CE1" stroke-opacity="0.4" stroke-miterlimit="10"/>
<path d="M267.971 186.244V196.334C267.971 199.646 263.371 202.331 257.696 202.331C252.02 202.331 247.419 199.646 247.419 196.334V186.244C247.419 188.36 249.3 190.222 252.14 191.289C253.742 191.891 255.65 192.24 257.696 192.24C259.742 192.24 261.648 191.891 263.25 191.289C266.091 190.222 267.971 188.36 267.971 186.244Z" fill="#B8D1FF" stroke="#391CE1" stroke-opacity="0.4" stroke-miterlimit="10"/>
<path d="M219.599 186.237C219.599 188.353 217.719 190.215 214.878 191.282C213.276 191.884 211.37 192.233 209.323 192.233C207.277 192.233 205.369 191.884 203.768 191.282C200.928 190.215 199.047 188.353 199.047 186.237C199.047 182.924 203.648 180.239 209.323 180.239C214.999 180.239 219.599 182.924 219.599 186.237Z" fill="#EAF1FE" stroke="#391CE1" stroke-opacity="0.4" stroke-miterlimit="10"/>
<path d="M219.599 186.236V196.326C219.599 199.639 214.999 202.324 209.323 202.324C203.648 202.324 199.047 199.639 199.047 196.326V186.236C199.047 188.353 200.928 190.215 203.768 191.282C205.369 191.884 207.277 192.233 209.323 192.233C211.37 192.233 213.276 191.884 214.878 191.282C217.719 190.215 219.599 188.353 219.599 186.236Z" fill="#B8D1FF" stroke="#391CE1" stroke-opacity="0.4" stroke-miterlimit="10"/>
<path d="M267.657 153.998C267.657 156.115 265.777 157.976 262.936 159.043C261.335 159.645 259.428 159.994 257.382 159.994C255.336 159.994 253.428 159.645 251.826 159.043C248.986 157.976 247.105 156.115 247.105 153.998C247.105 150.685 251.706 148 257.382 148C263.057 148 267.657 150.685 267.657 153.998Z" fill="#EAF1FE" stroke="#391CE1" stroke-opacity="0.4" stroke-miterlimit="10"/>
<path d="M267.657 153.998V164.088C267.657 167.401 263.057 170.086 257.382 170.086C251.706 170.086 247.105 167.401 247.105 164.088V153.998C247.105 156.115 248.986 157.976 251.826 159.044C253.428 159.646 255.336 159.995 257.382 159.995C259.428 159.995 261.335 159.646 262.936 159.044C265.777 157.976 267.657 156.115 267.657 153.998Z" fill="#B8D1FF" stroke="#391CE1" stroke-opacity="0.4" stroke-miterlimit="10"/>
<path d="M291.924 170.243C291.924 172.36 290.044 174.222 287.203 175.289C285.602 175.891 283.695 176.24 281.649 176.24C279.603 176.24 277.695 175.891 276.093 175.289C273.253 174.222 271.372 172.36 271.372 170.243C271.372 166.931 275.973 164.246 281.649 164.246C287.324 164.246 291.924 166.931 291.924 170.243Z" fill="#EAF1FE" stroke="#391CE1" stroke-opacity="0.4" stroke-miterlimit="10"/>
<path d="M291.924 170.244V180.334C291.924 183.646 287.324 186.331 281.649 186.331C275.973 186.331 271.372 183.646 271.372 180.334V170.244C271.372 172.36 273.253 174.222 276.093 175.289C277.695 175.891 279.603 176.24 281.649 176.24C283.695 176.24 285.602 175.891 287.203 175.289C290.044 174.222 291.924 172.36 291.924 170.244Z" fill="#B8D1FF" stroke="#391CE1" stroke-opacity="0.4" stroke-miterlimit="10"/>
<path d="M233.427 227.434V255.082L190 226.09V198.44L211.079 212.513L233.427 227.434Z" fill="#EAF1FE" stroke="#391CE1" stroke-opacity="0.4" stroke-miterlimit="10"/>
<path d="M233.499 227.546V255.078L300.5 210L300.571 182.293L255.847 212.625L233.499 227.546Z" fill="#B8D1FF" stroke="#391CE1" stroke-opacity="0.4" stroke-miterlimit="10"/>
<path d="M74.9248 214.412L30.3747 244.112L7.54342 259.517L7.42743 259.44L-14.9213 244.519L-36 230.446L-34.5362 229.503L-26.9378 224.609L-23.7759 222.574L-9.98251 213.69L-2.84803 209.094L0.94133 206.654L31.8593 186.375L38.3813 190.622L41.4005 192.587L49.3562 197.766L63 206.649L65.6677 208.386L74.9248 214.412Z" fill="#D2E2FF" stroke="#391CE1" stroke-opacity="0.4" stroke-miterlimit="10"/>
<path d="M17.8197 234.509C17.8197 236.625 15.9395 238.487 13.0989 239.554C11.4971 240.156 9.59024 240.505 7.5442 240.505C5.49815 240.505 3.59013 240.156 1.98833 239.554C-0.851083 238.487 -2.73242 236.625 -2.73242 234.509C-2.73242 231.196 1.86886 228.511 7.5442 228.511C13.2195 228.511 17.8197 231.196 17.8197 234.509Z" fill="#EAF1FE" stroke="#391CE1" stroke-opacity="0.4" stroke-miterlimit="10"/>
<path d="M17.8197 234.509V244.599C17.8197 247.911 13.2195 250.596 7.5442 250.596C1.86886 250.596 -2.73242 247.911 -2.73242 244.599V234.509C-2.73242 236.626 -0.851083 238.487 1.98833 239.554C3.59013 240.156 5.49815 240.505 7.5442 240.505C9.59024 240.505 11.4971 240.156 13.0989 239.554C15.9395 238.487 17.8197 236.626 17.8197 234.509Z" fill="#B8D1FF" stroke="#391CE1" stroke-opacity="0.4" stroke-miterlimit="10"/>
<path d="M17.7039 201.998C17.7039 204.115 15.8238 205.976 12.9832 207.043C11.3814 207.645 9.47452 207.994 7.42848 207.994C5.38243 207.994 3.47441 207.645 1.8726 207.043C-0.966806 205.976 -2.84814 204.115 -2.84814 201.998C-2.84814 198.685 1.75314 196 7.42848 196C13.1038 196 17.7039 198.685 17.7039 201.998Z" fill="#EAF1FE" stroke="#391CE1" stroke-opacity="0.4" stroke-miterlimit="10"/>
<path d="M17.7039 201.998V212.088C17.7039 215.401 13.1038 218.086 7.42848 218.086C1.75314 218.086 -2.84814 215.401 -2.84814 212.088V201.998C-2.84814 204.115 -0.966806 205.976 1.8726 207.044C3.47441 207.646 5.38243 207.995 7.42848 207.995C9.47452 207.995 11.3814 207.646 12.9832 207.044C15.8238 205.976 17.7039 204.115 17.7039 201.998Z" fill="#B8D1FF" stroke="#391CE1" stroke-opacity="0.4" stroke-miterlimit="10"/>
<path d="M41.971 218.243C41.971 220.36 40.0908 222.222 37.2503 223.289C35.6485 223.891 33.7416 224.24 31.6956 224.24C29.6495 224.24 27.7415 223.891 26.1397 223.289C23.3003 222.222 21.4189 220.36 21.4189 218.243C21.4189 214.931 26.0202 212.246 31.6956 212.246C37.3709 212.246 41.971 214.931 41.971 218.243Z" fill="#EAF1FE" stroke="#391CE1" stroke-opacity="0.4" stroke-miterlimit="10"/>
<path d="M41.971 218.244V228.334C41.971 231.646 37.3709 234.331 31.6956 234.331C26.0202 234.331 21.4189 231.646 21.4189 228.334V218.244C21.4189 220.36 23.3003 222.222 26.1397 223.289C27.7415 223.891 29.6495 224.24 31.6956 224.24C33.7416 224.24 35.6485 223.891 37.2503 223.289C40.0908 222.222 41.971 220.36 41.971 218.244Z" fill="#B8D1FF" stroke="#391CE1" stroke-opacity="0.4" stroke-miterlimit="10"/>
<path d="M41.6571 185.998C41.6571 188.115 39.7769 189.976 36.9363 191.043C35.3345 191.645 33.4276 191.994 31.3816 191.994C29.3356 191.994 27.4275 191.645 25.8257 191.043C22.9863 189.976 21.105 188.115 21.105 185.998C21.105 182.685 25.7063 180 31.3816 180C37.0569 180 41.6571 182.685 41.6571 185.998Z" fill="#EAF1FE" stroke="#391CE1" stroke-opacity="0.4" stroke-miterlimit="10"/>
<path d="M41.6571 185.998V196.088C41.6571 199.401 37.0569 202.086 31.3816 202.086C25.7063 202.086 21.105 199.401 21.105 196.088V185.998C21.105 188.115 22.9863 189.976 25.8257 191.044C27.4275 191.646 29.3356 191.995 31.3816 191.995C33.4276 191.995 35.3345 191.646 36.9363 191.044C39.7769 189.976 41.6571 188.115 41.6571 185.998Z" fill="#B8D1FF" stroke="#391CE1" stroke-opacity="0.4" stroke-miterlimit="10"/>
<path d="M65.9242 202.243C65.9242 204.36 64.044 206.222 61.2034 207.289C59.6016 207.891 57.6947 208.24 55.6487 208.24C53.6026 208.24 51.6946 207.891 50.0928 207.289C47.2534 206.222 45.3721 204.36 45.3721 202.243C45.3721 198.931 49.9733 196.246 55.6487 196.246C61.324 196.246 65.9242 198.931 65.9242 202.243Z" fill="#EAF1FE" stroke="#391CE1" stroke-opacity="0.4" stroke-miterlimit="10"/>
<path d="M65.9242 202.244V212.334C65.9242 215.646 61.324 218.331 55.6487 218.331C49.9733 218.331 45.3721 215.646 45.3721 212.334V202.244C45.3721 204.36 47.2534 206.222 50.0928 207.289C51.6946 207.891 53.6026 208.24 55.6487 208.24C57.6947 208.24 59.6016 207.891 61.2034 207.289C64.044 206.222 65.9242 204.36 65.9242 202.244Z" fill="#B8D1FF" stroke="#391CE1" stroke-opacity="0.4" stroke-miterlimit="10"/>
<path d="M7.42743 259.434V287.082L-36 258.09V230.44L-14.9213 244.513L7.42743 259.434Z" fill="#EAF1FE" stroke="#391CE1" stroke-opacity="0.4" stroke-miterlimit="10"/>
<path d="M7.49854 259.546V287.078L74.5 242L74.5708 214.293L29.8473 244.625L7.49854 259.546Z" fill="#B8D1FF" stroke="#391CE1" stroke-opacity="0.4" stroke-miterlimit="10"/>
<path d="M56.2284 19.0349L35.3747 33.1067L12.5434 48.5123L12.4274 48.4346L-9.92132 33.5138L-31 19.4409L-29.5362 18.4979L-21.9378 13.6043L-18.7759 11.5687L-4.98251 2.6851L2.15197 -1.91039L5.94133 -4.3508L13.1628 -9.00195L19.6849 -4.7556L22.7041 -2.79074L30.6597 2.38816L44.3035 11.2718L46.9713 13.0081L56.2284 19.0349Z" fill="#D2E2FF" stroke="#391CE1" stroke-opacity="0.4" stroke-miterlimit="10"/>
<path d="M22.8197 23.5085C22.8197 25.6253 20.9395 27.487 18.0989 28.5541C16.4971 29.156 14.5902 29.5052 12.5442 29.5052C10.4982 29.5052 8.59013 29.156 6.98833 28.5541C4.14892 27.487 2.26758 25.6253 2.26758 23.5085C2.26758 20.1959 6.86886 17.5107 12.5442 17.5107C18.2195 17.5107 22.8197 20.1959 22.8197 23.5085Z" fill="#EAF1FE" stroke="#391CE1" stroke-opacity="0.4" stroke-miterlimit="10"/>
<path d="M22.8197 23.5088V33.5987C22.8197 36.9113 18.2195 39.5965 12.5442 39.5965C6.86886 39.5965 2.26758 36.9113 2.26758 33.5987V23.5088C2.26758 25.6256 4.14892 27.4872 6.98833 28.5543C8.59013 29.1563 10.4982 29.5054 12.5442 29.5054C14.5902 29.5054 16.4971 29.1563 18.0989 28.5543C20.9395 27.4872 22.8197 25.6256 22.8197 23.5088Z" fill="#B8D1FF" stroke="#391CE1" stroke-opacity="0.4" stroke-miterlimit="10"/>
<path d="M22.7039 -9.00195V1.08793C22.7039 4.40057 18.1038 7.08572 12.4285 7.08572C6.75314 7.08572 2.15186 4.40057 2.15186 1.08793V-9.00195C2.15186 -6.88515 4.03319 -5.02353 6.8726 -3.95643C8.47441 -3.35445 10.3824 -3.00532 12.4285 -3.00532C14.4745 -3.00532 16.3814 -3.35445 17.9832 -3.95643C20.8238 -5.02353 22.7039 -6.88515 22.7039 -9.00195Z" fill="#B8D1FF" stroke="#391CE1" stroke-opacity="0.4" stroke-miterlimit="10"/>
<path d="M46.971 7.2434C46.971 9.3602 45.0908 11.2218 42.2503 12.2889C40.6485 12.8909 38.7416 13.24 36.6956 13.24C34.6495 13.24 32.7415 12.8909 31.1397 12.2889C28.3003 11.2218 26.4189 9.3602 26.4189 7.2434C26.4189 3.93075 31.0202 1.24561 36.6956 1.24561C42.3709 1.24561 46.971 3.93075 46.971 7.2434Z" fill="#EAF1FE" stroke="#391CE1" stroke-opacity="0.4" stroke-miterlimit="10"/>
<path d="M46.971 7.24365V17.3335C46.971 20.6462 42.3709 23.3313 36.6956 23.3313C31.0202 23.3313 26.4189 20.6462 26.4189 17.3335V7.24365C26.4189 9.36045 28.3003 11.2221 31.1397 12.2892C32.7415 12.8912 34.6495 13.2403 36.6956 13.2403C38.7416 13.2403 40.6485 12.8912 42.2503 12.2892C45.0908 11.2221 46.971 9.36045 46.971 7.24365Z" fill="#B8D1FF" stroke="#391CE1" stroke-opacity="0.4" stroke-miterlimit="10"/>
<path d="M12.4274 48.4342V76.0825L-31 47.0899V19.4404L-9.92132 33.5134L12.4274 48.4342Z" fill="#EAF1FE" stroke="#391CE1" stroke-opacity="0.4" stroke-miterlimit="10"/>
<path d="M12.4985 48.5504V76.0827L56.1579 46.7421L56.2287 19.0347L34.8473 33.6296L12.4985 48.5504Z" fill="#B8D1FF" stroke="#391CE1" stroke-opacity="0.4" stroke-miterlimit="10"/>
<g clip-path="url(#clip1_762_11163)">
<path d="M375.592 117.818C375.139 117.818 374.772 117.452 374.772 117C374.772 116.548 375.139 116.182 375.592 116.182C376.045 116.182 376.412 116.548 376.412 117C376.412 117.452 376.045 117.818 375.592 117.818Z" fill="#4D58EB"/>
<path d="M363.298 117.818C363.746 117.818 364.118 117.454 364.118 117C364.118 116.545 363.753 116.182 363.298 116.182C362.843 116.182 362.478 116.545 362.478 117C362.478 117.454 362.843 117.818 363.298 117.818Z" fill="#4D58EB"/>
<path d="M351.004 117.818C350.551 117.818 350.184 117.452 350.184 117C350.184 116.548 350.551 116.182 351.004 116.182C351.456 116.182 351.823 116.548 351.823 117C351.823 117.452 351.456 117.818 351.004 117.818Z" fill="#4D58EB"/>
<path d="M338.71 105.546C338.257 105.546 337.89 105.18 337.89 104.728C337.89 104.276 338.257 103.91 338.71 103.91C339.162 103.91 339.529 104.276 339.529 104.728C339.529 105.18 339.162 105.546 338.71 105.546Z" fill="#4D58EB"/>
<path d="M338.71 117.818C338.257 117.818 337.89 117.452 337.89 117C337.89 116.548 338.257 116.182 338.71 116.182C339.162 116.182 339.529 116.548 339.529 117C339.529 117.452 339.162 117.818 338.71 117.818Z" fill="#4D58EB"/>
<path d="M326.408 105.546C325.955 105.546 325.588 105.18 325.588 104.728C325.588 104.276 325.955 103.91 326.408 103.91C326.861 103.91 327.228 104.276 327.228 104.728C327.228 105.18 326.861 105.546 326.408 105.546Z" fill="#4D58EB"/>
<path d="M326.408 117.818C325.955 117.818 325.588 117.452 325.588 117C325.588 116.548 325.955 116.182 326.408 116.182C326.861 116.182 327.228 116.548 327.228 117C327.228 117.452 326.861 117.818 326.408 117.818Z" fill="#4D58EB"/>
<path d="M313.294 104.728C313.294 105.175 313.659 105.546 314.114 105.546C314.569 105.546 314.934 105.183 314.934 104.728C314.934 104.274 314.569 103.91 314.114 103.91C313.659 103.91 313.294 104.274 313.294 104.728Z" fill="#4D58EB"/>
<path d="M314.114 117.818C314.562 117.818 314.934 117.454 314.934 117C314.934 116.545 314.569 116.182 314.114 116.182C313.659 116.182 313.294 116.545 313.294 117C313.294 117.447 313.659 117.818 314.114 117.818Z" fill="#4D58EB"/>
<path d="M301.82 117.818C301.367 117.818 301 117.452 301 117C301 116.548 301.367 116.182 301.82 116.182C302.272 116.182 302.639 116.548 302.639 117C302.639 117.452 302.272 117.818 301.82 117.818Z" fill="#4D58EB"/>
<path d="M375.592 130.09C375.139 130.09 374.772 129.724 374.772 129.272C374.772 128.82 375.139 128.454 375.592 128.454C376.045 128.454 376.412 128.82 376.412 129.272C376.412 129.724 376.045 130.09 375.592 130.09Z" fill="#4D58EB"/>
<path d="M363.298 130.09C363.746 130.09 364.118 129.726 364.118 129.272C364.118 128.817 363.753 128.454 363.298 128.454C362.843 128.454 362.478 128.817 362.478 129.272C362.478 129.726 362.843 130.09 363.298 130.09Z" fill="#4D58EB"/>
<path d="M351.004 130.09C350.551 130.09 350.184 129.724 350.184 129.272C350.184 128.82 350.551 128.454 351.004 128.454C351.456 128.454 351.823 128.82 351.823 129.272C351.823 129.724 351.456 130.09 351.004 130.09Z" fill="#4D58EB"/>
<path d="M338.71 130.09C338.257 130.09 337.89 129.724 337.89 129.272C337.89 128.82 338.257 128.454 338.71 128.454C339.162 128.454 339.529 128.82 339.529 129.272C339.529 129.724 339.162 130.09 338.71 130.09Z" fill="#4D58EB"/>
<path d="M326.408 130.09C325.955 130.09 325.588 129.724 325.588 129.272C325.588 128.82 325.955 128.454 326.408 128.454C326.861 128.454 327.228 128.82 327.228 129.272C327.228 129.724 326.861 130.09 326.408 130.09Z" fill="#4D58EB"/>
<path d="M314.114 130.09C314.562 130.09 314.934 129.726 314.934 129.272C314.934 128.817 314.569 128.454 314.114 128.454C313.659 128.454 313.294 128.817 313.294 129.272C313.294 129.726 313.659 130.09 314.114 130.09Z" fill="#4D58EB"/>
<path d="M301.82 130.09C301.367 130.09 301 129.724 301 129.272C301 128.82 301.367 128.454 301.82 128.454C302.272 128.454 302.639 128.82 302.639 129.272C302.639 129.724 302.272 130.09 301.82 130.09Z" fill="#4D58EB"/>
<path d="M375.592 142.362C376.04 142.362 376.412 141.998 376.412 141.544C376.412 141.089 376.047 140.726 375.592 140.726C375.137 140.726 374.772 141.089 374.772 141.544C374.772 141.998 375.137 142.362 375.592 142.362Z" fill="#4D58EB"/>
<path d="M363.298 142.362C363.746 142.362 364.118 141.998 364.118 141.544C364.118 141.089 363.753 140.726 363.298 140.726C362.843 140.726 362.478 141.089 362.478 141.544C362.478 141.998 362.843 142.362 363.298 142.362Z" fill="#4D58EB"/>
<path d="M351.004 142.362C351.451 142.362 351.823 141.998 351.823 141.544C351.823 141.089 351.459 140.726 351.004 140.726C350.548 140.726 350.184 141.089 350.184 141.544C350.184 141.991 350.548 142.362 351.004 142.362Z" fill="#4D58EB"/>
<path d="M338.71 142.362C339.157 142.362 339.529 141.998 339.529 141.544C339.529 141.089 339.165 140.726 338.71 140.726C338.254 140.726 337.89 141.089 337.89 141.544C337.89 141.998 338.254 142.362 338.71 142.362Z" fill="#4D58EB"/>
<path d="M326.408 142.362C326.856 142.362 327.228 141.998 327.228 141.544C327.228 141.089 326.863 140.726 326.408 140.726C325.953 140.726 325.588 141.089 325.588 141.544C325.588 141.998 325.953 142.362 326.408 142.362Z" fill="#4D58EB"/>
<path d="M314.114 142.362C314.562 142.362 314.934 141.998 314.934 141.544C314.934 141.089 314.569 140.726 314.114 140.726C313.659 140.726 313.294 141.089 313.294 141.544C313.294 141.991 313.659 142.362 314.114 142.362Z" fill="#4D58EB"/>
<path d="M301.82 142.362C302.267 142.362 302.639 141.998 302.639 141.544C302.639 141.089 302.275 140.726 301.82 140.726C301.364 140.726 301 141.089 301 141.544C301 141.998 301.364 142.362 301.82 142.362Z" fill="#4D58EB"/>
<path d="M326.408 154.641C325.955 154.641 325.588 154.275 325.588 153.823C325.588 153.371 325.955 153.005 326.408 153.005C326.861 153.005 327.228 153.371 327.228 153.823C327.228 154.275 326.861 154.641 326.408 154.641Z" fill="#4D58EB"/>
<path d="M314.114 154.633C314.562 154.633 314.934 154.27 314.934 153.815C314.934 153.361 314.569 152.997 314.114 152.997C313.659 152.997 313.294 153.361 313.294 153.815C313.294 154.27 313.659 154.633 314.114 154.633Z" fill="#4D58EB"/>
<path d="M301.82 154.641C301.367 154.641 301 154.275 301 153.823C301 153.371 301.367 153.005 301.82 153.005C302.272 153.005 302.639 153.371 302.639 153.823C302.639 154.275 302.272 154.641 301.82 154.641Z" fill="#4D58EB"/>
<path d="M326.408 166.913C325.955 166.913 325.588 166.546 325.588 166.094C325.588 165.643 325.955 165.276 326.408 165.276C326.861 165.276 327.228 165.643 327.228 166.094C327.228 166.546 326.861 166.913 326.408 166.913Z" fill="#4D58EB"/>
<path d="M314.114 166.905C314.562 166.905 314.934 166.542 314.934 166.087C314.934 165.633 314.569 165.269 314.114 165.269C313.659 165.269 313.294 165.633 313.294 166.087C313.294 166.542 313.659 166.905 314.114 166.905Z" fill="#4D58EB"/>
<path d="M400.18 105.546C399.728 105.546 399.361 105.18 399.361 104.728C399.361 104.276 399.728 103.91 400.18 103.91C400.633 103.91 401 104.276 401 104.728C401 105.18 400.633 105.546 400.18 105.546Z" fill="#4D58EB"/>
<path d="M400.18 117.818C399.728 117.818 399.361 117.452 399.361 117C399.361 116.548 399.728 116.182 400.18 116.182C400.633 116.182 401 116.548 401 117C401 117.452 400.633 117.818 400.18 117.818Z" fill="#4D58EB"/>
<path d="M387.886 105.546C387.434 105.546 387.067 105.18 387.067 104.728C387.067 104.276 387.434 103.91 387.886 103.91C388.339 103.91 388.706 104.276 388.706 104.728C388.706 105.18 388.339 105.546 387.886 105.546Z" fill="#4D58EB"/>
<path d="M387.886 117.818C387.434 117.818 387.067 117.452 387.067 117C387.067 116.548 387.434 116.182 387.886 116.182C388.339 116.182 388.706 116.548 388.706 117C388.706 117.452 388.339 117.818 387.886 117.818Z" fill="#4D58EB"/>
<path d="M400.18 130.09C399.728 130.09 399.361 129.724 399.361 129.272C399.361 128.82 399.728 128.454 400.18 128.454C400.633 128.454 401 128.82 401 129.272C401 129.724 400.633 130.09 400.18 130.09Z" fill="#4D58EB"/>
<path d="M387.886 130.09C387.434 130.09 387.067 129.724 387.067 129.272C387.067 128.82 387.434 128.454 387.886 128.454C388.339 128.454 388.706 128.82 388.706 129.272C388.706 129.724 388.339 130.09 387.886 130.09Z" fill="#4D58EB"/>
<path d="M400.18 142.362C400.628 142.362 401 141.998 401 141.544C401 141.089 400.636 140.726 400.18 140.726C399.725 140.726 399.361 141.089 399.361 141.544C399.361 141.998 399.725 142.362 400.18 142.362Z" fill="#4D58EB"/>
<path d="M387.886 142.362C388.334 142.362 388.706 141.998 388.706 141.544C388.706 141.089 388.342 140.726 387.886 140.726C387.431 140.726 387.067 141.089 387.067 141.544C387.067 141.998 387.431 142.362 387.886 142.362Z" fill="#4D58EB"/>
<path d="M375.592 154.641C375.139 154.641 374.772 154.275 374.772 153.823C374.772 153.371 375.139 153.005 375.592 153.005C376.045 153.005 376.412 153.371 376.412 153.823C376.412 154.275 376.045 154.641 375.592 154.641Z" fill="#4D58EB"/>
<path d="M363.298 154.633C363.746 154.633 364.118 154.27 364.118 153.815C364.118 153.361 363.753 152.997 363.298 152.997C362.843 152.997 362.478 153.361 362.478 153.815C362.478 154.27 362.843 154.633 363.298 154.633Z" fill="#4D58EB"/>
<path d="M351.004 154.641C350.551 154.641 350.184 154.275 350.184 153.823C350.184 153.371 350.551 153.005 351.004 153.005C351.456 153.005 351.823 153.371 351.823 153.823C351.823 154.275 351.456 154.641 351.004 154.641Z" fill="#4D58EB"/>
<path d="M338.71 154.641C338.257 154.641 337.89 154.275 337.89 153.823C337.89 153.371 338.257 153.005 338.71 153.005C339.162 153.005 339.529 153.371 339.529 153.823C339.529 154.275 339.162 154.641 338.71 154.641Z" fill="#4D58EB"/>
<path d="M375.592 166.913C375.139 166.913 374.772 166.546 374.772 166.094C374.772 165.643 375.139 165.276 375.592 165.276C376.045 165.276 376.412 165.643 376.412 166.094C376.412 166.546 376.045 166.913 375.592 166.913Z" fill="#4D58EB"/>
<path d="M363.298 166.905C363.746 166.905 364.118 166.542 364.118 166.087C364.118 165.633 363.753 165.269 363.298 165.269C362.843 165.269 362.478 165.633 362.478 166.087C362.478 166.542 362.843 166.905 363.298 166.905Z" fill="#4D58EB"/>
<path d="M351.004 166.913C350.551 166.913 350.184 166.546 350.184 166.094C350.184 165.643 350.551 165.276 351.004 165.276C351.456 165.276 351.823 165.643 351.823 166.094C351.823 166.546 351.456 166.913 351.004 166.913Z" fill="#4D58EB"/>
<path d="M338.71 166.913C338.257 166.913 337.89 166.546 337.89 166.094C337.89 165.643 338.257 165.276 338.71 165.276C339.162 165.276 339.529 165.643 339.529 166.094C339.529 166.546 339.162 166.913 338.71 166.913Z" fill="#4D58EB"/>
<path d="M375.592 179.185C375.139 179.185 374.772 178.818 374.772 178.366C374.772 177.915 375.139 177.548 375.592 177.548C376.045 177.548 376.412 177.915 376.412 178.366C376.412 178.818 376.045 179.185 375.592 179.185Z" fill="#4D58EB"/>
<path d="M363.298 179.185C363.746 179.185 364.118 178.821 364.118 178.366C364.118 177.912 363.753 177.548 363.298 177.548C362.843 177.548 362.478 177.912 362.478 178.366C362.478 178.821 362.843 179.185 363.298 179.185Z" fill="#4D58EB"/>
<path d="M351.004 179.185C350.551 179.185 350.184 178.818 350.184 178.366C350.184 177.915 350.551 177.548 351.004 177.548C351.456 177.548 351.823 177.915 351.823 178.366C351.823 178.818 351.456 179.185 351.004 179.185Z" fill="#4D58EB"/>
<path d="M338.71 179.185C338.257 179.185 337.89 178.818 337.89 178.366C337.89 177.915 338.257 177.548 338.71 177.548C339.162 177.548 339.529 177.915 339.529 178.366C339.529 178.818 339.162 179.185 338.71 179.185Z" fill="#4D58EB"/>
<path d="M400.18 154.641C399.728 154.641 399.361 154.275 399.361 153.823C399.361 153.371 399.728 153.005 400.18 153.005C400.633 153.005 401 153.371 401 153.823C401 154.275 400.633 154.641 400.18 154.641Z" fill="#4D58EB"/>
<path d="M387.886 154.641C387.434 154.641 387.067 154.275 387.067 153.823C387.067 153.371 387.434 153.005 387.886 153.005C388.339 153.005 388.706 153.371 388.706 153.823C388.706 154.275 388.339 154.641 387.886 154.641Z" fill="#4D58EB"/>
<path d="M400.18 166.913C399.728 166.913 399.361 166.546 399.361 166.094C399.361 165.643 399.728 165.276 400.18 165.276C400.633 165.276 401 165.643 401 166.094C401 166.546 400.633 166.913 400.18 166.913Z" fill="#4D58EB"/>
<path d="M387.886 166.913C387.434 166.913 387.067 166.546 387.067 166.094C387.067 165.643 387.434 165.276 387.886 165.276C388.339 165.276 388.706 165.643 388.706 166.094C388.706 166.546 388.339 166.913 387.886 166.913Z" fill="#4D58EB"/>
<path d="M400.18 179.185C399.728 179.185 399.361 178.818 399.361 178.366C399.361 177.915 399.728 177.548 400.18 177.548C400.633 177.548 401 177.915 401 178.366C401 178.818 400.633 179.185 400.18 179.185Z" fill="#4D58EB"/>
<path d="M387.886 179.185C387.434 179.185 387.067 178.818 387.067 178.366C387.067 177.915 387.434 177.548 387.886 177.548C388.339 177.548 388.706 177.915 388.706 178.366C388.706 178.818 388.339 179.185 387.886 179.185Z" fill="#4D58EB"/>
<path d="M326.408 93.2744C325.955 93.2744 325.588 92.9081 325.588 92.4563C325.588 92.0045 325.955 91.6382 326.408 91.6382C326.861 91.6382 327.228 92.0045 327.228 92.4563C327.228 92.9081 326.861 93.2744 326.408 93.2744Z" fill="#4D58EB"/>
<path d="M400.18 56.4517C399.728 56.4517 399.361 56.0854 399.361 55.6336C399.361 55.1817 399.728 54.8154 400.18 54.8154C400.633 54.8154 401 55.1817 401 55.6336C401 56.0854 400.633 56.4517 400.18 56.4517Z" fill="#4D58EB"/>
<path d="M400.18 68.7231C399.728 68.7231 399.361 68.3569 399.361 67.905C399.361 67.4532 399.728 67.0869 400.18 67.0869C400.633 67.0869 401 67.4532 401 67.905C401 68.3569 400.633 68.7231 400.18 68.7231Z" fill="#4D58EB"/>
<path d="M387.886 56.4517C387.434 56.4517 387.067 56.0854 387.067 55.6336C387.067 55.1817 387.434 54.8154 387.886 54.8154C388.339 54.8154 388.706 55.1817 388.706 55.6336C388.706 56.0854 388.339 56.4517 387.886 56.4517Z" fill="#4D58EB"/>
<path d="M387.886 68.7231C387.434 68.7231 387.067 68.3569 387.067 67.905C387.067 67.4532 387.434 67.0869 387.886 67.0869C388.339 67.0869 388.706 67.4532 388.706 67.905C388.706 68.3569 388.339 68.7231 387.886 68.7231Z" fill="#4D58EB"/>
<path d="M400.18 80.9951C400.628 80.9951 401 80.6315 401 80.177C401 79.7225 400.636 79.3589 400.18 79.3589C399.725 79.3589 399.361 79.7225 399.361 80.177C399.361 80.6315 399.725 80.9951 400.18 80.9951Z" fill="#4D58EB"/>
<path d="M400.18 93.2744C399.728 93.2744 399.361 92.9081 399.361 92.4563C399.361 92.0045 399.728 91.6382 400.18 91.6382C400.633 91.6382 401 92.0045 401 92.4563C401 92.9081 400.633 93.2744 400.18 93.2744Z" fill="#4D58EB"/>
<path d="M399.369 18.8181C399.369 19.2651 399.733 19.6362 400.188 19.6362C400.644 19.6362 401.008 19.2726 401.008 18.8181C401.008 18.3636 400.636 18 400.181 18C399.733 18 399.361 18.3636 399.361 18.8181H399.369Z" fill="#4D58EB"/>
<path d="M400.18 31.9004C400.628 31.9004 401 31.5368 401 31.0823C401 30.6278 400.636 30.2642 400.18 30.2642C399.725 30.2642 399.361 30.6278 399.361 31.0823C399.361 31.5368 399.725 31.9004 400.18 31.9004Z" fill="#4D58EB"/>
<path d="M400.18 44.1797C399.728 44.1797 399.361 43.8134 399.361 43.3616C399.361 42.9097 399.728 42.5435 400.18 42.5435C400.633 42.5435 401 42.9097 401 43.3616C401 43.8134 400.633 44.1797 400.18 44.1797Z" fill="#4D58EB"/>
<path d="M387.886 44.1797C387.434 44.1797 387.067 43.8134 387.067 43.3616C387.067 42.9097 387.434 42.5435 387.886 42.5435C388.339 42.5435 388.706 42.9097 388.706 43.3616C388.706 43.8134 388.339 44.1797 387.886 44.1797Z" fill="#4D58EB"/>
<path d="M387.886 93.2744C387.434 93.2744 387.067 92.9081 387.067 92.4563C387.067 92.0045 387.434 91.6382 387.886 91.6382C388.339 91.6382 388.706 92.0045 388.706 92.4563C388.706 92.9081 388.339 93.2744 387.886 93.2744Z" fill="#4D58EB"/>
<path d="M375.592 191.457C376.04 191.457 376.412 191.093 376.412 190.638C376.412 190.184 376.047 189.82 375.592 189.82C375.137 189.82 374.772 190.184 374.772 190.638C374.772 191.093 375.137 191.457 375.592 191.457Z" fill="#4D58EB"/>
<path d="M363.298 191.457C363.746 191.457 364.118 191.093 364.118 190.638C364.118 190.184 363.753 189.82 363.298 189.82C362.843 189.82 362.478 190.184 362.478 190.638C362.478 191.093 362.843 191.457 363.298 191.457Z" fill="#4D58EB"/>
<path d="M351.004 191.457C351.451 191.457 351.823 191.093 351.823 190.638C351.823 190.184 351.459 189.82 351.004 189.82C350.548 189.82 350.184 190.184 350.184 190.638C350.184 191.085 350.548 191.457 351.004 191.457Z" fill="#4D58EB"/>
<path d="M375.592 203.728C375.139 203.728 374.772 203.362 374.772 202.91C374.772 202.458 375.139 202.092 375.592 202.092C376.045 202.092 376.412 202.458 376.412 202.91C376.412 203.362 376.045 203.728 375.592 203.728Z" fill="#4D58EB"/>
<path d="M363.298 203.728C363.746 203.728 364.118 203.364 364.118 202.91C364.118 202.455 363.753 202.092 363.298 202.092C362.843 202.092 362.478 202.455 362.478 202.91C362.478 203.364 362.843 203.728 363.298 203.728Z" fill="#4D58EB"/>
<path d="M400.18 191.457C400.628 191.457 401 191.093 401 190.638C401 190.184 400.636 189.82 400.18 189.82C399.725 189.82 399.361 190.184 399.361 190.638C399.361 191.093 399.725 191.457 400.18 191.457Z" fill="#4D58EB"/>
<path d="M387.886 191.457C388.334 191.457 388.706 191.093 388.706 190.638C388.706 190.184 388.342 189.82 387.886 189.82C387.431 189.82 387.067 190.184 387.067 190.638C387.067 191.093 387.431 191.457 387.886 191.457Z" fill="#4D58EB"/>
<path d="M400.18 203.728C399.728 203.728 399.361 203.362 399.361 202.91C399.361 202.458 399.728 202.092 400.18 202.092C400.633 202.092 401 202.458 401 202.91C401 203.362 400.633 203.728 400.18 203.728Z" fill="#4D58EB"/>
<path d="M387.886 203.728C387.434 203.728 387.067 203.362 387.067 202.91C387.067 202.458 387.434 202.092 387.886 202.092C388.339 202.092 388.706 202.458 388.706 202.91C388.706 203.362 388.339 203.728 387.886 203.728Z" fill="#4D58EB"/>
<path d="M400.18 216.008C399.728 216.008 399.361 215.642 399.361 215.19C399.361 214.738 399.728 214.372 400.18 214.372C400.633 214.372 401 214.738 401 215.19C401 215.642 400.633 216.008 400.18 216.008Z" fill="#4D58EB"/>
<path d="M387.886 216.008C387.434 216.008 387.067 215.642 387.067 215.19C387.067 214.738 387.434 214.372 387.886 214.372C388.339 214.372 388.706 214.738 388.706 215.19C388.706 215.642 388.339 216.008 387.886 216.008Z" fill="#4D58EB"/>
</g>
</g>
<defs>
<clipPath id="clip0_762_11163">
<rect width="420" height="240" fill="white"/>
</clipPath>
<clipPath id="clip1_762_11163">
<rect width="100" height="198" fill="white" transform="matrix(-1 0 0 1 401 18)"/>
</clipPath>
</defs>
</svg>
