<svg width="420" height="240" viewBox="0 0 420 240" fill="none" xmlns="http://www.w3.org/2000/svg">
<g clip-path="url(#clip0_762_11162)">
<rect width="420" height="240" fill="#EAF1FE"/>
<g clip-path="url(#clip1_762_11162)">
<path d="M309.818 39.408C309.818 39.8606 309.452 40.2276 309 40.2276C308.548 40.2276 308.182 39.8606 308.182 39.408C308.182 38.9553 308.548 38.5884 309 38.5884C309.452 38.5884 309.818 38.9553 309.818 39.408Z" fill="#4D58EB"/>
<path d="M309.818 51.7019C309.818 51.2542 309.454 50.8823 309 50.8823C308.545 50.8823 308.182 51.2466 308.182 51.7019C308.182 52.1573 308.545 52.5215 309 52.5215C309.454 52.5215 309.818 52.1573 309.818 51.7019Z" fill="#4D58EB"/>
<path d="M309.818 63.9964C309.818 64.449 309.452 64.816 309 64.816C308.548 64.816 308.182 64.449 308.182 63.9964C308.182 63.5437 308.548 63.1768 309 63.1768C309.452 63.1768 309.818 63.5437 309.818 63.9964Z" fill="#4D58EB"/>
<path d="M297.546 76.2903C297.546 76.743 297.18 77.1099 296.728 77.1099C296.276 77.1099 295.91 76.743 295.91 76.2903C295.91 75.8377 296.276 75.4707 296.728 75.4707C297.18 75.4707 297.546 75.8377 297.546 76.2903Z" fill="#4D58EB"/>
<path d="M309.818 76.2903C309.818 76.743 309.452 77.1099 309 77.1099C308.548 77.1099 308.182 76.743 308.182 76.2903C308.182 75.8377 308.548 75.4707 309 75.4707C309.452 75.4707 309.818 75.8377 309.818 76.2903Z" fill="#4D58EB"/>
<path d="M297.546 88.5921C297.546 89.0447 297.18 89.4117 296.728 89.4117C296.276 89.4117 295.91 89.0447 295.91 88.5921C295.91 88.1394 296.276 87.7725 296.728 87.7725C297.18 87.7725 297.546 88.1394 297.546 88.5921Z" fill="#4D58EB"/>
<path d="M309.818 88.5921C309.818 89.0447 309.452 89.4117 309 89.4117C308.548 89.4117 308.182 89.0447 308.182 88.5921C308.182 88.1394 308.548 87.7725 309 87.7725C309.452 87.7725 309.818 88.1394 309.818 88.5921Z" fill="#4D58EB"/>
<path d="M296.728 101.706C297.175 101.706 297.546 101.341 297.546 100.886C297.546 100.431 297.183 100.066 296.728 100.066C296.274 100.066 295.91 100.431 295.91 100.886C295.91 101.341 296.274 101.706 296.728 101.706Z" fill="#4D58EB"/>
<path d="M309.818 100.886C309.818 100.438 309.454 100.066 309 100.066C308.545 100.066 308.182 100.431 308.182 100.886C308.182 101.341 308.545 101.706 309 101.706C309.447 101.706 309.818 101.341 309.818 100.886Z" fill="#4D58EB"/>
<path d="M309.818 113.18C309.818 113.633 309.452 114 309 114C308.548 114 308.182 113.633 308.182 113.18C308.182 112.728 308.548 112.361 309 112.361C309.452 112.361 309.818 112.728 309.818 113.18Z" fill="#4D58EB"/>
<path d="M322.09 39.408C322.09 39.8606 321.724 40.2276 321.272 40.2276C320.82 40.2276 320.454 39.8606 320.454 39.408C320.454 38.9553 320.82 38.5884 321.272 38.5884C321.724 38.5884 322.09 38.9553 322.09 39.408Z" fill="#4D58EB"/>
<path d="M322.09 51.7019C322.09 51.2542 321.726 50.8823 321.272 50.8823C320.817 50.8823 320.454 51.2466 320.454 51.7019C320.454 52.1573 320.817 52.5215 321.272 52.5215C321.726 52.5215 322.09 52.1573 322.09 51.7019Z" fill="#4D58EB"/>
<path d="M322.09 63.9964C322.09 64.449 321.724 64.816 321.272 64.816C320.82 64.816 320.454 64.449 320.454 63.9964C320.454 63.5437 320.82 63.1768 321.272 63.1768C321.724 63.1768 322.09 63.5437 322.09 63.9964Z" fill="#4D58EB"/>
<path d="M322.09 76.2903C322.09 76.743 321.724 77.1099 321.272 77.1099C320.82 77.1099 320.454 76.743 320.454 76.2903C320.454 75.8377 320.82 75.4707 321.272 75.4707C321.724 75.4707 322.09 75.8377 322.09 76.2903Z" fill="#4D58EB"/>
<path d="M322.09 88.5921C322.09 89.0447 321.724 89.4117 321.272 89.4117C320.82 89.4117 320.454 89.0447 320.454 88.5921C320.454 88.1394 320.82 87.7725 321.272 87.7725C321.724 87.7725 322.09 88.1394 322.09 88.5921Z" fill="#4D58EB"/>
<path d="M322.09 100.886C322.09 100.438 321.726 100.066 321.272 100.066C320.817 100.066 320.454 100.431 320.454 100.886C320.454 101.341 320.817 101.706 321.272 101.706C321.726 101.706 322.09 101.341 322.09 100.886Z" fill="#4D58EB"/>
<path d="M322.09 113.18C322.09 113.633 321.724 114 321.272 114C320.82 114 320.454 113.633 320.454 113.18C320.454 112.728 320.82 112.361 321.272 112.361C321.724 112.361 322.09 112.728 322.09 113.18Z" fill="#4D58EB"/>
<path d="M334.362 39.408C334.362 38.9602 333.998 38.5884 333.544 38.5884C333.089 38.5884 332.726 38.9526 332.726 39.408C332.726 39.8633 333.089 40.2276 333.544 40.2276C333.998 40.2276 334.362 39.8633 334.362 39.408Z" fill="#4D58EB"/>
<path d="M334.362 51.7019C334.362 51.2542 333.998 50.8823 333.544 50.8823C333.089 50.8823 332.726 51.2466 332.726 51.7019C332.726 52.1573 333.089 52.5215 333.544 52.5215C333.998 52.5215 334.362 52.1573 334.362 51.7019Z" fill="#4D58EB"/>
<path d="M334.362 63.9964C334.362 63.5486 333.998 63.1768 333.544 63.1768C333.089 63.1768 332.726 63.541 332.726 63.9964C332.726 64.4517 333.089 64.816 333.544 64.816C333.991 64.816 334.362 64.4517 334.362 63.9964Z" fill="#4D58EB"/>
<path d="M334.362 76.2903C334.362 75.8426 333.998 75.4707 333.544 75.4707C333.089 75.4707 332.726 75.835 332.726 76.2903C332.726 76.7457 333.089 77.1099 333.544 77.1099C333.998 77.1099 334.362 76.7457 334.362 76.2903Z" fill="#4D58EB"/>
<path d="M334.362 88.5921C334.362 88.1443 333.998 87.7725 333.544 87.7725C333.089 87.7725 332.726 88.1367 332.726 88.5921C332.726 89.0474 333.089 89.4117 333.544 89.4117C333.998 89.4117 334.362 89.0474 334.362 88.5921Z" fill="#4D58EB"/>
<path d="M334.362 100.886C334.362 100.438 333.998 100.066 333.544 100.066C333.089 100.066 332.726 100.431 332.726 100.886C332.726 101.341 333.089 101.706 333.544 101.706C333.991 101.706 334.362 101.341 334.362 100.886Z" fill="#4D58EB"/>
<path d="M334.362 113.18C334.362 112.733 333.998 112.361 333.544 112.361C333.089 112.361 332.726 112.725 332.726 113.18C332.726 113.636 333.089 114 333.544 114C333.998 114 334.362 113.636 334.362 113.18Z" fill="#4D58EB"/>
<path d="M346.641 88.5921C346.641 89.0447 346.275 89.4117 345.823 89.4117C345.371 89.4117 345.005 89.0447 345.005 88.5921C345.005 88.1394 345.371 87.7725 345.823 87.7725C346.275 87.7725 346.641 88.1394 346.641 88.5921Z" fill="#4D58EB"/>
<path d="M346.633 100.886C346.633 100.438 346.27 100.066 345.815 100.066C345.361 100.066 344.997 100.431 344.997 100.886C344.997 101.341 345.361 101.706 345.815 101.706C346.27 101.706 346.633 101.341 346.633 100.886Z" fill="#4D58EB"/>
<path d="M346.641 113.18C346.641 113.633 346.275 114 345.823 114C345.371 114 345.005 113.633 345.005 113.18C345.005 112.728 345.371 112.361 345.823 112.361C346.275 112.361 346.641 112.728 346.641 113.18Z" fill="#4D58EB"/>
<path d="M358.913 88.5921C358.913 89.0447 358.546 89.4117 358.094 89.4117C357.643 89.4117 357.276 89.0447 357.276 88.5921C357.276 88.1394 357.643 87.7725 358.094 87.7725C358.546 87.7725 358.913 88.1394 358.913 88.5921Z" fill="#4D58EB"/>
<path d="M358.905 100.886C358.905 100.438 358.542 100.066 358.087 100.066C357.633 100.066 357.269 100.431 357.269 100.886C357.269 101.341 357.633 101.706 358.087 101.706C358.542 101.706 358.905 101.341 358.905 100.886Z" fill="#4D58EB"/>
<path d="M297.546 14.8196C297.546 15.2723 297.18 15.6392 296.728 15.6392C296.276 15.6392 295.91 15.2723 295.91 14.8196C295.91 14.367 296.276 14 296.728 14C297.18 14 297.546 14.367 297.546 14.8196Z" fill="#4D58EB"/>
<path d="M309.818 14.8196C309.818 15.2723 309.452 15.6392 309 15.6392C308.548 15.6392 308.182 15.2723 308.182 14.8196C308.182 14.367 308.548 14 309 14C309.452 14 309.818 14.367 309.818 14.8196Z" fill="#4D58EB"/>
<path d="M297.546 27.1136C297.546 27.5662 297.18 27.9332 296.728 27.9332C296.276 27.9332 295.91 27.5662 295.91 27.1136C295.91 26.6609 296.276 26.2939 296.728 26.2939C297.18 26.2939 297.546 26.6609 297.546 27.1136Z" fill="#4D58EB"/>
<path d="M309.818 27.1136C309.818 27.5662 309.452 27.9332 309 27.9332C308.548 27.9332 308.182 27.5662 308.182 27.1136C308.182 26.6609 308.548 26.2939 309 26.2939C309.452 26.2939 309.818 26.6609 309.818 27.1136Z" fill="#4D58EB"/>
<path d="M322.09 14.8196C322.09 15.2723 321.724 15.6392 321.272 15.6392C320.82 15.6392 320.454 15.2723 320.454 14.8196C320.454 14.367 320.82 14 321.272 14C321.724 14 322.09 14.367 322.09 14.8196Z" fill="#4D58EB"/>
<path d="M322.09 27.1136C322.09 27.5662 321.724 27.9332 321.272 27.9332C320.82 27.9332 320.454 27.5662 320.454 27.1136C320.454 26.6609 320.82 26.2939 321.272 26.2939C321.724 26.2939 322.09 26.6609 322.09 27.1136Z" fill="#4D58EB"/>
<path d="M334.362 14.8196C334.362 14.3719 333.998 14 333.544 14C333.089 14 332.726 14.3643 332.726 14.8196C332.726 15.2749 333.089 15.6392 333.544 15.6392C333.998 15.6392 334.362 15.2749 334.362 14.8196Z" fill="#4D58EB"/>
<path d="M334.362 27.1136C334.362 26.6658 333.998 26.2939 333.544 26.2939C333.089 26.2939 332.726 26.6582 332.726 27.1136C332.726 27.5689 333.089 27.9332 333.544 27.9332C333.998 27.9332 334.362 27.5689 334.362 27.1136Z" fill="#4D58EB"/>
<path d="M346.641 39.408C346.641 39.8606 346.275 40.2276 345.823 40.2276C345.371 40.2276 345.005 39.8606 345.005 39.408C345.005 38.9553 345.371 38.5884 345.823 38.5884C346.275 38.5884 346.641 38.9553 346.641 39.408Z" fill="#4D58EB"/>
<path d="M346.633 51.7019C346.633 51.2542 346.27 50.8823 345.815 50.8823C345.361 50.8823 344.997 51.2466 344.997 51.7019C344.997 52.1573 345.361 52.5215 345.815 52.5215C346.27 52.5215 346.633 52.1573 346.633 51.7019Z" fill="#4D58EB"/>
<path d="M346.641 63.9964C346.641 64.449 346.275 64.816 345.823 64.816C345.371 64.816 345.005 64.449 345.005 63.9964C345.005 63.5437 345.371 63.1768 345.823 63.1768C346.275 63.1768 346.641 63.5437 346.641 63.9964Z" fill="#4D58EB"/>
<path d="M346.641 76.2903C346.641 76.743 346.275 77.1099 345.823 77.1099C345.371 77.1099 345.005 76.743 345.005 76.2903C345.005 75.8377 345.371 75.4707 345.823 75.4707C346.275 75.4707 346.641 75.8377 346.641 76.2903Z" fill="#4D58EB"/>
<path d="M358.913 39.408C358.913 39.8606 358.546 40.2276 358.094 40.2276C357.643 40.2276 357.276 39.8606 357.276 39.408C357.276 38.9553 357.643 38.5884 358.094 38.5884C358.546 38.5884 358.913 38.9553 358.913 39.408Z" fill="#4D58EB"/>
<path d="M358.905 51.7019C358.905 51.2542 358.542 50.8823 358.087 50.8823C357.633 50.8823 357.269 51.2466 357.269 51.7019C357.269 52.1573 357.633 52.5215 358.087 52.5215C358.542 52.5215 358.905 52.1573 358.905 51.7019Z" fill="#4D58EB"/>
<path d="M358.913 63.9964C358.913 64.449 358.546 64.816 358.094 64.816C357.643 64.816 357.276 64.449 357.276 63.9964C357.276 63.5437 357.643 63.1768 358.094 63.1768C358.546 63.1768 358.913 63.5437 358.913 63.9964Z" fill="#4D58EB"/>
<path d="M358.913 76.2903C358.913 76.743 358.546 77.1099 358.094 77.1099C357.643 77.1099 357.276 76.743 357.276 76.2903C357.276 75.8377 357.643 75.4707 358.094 75.4707C358.546 75.4707 358.913 75.8377 358.913 76.2903Z" fill="#4D58EB"/>
<path d="M371.185 39.408C371.185 39.8606 370.818 40.2276 370.366 40.2276C369.915 40.2276 369.548 39.8606 369.548 39.408C369.548 38.9553 369.915 38.5884 370.366 38.5884C370.818 38.5884 371.185 38.9553 371.185 39.408Z" fill="#4D58EB"/>
<path d="M371.185 51.7019C371.185 51.2542 370.821 50.8823 370.366 50.8823C369.912 50.8823 369.548 51.2466 369.548 51.7019C369.548 52.1573 369.912 52.5215 370.366 52.5215C370.821 52.5215 371.185 52.1573 371.185 51.7019Z" fill="#4D58EB"/>
<path d="M371.185 63.9964C371.185 64.449 370.818 64.816 370.366 64.816C369.915 64.816 369.548 64.449 369.548 63.9964C369.548 63.5437 369.915 63.1768 370.366 63.1768C370.818 63.1768 371.185 63.5437 371.185 63.9964Z" fill="#4D58EB"/>
<path d="M371.185 76.2903C371.185 76.743 370.818 77.1099 370.366 77.1099C369.915 77.1099 369.548 76.743 369.548 76.2903C369.548 75.8377 369.915 75.4707 370.366 75.4707C370.818 75.4707 371.185 75.8377 371.185 76.2903Z" fill="#4D58EB"/>
<path d="M346.641 14.8196C346.641 15.2723 346.275 15.6392 345.823 15.6392C345.371 15.6392 345.005 15.2723 345.005 14.8196C345.005 14.367 345.371 14 345.823 14C346.275 14 346.641 14.367 346.641 14.8196Z" fill="#4D58EB"/>
<path d="M346.641 27.1136C346.641 27.5662 346.275 27.9332 345.823 27.9332C345.371 27.9332 345.005 27.5662 345.005 27.1136C345.005 26.6609 345.371 26.2939 345.823 26.2939C346.275 26.2939 346.641 26.6609 346.641 27.1136Z" fill="#4D58EB"/>
<path d="M358.913 14.8196C358.913 15.2723 358.546 15.6392 358.094 15.6392C357.643 15.6392 357.276 15.2723 357.276 14.8196C357.276 14.367 357.643 14 358.094 14C358.546 14 358.913 14.367 358.913 14.8196Z" fill="#4D58EB"/>
<path d="M358.913 27.1136C358.913 27.5662 358.546 27.9332 358.094 27.9332C357.643 27.9332 357.276 27.5662 357.276 27.1136C357.276 26.6609 357.643 26.2939 358.094 26.2939C358.546 26.2939 358.913 26.6609 358.913 27.1136Z" fill="#4D58EB"/>
<path d="M371.185 14.8196C371.185 15.2723 370.818 15.6392 370.366 15.6392C369.915 15.6392 369.548 15.2723 369.548 14.8196C369.548 14.367 369.915 14 370.366 14C370.818 14 371.185 14.367 371.185 14.8196Z" fill="#4D58EB"/>
<path d="M371.185 27.1136C371.185 27.5662 370.818 27.9332 370.366 27.9332C369.915 27.9332 369.548 27.5662 369.548 27.1136C369.548 26.6609 369.915 26.2939 370.366 26.2939C370.818 26.2939 371.185 26.6609 371.185 27.1136Z" fill="#4D58EB"/>
<path d="M285.274 88.5921C285.274 89.0447 284.908 89.4117 284.456 89.4117C284.004 89.4117 283.638 89.0447 283.638 88.5921C283.638 88.1394 284.004 87.7725 284.456 87.7725C284.908 87.7725 285.274 88.1394 285.274 88.5921Z" fill="#4D58EB"/>
<path d="M248.452 14.8196C248.452 15.2723 248.085 15.6392 247.634 15.6392C247.182 15.6392 246.815 15.2723 246.815 14.8196C246.815 14.367 247.182 14 247.634 14C248.085 14 248.452 14.367 248.452 14.8196Z" fill="#4D58EB"/>
<path d="M260.723 14.8196C260.723 15.2723 260.357 15.6392 259.905 15.6392C259.453 15.6392 259.087 15.2723 259.087 14.8196C259.087 14.367 259.453 14 259.905 14C260.357 14 260.723 14.367 260.723 14.8196Z" fill="#4D58EB"/>
<path d="M248.452 27.1136C248.452 27.5662 248.085 27.9332 247.634 27.9332C247.182 27.9332 246.815 27.5662 246.815 27.1136C246.815 26.6609 247.182 26.2939 247.634 26.2939C248.085 26.2939 248.452 26.6609 248.452 27.1136Z" fill="#4D58EB"/>
<path d="M260.723 27.1136C260.723 27.5662 260.357 27.9332 259.905 27.9332C259.453 27.9332 259.087 27.5662 259.087 27.1136C259.087 26.6609 259.453 26.2939 259.905 26.2939C260.357 26.2939 260.723 26.6609 260.723 27.1136Z" fill="#4D58EB"/>
<path d="M272.995 14.8196C272.995 14.3719 272.632 14 272.177 14C271.722 14 271.359 14.3643 271.359 14.8196C271.359 15.2749 271.722 15.6392 272.177 15.6392C272.632 15.6392 272.995 15.2749 272.995 14.8196Z" fill="#4D58EB"/>
<path d="M285.274 14.8196C285.274 15.2723 284.908 15.6392 284.456 15.6392C284.004 15.6392 283.638 15.2723 283.638 14.8196C283.638 14.367 284.004 14 284.456 14C284.908 14 285.274 14.367 285.274 14.8196Z" fill="#4D58EB"/>
<path d="M210.818 15.6314C211.265 15.6314 211.636 15.2671 211.636 14.8118C211.636 14.3565 211.273 13.9922 210.818 13.9922C210.364 13.9922 210 14.364 210 14.8194C210 15.2671 210.364 15.639 210.818 15.639L210.818 15.6314Z" fill="#4D58EB"/>
<path d="M223.9 14.8196C223.9 14.3719 223.537 14 223.082 14C222.628 14 222.264 14.3643 222.264 14.8196C222.264 15.2749 222.628 15.6392 223.082 15.6392C223.537 15.6392 223.9 15.2749 223.9 14.8196Z" fill="#4D58EB"/>
<path d="M236.18 14.8196C236.18 15.2723 235.813 15.6392 235.362 15.6392C234.91 15.6392 234.543 15.2723 234.543 14.8196C234.543 14.367 234.91 14 235.362 14C235.813 14 236.18 14.367 236.18 14.8196Z" fill="#4D58EB"/>
<path d="M236.18 27.1136C236.18 27.5662 235.813 27.9332 235.362 27.9332C234.91 27.9332 234.543 27.5662 234.543 27.1136C234.543 26.6609 234.91 26.2939 235.362 26.2939C235.813 26.2939 236.18 26.6609 236.18 27.1136Z" fill="#4D58EB"/>
<path d="M285.274 27.1136C285.274 27.5662 284.908 27.9332 284.456 27.9332C284.004 27.9332 283.638 27.5662 283.638 27.1136C283.638 26.6609 284.004 26.2939 284.456 26.2939C284.908 26.2939 285.274 26.6609 285.274 27.1136Z" fill="#4D58EB"/>
<path d="M383.457 39.408C383.457 38.9602 383.093 38.5884 382.638 38.5884C382.184 38.5884 381.82 38.9526 381.82 39.408C381.82 39.8633 382.184 40.2276 382.638 40.2276C383.093 40.2276 383.457 39.8633 383.457 39.408Z" fill="#4D58EB"/>
<path d="M383.457 51.7019C383.457 51.2542 383.093 50.8823 382.638 50.8823C382.184 50.8823 381.82 51.2466 381.82 51.7019C381.82 52.1573 382.184 52.5215 382.638 52.5215C383.093 52.5215 383.457 52.1573 383.457 51.7019Z" fill="#4D58EB"/>
<path d="M383.457 63.9964C383.457 63.5486 383.093 63.1768 382.638 63.1768C382.184 63.1768 381.82 63.541 381.82 63.9964C381.82 64.4517 382.184 64.816 382.638 64.816C383.085 64.816 383.457 64.4517 383.457 63.9964Z" fill="#4D58EB"/>
<path d="M395.728 39.408C395.728 39.8606 395.362 40.2276 394.91 40.2276C394.458 40.2276 394.092 39.8606 394.092 39.408C394.092 38.9553 394.458 38.5884 394.91 38.5884C395.362 38.5884 395.728 38.9553 395.728 39.408Z" fill="#4D58EB"/>
<path d="M395.728 51.7019C395.728 51.2542 395.364 50.8823 394.91 50.8823C394.455 50.8823 394.092 51.2466 394.092 51.7019C394.092 52.1573 394.455 52.5215 394.91 52.5215C395.364 52.5215 395.728 52.1573 395.728 51.7019Z" fill="#4D58EB"/>
<path d="M383.457 14.8196C383.457 14.3719 383.093 14 382.638 14C382.184 14 381.82 14.3643 381.82 14.8196C381.82 15.2749 382.184 15.6392 382.638 15.6392C383.093 15.6392 383.457 15.2749 383.457 14.8196Z" fill="#4D58EB"/>
<path d="M383.457 27.1136C383.457 26.6658 383.093 26.2939 382.638 26.2939C382.184 26.2939 381.82 26.6582 381.82 27.1136C381.82 27.5689 382.184 27.9332 382.638 27.9332C383.093 27.9332 383.457 27.5689 383.457 27.1136Z" fill="#4D58EB"/>
<path d="M395.728 14.8196C395.728 15.2723 395.362 15.6392 394.91 15.6392C394.458 15.6392 394.092 15.2723 394.092 14.8196C394.092 14.367 394.458 14 394.91 14C395.362 14 395.728 14.367 395.728 14.8196Z" fill="#4D58EB"/>
<path d="M395.728 27.1136C395.728 27.5662 395.362 27.9332 394.91 27.9332C394.458 27.9332 394.092 27.5662 394.092 27.1136C394.092 26.6609 394.458 26.2939 394.91 26.2939C395.362 26.2939 395.728 26.6609 395.728 27.1136Z" fill="#4D58EB"/>
<path d="M408.008 14.8196C408.008 15.2723 407.642 15.6392 407.19 15.6392C406.738 15.6392 406.372 15.2723 406.372 14.8196C406.372 14.367 406.738 14 407.19 14C407.642 14 408.008 14.367 408.008 14.8196Z" fill="#4D58EB"/>
<path d="M408.008 27.1136C408.008 27.5662 407.642 27.9332 407.19 27.9332C406.738 27.9332 406.372 27.5662 406.372 27.1136C406.372 26.6609 406.738 26.2939 407.19 26.2939C407.642 26.2939 408.008 26.6609 408.008 27.1136Z" fill="#4D58EB"/>
</g>
<path d="M224.228 131.035L203.375 145.107L180.543 160.512L180.427 160.435L158.079 145.514L137 131.441L138.464 130.498L146.062 125.604L149.224 123.569L163.017 114.685L170.152 110.09L173.941 107.649L181.163 102.998L187.685 107.244L190.704 109.209L198.66 114.388L212.304 123.272L214.971 125.008L224.228 131.035Z" fill="#D2E2FF" stroke="#391CE1" stroke-opacity="0.4" stroke-miterlimit="10"/>
<path d="M190.82 135.509C190.82 137.625 188.939 139.487 186.099 140.554C184.497 141.156 182.59 141.505 180.544 141.505C178.498 141.505 176.59 141.156 174.988 140.554C172.149 139.487 170.268 137.625 170.268 135.509C170.268 132.196 174.869 129.511 180.544 129.511C186.22 129.511 190.82 132.196 190.82 135.509Z" fill="#EAF1FE" stroke="#391CE1" stroke-opacity="0.4" stroke-miterlimit="10"/>
<path d="M190.82 135.509V145.599C190.82 148.911 186.22 151.596 180.544 151.596C174.869 151.596 170.268 148.911 170.268 145.599V135.509C170.268 137.626 172.149 139.487 174.988 140.554C176.59 141.156 178.498 141.505 180.544 141.505C182.59 141.505 184.497 141.156 186.099 140.554C188.939 139.487 190.82 137.626 190.82 135.509Z" fill="#B8D1FF" stroke="#391CE1" stroke-opacity="0.4" stroke-miterlimit="10"/>
<path d="M190.704 102.998C190.704 105.115 188.824 106.976 185.983 108.043C184.381 108.645 182.475 108.994 180.428 108.994C178.382 108.994 176.474 108.645 174.873 108.043C172.033 106.976 170.152 105.115 170.152 102.998C170.152 99.6851 174.753 97 180.428 97C186.104 97 190.704 99.6851 190.704 102.998Z" fill="#EAF1FE" stroke="#391CE1" stroke-opacity="0.4" stroke-miterlimit="10"/>
<path d="M190.704 102.998V113.088C190.704 116.401 186.104 119.086 180.428 119.086C174.753 119.086 170.152 116.401 170.152 113.088V102.998C170.152 105.115 172.033 106.976 174.873 108.044C176.474 108.646 178.382 108.995 180.428 108.995C182.475 108.995 184.381 108.646 185.983 108.044C188.824 106.976 190.704 105.115 190.704 102.998Z" fill="#B8D1FF" stroke="#391CE1" stroke-opacity="0.4" stroke-miterlimit="10"/>
<path d="M214.971 119.243C214.971 121.36 213.091 123.222 210.25 124.289C208.648 124.891 206.742 125.24 204.696 125.24C202.65 125.24 200.742 124.891 199.14 124.289C196.3 123.222 194.419 121.36 194.419 119.243C194.419 115.931 199.02 113.246 204.696 113.246C210.371 113.246 214.971 115.931 214.971 119.243Z" fill="#EAF1FE" stroke="#391CE1" stroke-opacity="0.4" stroke-miterlimit="10"/>
<path d="M214.971 119.244V129.334C214.971 132.646 210.371 135.331 204.696 135.331C199.02 135.331 194.419 132.646 194.419 129.334V119.244C194.419 121.36 196.3 123.222 199.14 124.289C200.742 124.891 202.65 125.24 204.696 125.24C206.742 125.24 208.648 124.891 210.25 124.289C213.091 123.222 214.971 121.36 214.971 119.244Z" fill="#B8D1FF" stroke="#391CE1" stroke-opacity="0.4" stroke-miterlimit="10"/>
<path d="M166.599 119.237C166.599 121.353 164.719 123.215 161.878 124.282C160.276 124.884 158.37 125.233 156.323 125.233C154.277 125.233 152.369 124.884 150.768 124.282C147.928 123.215 146.047 121.353 146.047 119.237C146.047 115.924 150.648 113.239 156.323 113.239C161.999 113.239 166.599 115.924 166.599 119.237Z" fill="#EAF1FE" stroke="#391CE1" stroke-opacity="0.4" stroke-miterlimit="10"/>
<path d="M166.599 119.236V129.326C166.599 132.639 161.999 135.324 156.323 135.324C150.648 135.324 146.047 132.639 146.047 129.326V119.236C146.047 121.353 147.928 123.215 150.768 124.282C152.369 124.884 154.277 125.233 156.323 125.233C158.37 125.233 160.276 124.884 161.878 124.282C164.719 123.215 166.599 121.353 166.599 119.236Z" fill="#B8D1FF" stroke="#391CE1" stroke-opacity="0.4" stroke-miterlimit="10"/>
<path d="M180.427 160.434V188.082L137 159.09V131.44L158.079 145.513L180.427 160.434Z" fill="#EAF1FE" stroke="#391CE1" stroke-opacity="0.4" stroke-miterlimit="10"/>
<path d="M180.499 160.55V188.083L224.158 158.742L224.229 131.035L202.847 145.63L180.499 160.55Z" fill="#B8D1FF" stroke="#391CE1" stroke-opacity="0.4" stroke-miterlimit="10"/>
<path d="M90 138.187L81.1544 144.304L71.47 151L71.4208 150.966L61.941 144.481L53 138.363L53.6209 137.953L56.844 135.826L58.1851 134.942L64.0359 131.08L67.0622 129.083L68.6696 128.022L71.7327 126L74.4992 127.846L75.7799 128.7L79.1545 130.951L84.9418 134.812L86.0734 135.567L90 138.187Z" fill="#D2E2FF" stroke="#391CE1" stroke-opacity="0.4" stroke-miterlimit="10"/>
<path d="M81.7039 127.998C81.7039 130.115 79.8238 131.976 76.9832 133.043C75.3814 133.645 73.4745 133.994 71.4285 133.994C69.3824 133.994 67.4744 133.645 65.8726 133.043C63.0332 131.976 61.1519 130.115 61.1519 127.998C61.1519 124.685 65.7531 122 71.4285 122C77.1038 122 81.7039 124.685 81.7039 127.998Z" fill="#EAF1FE" stroke="#391CE1" stroke-opacity="0.4" stroke-miterlimit="10"/>
<path d="M81.7039 127.998V138.088C81.7039 141.401 77.1038 144.086 71.4285 144.086C65.7531 144.086 61.1519 141.401 61.1519 138.088V127.998C61.1519 130.115 63.0332 131.976 65.8726 133.044C67.4744 133.646 69.3824 133.995 71.4285 133.995C73.4745 133.995 75.3814 133.646 76.9832 133.044C79.8238 131.976 81.7039 130.115 81.7039 127.998Z" fill="#B8D1FF" stroke="#391CE1" stroke-opacity="0.4" stroke-miterlimit="10"/>
<path d="M71.5 150.715V162.5L53 150.715V138.5L62.2222 144.463L71.5 150.715Z" fill="#EAF1FE" stroke="#391CE1" stroke-opacity="0.4" stroke-miterlimit="10"/>
<path d="M71.5 151V162.5L89.5 150V138L81 144L71.5 151Z" fill="#B8D1FF" stroke="#391CE1" stroke-opacity="0.4" stroke-miterlimit="10"/>
<path d="M381.925 114.412L337.375 144.112L314.543 159.517L314.427 159.44L292.079 144.519L271 130.446L272.464 129.503L280.062 124.609L283.224 122.574L297.017 113.69L304.152 109.094L307.941 106.654L338.859 86.3755L345.381 90.6218L348.401 92.5867L356.356 97.7656L370 106.649L372.668 108.386L381.925 114.412Z" fill="#D2E2FF" stroke="#391CE1" stroke-opacity="0.4" stroke-miterlimit="10"/>
<path d="M324.82 134.509C324.82 136.625 322.939 138.487 320.099 139.554C318.497 140.156 316.59 140.505 314.544 140.505C312.498 140.505 310.59 140.156 308.988 139.554C306.149 138.487 304.268 136.625 304.268 134.509C304.268 131.196 308.869 128.511 314.544 128.511C320.22 128.511 324.82 131.196 324.82 134.509Z" fill="#EAF1FE" stroke="#391CE1" stroke-opacity="0.4" stroke-miterlimit="10"/>
<path d="M324.82 134.509V144.599C324.82 147.911 320.22 150.596 314.544 150.596C308.869 150.596 304.268 147.911 304.268 144.599V134.509C304.268 136.626 306.149 138.487 308.988 139.554C310.59 140.156 312.498 140.505 314.544 140.505C316.59 140.505 318.497 140.156 320.099 139.554C322.939 138.487 324.82 136.626 324.82 134.509Z" fill="#B8D1FF" stroke="#391CE1" stroke-opacity="0.4" stroke-miterlimit="10"/>
<path d="M324.704 101.998C324.704 104.115 322.824 105.976 319.983 107.043C318.381 107.645 316.475 107.994 314.428 107.994C312.382 107.994 310.474 107.645 308.873 107.043C306.033 105.976 304.152 104.115 304.152 101.998C304.152 98.6851 308.753 96 314.428 96C320.104 96 324.704 98.6851 324.704 101.998Z" fill="#EAF1FE" stroke="#391CE1" stroke-opacity="0.4" stroke-miterlimit="10"/>
<path d="M324.704 101.998V112.088C324.704 115.401 320.104 118.086 314.428 118.086C308.753 118.086 304.152 115.401 304.152 112.088V101.998C304.152 104.115 306.033 105.976 308.873 107.044C310.474 107.646 312.382 107.995 314.428 107.995C316.475 107.995 318.381 107.646 319.983 107.044C322.824 105.976 324.704 104.115 324.704 101.998Z" fill="#B8D1FF" stroke="#391CE1" stroke-opacity="0.4" stroke-miterlimit="10"/>
<path d="M348.971 118.243C348.971 120.36 347.091 122.222 344.25 123.289C342.648 123.891 340.742 124.24 338.696 124.24C336.65 124.24 334.742 123.891 333.14 123.289C330.3 122.222 328.419 120.36 328.419 118.243C328.419 114.931 333.02 112.246 338.696 112.246C344.371 112.246 348.971 114.931 348.971 118.243Z" fill="#EAF1FE" stroke="#391CE1" stroke-opacity="0.4" stroke-miterlimit="10"/>
<path d="M348.971 118.244V128.334C348.971 131.646 344.371 134.331 338.696 134.331C333.02 134.331 328.419 131.646 328.419 128.334V118.244C328.419 120.36 330.3 122.222 333.14 123.289C334.742 123.891 336.65 124.24 338.696 124.24C340.742 124.24 342.648 123.891 344.25 123.289C347.091 122.222 348.971 120.36 348.971 118.244Z" fill="#B8D1FF" stroke="#391CE1" stroke-opacity="0.4" stroke-miterlimit="10"/>
<path d="M300.599 118.237C300.599 120.353 298.719 122.215 295.878 123.282C294.276 123.884 292.37 124.233 290.323 124.233C288.277 124.233 286.369 123.884 284.768 123.282C281.928 122.215 280.047 120.353 280.047 118.237C280.047 114.924 284.648 112.239 290.323 112.239C295.999 112.239 300.599 114.924 300.599 118.237Z" fill="#EAF1FE" stroke="#391CE1" stroke-opacity="0.4" stroke-miterlimit="10"/>
<path d="M300.599 118.236V128.326C300.599 131.639 295.999 134.324 290.323 134.324C284.648 134.324 280.047 131.639 280.047 128.326V118.236C280.047 120.353 281.928 122.215 284.768 123.282C286.369 123.884 288.277 124.233 290.323 124.233C292.37 124.233 294.276 123.884 295.878 123.282C298.719 122.215 300.599 120.353 300.599 118.236Z" fill="#B8D1FF" stroke="#391CE1" stroke-opacity="0.4" stroke-miterlimit="10"/>
<path d="M348.657 85.9978C348.657 88.1146 346.777 89.9762 343.936 91.0433C342.335 91.6453 340.428 91.9944 338.382 91.9944C336.336 91.9944 334.428 91.6453 332.826 91.0433C329.986 89.9762 328.105 88.1146 328.105 85.9978C328.105 82.6851 332.706 80 338.382 80C344.057 80 348.657 82.6851 348.657 85.9978Z" fill="#EAF1FE" stroke="#391CE1" stroke-opacity="0.4" stroke-miterlimit="10"/>
<path d="M348.657 85.998V96.0879C348.657 99.4006 344.057 102.086 338.382 102.086C332.706 102.086 328.105 99.4006 328.105 96.0879V85.998C328.105 88.1148 329.986 89.9765 332.826 91.0436C334.428 91.6456 336.336 91.9947 338.382 91.9947C340.428 91.9947 342.335 91.6456 343.936 91.0436C346.777 89.9765 348.657 88.1148 348.657 85.998Z" fill="#B8D1FF" stroke="#391CE1" stroke-opacity="0.4" stroke-miterlimit="10"/>
<path d="M372.924 102.243C372.924 104.36 371.044 106.222 368.203 107.289C366.602 107.891 364.695 108.24 362.649 108.24C360.603 108.24 358.695 107.891 357.093 107.289C354.253 106.222 352.372 104.36 352.372 102.243C352.372 98.9308 356.973 96.2456 362.649 96.2456C368.324 96.2456 372.924 98.9308 372.924 102.243Z" fill="#EAF1FE" stroke="#391CE1" stroke-opacity="0.4" stroke-miterlimit="10"/>
<path d="M372.924 102.244V112.334C372.924 115.646 368.324 118.331 362.649 118.331C356.973 118.331 352.372 115.646 352.372 112.334V102.244C352.372 104.36 354.253 106.222 357.093 107.289C358.695 107.891 360.603 108.24 362.649 108.24C364.695 108.24 366.602 107.891 368.203 107.289C371.044 106.222 372.924 104.36 372.924 102.244Z" fill="#B8D1FF" stroke="#391CE1" stroke-opacity="0.4" stroke-miterlimit="10"/>
<path d="M314.427 159.434V187.082L271 158.09V130.44L292.079 144.513L314.427 159.434Z" fill="#EAF1FE" stroke="#391CE1" stroke-opacity="0.4" stroke-miterlimit="10"/>
<path d="M314.499 159.546V187.078L381.5 142L381.571 114.293L336.847 144.625L314.499 159.546Z" fill="#B8D1FF" stroke="#391CE1" stroke-opacity="0.4" stroke-miterlimit="10"/>
<g clip-path="url(#clip2_762_11162)">
<path d="M91.1821 238.298C91.1821 238.746 91.5457 239.118 92.0002 239.118C92.4547 239.118 92.8184 238.753 92.8184 238.298C92.8184 237.843 92.4547 237.478 92.0002 237.478C91.5457 237.478 91.1821 237.843 91.1821 238.298Z" fill="#4D58EB"/>
<path d="M91.1821 226.004C91.1821 225.551 91.5484 225.184 92.0002 225.184C92.4521 225.184 92.8184 225.551 92.8184 226.004C92.8184 226.456 92.4521 226.823 92.0002 226.823C91.5484 226.823 91.1821 226.456 91.1821 226.004Z" fill="#4D58EB"/>
<path d="M103.454 213.71C103.454 213.257 103.82 212.89 104.272 212.89C104.724 212.89 105.09 213.257 105.09 213.71C105.09 214.162 104.724 214.529 104.272 214.529C103.82 214.529 103.454 214.162 103.454 213.71Z" fill="#4D58EB"/>
<path d="M91.1821 213.71C91.1821 213.257 91.5484 212.89 92.0002 212.89C92.4521 212.89 92.8184 213.257 92.8184 213.71C92.8184 214.162 92.4521 214.529 92.0002 214.529C91.5484 214.529 91.1821 214.162 91.1821 213.71Z" fill="#4D58EB"/>
<path d="M103.454 201.408C103.454 200.955 103.82 200.588 104.272 200.588C104.724 200.588 105.09 200.955 105.09 201.408C105.09 201.861 104.724 202.228 104.272 202.228C103.82 202.228 103.454 201.861 103.454 201.408Z" fill="#4D58EB"/>
<path d="M91.1821 201.408C91.1821 200.955 91.5484 200.588 92.0002 200.588C92.4521 200.588 92.8184 200.955 92.8184 201.408C92.8184 201.861 92.4521 202.228 92.0002 202.228C91.5484 202.228 91.1821 201.861 91.1821 201.408Z" fill="#4D58EB"/>
<path d="M104.272 188.294C103.825 188.294 103.454 188.659 103.454 189.114C103.454 189.569 103.817 189.934 104.272 189.934C104.726 189.934 105.09 189.569 105.09 189.114C105.09 188.659 104.726 188.294 104.272 188.294Z" fill="#4D58EB"/>
<path d="M91.1821 189.114C91.1821 189.562 91.5457 189.934 92.0002 189.934C92.4547 189.934 92.8184 189.569 92.8184 189.114C92.8184 188.659 92.4547 188.294 92.0002 188.294C91.5533 188.294 91.1821 188.659 91.1821 189.114Z" fill="#4D58EB"/>
<path d="M91.1821 176.82C91.1821 176.367 91.5484 176 92.0002 176C92.4521 176 92.8184 176.367 92.8184 176.82C92.8184 177.272 92.4521 177.639 92.0002 177.639C91.5484 177.639 91.1821 177.272 91.1821 176.82Z" fill="#4D58EB"/>
<path d="M78.9101 238.298C78.9101 238.746 79.2738 239.118 79.7283 239.118C80.1828 239.118 80.5464 238.753 80.5464 238.298C80.5464 237.843 80.1828 237.478 79.7283 237.478C79.2738 237.478 78.9101 237.843 78.9101 238.298Z" fill="#4D58EB"/>
<path d="M78.9101 226.004C78.9101 225.551 79.2764 225.184 79.7283 225.184C80.1801 225.184 80.5464 225.551 80.5464 226.004C80.5464 226.456 80.1801 226.823 79.7283 226.823C79.2764 226.823 78.9101 226.456 78.9101 226.004Z" fill="#4D58EB"/>
<path d="M78.9101 213.71C78.9101 213.257 79.2764 212.89 79.7283 212.89C80.1801 212.89 80.5464 213.257 80.5464 213.71C80.5464 214.162 80.1801 214.529 79.7283 214.529C79.2764 214.529 78.9101 214.162 78.9101 213.71Z" fill="#4D58EB"/>
<path d="M78.9101 201.408C78.9101 200.955 79.2764 200.588 79.7283 200.588C80.1801 200.588 80.5464 200.955 80.5464 201.408C80.5464 201.861 80.1801 202.228 79.7283 202.228C79.2764 202.228 78.9101 201.861 78.9101 201.408Z" fill="#4D58EB"/>
<path d="M78.9101 189.114C78.9101 189.562 79.2738 189.934 79.7283 189.934C80.1828 189.934 80.5464 189.569 80.5464 189.114C80.5464 188.659 80.1828 188.294 79.7283 188.294C79.2738 188.294 78.9101 188.659 78.9101 189.114Z" fill="#4D58EB"/>
<path d="M78.9101 176.82C78.9101 176.367 79.2764 176 79.7283 176C80.1801 176 80.5464 176.367 80.5464 176.82C80.5464 177.272 80.1801 177.639 79.7283 177.639C79.2764 177.639 78.9101 177.272 78.9101 176.82Z" fill="#4D58EB"/>
<path d="M66.6382 238.298C66.6382 238.746 67.0018 239.118 67.4563 239.118C67.9108 239.118 68.2744 238.753 68.2744 238.298C68.2744 237.843 67.9108 237.478 67.4563 237.478C67.0018 237.478 66.6382 237.843 66.6382 238.298Z" fill="#4D58EB"/>
<path d="M66.6382 226.004C66.6382 226.451 67.0018 226.823 67.4563 226.823C67.9108 226.823 68.2744 226.459 68.2744 226.004C68.2744 225.548 67.9108 225.184 67.4563 225.184C67.0094 225.184 66.6382 225.548 66.6382 226.004Z" fill="#4D58EB"/>
<path d="M66.6382 213.71C66.6382 214.157 67.0018 214.529 67.4563 214.529C67.9108 214.529 68.2744 214.165 68.2744 213.71C68.2744 213.254 67.9108 212.89 67.4563 212.89C67.0018 212.89 66.6382 213.254 66.6382 213.71Z" fill="#4D58EB"/>
<path d="M66.6382 201.408C66.6382 201.856 67.0018 202.228 67.4563 202.228C67.9108 202.228 68.2744 201.863 68.2744 201.408C68.2744 200.953 67.9108 200.588 67.4563 200.588C67.0018 200.588 66.6382 200.953 66.6382 201.408Z" fill="#4D58EB"/>
<path d="M66.6382 189.114C66.6382 189.562 67.0018 189.934 67.4563 189.934C67.9108 189.934 68.2744 189.569 68.2744 189.114C68.2744 188.659 67.9108 188.294 67.4563 188.294C67.0094 188.294 66.6382 188.659 66.6382 189.114Z" fill="#4D58EB"/>
<path d="M66.6382 176.82C66.6382 177.267 67.0018 177.639 67.4563 177.639C67.9108 177.639 68.2744 177.275 68.2744 176.82C68.2744 176.364 67.9108 176 67.4563 176C67.0018 176 66.6382 176.364 66.6382 176.82Z" fill="#4D58EB"/>
<path d="M54.3589 201.408C54.3589 200.955 54.7252 200.588 55.177 200.588C55.6288 200.588 55.9951 200.955 55.9951 201.408C55.9951 201.861 55.6288 202.228 55.177 202.228C54.7252 202.228 54.3589 201.861 54.3589 201.408Z" fill="#4D58EB"/>
<path d="M54.3667 189.114C54.3667 189.562 54.7303 189.934 55.1848 189.934C55.6393 189.934 56.0029 189.569 56.0029 189.114C56.0029 188.659 55.6393 188.294 55.1848 188.294C54.7303 188.294 54.3667 188.659 54.3667 189.114Z" fill="#4D58EB"/>
<path d="M54.3589 176.82C54.3589 176.367 54.7252 176 55.177 176C55.6288 176 55.9951 176.367 55.9951 176.82C55.9951 177.272 55.6288 177.639 55.177 177.639C54.7252 177.639 54.3589 177.272 54.3589 176.82Z" fill="#4D58EB"/>
<path d="M42.0874 201.408C42.0874 200.955 42.4537 200.588 42.9055 200.588C43.3573 200.588 43.7236 200.955 43.7236 201.408C43.7236 201.861 43.3573 202.228 42.9055 202.228C42.4537 202.228 42.0874 201.861 42.0874 201.408Z" fill="#4D58EB"/>
<path d="M42.0947 189.114C42.0947 189.562 42.4583 189.934 42.9128 189.934C43.3673 189.934 43.731 189.569 43.731 189.114C43.731 188.659 43.3673 188.294 42.9128 188.294C42.4583 188.294 42.0947 188.659 42.0947 189.114Z" fill="#4D58EB"/>
<path d="M54.3667 238.298C54.3667 238.746 54.7303 239.118 55.1848 239.118C55.6393 239.118 56.0029 238.753 56.0029 238.298C56.0029 237.843 55.6393 237.478 55.1848 237.478C54.7303 237.478 54.3667 237.843 54.3667 238.298Z" fill="#4D58EB"/>
<path d="M54.3589 226.004C54.3589 225.551 54.7252 225.184 55.177 225.184C55.6288 225.184 55.9951 225.551 55.9951 226.004C55.9951 226.456 55.6288 226.823 55.177 226.823C54.7252 226.823 54.3589 226.456 54.3589 226.004Z" fill="#4D58EB"/>
<path d="M54.3589 213.71C54.3589 213.257 54.7252 212.89 55.177 212.89C55.6288 212.89 55.9951 213.257 55.9951 213.71C55.9951 214.162 55.6288 214.529 55.177 214.529C54.7252 214.529 54.3589 214.162 54.3589 213.71Z" fill="#4D58EB"/>
<path d="M42.0947 238.298C42.0947 238.746 42.4583 239.118 42.9128 239.118C43.3673 239.118 43.731 238.753 43.731 238.298C43.731 237.843 43.3673 237.478 42.9128 237.478C42.4583 237.478 42.0947 237.843 42.0947 238.298Z" fill="#4D58EB"/>
<path d="M42.0874 226.004C42.0874 225.551 42.4537 225.184 42.9055 225.184C43.3573 225.184 43.7236 225.551 43.7236 226.004C43.7236 226.456 43.3573 226.823 42.9055 226.823C42.4537 226.823 42.0874 226.456 42.0874 226.004Z" fill="#4D58EB"/>
<path d="M42.0874 213.71C42.0874 213.257 42.4537 212.89 42.9055 212.89C43.3573 212.89 43.7236 213.257 43.7236 213.71C43.7236 214.162 43.3573 214.529 42.9055 214.529C42.4537 214.529 42.0874 214.162 42.0874 213.71Z" fill="#4D58EB"/>
<path d="M29.8154 238.298C29.8154 238.746 30.179 239.118 30.6335 239.118C31.0881 239.118 31.4517 238.753 31.4517 238.298C31.4517 237.843 31.0881 237.478 30.6335 237.478C30.179 237.478 29.8154 237.843 29.8154 238.298Z" fill="#4D58EB"/>
<path d="M29.8154 226.004C29.8154 225.551 30.1817 225.184 30.6335 225.184C31.0854 225.184 31.4517 225.551 31.4517 226.004C31.4517 226.456 31.0854 226.823 30.6335 226.823C30.1817 226.823 29.8154 226.456 29.8154 226.004Z" fill="#4D58EB"/>
<path d="M29.8154 213.71C29.8154 213.257 30.1817 212.89 30.6335 212.89C31.0854 212.89 31.4517 213.257 31.4517 213.71C31.4517 214.162 31.0854 214.529 30.6335 214.529C30.1817 214.529 29.8154 214.162 29.8154 213.71Z" fill="#4D58EB"/>
<path d="M115.726 201.408C115.726 200.955 116.092 200.588 116.544 200.588C116.996 200.588 117.362 200.955 117.362 201.408C117.362 201.861 116.996 202.228 116.544 202.228C116.092 202.228 115.726 201.861 115.726 201.408Z" fill="#4D58EB"/>
<path d="M17.5435 238.298C17.5435 238.746 17.9071 239.118 18.3616 239.118C18.8161 239.118 19.1797 238.753 19.1797 238.298C19.1797 237.843 18.8161 237.478 18.3616 237.478C17.9071 237.478 17.5435 237.843 17.5435 238.298Z" fill="#4D58EB"/>
<path d="M17.5435 226.004C17.5435 226.451 17.9071 226.823 18.3616 226.823C18.8161 226.823 19.1797 226.459 19.1797 226.004C19.1797 225.548 18.8161 225.184 18.3616 225.184C17.9146 225.184 17.5435 225.548 17.5435 226.004Z" fill="#4D58EB"/>
<path d="M5.27197 238.298C5.27197 238.746 5.63557 239.118 6.09008 239.118C6.54459 239.118 6.9082 238.753 6.9082 238.298C6.9082 237.843 6.54459 237.478 6.09008 237.478C5.63557 237.478 5.27197 237.843 5.27197 238.298Z" fill="#4D58EB"/>
</g>
</g>
<defs>
<clipPath id="clip0_762_11162">
<rect width="420" height="240" fill="white"/>
</clipPath>
<clipPath id="clip1_762_11162">
<rect width="100" height="198" fill="white" transform="matrix(-4.37114e-08 1 1 4.37114e-08 210 14)"/>
</clipPath>
<clipPath id="clip2_762_11162">
<rect width="100" height="198" fill="white" transform="matrix(1.19249e-08 -1 -1 -1.19249e-08 191 276)"/>
</clipPath>
</defs>
</svg>
