<svg width="420" height="240" viewBox="0 0 420 240" fill="none" xmlns="http://www.w3.org/2000/svg">
<g clip-path="url(#clip0_762_11161)">
<rect width="420" height="240" fill="#EAF1FE"/>
<path d="M281.241 53.624L255.125 71.247L226.532 90.5404L226.387 90.4431L198.398 71.7568L172 54.1324L173.833 52.9514L183.349 46.8229L187.309 44.2736L204.583 33.1481L213.518 27.3929L218.264 24.3366L227.308 18.5117L235.476 23.8297L239.257 26.2904L249.22 32.7763L266.307 43.9017L269.648 46.0763L281.241 53.624Z" fill="#D2E2FF" stroke="#391CE1" stroke-opacity="0.4" stroke-miterlimit="10"/>
<path d="M239.402 59.2267C239.402 61.8777 237.047 64.2092 233.49 65.5455C231.484 66.2994 229.096 66.7367 226.533 66.7367C223.971 66.7367 221.581 66.2994 219.575 65.5455C216.019 64.2092 213.663 61.8777 213.663 59.2267C213.663 55.0781 219.426 51.7153 226.533 51.7153C233.641 51.7153 239.402 55.0781 239.402 59.2267Z" fill="#EAF1FE" stroke="#391CE1" stroke-opacity="0.4" stroke-miterlimit="10"/>
<path d="M239.402 59.2271V71.8632C239.402 76.0119 233.641 79.3746 226.533 79.3746C219.426 79.3746 213.663 76.0119 213.663 71.8632V59.2271C213.663 61.878 216.019 64.2095 219.575 65.5459C221.581 66.2998 223.971 66.737 226.533 66.737C229.096 66.737 231.484 66.2998 233.49 65.5459C237.047 64.2095 239.402 61.878 239.402 59.2271Z" fill="#B8D1FF" stroke="#391CE1" stroke-opacity="0.4" stroke-miterlimit="10"/>
<path d="M239.257 18.5114C239.257 21.1624 236.902 23.4938 233.345 24.8302C231.339 25.5841 228.95 26.0214 226.388 26.0214C223.826 26.0214 221.436 25.5841 219.43 24.8302C215.874 23.4938 213.518 21.1624 213.518 18.5114C213.518 14.3628 219.281 11 226.388 11C233.496 11 239.257 14.3628 239.257 18.5114Z" fill="#EAF1FE" stroke="#391CE1" stroke-opacity="0.4" stroke-miterlimit="10"/>
<path d="M239.257 18.5117V31.1479C239.257 35.2965 233.496 38.6593 226.388 38.6593C219.281 38.6593 213.518 35.2965 213.518 31.1479V18.5117C213.518 21.1627 215.874 23.4941 219.43 24.8305C221.436 25.5844 223.826 26.0217 226.388 26.0217C228.95 26.0217 231.339 25.5844 233.345 24.8305C236.902 23.4941 239.257 21.1627 239.257 18.5117Z" fill="#B8D1FF" stroke="#391CE1" stroke-opacity="0.4" stroke-miterlimit="10"/>
<path d="M269.648 38.8566C269.648 41.5076 267.293 43.839 263.736 45.1754C261.73 45.9293 259.342 46.3666 256.779 46.3666C254.217 46.3666 251.827 45.9293 249.821 45.1754C246.265 43.839 243.909 41.5076 243.909 38.8566C243.909 34.708 249.672 31.3452 256.779 31.3452C263.887 31.3452 269.648 34.708 269.648 38.8566Z" fill="#EAF1FE" stroke="#391CE1" stroke-opacity="0.4" stroke-miterlimit="10"/>
<path d="M269.648 38.8569V51.4931C269.648 55.6417 263.887 59.0045 256.779 59.0045C249.672 59.0045 243.909 55.6417 243.909 51.4931V38.8569C243.909 41.5079 246.265 43.8394 249.821 45.1757C251.827 45.9296 254.217 46.3669 256.779 46.3669C259.342 46.3669 261.73 45.9296 263.736 45.1757C267.293 43.8394 269.648 41.5079 269.648 38.8569Z" fill="#B8D1FF" stroke="#391CE1" stroke-opacity="0.4" stroke-miterlimit="10"/>
<path d="M209.069 38.8478C209.069 41.4988 206.714 43.8303 203.157 45.1666C201.151 45.9205 198.763 46.3578 196.2 46.3578C193.638 46.3578 191.248 45.9205 189.242 45.1666C185.686 43.8303 183.33 41.4988 183.33 38.8478C183.33 34.6992 189.093 31.3364 196.2 31.3364C203.308 31.3364 209.069 34.6992 209.069 38.8478Z" fill="#EAF1FE" stroke="#391CE1" stroke-opacity="0.4" stroke-miterlimit="10"/>
<path d="M209.069 38.8477V51.4838C209.069 55.6325 203.308 58.9952 196.2 58.9952C189.093 58.9952 183.33 55.6325 183.33 51.4838V38.8477C183.33 41.4987 185.686 43.8301 189.242 45.1665C191.248 45.9204 193.638 46.3576 196.2 46.3576C198.763 46.3576 201.151 45.9204 203.157 45.1665C206.714 43.8301 209.069 41.4987 209.069 38.8477Z" fill="#B8D1FF" stroke="#391CE1" stroke-opacity="0.4" stroke-miterlimit="10"/>
<path d="M226.387 90.4425V125.068L172 88.7589V54.1318L198.398 71.7562L226.387 90.4425Z" fill="#EAF1FE" stroke="#391CE1" stroke-opacity="0.4" stroke-miterlimit="10"/>
<path d="M226.476 90.5879V125.068L281.153 88.3233L281.242 53.6235L254.465 71.9016L226.476 90.5879Z" fill="#B8D1FF" stroke="#391CE1" stroke-opacity="0.4" stroke-miterlimit="10"/>
<path d="M182.984 131.434L127.192 168.628L98.5985 187.922L98.4532 187.824L70.4645 169.138L44.0664 151.514L45.8996 150.333L55.4156 144.204L59.3754 141.655L76.6497 130.529L85.5847 124.774L90.3303 121.718L129.051 96.3218L137.219 101.64L141 104.1L150.963 110.586L168.05 121.712L171.391 123.886L182.984 131.434Z" fill="#D2E2FF" stroke="#391CE1" stroke-opacity="0.4" stroke-miterlimit="10"/>
<path d="M111.468 156.601C111.468 159.252 109.113 161.584 105.556 162.92C103.55 163.674 101.162 164.111 98.5995 164.111C96.0371 164.111 93.6476 163.674 91.6416 162.92C88.0856 161.584 85.7295 159.252 85.7295 156.601C85.7295 152.453 91.492 149.09 98.5995 149.09C105.707 149.09 111.468 152.453 111.468 156.601Z" fill="#EAF1FE" stroke="#391CE1" stroke-opacity="0.4" stroke-miterlimit="10"/>
<path d="M111.468 156.602V169.238C111.468 173.387 105.707 176.75 98.5995 176.75C91.492 176.75 85.7295 173.387 85.7295 169.238V156.602C85.7295 159.253 88.0856 161.584 91.6416 162.921C93.6476 163.675 96.0371 164.112 98.5995 164.112C101.162 164.112 103.55 163.675 105.556 162.921C109.113 161.584 111.468 159.253 111.468 156.602Z" fill="#B8D1FF" stroke="#391CE1" stroke-opacity="0.4" stroke-miterlimit="10"/>
<path d="M111.323 115.886C111.323 118.537 108.968 120.869 105.411 122.205C103.405 122.959 101.017 123.396 98.4545 123.396C95.8921 123.396 93.5026 122.959 91.4966 122.205C87.9406 120.869 85.5845 118.537 85.5845 115.886C85.5845 111.738 91.3469 108.375 98.4545 108.375C105.562 108.375 111.323 111.738 111.323 115.886Z" fill="#EAF1FE" stroke="#391CE1" stroke-opacity="0.4" stroke-miterlimit="10"/>
<path d="M111.323 115.887V128.523C111.323 132.672 105.562 136.034 98.4545 136.034C91.3469 136.034 85.5845 132.672 85.5845 128.523V115.887C85.5845 118.538 87.9406 120.869 91.4966 122.206C93.5026 122.959 95.8921 123.397 98.4545 123.397C101.017 123.397 103.405 122.959 105.411 122.206C108.968 120.869 111.323 118.538 111.323 115.887Z" fill="#B8D1FF" stroke="#391CE1" stroke-opacity="0.4" stroke-miterlimit="10"/>
<path d="M141.714 136.231C141.714 138.882 139.36 141.214 135.802 142.55C133.796 143.304 131.408 143.741 128.846 143.741C126.283 143.741 123.894 143.304 121.888 142.55C118.332 141.214 115.976 138.882 115.976 136.231C115.976 132.082 121.738 128.72 128.846 128.72C135.953 128.72 141.714 132.082 141.714 136.231Z" fill="#EAF1FE" stroke="#391CE1" stroke-opacity="0.4" stroke-miterlimit="10"/>
<path d="M141.714 136.232V148.868C141.714 153.017 135.953 156.38 128.846 156.38C121.738 156.38 115.976 153.017 115.976 148.868V136.232C115.976 138.883 118.332 141.214 121.888 142.551C123.894 143.305 126.283 143.742 128.846 143.742C131.408 143.742 133.796 143.305 135.802 142.551C139.36 141.214 141.714 138.883 141.714 136.232Z" fill="#B8D1FF" stroke="#391CE1" stroke-opacity="0.4" stroke-miterlimit="10"/>
<path d="M81.1351 136.223C81.1351 138.874 78.7805 141.205 75.223 142.542C73.217 143.296 70.8289 143.733 68.2665 143.733C65.7041 143.733 63.3146 143.296 61.3086 142.542C57.7526 141.205 55.3965 138.874 55.3965 136.223C55.3965 132.074 61.159 128.711 68.2665 128.711C75.3741 128.711 81.1351 132.074 81.1351 136.223Z" fill="#EAF1FE" stroke="#391CE1" stroke-opacity="0.4" stroke-miterlimit="10"/>
<path d="M81.1351 136.223V148.859C81.1351 153.007 75.3741 156.37 68.2665 156.37C61.159 156.37 55.3965 153.007 55.3965 148.859V136.223C55.3965 138.874 57.7526 141.205 61.3086 142.541C63.3146 143.295 65.7041 143.733 68.2665 143.733C70.8289 143.733 73.217 143.295 75.223 142.541C78.7805 141.205 81.1351 138.874 81.1351 136.223Z" fill="#B8D1FF" stroke="#391CE1" stroke-opacity="0.4" stroke-miterlimit="10"/>
<path d="M141.321 95.8488C141.321 98.4998 138.966 100.831 135.409 102.168C133.403 102.922 131.014 103.359 128.452 103.359C125.89 103.359 123.5 102.922 121.494 102.168C117.938 100.831 115.582 98.4998 115.582 95.8488C115.582 91.7002 121.344 88.3374 128.452 88.3374C135.56 88.3374 141.321 91.7002 141.321 95.8488Z" fill="#EAF1FE" stroke="#391CE1" stroke-opacity="0.4" stroke-miterlimit="10"/>
<path d="M141.321 95.8486V108.485C141.321 112.633 135.56 115.996 128.452 115.996C121.344 115.996 115.582 112.633 115.582 108.485V95.8486C115.582 98.4996 117.938 100.831 121.494 102.167C123.5 102.921 125.89 103.359 128.452 103.359C131.014 103.359 133.403 102.921 135.409 102.167C138.966 100.831 141.321 98.4996 141.321 95.8486Z" fill="#B8D1FF" stroke="#391CE1" stroke-opacity="0.4" stroke-miterlimit="10"/>
<path d="M171.712 116.194C171.712 118.845 169.358 121.176 165.8 122.512C163.794 123.266 161.406 123.703 158.844 123.703C156.281 123.703 153.892 123.266 151.886 122.512C148.33 121.176 145.974 118.845 145.974 116.194C145.974 112.045 151.736 108.682 158.844 108.682C165.951 108.682 171.712 112.045 171.712 116.194Z" fill="#EAF1FE" stroke="#391CE1" stroke-opacity="0.4" stroke-miterlimit="10"/>
<path d="M171.712 116.194V128.831C171.712 132.979 165.951 136.342 158.844 136.342C151.736 136.342 145.974 132.979 145.974 128.831V116.194C145.974 118.845 148.33 121.177 151.886 122.513C153.892 123.267 156.281 123.704 158.844 123.704C161.406 123.704 163.794 123.267 165.8 122.513C169.358 121.177 171.712 118.845 171.712 116.194Z" fill="#B8D1FF" stroke="#391CE1" stroke-opacity="0.4" stroke-miterlimit="10"/>
<path d="M98.4532 187.818V222.443L44.0664 186.134V151.507L70.4645 169.131L98.4532 187.818Z" fill="#EAF1FE" stroke="#391CE1" stroke-opacity="0.4" stroke-miterlimit="10"/>
<path d="M98.542 187.958V222.438L182.452 165.984L182.541 131.284L126.531 169.271L98.542 187.958Z" fill="#B8D1FF" stroke="#391CE1" stroke-opacity="0.4" stroke-miterlimit="10"/>
<path d="M118.241 139.728L92.1251 157.35L63.5321 176.644L63.3868 176.547L35.3981 157.86L9 140.236L10.8332 139.055L20.3492 132.926L24.309 130.377L41.5833 119.252L50.5182 113.496L55.2639 110.44L64.3078 104.615L72.4758 109.933L76.2569 112.394L86.2203 118.88L103.307 130.005L106.648 132.18L118.241 139.728Z" fill="#D2E2FF" stroke="#391CE1" stroke-opacity="0.4" stroke-miterlimit="10"/>
<path d="M76.4017 145.33C76.4017 147.981 74.0471 150.313 70.4896 151.649C68.4836 152.403 66.0955 152.84 63.5331 152.84C60.9707 152.84 58.5812 152.403 56.5752 151.649C53.0192 150.313 50.6631 147.981 50.6631 145.33C50.6631 141.182 56.4256 137.819 63.5331 137.819C70.6407 137.819 76.4017 141.182 76.4017 145.33Z" fill="#EAF1FE" stroke="#391CE1" stroke-opacity="0.4" stroke-miterlimit="10"/>
<path d="M76.4017 145.331V157.967C76.4017 162.115 70.6407 165.478 63.5331 165.478C56.4256 165.478 50.6631 162.115 50.6631 157.967V145.331C50.6631 147.982 53.0192 150.313 56.5752 151.649C58.5812 152.403 60.9707 152.841 63.5331 152.841C66.0955 152.841 68.4836 152.403 70.4896 151.649C74.0471 150.313 76.4017 147.982 76.4017 145.331Z" fill="#B8D1FF" stroke="#391CE1" stroke-opacity="0.4" stroke-miterlimit="10"/>
<path d="M76.2567 104.615C76.2567 107.266 73.902 109.597 70.3446 110.934C68.3386 111.688 65.9505 112.125 63.3881 112.125C60.8257 112.125 58.4362 111.688 56.4302 110.934C52.8742 109.597 50.5181 107.266 50.5181 104.615C50.5181 100.466 56.2805 97.1035 63.3881 97.1035C70.4957 97.1035 76.2567 100.466 76.2567 104.615Z" fill="#EAF1FE" stroke="#391CE1" stroke-opacity="0.4" stroke-miterlimit="10"/>
<path d="M76.2567 104.615V117.251C76.2567 121.4 70.4957 124.763 63.3881 124.763C56.2805 124.763 50.5181 121.4 50.5181 117.251V104.615C50.5181 107.266 52.8742 109.598 56.4302 110.934C58.4362 111.688 60.8257 112.125 63.3881 112.125C65.9505 112.125 68.3386 111.688 70.3446 110.934C73.902 109.598 76.2567 107.266 76.2567 104.615Z" fill="#B8D1FF" stroke="#391CE1" stroke-opacity="0.4" stroke-miterlimit="10"/>
<path d="M106.648 124.96C106.648 127.611 104.293 129.943 100.736 131.279C98.7297 132.033 96.3416 132.47 93.7792 132.47C91.2168 132.47 88.8273 132.033 86.8213 131.279C83.2653 129.943 80.9092 127.611 80.9092 124.96C80.9092 120.812 86.6716 117.449 93.7792 117.449C100.887 117.449 106.648 120.812 106.648 124.96Z" fill="#EAF1FE" stroke="#391CE1" stroke-opacity="0.4" stroke-miterlimit="10"/>
<path d="M106.648 124.96V137.597C106.648 141.745 100.887 145.108 93.7792 145.108C86.6716 145.108 80.9092 141.745 80.9092 137.597V124.96C80.9092 127.611 83.2653 129.943 86.8213 131.279C88.8273 132.033 91.2168 132.47 93.7792 132.47C96.3416 132.47 98.7297 132.033 100.736 131.279C104.293 129.943 106.648 127.611 106.648 124.96Z" fill="#B8D1FF" stroke="#391CE1" stroke-opacity="0.4" stroke-miterlimit="10"/>
<path d="M46.0687 124.952C46.0687 127.603 43.7141 129.934 40.1566 131.271C38.1506 132.025 35.7625 132.462 33.2001 132.462C30.6377 132.462 28.2482 132.025 26.2422 131.271C22.6862 129.934 20.3301 127.603 20.3301 124.952C20.3301 120.803 26.0925 117.44 33.2001 117.44C40.3077 117.44 46.0687 120.803 46.0687 124.952Z" fill="#EAF1FE" stroke="#391CE1" stroke-opacity="0.4" stroke-miterlimit="10"/>
<path d="M46.0687 124.951V137.587C46.0687 141.736 40.3077 145.099 33.2001 145.099C26.0925 145.099 20.3301 141.736 20.3301 137.587V124.951C20.3301 127.602 22.6862 129.934 26.2422 131.27C28.2482 132.024 30.6377 132.461 33.2001 132.461C35.7625 132.461 38.1506 132.024 40.1566 131.27C43.7141 129.934 46.0687 127.602 46.0687 124.951Z" fill="#B8D1FF" stroke="#391CE1" stroke-opacity="0.4" stroke-miterlimit="10"/>
<path d="M63.3868 176.546V211.172L9 174.862V140.235L35.3981 157.86L63.3868 176.546Z" fill="#EAF1FE" stroke="#391CE1" stroke-opacity="0.4" stroke-miterlimit="10"/>
<path d="M63.4761 176.691V211.172L118.153 174.427L118.242 139.727L91.4648 158.005L63.4761 176.691Z" fill="#B8D1FF" stroke="#391CE1" stroke-opacity="0.4" stroke-miterlimit="10"/>
<path d="M148.298 84.624L122.182 102.247L93.5887 121.54L93.4435 121.443L65.4548 102.757L39.0566 85.1324L40.8898 83.9514L50.4058 77.8229L54.3656 75.2736L71.6399 64.1481L80.5749 58.3929L85.3205 55.3366L94.3644 49.5117L102.532 54.8297L106.314 57.2904L116.277 63.7763L133.364 74.9017L136.705 77.0763L148.298 84.624Z" fill="#D2E2FF" stroke="#391CE1" stroke-opacity="0.4" stroke-miterlimit="10"/>
<path d="M106.458 90.2262C106.458 92.8772 104.104 95.2087 100.546 96.5451C98.5402 97.299 96.1522 97.7362 93.5898 97.7362C91.0274 97.7362 88.6379 97.299 86.6318 96.5451C83.0758 95.2087 80.7197 92.8772 80.7197 90.2262C80.7197 86.0776 86.4822 82.7148 93.5898 82.7148C100.697 82.7148 106.458 86.0776 106.458 90.2262Z" fill="#EAF1FE" stroke="#391CE1" stroke-opacity="0.4" stroke-miterlimit="10"/>
<path d="M106.458 90.2266V102.863C106.458 107.011 100.697 110.374 93.5898 110.374C86.4822 110.374 80.7197 107.011 80.7197 102.863V90.2266C80.7197 92.8776 83.0758 95.209 86.6318 96.5454C88.6379 97.2993 91.0274 97.7365 93.5898 97.7365C96.1522 97.7365 98.5402 97.2993 100.546 96.5454C104.104 95.209 106.458 92.8776 106.458 90.2266Z" fill="#B8D1FF" stroke="#391CE1" stroke-opacity="0.4" stroke-miterlimit="10"/>
<path d="M106.313 49.5114C106.313 52.1624 103.959 54.4938 100.401 55.8302C98.3952 56.5841 96.0071 57.0214 93.4447 57.0214C90.8824 57.0214 88.4928 56.5841 86.4868 55.8302C82.9308 54.4938 80.5747 52.1624 80.5747 49.5114C80.5747 45.3628 86.3372 42 93.4447 42C100.552 42 106.313 45.3628 106.313 49.5114Z" fill="#EAF1FE" stroke="#391CE1" stroke-opacity="0.4" stroke-miterlimit="10"/>
<path d="M106.313 49.5117V62.1479C106.313 66.2965 100.552 69.6593 93.4447 69.6593C86.3372 69.6593 80.5747 66.2965 80.5747 62.1479V49.5117C80.5747 52.1627 82.9308 54.4941 86.4868 55.8305C88.4928 56.5844 90.8824 57.0217 93.4447 57.0217C96.0071 57.0217 98.3952 56.5844 100.401 55.8305C103.959 54.4941 106.313 52.1627 106.313 49.5117Z" fill="#B8D1FF" stroke="#391CE1" stroke-opacity="0.4" stroke-miterlimit="10"/>
<path d="M136.705 69.8561C136.705 72.5071 134.35 74.8386 130.793 76.1749C128.787 76.9288 126.399 77.3661 123.836 77.3661C121.274 77.3661 118.884 76.9288 116.878 76.1749C113.322 74.8386 110.966 72.5071 110.966 69.8561C110.966 65.7075 116.729 62.3447 123.836 62.3447C130.944 62.3447 136.705 65.7075 136.705 69.8561Z" fill="#EAF1FE" stroke="#391CE1" stroke-opacity="0.4" stroke-miterlimit="10"/>
<path d="M136.705 69.8564V82.4926C136.705 86.6413 130.944 90.004 123.836 90.004C116.729 90.004 110.966 86.6413 110.966 82.4926V69.8564C110.966 72.5074 113.322 74.8389 116.878 76.1753C118.884 76.9292 121.274 77.3664 123.836 77.3664C126.399 77.3664 128.787 76.9292 130.793 76.1753C134.35 74.8389 136.705 72.5074 136.705 69.8564Z" fill="#B8D1FF" stroke="#391CE1" stroke-opacity="0.4" stroke-miterlimit="10"/>
<path d="M76.1254 69.8478C76.1254 72.4988 73.7707 74.8303 70.2133 76.1666C68.2072 76.9205 65.8192 77.3578 63.2568 77.3578C60.6944 77.3578 58.3048 76.9205 56.2988 76.1666C52.7428 74.8303 50.3867 72.4988 50.3867 69.8478C50.3867 65.6992 56.1492 62.3364 63.2568 62.3364C70.3643 62.3364 76.1254 65.6992 76.1254 69.8478Z" fill="#EAF1FE" stroke="#391CE1" stroke-opacity="0.4" stroke-miterlimit="10"/>
<path d="M76.1254 69.8477V82.4838C76.1254 86.6325 70.3643 89.9952 63.2568 89.9952C56.1492 89.9952 50.3867 86.6325 50.3867 82.4838V69.8477C50.3867 72.4987 52.7428 74.8301 56.2988 76.1665C58.3048 76.9204 60.6944 77.3576 63.2568 77.3576C65.8192 77.3576 68.2072 76.9204 70.2133 76.1665C73.7707 74.8301 76.1254 72.4987 76.1254 69.8477Z" fill="#B8D1FF" stroke="#391CE1" stroke-opacity="0.4" stroke-miterlimit="10"/>
<path d="M93.4435 121.443V156.068L39.0566 119.759V85.1318L65.4548 102.756L93.4435 121.443Z" fill="#EAF1FE" stroke="#391CE1" stroke-opacity="0.4" stroke-miterlimit="10"/>
<path d="M93.5327 121.588V156.068L148.21 119.323L148.299 84.6235L121.521 102.902L93.5327 121.588Z" fill="#B8D1FF" stroke="#391CE1" stroke-opacity="0.4" stroke-miterlimit="10"/>
<g clip-path="url(#clip1_762_11161)">
<path d="M336.408 209.182C336.861 209.182 337.228 209.548 337.228 210C337.228 210.452 336.861 210.818 336.408 210.818C335.955 210.818 335.588 210.452 335.588 210C335.588 209.548 335.955 209.182 336.408 209.182Z" fill="#4D58EB"/>
<path d="M348.702 209.182C348.254 209.182 347.882 209.546 347.882 210C347.882 210.455 348.247 210.818 348.702 210.818C349.157 210.818 349.522 210.455 349.522 210C349.522 209.546 349.157 209.182 348.702 209.182Z" fill="#4D58EB"/>
<path d="M360.996 209.182C361.449 209.182 361.816 209.548 361.816 210C361.816 210.452 361.449 210.818 360.996 210.818C360.544 210.818 360.177 210.452 360.177 210C360.177 209.548 360.544 209.182 360.996 209.182Z" fill="#4D58EB"/>
<path d="M373.29 221.454C373.743 221.454 374.11 221.82 374.11 222.272C374.11 222.724 373.743 223.09 373.29 223.09C372.838 223.09 372.471 222.724 372.471 222.272C372.471 221.82 372.838 221.454 373.29 221.454Z" fill="#4D58EB"/>
<path d="M373.29 209.182C373.743 209.182 374.11 209.548 374.11 210C374.11 210.452 373.743 210.818 373.29 210.818C372.838 210.818 372.471 210.452 372.471 210C372.471 209.548 372.838 209.182 373.29 209.182Z" fill="#4D58EB"/>
<path d="M385.592 221.454C386.045 221.454 386.412 221.82 386.412 222.272C386.412 222.724 386.045 223.09 385.592 223.09C385.139 223.09 384.772 222.724 384.772 222.272C384.772 221.82 385.139 221.454 385.592 221.454Z" fill="#4D58EB"/>
<path d="M385.592 209.182C386.045 209.182 386.412 209.548 386.412 210C386.412 210.452 386.045 210.818 385.592 210.818C385.139 210.818 384.772 210.452 384.772 210C384.772 209.548 385.139 209.182 385.592 209.182Z" fill="#4D58EB"/>
<path d="M398.706 222.272C398.706 221.825 398.341 221.454 397.886 221.454C397.431 221.454 397.066 221.817 397.066 222.272C397.066 222.726 397.431 223.09 397.886 223.09C398.341 223.09 398.706 222.726 398.706 222.272Z" fill="#4D58EB"/>
<path d="M397.886 209.182C397.438 209.182 397.066 209.546 397.066 210C397.066 210.455 397.431 210.818 397.886 210.818C398.341 210.818 398.706 210.455 398.706 210C398.706 209.553 398.341 209.182 397.886 209.182Z" fill="#4D58EB"/>
<path d="M410.18 209.182C410.633 209.182 411 209.548 411 210C411 210.452 410.633 210.818 410.18 210.818C409.728 210.818 409.361 210.452 409.361 210C409.361 209.548 409.728 209.182 410.18 209.182Z" fill="#4D58EB"/>
<path d="M336.408 196.91C336.861 196.91 337.228 197.276 337.228 197.728C337.228 198.18 336.861 198.546 336.408 198.546C335.955 198.546 335.588 198.18 335.588 197.728C335.588 197.276 335.955 196.91 336.408 196.91Z" fill="#4D58EB"/>
<path d="M348.702 196.91C348.254 196.91 347.882 197.274 347.882 197.728C347.882 198.183 348.247 198.546 348.702 198.546C349.157 198.546 349.522 198.183 349.522 197.728C349.522 197.274 349.157 196.91 348.702 196.91Z" fill="#4D58EB"/>
<path d="M360.996 196.91C361.449 196.91 361.816 197.276 361.816 197.728C361.816 198.18 361.449 198.546 360.996 198.546C360.544 198.546 360.177 198.18 360.177 197.728C360.177 197.276 360.544 196.91 360.996 196.91Z" fill="#4D58EB"/>
<path d="M373.29 196.91C373.743 196.91 374.11 197.276 374.11 197.728C374.11 198.18 373.743 198.546 373.29 198.546C372.838 198.546 372.471 198.18 372.471 197.728C372.471 197.276 372.838 196.91 373.29 196.91Z" fill="#4D58EB"/>
<path d="M385.592 196.91C386.045 196.91 386.412 197.276 386.412 197.728C386.412 198.18 386.045 198.546 385.592 198.546C385.139 198.546 384.772 198.18 384.772 197.728C384.772 197.276 385.139 196.91 385.592 196.91Z" fill="#4D58EB"/>
<path d="M397.886 196.91C397.438 196.91 397.066 197.274 397.066 197.728C397.066 198.183 397.431 198.546 397.886 198.546C398.341 198.546 398.706 198.183 398.706 197.728C398.706 197.274 398.341 196.91 397.886 196.91Z" fill="#4D58EB"/>
<path d="M410.18 196.91C410.633 196.91 411 197.276 411 197.728C411 198.18 410.633 198.546 410.18 198.546C409.728 198.546 409.361 198.18 409.361 197.728C409.361 197.276 409.728 196.91 410.18 196.91Z" fill="#4D58EB"/>
<path d="M336.408 184.638C335.96 184.638 335.588 185.002 335.588 185.456C335.588 185.911 335.953 186.274 336.408 186.274C336.863 186.274 337.228 185.911 337.228 185.456C337.228 185.002 336.863 184.638 336.408 184.638Z" fill="#4D58EB"/>
<path d="M348.702 184.638C348.254 184.638 347.882 185.002 347.882 185.456C347.882 185.911 348.247 186.274 348.702 186.274C349.157 186.274 349.522 185.911 349.522 185.456C349.522 185.002 349.157 184.638 348.702 184.638Z" fill="#4D58EB"/>
<path d="M360.996 184.638C360.549 184.638 360.177 185.002 360.177 185.456C360.177 185.911 360.541 186.274 360.996 186.274C361.452 186.274 361.816 185.911 361.816 185.456C361.816 185.009 361.452 184.638 360.996 184.638Z" fill="#4D58EB"/>
<path d="M373.29 184.638C372.843 184.638 372.471 185.002 372.471 185.456C372.471 185.911 372.835 186.274 373.29 186.274C373.746 186.274 374.11 185.911 374.11 185.456C374.11 185.002 373.746 184.638 373.29 184.638Z" fill="#4D58EB"/>
<path d="M385.592 184.638C385.144 184.638 384.772 185.002 384.772 185.456C384.772 185.911 385.137 186.274 385.592 186.274C386.047 186.274 386.412 185.911 386.412 185.456C386.412 185.002 386.047 184.638 385.592 184.638Z" fill="#4D58EB"/>
<path d="M397.886 184.638C397.438 184.638 397.066 185.002 397.066 185.456C397.066 185.911 397.431 186.274 397.886 186.274C398.341 186.274 398.706 185.911 398.706 185.456C398.706 185.009 398.341 184.638 397.886 184.638Z" fill="#4D58EB"/>
<path d="M410.18 184.638C409.733 184.638 409.361 185.002 409.361 185.456C409.361 185.911 409.725 186.274 410.18 186.274C410.636 186.274 411 185.911 411 185.456C411 185.002 410.636 184.638 410.18 184.638Z" fill="#4D58EB"/>
<path d="M385.592 172.359C386.045 172.359 386.412 172.725 386.412 173.177C386.412 173.629 386.045 173.995 385.592 173.995C385.139 173.995 384.772 173.629 384.772 173.177C384.772 172.725 385.139 172.359 385.592 172.359Z" fill="#4D58EB"/>
<path d="M397.886 172.367C397.438 172.367 397.066 172.73 397.066 173.185C397.066 173.639 397.431 174.003 397.886 174.003C398.341 174.003 398.706 173.639 398.706 173.185C398.706 172.73 398.341 172.367 397.886 172.367Z" fill="#4D58EB"/>
<path d="M410.18 172.359C410.633 172.359 411 172.725 411 173.177C411 173.629 410.633 173.995 410.18 173.995C409.728 173.995 409.361 173.629 409.361 173.177C409.361 172.725 409.728 172.359 410.18 172.359Z" fill="#4D58EB"/>
<path d="M385.592 160.087C386.045 160.087 386.412 160.454 386.412 160.906C386.412 161.357 386.045 161.724 385.592 161.724C385.139 161.724 384.772 161.357 384.772 160.906C384.772 160.454 385.139 160.087 385.592 160.087Z" fill="#4D58EB"/>
<path d="M397.886 160.095C397.438 160.095 397.066 160.458 397.066 160.913C397.066 161.367 397.431 161.731 397.886 161.731C398.341 161.731 398.706 161.367 398.706 160.913C398.706 160.458 398.341 160.095 397.886 160.095Z" fill="#4D58EB"/>
<path d="M311.82 221.454C312.272 221.454 312.639 221.82 312.639 222.272C312.639 222.724 312.272 223.09 311.82 223.09C311.367 223.09 311 222.724 311 222.272C311 221.82 311.367 221.454 311.82 221.454Z" fill="#4D58EB"/>
<path d="M311.82 209.182C312.272 209.182 312.639 209.548 312.639 210C312.639 210.452 312.272 210.818 311.82 210.818C311.367 210.818 311 210.452 311 210C311 209.548 311.367 209.182 311.82 209.182Z" fill="#4D58EB"/>
<path d="M324.114 221.454C324.566 221.454 324.933 221.82 324.933 222.272C324.933 222.724 324.566 223.09 324.114 223.09C323.661 223.09 323.294 222.724 323.294 222.272C323.294 221.82 323.661 221.454 324.114 221.454Z" fill="#4D58EB"/>
<path d="M324.114 209.182C324.566 209.182 324.933 209.548 324.933 210C324.933 210.452 324.566 210.818 324.114 210.818C323.661 210.818 323.294 210.452 323.294 210C323.294 209.548 323.661 209.182 324.114 209.182Z" fill="#4D58EB"/>
<path d="M311.82 196.91C312.272 196.91 312.639 197.276 312.639 197.728C312.639 198.18 312.272 198.546 311.82 198.546C311.367 198.546 311 198.18 311 197.728C311 197.276 311.367 196.91 311.82 196.91Z" fill="#4D58EB"/>
<path d="M324.114 196.91C324.566 196.91 324.933 197.276 324.933 197.728C324.933 198.18 324.566 198.546 324.114 198.546C323.661 198.546 323.294 198.18 323.294 197.728C323.294 197.276 323.661 196.91 324.114 196.91Z" fill="#4D58EB"/>
<path d="M311.82 184.638C311.372 184.638 311 185.002 311 185.456C311 185.911 311.364 186.274 311.82 186.274C312.275 186.274 312.639 185.911 312.639 185.456C312.639 185.002 312.275 184.638 311.82 184.638Z" fill="#4D58EB"/>
<path d="M324.114 184.638C323.666 184.638 323.294 185.002 323.294 185.456C323.294 185.911 323.658 186.274 324.114 186.274C324.569 186.274 324.933 185.911 324.933 185.456C324.933 185.002 324.569 184.638 324.114 184.638Z" fill="#4D58EB"/>
<path d="M336.408 172.359C336.861 172.359 337.228 172.725 337.228 173.177C337.228 173.629 336.861 173.995 336.408 173.995C335.955 173.995 335.588 173.629 335.588 173.177C335.588 172.725 335.955 172.359 336.408 172.359Z" fill="#4D58EB"/>
<path d="M348.702 172.367C348.254 172.367 347.882 172.73 347.882 173.185C347.882 173.639 348.247 174.003 348.702 174.003C349.157 174.003 349.522 173.639 349.522 173.185C349.522 172.73 349.157 172.367 348.702 172.367Z" fill="#4D58EB"/>
<path d="M360.996 172.359C361.449 172.359 361.816 172.725 361.816 173.177C361.816 173.629 361.449 173.995 360.996 173.995C360.544 173.995 360.177 173.629 360.177 173.177C360.177 172.725 360.544 172.359 360.996 172.359Z" fill="#4D58EB"/>
<path d="M373.29 172.359C373.743 172.359 374.11 172.725 374.11 173.177C374.11 173.629 373.743 173.995 373.29 173.995C372.838 173.995 372.471 173.629 372.471 173.177C372.471 172.725 372.838 172.359 373.29 172.359Z" fill="#4D58EB"/>
<path d="M336.408 160.087C336.861 160.087 337.228 160.454 337.228 160.906C337.228 161.357 336.861 161.724 336.408 161.724C335.955 161.724 335.588 161.357 335.588 160.906C335.588 160.454 335.955 160.087 336.408 160.087Z" fill="#4D58EB"/>
<path d="M348.702 160.095C348.254 160.095 347.882 160.458 347.882 160.913C347.882 161.367 348.247 161.731 348.702 161.731C349.157 161.731 349.522 161.367 349.522 160.913C349.522 160.458 349.157 160.095 348.702 160.095Z" fill="#4D58EB"/>
<path d="M360.996 160.087C361.449 160.087 361.816 160.454 361.816 160.906C361.816 161.357 361.449 161.724 360.996 161.724C360.544 161.724 360.177 161.357 360.177 160.906C360.177 160.454 360.544 160.087 360.996 160.087Z" fill="#4D58EB"/>
<path d="M373.29 160.087C373.743 160.087 374.11 160.454 374.11 160.906C374.11 161.357 373.743 161.724 373.29 161.724C372.838 161.724 372.471 161.357 372.471 160.906C372.471 160.454 372.838 160.087 373.29 160.087Z" fill="#4D58EB"/>
<path d="M336.408 147.815C336.861 147.815 337.228 148.182 337.228 148.634C337.228 149.085 336.861 149.452 336.408 149.452C335.955 149.452 335.588 149.085 335.588 148.634C335.588 148.182 335.955 147.815 336.408 147.815Z" fill="#4D58EB"/>
<path d="M348.702 147.815C348.254 147.815 347.882 148.179 347.882 148.634C347.882 149.088 348.247 149.452 348.702 149.452C349.157 149.452 349.522 149.088 349.522 148.634C349.522 148.179 349.157 147.815 348.702 147.815Z" fill="#4D58EB"/>
<path d="M360.996 147.815C361.449 147.815 361.816 148.182 361.816 148.634C361.816 149.085 361.449 149.452 360.996 149.452C360.544 149.452 360.177 149.085 360.177 148.634C360.177 148.182 360.544 147.815 360.996 147.815Z" fill="#4D58EB"/>
<path d="M373.29 147.815C373.743 147.815 374.11 148.182 374.11 148.634C374.11 149.085 373.743 149.452 373.29 149.452C372.838 149.452 372.471 149.085 372.471 148.634C372.471 148.182 372.838 147.815 373.29 147.815Z" fill="#4D58EB"/>
<path d="M311.82 172.359C312.272 172.359 312.639 172.725 312.639 173.177C312.639 173.629 312.272 173.995 311.82 173.995C311.367 173.995 311 173.629 311 173.177C311 172.725 311.367 172.359 311.82 172.359Z" fill="#4D58EB"/>
<path d="M324.114 172.359C324.566 172.359 324.933 172.725 324.933 173.177C324.933 173.629 324.566 173.995 324.114 173.995C323.661 173.995 323.294 173.629 323.294 173.177C323.294 172.725 323.661 172.359 324.114 172.359Z" fill="#4D58EB"/>
<path d="M311.82 160.087C312.272 160.087 312.639 160.454 312.639 160.906C312.639 161.357 312.272 161.724 311.82 161.724C311.367 161.724 311 161.357 311 160.906C311 160.454 311.367 160.087 311.82 160.087Z" fill="#4D58EB"/>
<path d="M324.114 160.087C324.566 160.087 324.933 160.454 324.933 160.906C324.933 161.357 324.566 161.724 324.114 161.724C323.661 161.724 323.294 161.357 323.294 160.906C323.294 160.454 323.661 160.087 324.114 160.087Z" fill="#4D58EB"/>
<path d="M311.82 147.815C312.272 147.815 312.639 148.182 312.639 148.634C312.639 149.085 312.272 149.452 311.82 149.452C311.367 149.452 311 149.085 311 148.634C311 148.182 311.367 147.815 311.82 147.815Z" fill="#4D58EB"/>
<path d="M324.114 147.815C324.566 147.815 324.933 148.182 324.933 148.634C324.933 149.085 324.566 149.452 324.114 149.452C323.661 149.452 323.294 149.085 323.294 148.634C323.294 148.182 323.661 147.815 324.114 147.815Z" fill="#4D58EB"/>
<path d="M385.592 233.726C386.045 233.726 386.412 234.092 386.412 234.544C386.412 234.996 386.045 235.362 385.592 235.362C385.139 235.362 384.772 234.996 384.772 234.544C384.772 234.092 385.139 233.726 385.592 233.726Z" fill="#4D58EB"/>
<path d="M311.82 233.726C312.272 233.726 312.639 234.092 312.639 234.544C312.639 234.996 312.272 235.362 311.82 235.362C311.367 235.362 311 234.996 311 234.544C311 234.092 311.367 233.726 311.82 233.726Z" fill="#4D58EB"/>
<path d="M324.114 233.726C324.566 233.726 324.933 234.092 324.933 234.544C324.933 234.996 324.566 235.362 324.114 235.362C323.661 235.362 323.294 234.996 323.294 234.544C323.294 234.092 323.661 233.726 324.114 233.726Z" fill="#4D58EB"/>
<path d="M336.408 135.543C335.96 135.543 335.588 135.907 335.588 136.362C335.588 136.816 335.953 137.18 336.408 137.18C336.863 137.18 337.228 136.816 337.228 136.362C337.228 135.907 336.863 135.543 336.408 135.543Z" fill="#4D58EB"/>
<path d="M348.702 135.543C348.254 135.543 347.882 135.907 347.882 136.362C347.882 136.816 348.247 137.18 348.702 137.18C349.157 137.18 349.522 136.816 349.522 136.362C349.522 135.907 349.157 135.543 348.702 135.543Z" fill="#4D58EB"/>
<path d="M360.996 135.543C360.549 135.543 360.177 135.907 360.177 136.362C360.177 136.816 360.541 137.18 360.996 137.18C361.452 137.18 361.816 136.816 361.816 136.362C361.816 135.915 361.452 135.543 360.996 135.543Z" fill="#4D58EB"/>
<path d="M336.408 123.272C336.861 123.272 337.228 123.638 337.228 124.09C337.228 124.542 336.861 124.908 336.408 124.908C335.955 124.908 335.588 124.542 335.588 124.09C335.588 123.638 335.955 123.272 336.408 123.272Z" fill="#4D58EB"/>
<path d="M348.702 123.272C348.254 123.272 347.882 123.636 347.882 124.09C347.882 124.545 348.247 124.908 348.702 124.908C349.157 124.908 349.522 124.545 349.522 124.09C349.522 123.636 349.157 123.272 348.702 123.272Z" fill="#4D58EB"/>
<path d="M311.82 135.543C311.372 135.543 311 135.907 311 136.362C311 136.816 311.364 137.18 311.82 137.18C312.275 137.18 312.639 136.816 312.639 136.362C312.639 135.907 312.275 135.543 311.82 135.543Z" fill="#4D58EB"/>
<path d="M324.114 135.543C323.666 135.543 323.294 135.907 323.294 136.362C323.294 136.816 323.658 137.18 324.114 137.18C324.569 137.18 324.933 136.816 324.933 136.362C324.933 135.907 324.569 135.543 324.114 135.543Z" fill="#4D58EB"/>
<path d="M311.82 123.272C312.272 123.272 312.639 123.638 312.639 124.09C312.639 124.542 312.272 124.908 311.82 124.908C311.367 124.908 311 124.542 311 124.09C311 123.638 311.367 123.272 311.82 123.272Z" fill="#4D58EB"/>
<path d="M324.114 123.272C324.566 123.272 324.933 123.638 324.933 124.09C324.933 124.542 324.566 124.908 324.114 124.908C323.661 124.908 323.294 124.542 323.294 124.09C323.294 123.638 323.661 123.272 324.114 123.272Z" fill="#4D58EB"/>
<path d="M311.82 110.992C312.272 110.992 312.639 111.358 312.639 111.81C312.639 112.262 312.272 112.628 311.82 112.628C311.367 112.628 311 112.262 311 111.81C311 111.358 311.367 110.992 311.82 110.992Z" fill="#4D58EB"/>
<path d="M324.114 110.992C324.566 110.992 324.933 111.358 324.933 111.81C324.933 112.262 324.566 112.628 324.114 112.628C323.661 112.628 323.294 112.262 323.294 111.81C323.294 111.358 323.661 110.992 324.114 110.992Z" fill="#4D58EB"/>
</g>
<g clip-path="url(#clip2_762_11161)">
<path d="M275.592 221.182C275.139 221.182 274.772 221.548 274.772 222C274.772 222.452 275.139 222.818 275.592 222.818C276.045 222.818 276.412 222.452 276.412 222C276.412 221.548 276.045 221.182 275.592 221.182Z" fill="#4D58EB"/>
<path d="M263.298 221.182C263.746 221.182 264.118 221.546 264.118 222C264.118 222.455 263.753 222.818 263.298 222.818C262.843 222.818 262.478 222.455 262.478 222C262.478 221.546 262.843 221.182 263.298 221.182Z" fill="#4D58EB"/>
<path d="M251.004 221.182C250.551 221.182 250.184 221.548 250.184 222C250.184 222.452 250.551 222.818 251.004 222.818C251.456 222.818 251.823 222.452 251.823 222C251.823 221.548 251.456 221.182 251.004 221.182Z" fill="#4D58EB"/>
<path d="M238.71 233.454C238.257 233.454 237.89 233.82 237.89 234.272C237.89 234.724 238.257 235.09 238.71 235.09C239.162 235.09 239.529 234.724 239.529 234.272C239.529 233.82 239.162 233.454 238.71 233.454Z" fill="#4D58EB"/>
<path d="M238.71 221.182C238.257 221.182 237.89 221.548 237.89 222C237.89 222.452 238.257 222.818 238.71 222.818C239.162 222.818 239.529 222.452 239.529 222C239.529 221.548 239.162 221.182 238.71 221.182Z" fill="#4D58EB"/>
<path d="M226.408 233.454C225.955 233.454 225.588 233.82 225.588 234.272C225.588 234.724 225.955 235.09 226.408 235.09C226.861 235.09 227.228 234.724 227.228 234.272C227.228 233.82 226.861 233.454 226.408 233.454Z" fill="#4D58EB"/>
<path d="M226.408 221.182C225.955 221.182 225.588 221.548 225.588 222C225.588 222.452 225.955 222.818 226.408 222.818C226.861 222.818 227.228 222.452 227.228 222C227.228 221.548 226.861 221.182 226.408 221.182Z" fill="#4D58EB"/>
<path d="M213.294 234.272C213.294 233.825 213.659 233.454 214.114 233.454C214.569 233.454 214.934 233.817 214.934 234.272C214.934 234.726 214.569 235.09 214.114 235.09C213.659 235.09 213.294 234.726 213.294 234.272Z" fill="#4D58EB"/>
<path d="M214.114 221.182C214.562 221.182 214.934 221.546 214.934 222C214.934 222.455 214.569 222.818 214.114 222.818C213.659 222.818 213.294 222.455 213.294 222C213.294 221.553 213.659 221.182 214.114 221.182Z" fill="#4D58EB"/>
<path d="M201.82 221.182C201.367 221.182 201 221.548 201 222C201 222.452 201.367 222.818 201.82 222.818C202.272 222.818 202.639 222.452 202.639 222C202.639 221.548 202.272 221.182 201.82 221.182Z" fill="#4D58EB"/>
<path d="M275.592 208.91C275.139 208.91 274.772 209.276 274.772 209.728C274.772 210.18 275.139 210.546 275.592 210.546C276.045 210.546 276.412 210.18 276.412 209.728C276.412 209.276 276.045 208.91 275.592 208.91Z" fill="#4D58EB"/>
<path d="M263.298 208.91C263.746 208.91 264.118 209.274 264.118 209.728C264.118 210.183 263.753 210.546 263.298 210.546C262.843 210.546 262.478 210.183 262.478 209.728C262.478 209.274 262.843 208.91 263.298 208.91Z" fill="#4D58EB"/>
<path d="M251.004 208.91C250.551 208.91 250.184 209.276 250.184 209.728C250.184 210.18 250.551 210.546 251.004 210.546C251.456 210.546 251.823 210.18 251.823 209.728C251.823 209.276 251.456 208.91 251.004 208.91Z" fill="#4D58EB"/>
<path d="M238.71 208.91C238.257 208.91 237.89 209.276 237.89 209.728C237.89 210.18 238.257 210.546 238.71 210.546C239.162 210.546 239.529 210.18 239.529 209.728C239.529 209.276 239.162 208.91 238.71 208.91Z" fill="#4D58EB"/>
<path d="M226.408 208.91C225.955 208.91 225.588 209.276 225.588 209.728C225.588 210.18 225.955 210.546 226.408 210.546C226.861 210.546 227.228 210.18 227.228 209.728C227.228 209.276 226.861 208.91 226.408 208.91Z" fill="#4D58EB"/>
<path d="M214.114 208.91C214.562 208.91 214.934 209.274 214.934 209.728C214.934 210.183 214.569 210.546 214.114 210.546C213.659 210.546 213.294 210.183 213.294 209.728C213.294 209.274 213.659 208.91 214.114 208.91Z" fill="#4D58EB"/>
<path d="M201.82 208.91C201.367 208.91 201 209.276 201 209.728C201 210.18 201.367 210.546 201.82 210.546C202.272 210.546 202.639 210.18 202.639 209.728C202.639 209.276 202.272 208.91 201.82 208.91Z" fill="#4D58EB"/>
<path d="M275.592 196.638C276.04 196.638 276.412 197.002 276.412 197.456C276.412 197.911 276.047 198.274 275.592 198.274C275.137 198.274 274.772 197.911 274.772 197.456C274.772 197.002 275.137 196.638 275.592 196.638Z" fill="#4D58EB"/>
<path d="M263.298 196.638C263.746 196.638 264.118 197.002 264.118 197.456C264.118 197.911 263.753 198.274 263.298 198.274C262.843 198.274 262.478 197.911 262.478 197.456C262.478 197.002 262.843 196.638 263.298 196.638Z" fill="#4D58EB"/>
<path d="M251.004 196.638C251.451 196.638 251.823 197.002 251.823 197.456C251.823 197.911 251.459 198.274 251.004 198.274C250.548 198.274 250.184 197.911 250.184 197.456C250.184 197.009 250.548 196.638 251.004 196.638Z" fill="#4D58EB"/>
<path d="M238.71 196.638C239.157 196.638 239.529 197.002 239.529 197.456C239.529 197.911 239.165 198.274 238.71 198.274C238.254 198.274 237.89 197.911 237.89 197.456C237.89 197.002 238.254 196.638 238.71 196.638Z" fill="#4D58EB"/>
<path d="M226.408 196.638C226.856 196.638 227.228 197.002 227.228 197.456C227.228 197.911 226.863 198.274 226.408 198.274C225.953 198.274 225.588 197.911 225.588 197.456C225.588 197.002 225.953 196.638 226.408 196.638Z" fill="#4D58EB"/>
<path d="M214.114 196.638C214.562 196.638 214.934 197.002 214.934 197.456C214.934 197.911 214.569 198.274 214.114 198.274C213.659 198.274 213.294 197.911 213.294 197.456C213.294 197.009 213.659 196.638 214.114 196.638Z" fill="#4D58EB"/>
<path d="M201.82 196.638C202.267 196.638 202.639 197.002 202.639 197.456C202.639 197.911 202.275 198.274 201.82 198.274C201.364 198.274 201 197.911 201 197.456C201 197.002 201.364 196.638 201.82 196.638Z" fill="#4D58EB"/>
<path d="M226.408 184.359C225.955 184.359 225.588 184.725 225.588 185.177C225.588 185.629 225.955 185.995 226.408 185.995C226.861 185.995 227.228 185.629 227.228 185.177C227.228 184.725 226.861 184.359 226.408 184.359Z" fill="#4D58EB"/>
<path d="M214.114 184.367C214.562 184.367 214.934 184.73 214.934 185.185C214.934 185.639 214.569 186.003 214.114 186.003C213.659 186.003 213.294 185.639 213.294 185.185C213.294 184.73 213.659 184.367 214.114 184.367Z" fill="#4D58EB"/>
<path d="M201.82 184.359C201.367 184.359 201 184.725 201 185.177C201 185.629 201.367 185.995 201.82 185.995C202.272 185.995 202.639 185.629 202.639 185.177C202.639 184.725 202.272 184.359 201.82 184.359Z" fill="#4D58EB"/>
<path d="M226.408 172.087C225.955 172.087 225.588 172.454 225.588 172.906C225.588 173.357 225.955 173.724 226.408 173.724C226.861 173.724 227.228 173.357 227.228 172.906C227.228 172.454 226.861 172.087 226.408 172.087Z" fill="#4D58EB"/>
<path d="M214.114 172.095C214.562 172.095 214.934 172.458 214.934 172.913C214.934 173.367 214.569 173.731 214.114 173.731C213.659 173.731 213.294 173.367 213.294 172.913C213.294 172.458 213.659 172.095 214.114 172.095Z" fill="#4D58EB"/>
<path d="M300.18 233.454C299.728 233.454 299.361 233.82 299.361 234.272C299.361 234.724 299.728 235.09 300.18 235.09C300.633 235.09 301 234.724 301 234.272C301 233.82 300.633 233.454 300.18 233.454Z" fill="#4D58EB"/>
<path d="M300.18 221.182C299.728 221.182 299.361 221.548 299.361 222C299.361 222.452 299.728 222.818 300.18 222.818C300.633 222.818 301 222.452 301 222C301 221.548 300.633 221.182 300.18 221.182Z" fill="#4D58EB"/>
<path d="M287.886 233.454C287.434 233.454 287.067 233.82 287.067 234.272C287.067 234.724 287.434 235.09 287.886 235.09C288.339 235.09 288.706 234.724 288.706 234.272C288.706 233.82 288.339 233.454 287.886 233.454Z" fill="#4D58EB"/>
<path d="M287.886 221.182C287.434 221.182 287.067 221.548 287.067 222C287.067 222.452 287.434 222.818 287.886 222.818C288.339 222.818 288.706 222.452 288.706 222C288.706 221.548 288.339 221.182 287.886 221.182Z" fill="#4D58EB"/>
<path d="M300.18 208.91C299.728 208.91 299.361 209.276 299.361 209.728C299.361 210.18 299.728 210.546 300.18 210.546C300.633 210.546 301 210.18 301 209.728C301 209.276 300.633 208.91 300.18 208.91Z" fill="#4D58EB"/>
<path d="M287.886 208.91C287.434 208.91 287.067 209.276 287.067 209.728C287.067 210.18 287.434 210.546 287.886 210.546C288.339 210.546 288.706 210.18 288.706 209.728C288.706 209.276 288.339 208.91 287.886 208.91Z" fill="#4D58EB"/>
<path d="M300.18 196.638C300.628 196.638 301 197.002 301 197.456C301 197.911 300.636 198.274 300.18 198.274C299.725 198.274 299.361 197.911 299.361 197.456C299.361 197.002 299.725 196.638 300.18 196.638Z" fill="#4D58EB"/>
<path d="M287.886 196.638C288.334 196.638 288.706 197.002 288.706 197.456C288.706 197.911 288.342 198.274 287.886 198.274C287.431 198.274 287.067 197.911 287.067 197.456C287.067 197.002 287.431 196.638 287.886 196.638Z" fill="#4D58EB"/>
<path d="M275.592 184.359C275.139 184.359 274.772 184.725 274.772 185.177C274.772 185.629 275.139 185.995 275.592 185.995C276.045 185.995 276.412 185.629 276.412 185.177C276.412 184.725 276.045 184.359 275.592 184.359Z" fill="#4D58EB"/>
<path d="M263.298 184.367C263.746 184.367 264.118 184.73 264.118 185.185C264.118 185.639 263.753 186.003 263.298 186.003C262.843 186.003 262.478 185.639 262.478 185.185C262.478 184.73 262.843 184.367 263.298 184.367Z" fill="#4D58EB"/>
<path d="M251.004 184.359C250.551 184.359 250.184 184.725 250.184 185.177C250.184 185.629 250.551 185.995 251.004 185.995C251.456 185.995 251.823 185.629 251.823 185.177C251.823 184.725 251.456 184.359 251.004 184.359Z" fill="#4D58EB"/>
<path d="M238.71 184.359C238.257 184.359 237.89 184.725 237.89 185.177C237.89 185.629 238.257 185.995 238.71 185.995C239.162 185.995 239.529 185.629 239.529 185.177C239.529 184.725 239.162 184.359 238.71 184.359Z" fill="#4D58EB"/>
<path d="M275.592 172.087C275.139 172.087 274.772 172.454 274.772 172.906C274.772 173.357 275.139 173.724 275.592 173.724C276.045 173.724 276.412 173.357 276.412 172.906C276.412 172.454 276.045 172.087 275.592 172.087Z" fill="#4D58EB"/>
<path d="M263.298 172.095C263.746 172.095 264.118 172.458 264.118 172.913C264.118 173.367 263.753 173.731 263.298 173.731C262.843 173.731 262.478 173.367 262.478 172.913C262.478 172.458 262.843 172.095 263.298 172.095Z" fill="#4D58EB"/>
<path d="M251.004 172.087C250.551 172.087 250.184 172.454 250.184 172.906C250.184 173.357 250.551 173.724 251.004 173.724C251.456 173.724 251.823 173.357 251.823 172.906C251.823 172.454 251.456 172.087 251.004 172.087Z" fill="#4D58EB"/>
<path d="M238.71 172.087C238.257 172.087 237.89 172.454 237.89 172.906C237.89 173.357 238.257 173.724 238.71 173.724C239.162 173.724 239.529 173.357 239.529 172.906C239.529 172.454 239.162 172.087 238.71 172.087Z" fill="#4D58EB"/>
<path d="M275.592 159.815C275.139 159.815 274.772 160.182 274.772 160.634C274.772 161.085 275.139 161.452 275.592 161.452C276.045 161.452 276.412 161.085 276.412 160.634C276.412 160.182 276.045 159.815 275.592 159.815Z" fill="#4D58EB"/>
<path d="M263.298 159.815C263.746 159.815 264.118 160.179 264.118 160.634C264.118 161.088 263.753 161.452 263.298 161.452C262.843 161.452 262.478 161.088 262.478 160.634C262.478 160.179 262.843 159.815 263.298 159.815Z" fill="#4D58EB"/>
<path d="M251.004 159.815C250.551 159.815 250.184 160.182 250.184 160.634C250.184 161.085 250.551 161.452 251.004 161.452C251.456 161.452 251.823 161.085 251.823 160.634C251.823 160.182 251.456 159.815 251.004 159.815Z" fill="#4D58EB"/>
<path d="M238.71 159.815C238.257 159.815 237.89 160.182 237.89 160.634C237.89 161.085 238.257 161.452 238.71 161.452C239.162 161.452 239.529 161.085 239.529 160.634C239.529 160.182 239.162 159.815 238.71 159.815Z" fill="#4D58EB"/>
<path d="M300.18 184.359C299.728 184.359 299.361 184.725 299.361 185.177C299.361 185.629 299.728 185.995 300.18 185.995C300.633 185.995 301 185.629 301 185.177C301 184.725 300.633 184.359 300.18 184.359Z" fill="#4D58EB"/>
<path d="M287.886 184.359C287.434 184.359 287.067 184.725 287.067 185.177C287.067 185.629 287.434 185.995 287.886 185.995C288.339 185.995 288.706 185.629 288.706 185.177C288.706 184.725 288.339 184.359 287.886 184.359Z" fill="#4D58EB"/>
<path d="M300.18 172.087C299.728 172.087 299.361 172.454 299.361 172.906C299.361 173.357 299.728 173.724 300.18 173.724C300.633 173.724 301 173.357 301 172.906C301 172.454 300.633 172.087 300.18 172.087Z" fill="#4D58EB"/>
<path d="M287.886 172.087C287.434 172.087 287.067 172.454 287.067 172.906C287.067 173.357 287.434 173.724 287.886 173.724C288.339 173.724 288.706 173.357 288.706 172.906C288.706 172.454 288.339 172.087 287.886 172.087Z" fill="#4D58EB"/>
<path d="M300.18 159.815C299.728 159.815 299.361 160.182 299.361 160.634C299.361 161.085 299.728 161.452 300.18 161.452C300.633 161.452 301 161.085 301 160.634C301 160.182 300.633 159.815 300.18 159.815Z" fill="#4D58EB"/>
<path d="M287.886 159.815C287.434 159.815 287.067 160.182 287.067 160.634C287.067 161.085 287.434 161.452 287.886 161.452C288.339 161.452 288.706 161.085 288.706 160.634C288.706 160.182 288.339 159.815 287.886 159.815Z" fill="#4D58EB"/>
<path d="M275.592 147.543C276.04 147.543 276.412 147.907 276.412 148.362C276.412 148.816 276.047 149.18 275.592 149.18C275.137 149.18 274.772 148.816 274.772 148.362C274.772 147.907 275.137 147.543 275.592 147.543Z" fill="#4D58EB"/>
<path d="M263.298 147.543C263.746 147.543 264.118 147.907 264.118 148.362C264.118 148.816 263.753 149.18 263.298 149.18C262.843 149.18 262.478 148.816 262.478 148.362C262.478 147.907 262.843 147.543 263.298 147.543Z" fill="#4D58EB"/>
<path d="M251.004 147.543C251.451 147.543 251.823 147.907 251.823 148.362C251.823 148.816 251.459 149.18 251.004 149.18C250.548 149.18 250.184 148.816 250.184 148.362C250.184 147.915 250.548 147.543 251.004 147.543Z" fill="#4D58EB"/>
<path d="M275.592 135.272C275.139 135.272 274.772 135.638 274.772 136.09C274.772 136.542 275.139 136.908 275.592 136.908C276.045 136.908 276.412 136.542 276.412 136.09C276.412 135.638 276.045 135.272 275.592 135.272Z" fill="#4D58EB"/>
<path d="M263.298 135.272C263.746 135.272 264.118 135.636 264.118 136.09C264.118 136.545 263.753 136.908 263.298 136.908C262.843 136.908 262.478 136.545 262.478 136.09C262.478 135.636 262.843 135.272 263.298 135.272Z" fill="#4D58EB"/>
<path d="M300.18 147.543C300.628 147.543 301 147.907 301 148.362C301 148.816 300.636 149.18 300.18 149.18C299.725 149.18 299.361 148.816 299.361 148.362C299.361 147.907 299.725 147.543 300.18 147.543Z" fill="#4D58EB"/>
<path d="M287.886 147.543C288.334 147.543 288.706 147.907 288.706 148.362C288.706 148.816 288.342 149.18 287.886 149.18C287.431 149.18 287.067 148.816 287.067 148.362C287.067 147.907 287.431 147.543 287.886 147.543Z" fill="#4D58EB"/>
<path d="M300.18 135.272C299.728 135.272 299.361 135.638 299.361 136.09C299.361 136.542 299.728 136.908 300.18 136.908C300.633 136.908 301 136.542 301 136.09C301 135.638 300.633 135.272 300.18 135.272Z" fill="#4D58EB"/>
<path d="M287.886 135.272C287.434 135.272 287.067 135.638 287.067 136.09C287.067 136.542 287.434 136.908 287.886 136.908C288.339 136.908 288.706 136.542 288.706 136.09C288.706 135.638 288.339 135.272 287.886 135.272Z" fill="#4D58EB"/>
<path d="M300.18 122.992C299.728 122.992 299.361 123.358 299.361 123.81C299.361 124.262 299.728 124.628 300.18 124.628C300.633 124.628 301 124.262 301 123.81C301 123.358 300.633 122.992 300.18 122.992Z" fill="#4D58EB"/>
<path d="M287.886 122.992C287.434 122.992 287.067 123.358 287.067 123.81C287.067 124.262 287.434 124.628 287.886 124.628C288.339 124.628 288.706 124.262 288.706 123.81C288.706 123.358 288.339 122.992 287.886 122.992Z" fill="#4D58EB"/>
</g>
</g>
<defs>
<clipPath id="clip0_762_11161">
<rect width="420" height="240" fill="white"/>
</clipPath>
<clipPath id="clip1_762_11161">
<rect width="100" height="198" fill="white" transform="matrix(1 0 0 -1 311 309)"/>
</clipPath>
<clipPath id="clip2_762_11161">
<rect width="100" height="198" fill="white" transform="matrix(-1 0 0 -1 301 321)"/>
</clipPath>
</defs>
</svg>
