<svg width="1000" height="180" viewBox="0 0 1000 180" fill="none" xmlns="http://www.w3.org/2000/svg">
<g clip-path="url(#clip0_750_126)">
<rect width="1000" height="180" fill="#371EE1"/>
<g clip-path="url(#clip1_750_126)">
<path d="M1004.3 168.748L1001.41 177.384L997.259 188.19L990.644 199.625L977.33 217.067L966.732 228.393L954.205 239.671L939.967 250.688L924.263 261.235L907.387 271.118L889.646 280.14L871.38 288.126L852.933 294.926L834.651 300.41L816.887 304.479L799.97 307.063L784.214 308.117L761.973 307.338L748.637 305.226L737.318 301.565L728.799 298.245L719.359 292.91L711.927 286.932L704.758 279.995L699.306 272.037L694.791 263.83L691.833 254.547L690.022 245.31L689.846 235.725L690.669 225.825L693.251 216.886L696.452 206.722L702.04 195.909L706.66 189.189L713.976 178.731L723.273 168.061L734.346 157.396L747.004 146.903L761.032 136.738L776.205 127.057L792.281 118.004L809.006 109.717L826.126 102.315L843.382 95.916L860.508 90.615L877.246 86.4957L893.334 83.6229L908.521 82.0544L922.567 81.8218L935.241 82.9455L943.163 83.7941L954.886 86.4102L964.748 90.4401L972.982 94.1889L981.126 99.8168L988.157 106.059L994.143 113.228L999.212 121.357L1002.75 129.922L1005.29 139.166L1006.19 148.864L1006 158.282L1004.28 168.745L1004.3 168.748ZM705.423 279.484L712.481 286.302L719.825 292.213L729.158 297.48L737.601 300.768L748.832 304.408L762.052 306.502L769.928 306.798L784.2 307.277L799.882 306.227L816.732 303.653L834.439 299.601L852.667 294.13L871.069 287.348L889.29 279.381L906.985 270.382L923.819 260.528L939.476 250.009L953.669 239.029L966.147 227.797L976.693 216.525L980.996 210.923L989.946 199.159L996.5 187.827L1000.62 177.098L1003.48 168.545L1005.17 158.206L1005.36 148.893L1004.47 139.318L1001.96 130.194L998.475 121.74L993.474 113.715L987.567 106.636L980.618 100.469L972.576 94.9116L964.421 91.2057L954.641 87.2054L943.031 84.6203L935.163 83.782L922.539 82.6589L908.573 82.8882L893.452 84.4466L877.422 87.3074L860.737 91.4139L843.659 96.7013L826.448 103.086L809.368 110.468L792.679 118.735L776.645 127.763L761.514 137.416L747.529 147.552L734.915 158.007L723.887 168.625L714.64 179.232L707.349 189.653L702.748 196.349L697.228 207.024L694.06 217.111L691.495 225.961L690.687 235.735L690.857 245.208L692.65 254.322L695.567 263.482L700.025 271.581L705.43 279.471L705.423 279.484Z" fill="white"/>
<path d="M916.789 161.221C916.751 161.417 916.58 161.563 916.378 161.561L914.411 161.56L903.435 162.549L891.784 164.513L879.652 167.416L867.234 171.211L854.724 175.836L842.326 181.224L830.232 187.282L818.634 193.919L807.724 201.029L797.679 208.504L788.662 216.218L780.828 224.054L780.114 224.911C779.965 225.089 779.703 225.112 779.523 224.967C779.345 224.818 779.317 224.554 779.471 224.377L780.208 223.492L788.089 215.606L797.151 207.85L807.244 200.343L818.196 193.204L829.835 186.543L841.97 180.465L854.412 175.063L866.967 170.419L879.435 166.605L891.62 163.69L903.329 161.714L914.374 160.72L916.379 160.719C916.609 160.717 916.799 160.906 916.8 161.14C916.799 161.168 916.798 161.195 916.793 161.222L916.789 161.221Z" fill="white"/>
<path d="M925.969 146.68L925.968 146.684L925.598 148.487C925.555 148.713 925.329 148.858 925.102 148.815C924.875 148.771 924.729 148.549 924.773 148.323L924.774 148.319L925.144 146.516C925.187 146.29 925.413 146.145 925.64 146.188C925.866 146.232 926.013 146.454 925.969 146.68Z" fill="white"/>
<path d="M927.53 143.933C927.525 143.96 927.519 143.991 927.504 144.021L924.647 150.748L921.554 155.754C921.433 155.952 921.173 156.012 920.975 155.891C920.777 155.771 920.717 155.51 920.838 155.313L923.901 150.36L926.729 143.687C926.821 143.475 927.066 143.375 927.279 143.466C927.467 143.544 927.562 143.742 927.525 143.933L927.53 143.933Z" fill="white"/>
<path d="M924.989 151.389C924.976 151.456 924.951 151.515 924.903 151.57L918.558 159.495L910.698 167.565L901.467 175.597L891.035 183.453L879.575 190.982L867.295 198.049L854.422 204.519L841.188 210.275L827.836 215.207L814.618 219.231L801.77 222.267L789.531 224.265L778.121 225.19L767.734 225.036C767.505 225.033 767.316 224.84 767.323 224.611C767.327 224.377 767.519 224.193 767.749 224.196L778.094 224.351L789.429 223.431L801.606 221.444L814.396 218.42L827.565 214.414L840.872 209.496L854.061 203.759L866.894 197.309L879.132 190.266L890.55 182.766L900.938 174.947L910.119 166.957L917.928 158.941L924.244 151.043C924.389 150.864 924.654 150.832 924.833 150.977C924.961 151.08 925.013 151.237 924.985 151.384L924.989 151.389Z" fill="white"/>
<path d="M853.447 151.866C853.421 151.999 853.334 152.12 853.199 152.173C852.984 152.26 852.74 152.163 852.648 151.947L848.823 142.815L845.404 133.029L842.65 123.288L840.737 114.27L839.808 106.607L839.917 100.727L841.128 97.0196L843.356 95.9295C843.565 95.827 843.815 95.9121 843.918 96.1206C844.016 96.3282 843.936 96.5797 843.727 96.6822L841.819 97.6176L840.76 100.87L840.654 106.567L841.574 114.132L843.472 123.082L846.214 132.77L849.618 142.512L853.43 151.619C853.465 151.699 853.472 151.783 853.458 151.859L853.447 151.866Z" fill="white"/>
<path d="M853.447 151.866C853.42 152.004 853.323 152.128 853.18 152.178L842.931 155.973L832.792 160.368C832.581 160.461 832.333 160.363 832.24 160.151C832.152 159.937 832.245 159.692 832.457 159.599L842.616 155.194L852.884 151.394C853.102 151.312 853.343 151.423 853.421 151.64C853.448 151.714 853.452 151.793 853.438 151.864L853.447 151.866Z" fill="white"/>
<path d="M867.521 170.889C867.515 170.924 867.508 170.96 867.488 170.988C867.388 171.199 867.137 171.284 866.93 171.185L864.276 169.919L852.862 174.142L841.023 179.283L835.925 168.124L832.248 160.157C832.15 159.945 832.244 159.696 832.452 159.598C832.664 159.501 832.914 159.595 833.007 159.802L841.442 178.181L852.542 173.363L864.313 169.01L867.288 170.425C867.465 170.51 867.554 170.697 867.518 170.884L867.521 170.889Z" fill="white"/>
<path d="M842.569 180.92C842.544 181.049 842.457 181.166 842.326 181.224C842.115 181.316 841.867 181.218 841.774 181.007L841.027 179.312L830.224 184.716L818.958 191.16L818.276 185.399L816.208 178.598L812.676 170.166L822.502 164.569L832.07 159.792L815.611 124.461L808.881 110.365C808.73 110.188 808.749 109.925 808.921 109.774C809.097 109.624 809.361 109.642 809.512 109.814L809.689 110.042L810.92 112.575L816.37 124.106L833.17 160.178L822.895 165.307L813.735 170.527L816.995 178.316L819.091 185.229L819.639 189.804L829.822 183.981L841.436 178.166L842.539 180.671C842.574 180.751 842.58 180.84 842.564 180.92L842.569 180.92Z" fill="white"/>
<path d="M819.714 190.564C819.693 190.671 819.632 190.774 819.532 190.838L809.434 197.414L799.391 204.879L800.101 197.987L798.787 190.618L795.536 182.07L804.021 175.805L812.668 170.206L808.338 161.709L803.07 152.819L797.389 144.475L791.703 137.253L786.409 131.677L781.937 128.156L778.659 126.899L776.611 127.798C776.399 127.89 776.151 127.792 776.058 127.581C775.965 127.37 776.064 127.122 776.275 127.029L778.644 125.994L782.412 127.46L786.979 131.064L792.342 136.709L798.073 143.981L803.783 152.371L809.075 161.307L813.764 170.5L804.505 176.497L796.551 182.372L799.598 190.401L800.947 198.017L800.425 203.072L808.957 196.733L819.076 190.142C819.271 190.014 819.532 190.069 819.656 190.263C819.716 190.358 819.737 190.467 819.717 190.569L819.714 190.564Z" fill="white"/>
<path d="M796.572 182.311L788.924 188.797L782.724 194.941L785.631 203.339L786.349 211.432L784.719 218.441C784.666 218.666 784.441 218.807 784.216 218.754C783.991 218.702 783.871 218.49 783.903 218.252L785.499 211.374L784.796 203.469L781.753 194.721L788.352 188.181L795.5 182.114L790.862 173.755L784.788 165.414L777.835 157.93L770.502 151.823L763.347 147.564L756.835 145.371L751.477 145.398L747.485 147.589C747.279 147.702 747.026 147.625 746.913 147.424C746.801 147.218 746.877 146.966 747.078 146.853L751.261 144.56L756.969 144.532L763.738 146.824L770.986 151.148L778.412 157.327L785.438 164.885L791.574 173.312L796.576 182.316L796.572 182.311Z" fill="white"/>
<path d="M746.392 154.099C746.359 154.273 746.216 154.415 746.029 154.434L739.689 155.179L734.851 158.055C734.653 158.173 734.393 158.109 734.276 157.907C734.157 157.709 734.221 157.45 734.423 157.332L739.503 154.352L745.927 153.596C746.158 153.571 746.367 153.731 746.396 153.962C746.402 154.005 746.397 154.05 746.39 154.09L746.392 154.099Z" fill="white"/>
<path d="M746.393 154.1C746.377 154.18 746.339 154.26 746.272 154.321L736.743 163.519C736.573 163.68 736.312 163.676 736.15 163.511C735.988 163.347 735.993 163.081 736.158 162.919L745.687 153.72C745.856 153.559 746.118 153.564 746.28 153.728C746.38 153.83 746.417 153.971 746.393 154.1Z" fill="white"/>
<path d="M782.755 194.878L777.234 201.442L773.115 207.618L770.329 213.406L773.112 222.255L773.154 224.694C773.155 224.929 772.976 225.115 772.74 225.12C772.509 225.126 772.318 224.943 772.313 224.707L772.268 222.332L769.423 213.347L772.383 207.21L776.561 200.944L781.724 194.799L776.817 186.572L770.08 178.803L762.081 172.232L753.396 167.306L744.681 164.403L736.41 163.644C736.179 163.623 736.007 163.419 736.028 163.188C736.058 162.96 736.253 162.785 736.483 162.811L744.849 163.579L753.731 166.546L762.549 171.549L770.66 178.211L777.491 186.09L782.749 194.886L782.755 194.878Z" fill="white"/>
<path d="M736.864 163.294C736.834 163.454 736.711 163.591 736.538 163.627L729.397 165.111L723.82 168.691C723.625 168.814 723.364 168.759 723.24 168.565C723.116 168.371 723.171 168.11 723.366 167.986L729.151 164.308L736.368 162.812C736.594 162.763 736.818 162.912 736.862 163.137C736.874 163.195 736.873 163.25 736.863 163.303L736.864 163.294Z" fill="white"/>
<path d="M780.704 218.239C780.693 218.292 780.674 218.344 780.642 218.393L776.158 225.17L775.53 225.155L775.486 224.76L775.197 216.235L772.383 207.569L767.186 199.341L759.983 192.127L751.249 186.45L741.603 182.687L731.718 181.125L722.457 181.823L718.118 190.313L715.633 198.433L715.075 206.238L705.757 211.372L698.519 218.144L700.094 225.877L704.011 232.785L710.221 238.579L719.03 243.341L714.777 253.703L712.905 264.841L702.948 259.32L695.979 252.657L691.598 244.711L689.825 235.688L692.514 226.199L697.62 217.911L697.605 217.844L697.656 217.794L698.359 209.023L698.368 208.978L701.377 199.399L706.67 189.14L713.625 184.003L721.937 181.055L728.129 172.153L736.132 162.936C736.285 162.763 736.547 162.74 736.725 162.894C736.898 163.047 736.917 163.309 736.767 163.487L728.789 172.671L723.048 180.929L731.802 180.28L741.821 181.864L751.667 185.716L760.541 191.498L767.865 198.851L773.158 207.253L776.026 216.141L776.271 223.461L779.93 217.924C780.059 217.733 780.319 217.677 780.511 217.806C780.658 217.903 780.722 218.072 780.69 218.236L780.704 218.239ZM713.979 253.471L713.996 253.428L717.98 243.719L709.7 239.229L703.322 233.256L699.294 226.109L697.871 219.12L693.267 226.592L690.697 235.727L692.42 244.487L696.695 252.196L703.5 258.676L712.286 263.53L713.98 253.467L713.979 253.471ZM714.811 198.275L717.354 189.996L721.354 182.167L713.976 184.784L707.339 189.706L702.162 199.725L699.201 209.194L698.582 216.955L705.321 210.667L714.284 205.727L714.815 198.28L714.811 198.275Z" fill="white"/>
<path d="M1001.88 150.538L1001.86 150.576L997.386 162.096L990.236 174.322L980.522 186.97L968.392 199.82L954.038 212.637L937.709 225.185L919.687 237.219L900.31 248.512L879.936 258.836L858.961 267.995L837.786 275.803L816.82 282.118L796.469 286.817L777.113 289.82L759.119 291.083L742.803 290.593L728.459 288.379L716.316 284.499C716.094 284.429 715.966 284.188 716.044 283.973C716.114 283.752 716.349 283.631 716.571 283.701L728.648 287.569L742.875 289.765L759.095 290.25L777.014 288.996L796.303 286.003L816.601 281.317L837.518 275.019L858.644 267.225L879.578 258.086L899.907 247.781L919.241 236.516L937.221 224.511L953.506 212.001L967.81 199.229L979.887 186.438L989.545 173.867L996.633 161.744L1001.07 150.326L1002.84 139.744L1001.97 130.233L996.963 122.176L990.516 116.299L991.211 124.631L989.307 135.5L979.759 129.796L969.704 126.529L959.266 125.615L949.165 127.086L940.117 130.863L932.676 136.685C932.491 136.829 932.23 136.797 932.086 136.613C931.942 136.428 931.975 136.163 932.158 136.024L939.741 130.114L948.991 126.265L959.289 124.777L969.873 125.701L969.922 125.711L980.155 129.053L988.696 134.154L990.381 124.54L989.613 115.536L980.859 111.066L970.857 108.818L960.443 109.068L950.34 111.772L941.259 116.772L933.308 124.162L931.107 118.201L927.301 113.348L934.562 105.163L943.195 99.1331L952.849 95.4359L962.854 94.2964L972.466 95.7927L972.521 95.8171L981.239 99.9029L987.075 106.942L990.349 114.964L990.416 115L990.421 115.07L997.657 121.683L1002.8 129.955L1003.69 139.825L1001.89 150.546L1001.88 150.538ZM933.648 122.685L940.798 116.057L950.061 110.968L960.361 108.224L970.928 107.971L981.184 110.286L989.187 114.372L986.309 107.309L980.644 100.506L972.215 96.5958L962.776 95.1285L952.994 96.2602L943.541 99.8948L935.08 105.819L928.386 113.382L931.866 117.85L933.652 122.691L933.648 122.685Z" fill="white"/>
<path d="M934.218 129.607L932.825 136.433C932.782 136.659 932.556 136.804 932.329 136.761C932.103 136.717 931.977 136.509 932.001 136.265L933.373 129.541L933.055 123.441C933.045 123.209 933.221 123.013 933.453 123.002C933.686 122.992 933.882 123.167 933.893 123.4L934.218 129.607Z" fill="white"/>
<path d="M933.887 123.5C933.878 123.549 933.859 123.601 933.831 123.646L928.519 132.073L925.732 141.309L925.979 146.581C925.985 146.812 925.813 147.009 925.577 147.019C925.344 147.029 925.149 146.849 925.137 146.621L924.885 141.206L927.775 131.677L933.116 123.2C933.241 123.003 933.496 122.946 933.694 123.067C933.846 123.161 933.914 123.335 933.883 123.499L933.887 123.5Z" fill="white"/>
<path d="M928.818 137.673C928.818 137.673 928.812 137.704 928.809 137.722L925.96 146.729C925.89 146.95 925.655 147.071 925.433 147.001C925.212 146.93 925.095 146.701 925.157 146.473L928.006 137.466C928.076 137.245 928.311 137.124 928.533 137.194C928.736 137.261 928.858 137.469 928.818 137.673Z" fill="white"/>
<path d="M928.818 137.673L928.817 137.677L927.529 143.938C927.485 144.164 927.259 144.309 927.033 144.266C926.806 144.222 926.644 144.011 926.705 143.77L927.993 137.509C928.036 137.283 928.262 137.138 928.489 137.181C928.716 137.225 928.862 137.446 928.818 137.673Z" fill="white"/>
<path d="M932.821 136.432C932.81 136.49 932.786 136.545 932.753 136.594L927.461 144.1C927.328 144.291 927.066 144.337 926.876 144.199C926.689 144.066 926.643 143.804 926.776 143.614L932.068 136.108C932.202 135.917 932.464 135.871 932.654 136.009C932.792 136.104 932.856 136.273 932.826 136.433L932.821 136.432Z" fill="white"/>
<path d="M932.822 136.428C932.817 136.454 932.811 136.485 932.797 136.51L929.712 143.797L924.939 151.527C924.818 151.725 924.558 151.785 924.36 151.664C924.162 151.543 924.106 151.284 924.223 151.085L928.966 143.414L932.021 136.186C932.112 135.973 932.357 135.873 932.57 135.965C932.758 136.043 932.853 136.24 932.817 136.431L932.822 136.428Z" fill="white"/>
<path d="M978.223 157.537L968.514 170.015L956.426 182.694L948.194 175.01L939.637 169.229L931.055 165.464L922.991 163.898L916.055 164.652L910.603 167.649C910.398 167.761 910.145 167.685 910.032 167.483C909.918 167.282 909.996 167.025 910.197 166.912L915.877 163.826L923.083 163.059L931.345 164.677L940.035 168.5L948.71 174.359L956.39 181.518L967.877 169.469L977.03 157.703L968.675 151.588L959.138 147.142L949.301 144.852L939.89 144.868L931.565 147.191L924.808 151.658C924.613 151.786 924.356 151.732 924.227 151.542C924.099 151.347 924.153 151.09 924.343 150.961L931.274 146.404L939.831 144.028L949.397 144.015L959.454 146.365L969.099 150.874L978.222 157.542L978.223 157.537Z" fill="white"/>
<path d="M999.996 179.957L999.974 180.022L997.267 188.173C997.192 188.393 996.957 188.514 996.736 188.439C996.516 188.364 996.391 188.129 996.47 187.909L999.155 179.823L999.191 171.047L996.603 162.116L991.525 153.649L984.32 146.232L975.459 140.402L965.577 136.552L955.359 134.971L944.779 135.793L948.641 126.553L950.2 118.622L949.754 111.462L947.348 105.176L943.043 99.8266L936.904 95.4825L929.257 92.2978L922.159 98.6552L916.348 107.014C916.215 107.205 915.953 107.251 915.766 107.118C915.575 106.985 915.528 106.727 915.662 106.537L921.564 98.0618L929.091 91.3176L937.351 94.7674L943.661 99.2505L948.109 104.811L950.592 111.347L951.036 118.728L949.434 126.834L946.085 134.848L955.442 134.131L965.799 135.734L975.885 139.674L984.891 145.61L992.221 153.171L997.397 161.823L1000.03 170.984L999.997 179.953L999.996 179.957Z" fill="white"/>
<path d="M925.662 148.181C925.624 148.377 925.453 148.523 925.246 148.52C925.016 148.518 924.827 148.329 924.831 148.095L924.89 141.326L923.236 136.732L920.05 132.583L922.6 122.376L927.297 113.486L922.44 109.973L915.845 107.161C915.633 107.069 915.532 106.825 915.624 106.612C915.716 106.4 915.961 106.299 916.173 106.391L922.895 109.264L928.377 113.233L923.367 122.722L920.962 132.39L924.004 136.382L925.728 141.257L925.668 148.1C925.663 148.126 925.663 148.149 925.658 148.176L925.662 148.181Z" fill="white"/>
<path d="M925.144 149.555C925.116 149.697 925.019 149.821 924.871 149.87C924.653 149.948 924.413 149.833 924.335 149.615L923.207 146.452C923.129 146.235 923.24 145.994 923.462 145.917C923.68 145.839 923.92 145.954 923.998 146.172L925.126 149.335C925.153 149.409 925.157 149.484 925.144 149.555Z" fill="white"/>
<path d="M925.009 149.874C924.98 150.025 924.867 150.155 924.711 150.199C924.487 150.261 924.254 150.134 924.191 149.91L923.198 146.428C923.136 146.204 923.263 145.971 923.487 145.908C923.711 145.845 923.945 145.973 924.008 146.197L925 149.679C925.02 149.743 925.021 149.812 925.009 149.874Z" fill="white"/>
<path d="M922.767 153.742C922.746 153.853 922.681 153.951 922.58 154.019C922.386 154.142 922.125 154.083 922.001 153.889L918.728 148.683L915.982 139.377C915.914 139.156 916.042 138.923 916.267 138.856C916.486 138.792 916.725 138.917 916.788 139.14L919.518 148.389L922.71 153.441C922.77 153.535 922.786 153.644 922.766 153.746L922.767 153.742Z" fill="white"/>
<path d="M924.012 146.391C923.993 146.489 923.938 146.579 923.852 146.646C923.668 146.785 923.404 146.748 923.264 146.565L920.332 142.723L916.13 139.589C915.945 139.452 915.904 139.187 916.045 139.002C916.182 138.817 916.447 138.78 916.633 138.917L920.964 142.168L923.929 146.053C924.003 146.15 924.029 146.275 924.008 146.386L924.012 146.391Z" fill="white"/>
<path d="M924.011 146.395C923.973 146.59 923.802 146.737 923.6 146.735C923.369 146.736 923.179 146.548 923.179 146.313L923.184 136.473L923.195 136.415L925.894 126.753C925.956 126.53 926.188 126.4 926.411 126.461C926.634 126.522 926.769 126.756 926.703 126.978L924.024 136.584L924.018 146.309C924.017 146.336 924.016 146.364 924.011 146.391L924.011 146.395Z" fill="white"/>
<path d="M1004.44 159.638L1004.42 159.676L1000 171.135L992.937 183.289L983.329 195.86L971.331 208.625L957.128 221.352L940.969 233.804L923.131 245.744L903.952 256.942L883.784 267.177L863.015 276.251L842.048 283.979L821.285 290.223L801.125 294.862L781.949 297.817L764.114 299.042L747.941 298.529L733.715 296.301L721.588 292.387L711.902 286.918L706.38 278.794L703.369 269.477L696.307 262.677L691.815 254.521L691.811 254.419L691.601 244.578L694.149 234.933L692.459 226.386L693.244 216.853L698.505 208.789L705.96 202.371L715.138 197.938L725.421 195.812L736.044 196.099L746.421 198.842L755.862 203.859L755.583 209.591L756.727 214.369L764.149 220.617C764.327 220.766 764.35 221.033 764.201 221.207C764.051 221.385 763.784 221.408 763.61 221.259L755.978 214.837L754.74 209.613L754.997 204.355L746.07 199.612L735.924 196.941L725.446 196.659L715.364 198.755L706.38 203.11L699.103 209.392L694.068 217.14L693.303 226.402L695.013 234.966L692.446 244.686L692.653 254.305L697.016 262.224L704.105 269.025L707.163 278.484L712.484 286.289L721.962 291.639L733.908 295.491L748.018 297.696L764.096 298.205L781.851 296.984L800.961 294.039L821.063 289.412L841.774 283.181L862.696 275.466L883.42 266.412L903.542 256.2L922.68 245.026L940.471 233.114L956.585 220.7L970.738 208.018L982.684 195.312L992.235 182.817L999.245 170.768L1003.62 159.412L1005.35 148.918L1002.86 139.91L997.801 131.704L990.54 124.884L981.544 119.948L971.45 117.218L960.945 116.917L950.76 119.039L941.612 123.459L934.112 129.845L928.054 138.865L927.719 131.97L925.912 126.996C925.834 126.778 925.945 126.537 926.163 126.46C926.38 126.382 926.622 126.493 926.699 126.71L928.554 131.864L928.771 136.292L933.528 129.24L941.204 122.727L950.548 118.225L960.928 116.071L971.58 116.377L981.913 119.181L991.085 124.229L998.495 131.207L1003.67 139.618L1006.2 148.954L1004.44 159.62L1004.44 159.638Z" fill="white"/>
<path d="M996.741 142.115L996.724 142.153L992.255 153.546L985.13 165.643L975.46 178.156L963.397 190.872L949.129 203.559L932.902 215.984L914.998 227.906L895.756 239.097L875.527 249.334L854.705 258.42L833.687 266.176L812.88 272.453L792.686 277.131L773.481 280.136L755.631 281.417L739.45 280.967L725.225 278.808L713.107 274.965L703.322 269.505L702.823 258.988L704.929 248.815L698.391 242.622L694.095 234.95L699.403 225.735L706.854 218.138L716.03 212.453L726.314 209.098L736.987 208.266L747.218 210.015C747.446 210.055 747.602 210.273 747.563 210.501C747.545 210.713 747.305 210.884 747.077 210.844L736.894 209.105L726.425 209.929L716.335 213.234L707.335 218.825L700.034 226.285L695.052 234.955L699.084 242.157L705.836 248.53L703.657 259.056L704.129 269.002L713.469 274.211L725.405 277.991L739.514 280.133L755.604 280.579L773.379 279.302L792.517 276.307L812.654 271.641L833.412 265.377L854.385 257.641L875.162 248.573L895.345 238.359L914.545 227.193L932.406 215.304L948.584 202.915L962.804 190.27L974.815 177.608L984.424 165.171L991.488 153.177L995.914 141.887L997.698 131.427L996.856 121.994L993.468 113.747L986.421 107.446L977.691 103.234L967.911 101.411L957.741 102.141L947.885 105.353L939.035 110.857L931.793 118.25L926.34 127.621L922.664 122.881L918.468 119.813L916.468 129.247L916.818 139.919L910.758 137.248L904.271 135.667L896.787 134.889L888.436 134.934L879.36 135.796L869.71 137.46L859.645 139.895L849.332 143.065L838.935 146.913L828.626 151.382L818.561 156.399L808.913 161.884L799.837 167.75L791.479 173.901L783.98 180.237L777.473 186.657L772.068 193.055L767.863 199.316L764.94 205.335L763.365 210.952L763.136 216.141L764.284 220.85C764.337 221.077 764.197 221.303 763.974 221.357C763.748 221.41 763.521 221.269 763.467 221.047L762.297 216.164L762.534 210.819L764.158 205.042L767.136 198.904L771.395 192.553L776.854 186.091L783.412 179.621L790.956 173.244L799.357 167.059L808.475 161.169L818.164 155.66L828.27 150.623L838.624 146.135L849.067 142.268L859.428 139.084L869.542 136.636L879.253 134.961L888.399 134.094L896.839 134.048L904.422 134.836L911.036 136.449L915.946 138.61L915.639 129.17L917.93 118.37L923.306 122.324L926.255 126.123L931.171 117.702L938.563 110.172L947.589 104.573L957.642 101.312L968.024 100.581L977.969 102.436L986.953 106.789L994.188 113.259L997.705 121.867L998.549 131.526L996.739 142.124L996.741 142.115Z" fill="white"/>
<path d="M980.336 129.525L976.044 140.188L969.284 151.466L960.149 163.139L948.781 174.999L935.358 186.831L920.113 198.419L903.312 209.541L885.268 219.987L866.312 229.548L846.81 238.046L827.13 245.314L807.65 251.211L788.744 255.631L770.765 258.494L754.047 259.759L738.887 259.413L725.555 257.472L714.183 253.962L704.842 248.858L709.655 238.669L716.16 230.512L710.46 225.231L706.662 218.585L705.091 211L705.726 202.68L705.735 202.632L708.513 193.707L713.39 184.216L720.235 174.408L728.913 164.442L739.258 154.475L751.094 144.662L764.216 135.151L778.418 126.093L793.466 117.616L809.131 109.856L825.166 102.927L841.325 96.9332L857.359 91.9696L873.023 88.1131L888.076 85.4276L902.28 83.9644L915.409 83.7533L927.247 84.8128L937.599 87.1372L946.169 90.67L955.552 89.222L964.758 90.433L972.657 95.9261L978.226 102.678L981.412 110.634L982.118 119.649L980.334 129.534L980.336 129.525ZM714.547 253.199L725.736 256.651L738.957 258.57L754.025 258.912L770.668 257.656L788.586 254.8L807.438 250.397L826.87 244.513L846.505 237.265L865.962 228.785L884.872 219.243L902.874 208.821L919.633 197.728L934.83 186.177L948.202 174.39L959.518 162.589L968.596 150.993L975.3 139.814L979.529 129.291L981.285 119.544L980.582 110.755L977.473 103.045L972.049 96.4995L964.447 91.2339L955.502 90.0548L947.213 91.3541L953.213 95.5796L958.063 101.568L960.792 108.616L961.321 116.589L959.651 125.312L959.634 125.35L955.768 134.71L949.713 144.651L941.571 154.922L931.478 165.352L919.588 175.754L906.111 185.932L891.284 195.704L875.374 204.88L858.672 213.287L841.496 220.76L824.167 227.16L807.016 232.369L790.363 236.288L774.519 238.849L759.775 240.01L746.388 239.762L734.598 238.118L724.593 235.119L716.842 230.989L710.338 239.141L705.936 248.489L714.543 253.193L714.547 253.199ZM716.978 230.117L724.91 234.356L734.777 237.305L746.456 238.932L759.751 239.177L774.421 238.019L790.203 235.465L806.804 231.559L823.905 226.364L841.186 219.978L858.317 212.524L874.973 204.14L890.841 194.988L905.626 185.245L919.056 175.099L930.895 164.743L940.936 154.367L949.018 144.167L955.017 134.33L958.836 125.068L960.48 116.482L959.954 108.735L957.301 101.936L952.595 96.1557L946.068 91.5803L937.325 95.4758L929.403 101.734L923.003 109.828L918.406 119.631L911.923 116.836L904.652 115.119L896.269 114.297L886.918 114.388L876.761 115.388L865.962 117.276L854.704 120.02L843.17 123.576L831.542 127.883L820.002 132.879L808.739 138.476L797.932 144.593L787.759 151.132L778.382 157.985L769.96 165.045L762.64 172.197L756.541 179.322L751.784 186.3L748.451 193.01L746.632 199.279L746.318 205.073L747.55 210.328C747.603 210.554 747.463 210.78 747.236 210.834C747.009 210.887 746.783 210.746 746.73 210.52L745.472 205.09L745.792 199.14L745.802 199.091L747.667 192.707L751.054 185.879L755.87 178.815L762.017 171.626L769.389 164.424L777.86 157.323L787.28 150.437L797.495 143.874L808.338 137.736L819.642 132.119L831.221 127.108L842.894 122.782L854.477 119.213L865.784 116.455L876.64 114.554L886.867 113.55L896.302 113.456L904.789 114.289L912.187 116.04L917.99 118.538L922.312 109.345L928.843 101.102L936.934 94.7286L945.048 91.1122L937.34 87.9298L927.112 85.6382L915.372 84.5887L902.321 84.8009L888.183 86.2584L873.184 88.9311L857.568 92.7739L841.578 97.723L825.464 103.698L809.469 110.611L793.844 118.351L778.838 126.804L764.678 135.839L751.598 145.32L739.806 155.096L729.511 165.018L720.887 174.925L714.099 184.647L709.276 194.024L706.543 202.838L705.92 211.003L707.455 218.346L711.137 224.753L716.954 230.118L716.978 230.117Z" fill="white"/>
<path d="M941.8 123.15L941.79 123.204L940.305 130.582L936.937 138.601L931.744 147.028L924.8 155.721L916.219 164.537L906.14 173.316L894.733 181.905L882.202 190.139L868.767 197.873L854.678 204.956L840.192 211.258L825.581 216.656L811.115 221.057L797.061 224.376L783.676 226.559L771.204 227.568L759.868 227.393L749.859 226.041L741.342 223.545L734.371 219.888L729.226 215.219L725.929 209.608L724.519 203.197L724.985 196.161L727.282 188.561L731.361 180.509L737.12 172.181L744.45 163.71L753.21 155.228L763.25 146.869L774.402 138.765L786.482 131.038L799.294 123.81L812.638 117.192L826.302 111.284L840.074 106.179L853.741 101.957L867.086 98.6849L879.902 96.4158L891.982 95.1927L903.133 95.0381L913.171 95.9719L921.933 97.9857L929.343 101.111L935.109 105.259L939.165 110.394L941.41 116.419L941.792 123.167L941.8 123.15ZM734.904 219.226L741.668 222.765L750.046 225.216L759.943 226.551L771.192 226.723L783.589 225.722L796.911 223.551L810.908 220.243L825.325 215.857L839.892 210.472L854.333 204.189L868.381 197.126L881.774 189.417L894.264 181.207L905.622 172.655L915.652 163.916L924.181 155.155L931.069 146.535L936.202 138.206L939.516 130.324L940.961 123.081L940.592 116.506L938.42 110.725L934.507 105.801L928.907 101.796L921.688 98.7578L913.049 96.7768L903.109 95.8573L892.037 96.0087L880.022 97.2261L867.263 99.4877L853.97 102.751L840.352 106.96L826.625 112.05L813.001 117.943L799.697 124.542L786.925 131.749L774.884 139.447L763.774 147.522L753.778 155.844L745.068 164.28L737.791 172.693L732.089 180.939L728.065 188.873L725.826 196.313L725.373 203.191L726.742 209.36L729.923 214.732L734.9 219.221L734.904 219.226Z" fill="white"/>
<path d="M921.791 155.316C921.785 155.347 921.779 155.379 921.76 155.407C921.664 155.619 921.415 155.714 921.208 155.618L918.493 154.405L912.004 152.788L904.522 151.978L896.172 151.99L887.102 152.822L877.465 154.465L867.418 156.88L857.122 160.035L846.749 163.875L836.464 168.339L826.432 173.353L816.815 178.843L807.77 184.715L799.447 190.878L791.981 197.234L785.506 203.679L780.133 210.101L775.959 216.391L773.062 222.443L772.436 224.739C772.374 224.962 772.142 225.092 771.919 225.031C771.696 224.97 771.543 224.733 771.627 224.514L772.276 222.145L775.224 215.973L779.452 209.593L784.879 203.107L791.405 196.612L798.916 190.214L807.282 184.018L816.37 178.118L826.027 172.608L836.1 167.573L846.43 163.09L856.847 159.236L867.187 156.067L877.288 153.639L886.985 151.989L896.126 151.148L904.559 151.138L912.145 151.959L918.761 153.61L921.545 154.85C921.727 154.931 921.823 155.125 921.787 155.311L921.791 155.316Z" fill="white"/>
<path d="M873.544 146.355C873.518 146.492 873.42 146.616 873.281 146.668C873.063 146.75 872.822 146.639 872.738 146.425L869.251 137.187L866.761 127.101L865.479 116.916L865.481 107.333L866.782 98.9715L866.8 98.9288L869.335 92.3881L872.879 88.1683L877.21 86.5164C877.424 86.4334 877.671 86.5407 877.753 86.7591C877.835 86.9775 877.725 87.2185 877.511 87.3015L873.383 88.8775L870.024 92.8753L867.602 99.1891L866.321 107.398L866.322 116.867L867.591 126.953L870.059 136.942L873.532 146.131C873.559 146.205 873.567 146.285 873.553 146.356L873.544 146.355Z" fill="white"/>
<path d="M873.544 146.355C873.514 146.51 873.396 146.644 873.232 146.686L863.304 149.078L853.158 152.193C852.938 152.261 852.699 152.137 852.636 151.917C852.563 151.696 852.691 151.463 852.911 151.395L863.08 148.276L873.033 145.874C873.26 145.821 873.486 145.961 873.54 146.184C873.557 146.242 873.554 146.306 873.543 146.359L873.544 146.355Z" fill="white"/>
<path d="M892.125 164.178C892.081 164.405 891.864 164.552 891.637 164.512L887.035 163.695L875.888 166.364L864.159 169.952L860.537 165.959L856.653 159.862L852.66 151.982C852.557 151.778 852.638 151.522 852.847 151.419C853.051 151.316 853.307 151.397 853.41 151.606L857.382 159.45L861.202 165.451L864.422 168.994L875.666 165.557L887.095 162.856L891.786 163.69C892.013 163.733 892.165 163.947 892.126 164.174L892.125 164.178Z" fill="white"/>
<path d="M777.664 171.881C777.65 171.957 777.613 172.028 777.56 172.087C777.403 172.254 777.135 172.262 776.967 172.106L769.414 165.031L761.645 159.706L753.903 167.233L747.095 175.146L737.427 172.838L728.543 172.822L720.778 175.033L714.573 179.315C714.381 179.449 714.119 179.398 713.99 179.208C713.856 179.016 713.907 178.754 714.098 178.625L720.483 174.244L728.489 171.978L737.529 171.997L746.796 174.21L753.299 166.656L761.559 158.621L769.945 164.379L777.545 171.495C777.654 171.598 777.695 171.744 777.669 171.882L777.664 171.881Z" fill="white"/>
<path d="M770.334 213.306L768.466 220.04L762.63 211.155L754.953 204.25L756.646 198.33L747.914 193.219L738.322 190.134L736.404 196.601L736.001 203.336L725.013 203.646L715.18 206.287L716.561 212.707L719.994 218.592L725.394 223.517L732.745 227.4C732.95 227.508 733.03 227.763 732.922 227.968C732.813 228.172 732.558 228.252 732.353 228.143L724.871 224.176L719.302 219.076L715.753 212.956L714.19 205.691L724.938 202.817L735.208 202.525L735.57 196.459L735.579 196.41L737.76 189.078L748.296 192.478L756.967 197.549L759.877 191.619L764.354 184.997L770.084 178.256L776.958 171.506C777.123 171.344 777.39 171.345 777.552 171.51C777.713 171.675 777.713 171.941 777.548 172.103L770.698 178.826L765.023 185.498L760.604 192.035L757.656 198.036L764.923 204.918L770.338 213.307L770.334 213.306ZM768.152 218.032L769.422 213.448L764.242 205.417L757.35 198.907L755.904 203.978L763.303 210.654L768.152 218.037L768.152 218.032Z" fill="white"/>
<path d="M912.454 173.114C912.435 173.212 912.381 173.303 912.294 173.369L899.873 182.729L886.19 191.726C885.995 191.855 885.738 191.801 885.61 191.606C885.481 191.411 885.536 191.15 885.731 191.026L899.392 182.043L911.788 172.696C911.971 172.556 912.236 172.594 912.376 172.777C912.449 172.874 912.476 172.999 912.455 173.11L912.454 173.114Z" fill="white"/>
<path d="M912.453 173.114C912.416 173.309 912.245 173.456 912.038 173.453L905.964 173.416L901.376 175.663C901.167 175.765 900.916 175.68 900.814 175.471C900.716 175.264 900.801 175.013 901.005 174.91L905.771 172.578L912.043 172.616C912.272 172.619 912.462 172.807 912.459 173.037C912.458 173.064 912.458 173.092 912.453 173.114Z" fill="white"/>
<path d="M927.588 180.102C927.569 180.199 927.514 180.29 927.428 180.356L913.021 191.272L897.129 201.768C896.933 201.896 896.677 201.842 896.547 201.652C896.419 201.457 896.474 201.196 896.664 201.071L912.534 190.594L926.92 179.692C927.104 179.553 927.368 179.59 927.508 179.773C927.581 179.87 927.608 179.995 927.587 180.106L927.588 180.102Z" fill="white"/>
<path d="M927.587 180.102C927.579 180.146 927.561 180.193 927.539 180.235C927.422 180.433 927.165 180.503 926.966 180.387L919.143 175.82L911.913 173.434C911.692 173.359 911.572 173.124 911.646 172.904C911.721 172.683 911.956 172.563 912.177 172.637L919.526 175.074L927.386 179.662C927.544 179.753 927.62 179.933 927.587 180.106L927.587 180.102Z" fill="white"/>
<path d="M932.73 153.966C932.716 154.041 932.678 154.117 932.62 154.179L923.306 163.765L912.321 173.351C912.144 173.501 911.88 173.487 911.729 173.311C911.578 173.139 911.593 172.87 911.769 172.72L922.732 163.157L932.023 153.595C932.184 153.428 932.452 153.424 932.619 153.585C932.724 153.688 932.765 153.83 932.739 153.968L932.73 153.966Z" fill="white"/>
<path d="M932.731 153.961C932.699 154.125 932.572 154.258 932.4 154.293L924.631 155.854L918.452 159.594C918.254 159.713 917.994 159.649 917.876 159.451C917.757 159.253 917.821 158.994 918.019 158.876L924.395 155.045L932.236 153.47C932.461 153.426 932.686 153.571 932.73 153.8C932.741 153.857 932.741 153.908 932.731 153.961Z" fill="white"/>
<path d="M957.311 235.261L942.128 247.003L925.599 258.1L924.427 261.05C924.34 261.263 924.099 261.369 923.88 261.285C923.666 261.198 923.556 260.96 923.644 260.738L924.914 257.544L925.02 257.472L941.633 246.319L956.534 234.799L957.508 228.781L956.437 221.136L953.362 212.461L948.479 203.438L942.137 194.673L934.767 186.791L926.902 180.338C926.723 180.188 926.695 179.925 926.845 179.747C926.99 179.568 927.258 179.541 927.436 179.691L935.341 186.179L942.783 194.139L949.187 202.99L954.124 212.116L957.257 220.968L958.34 228.84L957.305 235.246L957.311 235.261Z" fill="white"/>
<path d="M951.037 157.799C951.023 157.874 950.985 157.95 950.928 158.008L940.168 169.17L927.45 180.337C927.273 180.492 927.009 180.473 926.859 180.297C926.708 180.121 926.722 179.857 926.899 179.706L939.593 168.567L950.326 157.427C950.487 157.26 950.75 157.256 950.917 157.417C951.022 157.52 951.063 157.666 951.037 157.799Z" fill="white"/>
<path d="M951.037 157.799C951.037 157.799 951.031 157.835 951.027 157.852C950.957 158.074 950.717 158.193 950.497 158.118L941.16 155.073L932.284 154.299C932.053 154.277 931.88 154.074 931.901 153.843C931.914 153.611 932.127 153.44 932.357 153.461L941.328 154.245L950.757 157.317C950.961 157.384 951.078 157.59 951.038 157.795L951.037 157.799Z" fill="white"/>
<path d="M945.849 135.405C945.84 135.454 945.822 135.501 945.794 135.547L940.196 144.669L932.649 154.148C932.504 154.327 932.24 154.359 932.06 154.214C931.881 154.069 931.849 153.805 931.994 153.626L939.51 144.187L945.081 135.11C945.202 134.912 945.463 134.852 945.656 134.972C945.809 135.066 945.881 135.241 945.848 135.41L945.849 135.405Z" fill="white"/>
<path d="M945.849 135.405C945.822 135.547 945.725 135.671 945.577 135.721L936.753 138.814L929.629 143.942L924.607 150.837C924.47 151.022 924.209 151.064 924.022 150.931C923.837 150.794 923.795 150.533 923.932 150.348L929.088 143.308L936.425 138.051L945.307 134.942C945.525 134.864 945.766 134.979 945.843 135.201C945.87 135.275 945.874 135.35 945.86 135.421L945.849 135.405Z" fill="white"/>
<path d="M983.816 204.005L981.711 211.397L970.464 223.414L957.246 235.309L954.282 239.603C954.149 239.794 953.891 239.841 953.699 239.712C953.508 239.579 953.461 239.321 953.59 239.129L956.646 234.719L969.88 222.813L980.964 210.968L982.979 203.903L982.586 195.676L979.811 186.879L974.771 178.097L967.872 170.021L959.559 163.191L950.427 158.073C950.227 157.961 950.152 157.707 950.265 157.503C950.378 157.299 950.635 157.229 950.835 157.341L960.028 162.499L968.458 169.42L975.454 177.612L980.597 186.579L983.421 195.574L983.819 203.991L983.816 204.005Z" fill="white"/>
<path d="M970.19 126.232L966.081 136.304L959.639 146.958L950.957 157.977C950.811 158.161 950.548 158.188 950.368 158.048C950.187 157.907 950.152 157.638 950.297 157.459L958.948 146.48L965.329 135.924L969.375 125.987L971.087 116.784L970.47 108.481L967.575 101.194L962.486 95.0083L955.288 89.9952L946.086 86.2213L935.211 83.796L927.369 85.6188L919.937 89.9785L913.47 96.6231L908.419 105.082L905.163 114.789L903.915 125.053L904.789 135.155L907.693 144.386L912.432 152.097L918.691 157.827C918.863 157.984 918.872 158.248 918.715 158.421C918.557 158.593 918.293 158.602 918.121 158.444L911.744 152.586L906.902 144.689L903.951 135.274L903.069 124.996L904.333 114.602L907.665 104.688L912.826 96.0709L919.454 89.278L927.106 84.8086L935.198 82.9282L935.292 82.9461L946.329 85.4164L955.722 89.2732L963.088 94.4199L968.321 100.813L971.29 108.34L971.909 116.869L970.171 126.21L970.19 126.232Z" fill="white"/>
<path d="M918.825 158.23C918.784 158.443 918.585 158.589 918.369 158.566L910.343 157.683L904.215 151.776L899.656 144.205L891.63 144.23C891.4 144.231 891.21 144.043 891.208 143.813C891.202 143.581 891.395 143.393 891.626 143.391L900.13 143.367L904.905 151.301L910.718 156.885L918.459 157.74C918.689 157.766 918.856 157.974 918.83 158.203C918.828 158.217 918.826 158.225 918.823 158.239L918.825 158.23Z" fill="white"/>
<path d="M917.501 160.489C917.487 160.564 917.449 160.64 917.391 160.702L917.143 160.958L907.876 160.951L901.454 157.574L895.815 151.784L891.265 144.022C891.146 143.824 891.215 143.566 891.417 143.448C891.619 143.331 891.873 143.398 891.991 143.6L896.517 151.321L902.013 156.945L908.087 160.117L916.793 160.122C916.954 159.955 917.222 159.952 917.389 160.113C917.494 160.216 917.536 160.357 917.509 160.495L917.501 160.489Z" fill="white"/>
<path d="M917.501 160.489C917.494 160.524 917.487 160.56 917.468 160.588C917.368 160.799 917.121 160.885 916.91 160.784L910.433 157.696L901.753 157.696L892.066 158.574L886.701 152.607L882.289 144.844L878.927 135.506L876.88 125.321L876.303 114.987L877.166 105.767L865.974 107.737L854.129 110.635L855.032 119.563L857.102 129.845L845.926 133.286L835.052 137.314L824.265 141.99L813.738 147.231C813.529 147.334 813.278 147.249 813.175 147.045C813.072 146.836 813.157 146.586 813.362 146.482L823.909 141.231L834.74 136.541L845.659 132.498L856.129 129.275L854.2 119.698L853.219 110.004L865.799 106.925L878.103 104.755L877.142 115.01L877.714 125.224L879.738 135.289L883.055 144.503L887.418 152.16L892.417 157.707L901.725 156.862L910.631 156.86L917.277 160.026C917.454 160.111 917.542 160.299 917.506 160.485L917.501 160.489Z" fill="white"/>
<path d="M830.45 186.988C830.412 187.183 830.242 187.325 830.039 187.328C829.808 187.329 829.619 187.141 829.617 186.91L829.612 184.401L828.344 179.715L825.858 173.128L822.33 165.107L818 156.204L813.177 147.059C813.069 146.854 813.15 146.598 813.35 146.494C813.555 146.386 813.808 146.462 813.92 146.668L818.749 155.828L823.093 164.756L826.637 172.813L829.145 179.459L830.456 184.347L830.46 186.912C830.459 186.939 830.459 186.967 830.454 186.993L830.45 186.988Z" fill="white"/>
<path d="M854.991 175.528C854.977 175.599 854.945 175.671 854.888 175.729C854.73 175.902 854.465 175.915 854.297 175.758L852.362 173.987L849.648 169.92L846.243 163.681L842.409 155.762L838.408 146.683L834.515 137.086L831.008 127.642L828.271 119.437L816.169 124.675L803.633 130.897L799.165 124.407L795.74 120.208L793.595 118.451L792.631 118.767C792.41 118.839 792.175 118.72 792.102 118.499C792.03 118.278 792.148 118.043 792.37 117.971L793.772 117.509L796.337 119.618L799.838 123.906L803.913 129.823L815.818 123.912L828.784 118.303L831.808 127.364L835.306 136.783L839.189 146.359L843.181 155.413L846.998 163.301L850.376 169.489L853.04 173.482L854.868 175.137C854.982 175.237 855.027 175.388 855.001 175.526L854.991 175.528Z" fill="white"/>
<path d="M769.433 136.243C769.391 136.461 769.183 136.609 768.958 136.58L764.538 135.922L761.475 137.45C761.266 137.552 761.016 137.467 760.912 137.263C760.809 137.055 760.89 136.803 761.099 136.701L764.397 135.053L769.082 135.747C769.31 135.782 769.467 135.997 769.437 136.225L769.433 136.243Z" fill="white"/>
<path d="M769.433 136.243C769.414 136.345 769.358 136.441 769.268 136.501L757.15 145.294L746.253 154.344C746.073 154.494 745.811 154.466 745.66 154.29C745.511 154.109 745.538 153.848 745.714 153.698L756.632 144.633L768.772 135.826C768.959 135.692 769.223 135.733 769.357 135.92C769.431 136.017 769.449 136.136 769.428 136.247L769.433 136.243Z" fill="white"/>
<path d="M813.96 146.938C813.938 147.053 813.867 147.159 813.753 147.225L803.637 152.964L793.812 159.294L787.214 151.045L780.926 144.628L771.017 151.849L761.663 159.659L753.375 155.927L745.9 154.433C745.673 154.389 745.527 154.168 745.571 153.941C745.614 153.715 745.837 153.564 746.067 153.613L753.677 155.148L761.528 158.685L770.499 151.192L781.013 143.527L787.836 150.493L793.989 158.182L803.193 152.253L813.33 146.503C813.531 146.39 813.79 146.459 813.903 146.66C813.955 146.748 813.967 146.852 813.95 146.945L813.96 146.938Z" fill="white"/>
<path d="M813.96 146.938C813.938 147.053 813.867 147.159 813.757 147.226C813.556 147.339 813.297 147.27 813.184 147.069L808.199 138.312L803.629 130.919L792.241 137.352L780.948 144.586L774.396 139.422L768.83 136.532C768.625 136.423 768.548 136.174 768.652 135.968C768.761 135.764 769.016 135.684 769.221 135.792L774.852 138.727L781.002 143.561L791.813 136.634L803.92 129.792L808.926 137.886L813.918 146.654C813.97 146.746 813.983 146.845 813.965 146.939L813.96 146.938Z" fill="white"/>
<path d="M854.083 110.635L841.27 114.589L828.242 119.418L826.069 111.777L825.075 106.942L810.713 113.148L796.244 120.318L782.348 128.147L769.243 136.515C769.049 136.639 768.787 136.584 768.663 136.389C768.54 136.195 768.599 135.935 768.793 135.811L781.92 127.43L795.857 119.576L810.367 112.386L825.03 106.049L825.896 102.602C825.953 102.379 826.182 102.243 826.406 102.3C826.63 102.357 826.763 102.576 826.709 102.81L825.984 105.685L840.188 100.42L855.727 95.6138L854.279 102.442L854.086 110.644L854.083 110.635ZM828.799 118.319L840.998 113.8L853.258 110.016L853.446 102.342L854.607 96.8344L840.455 101.212L825.864 106.624L826.88 111.584L828.799 118.324L828.799 118.319Z" fill="white"/>
<path d="M879.965 167.084C879.965 167.084 879.961 167.106 879.958 167.12C879.897 167.343 879.664 167.473 879.441 167.411L875.519 166.274L871.521 162.844L860.971 166.074L850.143 170.079L839.41 174.742L828.938 179.981L818.901 185.717L809.648 191.733L809.618 197.154L807.869 200.854C807.768 201.065 807.521 201.151 807.31 201.055C807.099 200.954 807.013 200.703 807.109 200.496L808.78 196.96L808.803 192.339L800.768 198.3L792.388 205.455L791.3 197.011L788.259 188.618L783.349 180.115L776.669 171.74L784.86 164.847L794.012 158.135L799.959 167.161L804.64 175.942L807.936 184.209L809.494 190.787L809.655 190.666L809.658 190.727L818.468 184.998L828.547 179.238L839.059 173.98L849.837 169.302L860.71 165.278L871.725 161.907L875.999 165.575L879.671 166.604C879.885 166.664 880.01 166.876 879.97 167.085L879.965 167.084ZM793.027 203.81L800.25 197.643L808.759 191.327L807.133 184.455L803.878 176.288L799.237 167.583L793.796 159.332L785.379 165.504L777.831 171.853L784.039 179.645L789.013 188.266L792.127 196.857L793.023 203.81L793.027 203.81Z" fill="white"/>
<path d="M921.269 156.04C921.255 156.111 921.224 156.179 921.171 156.237C921.018 156.41 920.752 156.428 920.579 156.275L918.316 154.247L913.368 146.302L910.519 136.884L909.941 126.65L911.691 116.345L915.437 107.082L907.942 105.331L898.233 104.405L902.82 95.18L908.55 88.3154L915.313 83.7715L922.475 81.8454C922.698 81.7871 922.93 81.9193 922.989 82.1423C923.052 82.3661 922.916 82.5931 922.692 82.6559L915.598 84.563L909.068 88.9766L903.498 95.6787L899.528 103.688L908.078 104.505L916.583 106.488L912.504 116.571L910.781 126.743L911.358 136.787L914.157 146.008L919 153.757L921.14 155.656C921.255 155.756 921.299 155.908 921.272 156.05L921.269 156.04Z" fill="white"/>
<path d="M861.051 91.0968C861.026 91.2299 860.939 91.3467 860.803 91.4035L857.771 92.7022L855.523 96.4352C855.402 96.6328 855.145 96.6984 854.947 96.5775C854.749 96.4565 854.688 96.2008 854.804 96.0023L857.189 92.0379L860.472 90.6355C860.684 90.5427 860.932 90.6411 861.024 90.8568C861.059 90.9372 861.066 91.0213 861.05 91.1012L861.051 91.0968Z" fill="white"/>
<path d="M893.824 84.1178C893.797 84.2598 893.695 84.3829 893.546 84.4371L888.372 86.2075L883.758 90.5758L869.724 93.0706L855.265 96.6251C855.038 96.6781 854.811 96.5423 854.757 96.3202C854.703 96.0981 854.84 95.8666 855.062 95.8127L869.545 92.2536L883.36 89.7949L888.012 85.4476L893.274 83.6483C893.496 83.5713 893.731 83.6902 893.809 83.9078C893.833 83.9768 893.837 84.0512 893.823 84.1222L893.824 84.1178Z" fill="white"/>
<path d="M955.219 86.9026C955.178 87.1157 954.979 87.266 954.759 87.2374L946.267 86.2608L937.646 87.9428L929.234 92.2518L919.585 90.0581L908.745 89.0758L896.681 89.2572L883.827 90.5753L880.366 96.97L878.199 104.783L888.64 103.742L899.418 103.612L896.717 113.982L896.028 124.285L897.257 134.409L900.209 143.392L907.359 144.156L913.868 145.764L919.383 148.225L923.57 151.365C923.755 151.502 923.792 151.766 923.655 151.952C923.518 152.137 923.253 152.174 923.067 152.037L918.921 148.927L913.599 146.559L907.218 144.985L899.584 144.173L896.448 134.594L895.203 124.31L895.904 113.849L898.341 104.468L888.7 104.581L877.074 105.745L879.614 96.6181L883.305 89.7936L896.638 88.4295L908.781 88.2449L919.72 89.2371L929.127 91.3704L937.433 87.1375L946.304 85.4254L954.858 86.4096C955.088 86.4355 955.256 86.6426 955.229 86.8768C955.227 86.8857 955.225 86.899 955.223 86.9079L955.219 86.9026Z" fill="white"/>
<path d="M923.729 151.782C923.7 151.933 923.593 152.059 923.432 152.107C923.212 152.17 922.979 152.042 922.911 151.818L920.213 142.433L920.086 132.705L915.844 129.568L910.187 127.098L903.401 125.47L895.569 124.68L886.831 124.747L877.335 125.662L867.24 127.414L857.144 129.866L859.955 139.361L863.597 148.513L867.7 156.277L871.799 161.904L882.049 159.444L892.33 157.704L897.958 161.039L903.454 161.71C903.683 161.741 903.846 161.947 903.82 162.177C903.802 162.417 903.584 162.569 903.354 162.543L897.683 161.847L892.166 158.58L882.218 160.264L871.452 162.845L866.993 156.716L862.839 148.86L859.166 139.632L856.09 129.259L867.071 126.59L877.224 124.826L886.787 123.9L895.608 123.836L903.539 124.635L910.452 126.298L916.303 128.856L920.917 132.267L921.052 142.355L923.718 151.577C923.737 151.645 923.738 151.71 923.726 151.772L923.729 151.782Z" fill="white"/>
<path d="M993.132 191.796C993.12 191.858 993.095 191.918 993.053 191.969L983.726 204.208L972.119 216.593L970.491 223.373L966.766 228.359C966.629 228.544 966.364 228.581 966.179 228.444C965.993 228.307 965.957 228.042 966.094 227.856L969.764 222.938L971.019 217.587L958.208 229.095L941.94 241.66L940.295 233.55L937.058 224.996L932.275 215.84L926.079 206.408L942.225 194.091L956.459 181.49L963.421 190.315L968.451 199.32L971.441 208.292L972.07 215.41L983.086 203.657L992.388 191.45C992.53 191.266 992.795 191.229 992.979 191.371C993.112 191.47 993.164 191.632 993.135 191.783L993.132 191.796ZM942.497 240.179L957.676 228.459L971.301 216.219L970.613 208.427L967.692 199.671L962.731 190.79L956.356 182.718L942.762 194.752L927.215 206.612L932.999 215.427L937.823 224.664L941.102 233.328L942.497 240.179Z" fill="white"/>
<path d="M908.982 82.5575C908.954 82.704 908.847 82.8307 908.694 82.8796L902.527 84.7624L896.991 89.1328L892.405 95.7943L889.083 104.315L887.334 114.045L887.248 124.33L888.857 134.444L892.027 143.676C892.104 143.898 891.985 144.133 891.768 144.211C891.551 144.284 891.311 144.169 891.233 143.951L888.044 134.647L886.411 124.394L886.496 113.971L888.273 104.094L891.677 95.3641L896.413 88.5198L902.202 83.9864L908.447 82.0817C908.668 82.0137 908.902 82.137 908.969 82.3617C908.988 82.4299 908.993 82.4998 908.981 82.562L908.982 82.5575Z" fill="white"/>
<path d="M892.041 143.89C892.007 144.068 891.86 144.21 891.667 144.228L882.698 145.065L873.203 146.689C872.975 146.728 872.755 146.575 872.721 146.348C872.677 146.118 872.835 145.9 873.063 145.861L882.591 144.23L891.594 143.39C891.823 143.37 892.031 143.538 892.051 143.768C892.052 143.809 892.054 143.847 892.046 143.887L892.041 143.89Z" fill="white"/>
<path d="M914.822 161.22C914.782 161.429 914.587 161.58 914.37 161.557L907.936 160.949L897.845 161.864L886.922 163.711L881.812 160.122L877.074 154.321L872.76 146.48C872.647 146.278 872.724 146.022 872.925 145.909C873.127 145.796 873.384 145.873 873.497 146.074L877.768 153.851L882.426 159.545L887.12 162.824L897.738 161.034L907.935 160.115L914.447 160.725C914.678 160.746 914.846 160.949 914.825 161.179C914.823 161.193 914.82 161.206 914.817 161.219L914.822 161.22Z" fill="white"/>
<path d="M793.12 204.717C793.104 204.797 793.067 204.872 793.004 204.934L786.223 211.702L779.934 219.246L779.4 209.91L776.533 201.349L771.397 192.995L764.398 185.511L755.988 179.395L747.092 175.21L742.073 182.516L738.297 190.047L727.711 189.109L717.873 190.529L709.146 194.197L702.107 199.82L697.212 207.081C697.083 207.272 696.82 207.323 696.628 207.194C696.437 207.065 696.385 206.806 696.515 206.61L701.534 199.204L708.771 193.444L717.705 189.705L727.739 188.267L737.804 189.16L741.353 182.092L746.807 174.152L756.42 178.682L764.959 184.892L772.069 192.498L777.324 201.045L780.247 209.815L780.663 217.085L785.617 211.144L792.426 204.349C792.591 204.187 792.853 204.187 793.02 204.348C793.12 204.45 793.162 204.592 793.137 204.725L793.12 204.717Z" fill="white"/>
<path d="M1004.3 168.759L999.971 180.04L993.085 191.925C992.968 192.123 992.711 192.193 992.512 192.077C992.309 191.959 992.243 191.703 992.36 191.504L999.216 179.678L1003.47 168.598L1003.61 159.586L1001.08 150.596L996.003 142.263L989.152 135.563L984.984 146.061L977.991 157.833C977.874 158.032 977.613 158.096 977.415 157.98C977.216 157.863 977.151 157.602 977.267 157.404L984.231 145.69L988.839 134.08L996.694 141.784L1001.88 150.312L1004.45 159.535L1004.3 168.759Z" fill="white"/>
<path d="M993.132 191.796C993.096 191.987 992.929 192.134 992.726 192.136C992.494 192.143 992.305 191.954 992.299 191.723L992.153 183.147L989.483 174.283L984.423 165.677L977.313 157.905C977.158 157.733 977.172 157.468 977.34 157.312C977.513 157.156 977.778 157.166 977.934 157.339L985.125 165.214L990.271 173.993L992.987 183.077L993.134 191.713C993.134 191.741 993.132 191.773 993.127 191.799L993.132 191.796Z" fill="white"/>
</g>
</g>
<defs>
<clipPath id="clip0_750_126">
<rect width="1000" height="180" fill="white"/>
</clipPath>
<clipPath id="clip1_750_126">
<rect width="254.211" height="297.189" fill="white" transform="translate(678 291.626) rotate(-79.1021)"/>
</clipPath>
</defs>
</svg>
