<svg width="63" height="24" viewBox="0 0 63 24" fill="none" xmlns="http://www.w3.org/2000/svg">
<path d="M0 4C0 1.79086 1.79086 0 4 0H59C61.2091 0 63 1.79086 63 4V20C63 22.2091 61.2091 24 59 24H4C1.79086 24 0 22.2091 0 20V4Z" fill="#F8F8F7"/>
<path d="M4 0.5H59C60.933 0.5 62.5 2.067 62.5 4V20C62.5 21.933 60.933 23.5 59 23.5H4C2.067 23.5 0.5 21.933 0.5 20V4C0.5 2.067 2.067 0.5 4 0.5Z" stroke="#6B6B68" stroke-opacity="0.5"/>
<path d="M8.95881 16V7.27273H12.0696C12.7486 7.27273 13.3111 7.39631 13.7571 7.64347C14.2031 7.89062 14.5369 8.22869 14.7585 8.65767C14.9801 9.08381 15.0909 9.56392 15.0909 10.098C15.0909 10.6349 14.9787 11.1179 14.7543 11.5469C14.5327 11.973 14.1974 12.3111 13.7486 12.5611C13.3026 12.8082 12.7415 12.9318 12.0653 12.9318H9.92614V11.8153H11.946C12.375 11.8153 12.723 11.7415 12.9901 11.5938C13.2571 11.4432 13.4531 11.2386 13.5781 10.9801C13.7031 10.7216 13.7656 10.4276 13.7656 10.098C13.7656 9.76847 13.7031 9.47585 13.5781 9.22017C13.4531 8.96449 13.2557 8.7642 12.9858 8.61932C12.7188 8.47443 12.3665 8.40199 11.929 8.40199H10.2756V16H8.95881ZM17.8065 7.27273V16H16.5323V7.27273H17.8065ZM21.4254 16.1449C21.0107 16.1449 20.6357 16.0682 20.3004 15.9148C19.9652 15.7585 19.6996 15.5327 19.5036 15.2372C19.3104 14.9418 19.2138 14.5795 19.2138 14.1506C19.2138 13.7812 19.2848 13.4773 19.4268 13.2386C19.5689 13 19.7607 12.8111 20.0021 12.6719C20.2436 12.5327 20.5135 12.4276 20.8118 12.3565C21.1101 12.2855 21.4141 12.2315 21.7237 12.1946C22.1158 12.1491 22.4339 12.1122 22.6783 12.0838C22.9226 12.0526 23.1001 12.0028 23.2109 11.9347C23.3217 11.8665 23.3771 11.7557 23.3771 11.6023V11.5724C23.3771 11.2003 23.272 10.9119 23.0618 10.7074C22.8544 10.5028 22.5447 10.4006 22.1328 10.4006C21.7038 10.4006 21.3658 10.4957 21.1186 10.6861C20.8743 10.8736 20.7053 11.0824 20.6115 11.3125L19.4141 11.0398C19.5561 10.642 19.7635 10.321 20.0362 10.0767C20.3118 9.82955 20.6286 9.65057 20.9865 9.53977C21.3445 9.42614 21.7209 9.36932 22.1158 9.36932C22.3771 9.36932 22.6541 9.40057 22.9467 9.46307C23.2422 9.52273 23.5178 9.63352 23.7734 9.79545C24.032 9.95739 24.2436 10.1889 24.4084 10.4901C24.5732 10.7884 24.6555 11.1761 24.6555 11.6534V16H23.4112V15.1051H23.3601C23.2777 15.2699 23.1541 15.4318 22.9893 15.5909C22.8246 15.75 22.6129 15.8821 22.3544 15.9872C22.0959 16.0923 21.7862 16.1449 21.4254 16.1449ZM21.7024 15.1222C22.0547 15.1222 22.3558 15.0526 22.6058 14.9134C22.8587 14.7741 23.0504 14.5923 23.1811 14.3679C23.3146 14.1406 23.3814 13.8977 23.3814 13.6392V12.7955C23.3359 12.8409 23.2479 12.8835 23.1172 12.9233C22.9893 12.9602 22.843 12.9929 22.6783 13.0213C22.5135 13.0469 22.353 13.071 22.1967 13.0938C22.0405 13.1136 21.9098 13.1307 21.8047 13.1449C21.5575 13.1761 21.3317 13.2287 21.1271 13.3026C20.9254 13.3764 20.7635 13.483 20.6413 13.6222C20.522 13.7585 20.4624 13.9403 20.4624 14.1676C20.4624 14.483 20.5788 14.7216 20.8118 14.8835C21.0447 15.0426 21.3416 15.1222 21.7024 15.1222ZM27.6268 12.1136V16H26.3526V9.45455H27.5756V10.5199H27.6566C27.8072 10.1733 28.043 9.89489 28.364 9.68466C28.6879 9.47443 29.0955 9.36932 29.587 9.36932C30.033 9.36932 30.4237 9.46307 30.7589 9.65057C31.0941 9.83523 31.354 10.1108 31.5387 10.4773C31.7234 10.8437 31.8157 11.2969 31.8157 11.8366V16H30.5415V11.9901C30.5415 11.5156 30.418 11.1449 30.1708 10.8778C29.9237 10.608 29.5842 10.473 29.1523 10.473C28.8569 10.473 28.5941 10.5369 28.364 10.6648C28.1367 10.7926 27.9563 10.9801 27.8228 11.2273C27.6921 11.4716 27.6268 11.767 27.6268 12.1136ZM34.7987 12.1136V16H33.5245V9.45455H34.7475V10.5199H34.8285C34.979 10.1733 35.2148 9.89489 35.5359 9.68466C35.8597 9.47443 36.2674 9.36932 36.7589 9.36932C37.2049 9.36932 37.5955 9.46307 37.9308 9.65057C38.266 9.83523 38.5259 10.1108 38.7106 10.4773C38.8952 10.8437 38.9876 11.2969 38.9876 11.8366V16H37.7134V11.9901C37.7134 11.5156 37.5898 11.1449 37.3427 10.8778C37.0955 10.608 36.756 10.473 36.3242 10.473C36.0288 10.473 35.766 10.5369 35.5359 10.6648C35.3086 10.7926 35.1282 10.9801 34.9947 11.2273C34.864 11.4716 34.7987 11.767 34.7987 12.1136ZM43.5174 16.1321C42.8725 16.1321 42.3171 15.9943 41.8512 15.7188C41.3881 15.4403 41.0302 15.0497 40.7773 14.5469C40.5273 14.0412 40.4023 13.4489 40.4023 12.7699C40.4023 12.0994 40.5273 11.5085 40.7773 10.9972C41.0302 10.4858 41.3825 10.0866 41.8342 9.79972C42.2887 9.51278 42.82 9.36932 43.4279 9.36932C43.7972 9.36932 44.1552 9.4304 44.5018 9.55256C44.8484 9.67472 45.1594 9.86648 45.435 10.1278C45.7106 10.3892 45.9279 10.7287 46.087 11.1463C46.2461 11.5611 46.3256 12.0653 46.3256 12.6591V13.1108H41.1225V12.1562H45.0771C45.0771 11.821 45.0089 11.5241 44.8725 11.2656C44.7362 11.0043 44.5444 10.7983 44.2972 10.6477C44.0529 10.4972 43.766 10.4219 43.4364 10.4219C43.0785 10.4219 42.766 10.5099 42.4989 10.6861C42.2347 10.8594 42.0302 11.0866 41.8853 11.3679C41.7433 11.6463 41.6722 11.9489 41.6722 12.2756V13.0213C41.6722 13.4588 41.7489 13.831 41.9023 14.1378C42.0586 14.4446 42.2759 14.679 42.5543 14.8409C42.8327 15 43.158 15.0795 43.5302 15.0795C43.7717 15.0795 43.9918 15.0455 44.1907 14.9773C44.3896 14.9062 44.5614 14.8011 44.7063 14.6619C44.8512 14.5227 44.962 14.3509 45.0387 14.1463L46.2447 14.3636C46.1481 14.7187 45.9748 15.0298 45.7248 15.2969C45.4776 15.5611 45.1665 15.767 44.7915 15.9148C44.4194 16.0597 43.9947 16.1321 43.5174 16.1321ZM50.1896 16.1278C49.6612 16.1278 49.1896 15.9929 48.7749 15.723C48.3629 15.4503 48.0391 15.0625 47.8033 14.5597C47.5703 14.054 47.4538 13.4474 47.4538 12.7401C47.4538 12.0327 47.5717 11.4276 47.8075 10.9247C48.0462 10.4219 48.3729 10.0369 48.7876 9.76989C49.2024 9.50284 49.6726 9.36932 50.1982 9.36932C50.6044 9.36932 50.9311 9.4375 51.1783 9.57386C51.4283 9.70739 51.6214 9.86364 51.7578 10.0426C51.897 10.2216 52.005 10.3793 52.0817 10.5156H52.1584V7.27273H53.4325V16H52.1882V14.9815H52.0817C52.005 15.1207 51.8942 15.2798 51.7493 15.4588C51.6072 15.6378 51.4112 15.794 51.1612 15.9276C50.9112 16.0611 50.5874 16.1278 50.1896 16.1278ZM50.4709 15.0412C50.8374 15.0412 51.147 14.9446 51.3999 14.7514C51.6555 14.5554 51.8487 14.2841 51.9794 13.9375C52.1129 13.5909 52.1797 13.1875 52.1797 12.7273C52.1797 12.2727 52.1143 11.875 51.9837 11.5341C51.853 11.1932 51.6612 10.9276 51.4084 10.7372C51.1555 10.5469 50.843 10.4517 50.4709 10.4517C50.0874 10.4517 49.7678 10.5511 49.5121 10.75C49.2564 10.9489 49.0632 11.2202 48.9325 11.5639C48.8047 11.9077 48.7408 12.2955 48.7408 12.7273C48.7408 13.1648 48.8061 13.5582 48.9368 13.9077C49.0675 14.2571 49.2607 14.5341 49.5163 14.7386C49.7749 14.9403 50.093 15.0412 50.4709 15.0412Z" fill="#30302E"/>
</svg>
