<svg width="84" height="24" viewBox="0 0 84 24" fill="none" xmlns="http://www.w3.org/2000/svg">
<path d="M0 4C0 1.79086 1.79086 0 4 0H80C82.2091 0 84 1.79086 84 4V20C84 22.2091 82.2091 24 80 24H4C1.79086 24 0 22.2091 0 20V4Z" fill="#FEF6F9"/>
<path d="M4 0.5H80C81.933 0.5 83.5 2.067 83.5 4V20C83.5 21.933 81.933 23.5 80 23.5H4C2.067 23.5 0.5 21.933 0.5 20V4C0.5 2.067 2.067 0.5 4 0.5Z" stroke="#D50047" stroke-opacity="0.5"/>
<path d="M11.7841 16H8.95881V7.27273H11.8736C12.7287 7.27273 13.4631 7.44744 14.0767 7.79688C14.6903 8.14347 15.1605 8.64205 15.4872 9.29261C15.8168 9.94034 15.9815 10.7173 15.9815 11.6236C15.9815 12.5327 15.8153 13.3139 15.483 13.9673C15.1534 14.6207 14.6761 15.1236 14.0511 15.4759C13.4261 15.8253 12.6705 16 11.7841 16ZM10.2756 14.8494H11.7116C12.3764 14.8494 12.929 14.7244 13.3693 14.4744C13.8097 14.2216 14.1392 13.8565 14.358 13.3793C14.5767 12.8991 14.6861 12.3139 14.6861 11.6236C14.6861 10.9389 14.5767 10.358 14.358 9.88068C14.142 9.40341 13.8196 9.04119 13.3906 8.79403C12.9616 8.54687 12.429 8.4233 11.7926 8.4233H10.2756V14.8494ZM20.3377 16.1321C19.6928 16.1321 19.1374 15.9943 18.6715 15.7188C18.2085 15.4403 17.8505 15.0497 17.5977 14.5469C17.3477 14.0412 17.2227 13.4489 17.2227 12.7699C17.2227 12.0994 17.3477 11.5085 17.5977 10.9972C17.8505 10.4858 18.2028 10.0866 18.6545 9.79972C19.109 9.51278 19.6403 9.36932 20.2482 9.36932C20.6175 9.36932 20.9755 9.4304 21.3221 9.55256C21.6687 9.67472 21.9798 9.86648 22.2553 10.1278C22.5309 10.3892 22.7482 10.7287 22.9073 11.1463C23.0664 11.5611 23.146 12.0653 23.146 12.6591V13.1108H17.9428V12.1562H21.8974C21.8974 11.821 21.8292 11.5241 21.6928 11.2656C21.5565 11.0043 21.3647 10.7983 21.1175 10.6477C20.8732 10.4972 20.5863 10.4219 20.2567 10.4219C19.8988 10.4219 19.5863 10.5099 19.3192 10.6861C19.055 10.8594 18.8505 11.0866 18.7056 11.3679C18.5636 11.6463 18.4925 11.9489 18.4925 12.2756V13.0213C18.4925 13.4588 18.5692 13.831 18.7227 14.1378C18.8789 14.4446 19.0962 14.679 19.3746 14.8409C19.6531 15 19.9783 15.0795 20.3505 15.0795C20.592 15.0795 20.8121 15.0455 21.011 14.9773C21.2099 14.9062 21.3817 14.8011 21.5266 14.6619C21.6715 14.5227 21.7823 14.3509 21.859 14.1463L23.065 14.3636C22.9684 14.7187 22.7951 15.0298 22.5451 15.2969C22.2979 15.5611 21.9869 15.767 21.6119 15.9148C21.2397 16.0597 20.815 16.1321 20.3377 16.1321ZM24.5597 18.4545V9.45455H25.804V10.5156H25.9105C25.9844 10.3793 26.0909 10.2216 26.2301 10.0426C26.3693 9.86364 26.5625 9.70739 26.8097 9.57386C27.0568 9.4375 27.3835 9.36932 27.7898 9.36932C28.3182 9.36932 28.7898 9.50284 29.2045 9.76989C29.6193 10.0369 29.9446 10.4219 30.1804 10.9247C30.419 11.4276 30.5384 12.0327 30.5384 12.7401C30.5384 13.4474 30.4205 14.054 30.1847 14.5597C29.9489 15.0625 29.625 15.4503 29.2131 15.723C28.8011 15.9929 28.331 16.1278 27.8026 16.1278C27.4048 16.1278 27.0795 16.0611 26.8267 15.9276C26.5767 15.794 26.3807 15.6378 26.2386 15.4588C26.0966 15.2798 25.9872 15.1207 25.9105 14.9815H25.8338V18.4545H24.5597ZM25.8082 12.7273C25.8082 13.1875 25.875 13.5909 26.0085 13.9375C26.142 14.2841 26.3352 14.5554 26.5881 14.7514C26.8409 14.9446 27.1506 15.0412 27.517 15.0412C27.8977 15.0412 28.2159 14.9403 28.4716 14.7386C28.7273 14.5341 28.9205 14.2571 29.0511 13.9077C29.1847 13.5582 29.2514 13.1648 29.2514 12.7273C29.2514 12.2955 29.1861 11.9077 29.0554 11.5639C28.9276 11.2202 28.7344 10.9489 28.4759 10.75C28.2202 10.5511 27.9006 10.4517 27.517 10.4517C27.1477 10.4517 26.8352 10.5469 26.5795 10.7372C26.3267 10.9276 26.1349 11.1932 26.0043 11.5341C25.8736 11.875 25.8082 12.2727 25.8082 12.7273ZM31.9659 16V9.45455H33.1974V10.4943H33.2656C33.3849 10.142 33.5952 9.86506 33.8963 9.66335C34.2003 9.45881 34.544 9.35653 34.9276 9.35653C35.0071 9.35653 35.1009 9.35937 35.2088 9.36506C35.3196 9.37074 35.4062 9.37784 35.4688 9.38636V10.6051C35.4176 10.5909 35.3267 10.5753 35.196 10.5582C35.0653 10.5384 34.9347 10.5284 34.804 10.5284C34.5028 10.5284 34.2344 10.5923 33.9986 10.7202C33.7656 10.8452 33.581 11.0199 33.4446 11.2443C33.3082 11.4659 33.2401 11.7187 33.2401 12.0028V16H31.9659ZM39.158 16.1321C38.5131 16.1321 37.9577 15.9943 37.4918 15.7188C37.0288 15.4403 36.6708 15.0497 36.418 14.5469C36.168 14.0412 36.043 13.4489 36.043 12.7699C36.043 12.0994 36.168 11.5085 36.418 10.9972C36.6708 10.4858 37.0231 10.0866 37.4748 9.79972C37.9293 9.51278 38.4606 9.36932 39.0685 9.36932C39.4379 9.36932 39.7958 9.4304 40.1424 9.55256C40.489 9.67472 40.8001 9.86648 41.0756 10.1278C41.3512 10.3892 41.5685 10.7287 41.7276 11.1463C41.8867 11.5611 41.9663 12.0653 41.9663 12.6591V13.1108H36.7631V12.1562H40.7177C40.7177 11.821 40.6495 11.5241 40.5131 11.2656C40.3768 11.0043 40.185 10.7983 39.9379 10.6477C39.6935 10.4972 39.4066 10.4219 39.0771 10.4219C38.7191 10.4219 38.4066 10.5099 38.1396 10.6861C37.8754 10.8594 37.6708 11.0866 37.5259 11.3679C37.3839 11.6463 37.3129 11.9489 37.3129 12.2756V13.0213C37.3129 13.4588 37.3896 13.831 37.543 14.1378C37.6992 14.4446 37.9165 14.679 38.195 14.8409C38.4734 15 38.7987 15.0795 39.1708 15.0795C39.4123 15.0795 39.6325 15.0455 39.8313 14.9773C40.0302 14.9062 40.2021 14.8011 40.3469 14.6619C40.4918 14.5227 40.6026 14.3509 40.6793 14.1463L41.8853 14.3636C41.7887 14.7187 41.6154 15.0298 41.3654 15.2969C41.1183 15.5611 40.8072 15.767 40.4322 15.9148C40.06 16.0597 39.6353 16.1321 39.158 16.1321ZM46.1371 16.1321C45.5036 16.1321 44.9581 15.9886 44.5007 15.7017C44.0462 15.4119 43.6967 15.0128 43.4524 14.5043C43.2081 13.9957 43.0859 13.4134 43.0859 12.7571C43.0859 12.0923 43.2109 11.5057 43.4609 10.9972C43.7109 10.4858 44.0632 10.0866 44.5178 9.79972C44.9723 9.51278 45.5078 9.36932 46.1243 9.36932C46.6214 9.36932 47.0646 9.46165 47.4538 9.64631C47.843 9.82812 48.157 10.0838 48.3956 10.4134C48.6371 10.7429 48.7805 11.1278 48.826 11.5682H47.5859C47.5178 11.2614 47.3615 10.9972 47.1172 10.7756C46.8757 10.554 46.5518 10.4432 46.1456 10.4432C45.7905 10.4432 45.4794 10.5369 45.2124 10.7244C44.9482 10.9091 44.7422 11.1733 44.5945 11.517C44.4467 11.858 44.3729 12.2614 44.3729 12.7273C44.3729 13.2045 44.4453 13.6165 44.5902 13.9631C44.7351 14.3097 44.9396 14.5781 45.2038 14.7685C45.4709 14.9588 45.7848 15.054 46.1456 15.054C46.3871 15.054 46.6058 15.0099 46.8018 14.9219C47.0007 14.831 47.1669 14.7017 47.3004 14.5341C47.4368 14.3665 47.532 14.1648 47.5859 13.929H48.826C48.7805 14.3523 48.6428 14.7301 48.4126 15.0625C48.1825 15.3949 47.8743 15.6562 47.4879 15.8466C47.1044 16.0369 46.6541 16.1321 46.1371 16.1321ZM52.0934 16.1449C51.6786 16.1449 51.3036 16.0682 50.9684 15.9148C50.6332 15.7585 50.3675 15.5327 50.1715 15.2372C49.9783 14.9418 49.8817 14.5795 49.8817 14.1506C49.8817 13.7812 49.9528 13.4773 50.0948 13.2386C50.2369 13 50.4286 12.8111 50.6701 12.6719C50.9116 12.5327 51.1815 12.4276 51.4798 12.3565C51.7781 12.2855 52.082 12.2315 52.3917 12.1946C52.7837 12.1491 53.1019 12.1122 53.3462 12.0838C53.5906 12.0526 53.7681 12.0028 53.8789 11.9347C53.9897 11.8665 54.0451 11.7557 54.0451 11.6023V11.5724C54.0451 11.2003 53.94 10.9119 53.7298 10.7074C53.5224 10.5028 53.2127 10.4006 52.8008 10.4006C52.3718 10.4006 52.0337 10.4957 51.7866 10.6861C51.5423 10.8736 51.3732 11.0824 51.2795 11.3125L50.082 11.0398C50.2241 10.642 50.4315 10.321 50.7042 10.0767C50.9798 9.82955 51.2965 9.65057 51.6545 9.53977C52.0124 9.42614 52.3888 9.36932 52.7837 9.36932C53.0451 9.36932 53.3221 9.40057 53.6147 9.46307C53.9102 9.52273 54.1857 9.63352 54.4414 9.79545C54.6999 9.95739 54.9116 10.1889 55.0763 10.4901C55.2411 10.7884 55.3235 11.1761 55.3235 11.6534V16H54.0792V15.1051H54.0281C53.9457 15.2699 53.8221 15.4318 53.6573 15.5909C53.4925 15.75 53.2809 15.8821 53.0224 15.9872C52.7638 16.0923 52.4542 16.1449 52.0934 16.1449ZM52.3704 15.1222C52.7227 15.1222 53.0238 15.0526 53.2738 14.9134C53.5266 14.7741 53.7184 14.5923 53.8491 14.3679C53.9826 14.1406 54.0494 13.8977 54.0494 13.6392V12.7955C54.0039 12.8409 53.9158 12.8835 53.7852 12.9233C53.6573 12.9602 53.511 12.9929 53.3462 13.0213C53.1815 13.0469 53.021 13.071 52.8647 13.0938C52.7085 13.1136 52.5778 13.1307 52.4727 13.1449C52.2255 13.1761 51.9996 13.2287 51.7951 13.3026C51.5934 13.3764 51.4315 13.483 51.3093 13.6222C51.19 13.7585 51.1303 13.9403 51.1303 14.1676C51.1303 14.483 51.2468 14.7216 51.4798 14.8835C51.7127 15.0426 52.0096 15.1222 52.3704 15.1222ZM60.076 9.45455V10.4773H56.5007V9.45455H60.076ZM57.4595 7.88636H58.7337V14.0781C58.7337 14.3253 58.7706 14.5114 58.8445 14.6364C58.9183 14.7585 59.0135 14.8423 59.13 14.8878C59.2493 14.9304 59.3786 14.9517 59.5178 14.9517C59.62 14.9517 59.7095 14.9446 59.7862 14.9304C59.8629 14.9162 59.9226 14.9048 59.9652 14.8963L60.1953 15.9489C60.1214 15.9773 60.0163 16.0057 59.88 16.0341C59.7436 16.0653 59.5732 16.0824 59.3686 16.0852C59.0334 16.0909 58.7209 16.0312 58.4311 15.9062C58.1413 15.7812 57.907 15.5881 57.728 15.3267C57.549 15.0653 57.4595 14.7372 57.4595 14.3423V7.88636ZM64.2362 16.1321C63.5913 16.1321 63.0359 15.9943 62.57 15.7188C62.1069 15.4403 61.7489 15.0497 61.4961 14.5469C61.2461 14.0412 61.1211 13.4489 61.1211 12.7699C61.1211 12.0994 61.2461 11.5085 61.4961 10.9972C61.7489 10.4858 62.1012 10.0866 62.5529 9.79972C63.0075 9.51278 63.5387 9.36932 64.1467 9.36932C64.516 9.36932 64.8739 9.4304 65.2205 9.55256C65.5671 9.67472 65.8782 9.86648 66.1538 10.1278C66.4293 10.3892 66.6467 10.7287 66.8058 11.1463C66.9648 11.5611 67.0444 12.0653 67.0444 12.6591V13.1108H61.8413V12.1562H65.7958C65.7958 11.821 65.7276 11.5241 65.5913 11.2656C65.4549 11.0043 65.2631 10.7983 65.016 10.6477C64.7717 10.4972 64.4847 10.4219 64.1552 10.4219C63.7972 10.4219 63.4847 10.5099 63.2177 10.6861C62.9535 10.8594 62.7489 11.0866 62.604 11.3679C62.462 11.6463 62.391 11.9489 62.391 12.2756V13.0213C62.391 13.4588 62.4677 13.831 62.6211 14.1378C62.7773 14.4446 62.9947 14.679 63.2731 14.8409C63.5515 15 63.8768 15.0795 64.2489 15.0795C64.4904 15.0795 64.7106 15.0455 64.9094 14.9773C65.1083 14.9062 65.2802 14.8011 65.4251 14.6619C65.57 14.5227 65.6808 14.3509 65.7575 14.1463L66.9634 14.3636C66.8668 14.7187 66.6935 15.0298 66.4435 15.2969C66.1964 15.5611 65.8853 15.767 65.5103 15.9148C65.1381 16.0597 64.7134 16.1321 64.2362 16.1321ZM70.9084 16.1278C70.38 16.1278 69.9084 15.9929 69.4936 15.723C69.0817 15.4503 68.7578 15.0625 68.522 14.5597C68.2891 14.054 68.1726 13.4474 68.1726 12.7401C68.1726 12.0327 68.2905 11.4276 68.5263 10.9247C68.7649 10.4219 69.0916 10.0369 69.5064 9.76989C69.9212 9.50284 70.3913 9.36932 70.9169 9.36932C71.3232 9.36932 71.6499 9.4375 71.897 9.57386C72.147 9.70739 72.3402 9.86364 72.4766 10.0426C72.6158 10.2216 72.7237 10.3793 72.8004 10.5156H72.8771V7.27273H74.1513V16H72.907V14.9815H72.8004C72.7237 15.1207 72.6129 15.2798 72.468 15.4588C72.326 15.6378 72.13 15.794 71.88 15.9276C71.63 16.0611 71.3061 16.1278 70.9084 16.1278ZM71.1896 15.0412C71.5561 15.0412 71.8658 14.9446 72.1186 14.7514C72.3743 14.5554 72.5675 14.2841 72.6982 13.9375C72.8317 13.5909 72.8984 13.1875 72.8984 12.7273C72.8984 12.2727 72.8331 11.875 72.7024 11.5341C72.5717 11.1932 72.38 10.9276 72.1271 10.7372C71.8743 10.5469 71.5618 10.4517 71.1896 10.4517C70.8061 10.4517 70.4865 10.5511 70.2308 10.75C69.9751 10.9489 69.782 11.2202 69.6513 11.5639C69.5234 11.9077 69.4595 12.2955 69.4595 12.7273C69.4595 13.1648 69.5249 13.5582 69.6555 13.9077C69.7862 14.2571 69.9794 14.5341 70.2351 14.7386C70.4936 14.9403 70.8118 15.0412 71.1896 15.0412Z" fill="#D50047"/>
</svg>
