<svg width="81" height="24" viewBox="0 0 81 24" fill="none" xmlns="http://www.w3.org/2000/svg">
<path d="M0 4C0 1.79086 1.79086 0 4 0H77C79.2091 0 81 1.79086 81 4V20C81 22.2091 79.2091 24 77 24H4C1.79086 24 0 22.2091 0 20V4Z" fill="#FAF9E3"/>
<path d="M4 0.5H77C78.933 0.5 80.5 2.067 80.5 4V20C80.5 21.933 78.933 23.5 77 23.5H4C2.067 23.5 0.5 21.933 0.5 20V4C0.5 2.067 2.067 0.5 4 0.5Z" stroke="#716D28" stroke-opacity="0.5"/>
<path d="M10.2756 7.27273V16H8.95881V7.27273H10.2756ZM13.3651 12.1136V16H12.0909V9.45455H13.3139V10.5199H13.3949C13.5455 10.1733 13.7813 9.89489 14.1023 9.68466C14.4261 9.47443 14.8338 9.36932 15.3253 9.36932C15.7713 9.36932 16.1619 9.46307 16.4972 9.65057C16.8324 9.83523 17.0923 10.1108 17.277 10.4773C17.4616 10.8437 17.554 11.2969 17.554 11.8366V16H16.2798V11.9901C16.2798 11.5156 16.1563 11.1449 15.9091 10.8778C15.6619 10.608 15.3224 10.473 14.8906 10.473C14.5952 10.473 14.3324 10.5369 14.1023 10.6648C13.875 10.7926 13.6946 10.9801 13.5611 11.2273C13.4304 11.4716 13.3651 11.767 13.3651 12.1136ZM22.4386 18.4545V9.45455H23.6829V10.5156H23.7894C23.8633 10.3793 23.9698 10.2216 24.109 10.0426C24.2482 9.86364 24.4414 9.70739 24.6886 9.57386C24.9357 9.4375 25.2624 9.36932 25.6687 9.36932C26.1971 9.36932 26.6687 9.50284 27.0835 9.76989C27.4982 10.0369 27.8235 10.4219 28.0593 10.9247C28.2979 11.4276 28.4173 12.0327 28.4173 12.7401C28.4173 13.4474 28.2994 14.054 28.0636 14.5597C27.8278 15.0625 27.5039 15.4503 27.092 15.723C26.68 15.9929 26.2099 16.1278 25.6815 16.1278C25.2837 16.1278 24.9585 16.0611 24.7056 15.9276C24.4556 15.794 24.2596 15.6378 24.1175 15.4588C23.9755 15.2798 23.8661 15.1207 23.7894 14.9815H23.7127V18.4545H22.4386ZM23.6871 12.7273C23.6871 13.1875 23.7539 13.5909 23.8874 13.9375C24.021 14.2841 24.2141 14.5554 24.467 14.7514C24.7198 14.9446 25.0295 15.0412 25.396 15.0412C25.7766 15.0412 26.0948 14.9403 26.3505 14.7386C26.6062 14.5341 26.7994 14.2571 26.93 13.9077C27.0636 13.5582 27.1303 13.1648 27.1303 12.7273C27.1303 12.2955 27.065 11.9077 26.9343 11.5639C26.8065 11.2202 26.6133 10.9489 26.3548 10.75C26.0991 10.5511 25.7795 10.4517 25.396 10.4517C25.0266 10.4517 24.7141 10.5469 24.4585 10.7372C24.2056 10.9276 24.0138 11.1932 23.8832 11.5341C23.7525 11.875 23.6871 12.2727 23.6871 12.7273ZM29.8448 16V9.45455H31.0763V10.4943H31.1445C31.2638 10.142 31.4741 9.86506 31.7752 9.66335C32.0792 9.45881 32.4229 9.35653 32.8065 9.35653C32.886 9.35653 32.9798 9.35937 33.0877 9.36506C33.1985 9.37074 33.2852 9.37784 33.3477 9.38636V10.6051C33.2965 10.5909 33.2056 10.5753 33.0749 10.5582C32.9442 10.5384 32.8136 10.5284 32.6829 10.5284C32.3817 10.5284 32.1133 10.5923 31.8775 10.7202C31.6445 10.8452 31.4599 11.0199 31.3235 11.2443C31.1871 11.4659 31.119 11.7187 31.119 12.0028V16H29.8448ZM36.973 16.1321C36.3594 16.1321 35.8239 15.9915 35.3665 15.7102C34.9091 15.429 34.554 15.0355 34.3011 14.5298C34.0483 14.0241 33.9219 13.4332 33.9219 12.7571C33.9219 12.0781 34.0483 11.4844 34.3011 10.9759C34.554 10.4673 34.9091 10.0724 35.3665 9.79119C35.8239 9.50994 36.3594 9.36932 36.973 9.36932C37.5866 9.36932 38.1222 9.50994 38.5795 9.79119C39.0369 10.0724 39.392 10.4673 39.6449 10.9759C39.8977 11.4844 40.0241 12.0781 40.0241 12.7571C40.0241 13.4332 39.8977 14.0241 39.6449 14.5298C39.392 15.0355 39.0369 15.429 38.5795 15.7102C38.1222 15.9915 37.5866 16.1321 36.973 16.1321ZM36.9773 15.0625C37.375 15.0625 37.7045 14.9574 37.9659 14.7472C38.2273 14.5369 38.4205 14.2571 38.5455 13.9077C38.6733 13.5582 38.7372 13.1733 38.7372 12.7528C38.7372 12.3352 38.6733 11.9517 38.5455 11.6023C38.4205 11.25 38.2273 10.9673 37.9659 10.7543C37.7045 10.5412 37.375 10.4347 36.9773 10.4347C36.5767 10.4347 36.2443 10.5412 35.9801 10.7543C35.7188 10.9673 35.5241 11.25 35.3963 11.6023C35.2713 11.9517 35.2088 12.3352 35.2088 12.7528C35.2088 13.1733 35.2713 13.5582 35.3963 13.9077C35.5241 14.2571 35.7188 14.5369 35.9801 14.7472C36.2443 14.9574 36.5767 15.0625 36.9773 15.0625ZM44.1907 18.5909C43.6708 18.5909 43.2234 18.5227 42.8484 18.3864C42.4762 18.25 42.1722 18.0696 41.9364 17.8452C41.7006 17.6207 41.5245 17.375 41.408 17.108L42.5032 16.6562C42.5799 16.7812 42.6822 16.9134 42.81 17.0526C42.9407 17.1946 43.1168 17.3153 43.3384 17.4148C43.5629 17.5142 43.8512 17.5639 44.2035 17.5639C44.6864 17.5639 45.0856 17.446 45.4009 17.2102C45.7163 16.9773 45.8739 16.6051 45.8739 16.0938V14.8068H45.793C45.7163 14.946 45.6055 15.1009 45.4606 15.2713C45.3185 15.4418 45.1225 15.5895 44.8725 15.7145C44.6225 15.8395 44.2972 15.902 43.8967 15.902C43.3796 15.902 42.9137 15.7812 42.4989 15.5398C42.087 15.2955 41.7603 14.9361 41.5188 14.4616C41.2802 13.9844 41.1609 13.3977 41.1609 12.7017C41.1609 12.0057 41.2788 11.4091 41.5146 10.9119C41.7532 10.4148 42.0799 10.0341 42.4947 9.76989C42.9094 9.50284 43.3796 9.36932 43.9052 9.36932C44.3114 9.36932 44.6396 9.4375 44.8896 9.57386C45.1396 9.70739 45.3342 9.86364 45.4734 10.0426C45.6154 10.2216 45.7248 10.3793 45.8015 10.5156H45.8952V9.45455H47.1438V16.1449C47.1438 16.7074 47.0131 17.169 46.7518 17.5298C46.4904 17.8906 46.1367 18.1577 45.6907 18.331C45.2475 18.5043 44.7475 18.5909 44.1907 18.5909ZM44.1779 14.8452C44.5444 14.8452 44.854 14.7599 45.1069 14.5895C45.3626 14.4162 45.5558 14.169 45.6864 13.848C45.82 13.5241 45.8867 13.1364 45.8867 12.6847C45.8867 12.2443 45.8214 11.8565 45.6907 11.5213C45.56 11.1861 45.3683 10.9247 45.1154 10.7372C44.8626 10.5469 44.5501 10.4517 44.1779 10.4517C43.7944 10.4517 43.4748 10.5511 43.2191 10.75C42.9634 10.946 42.7702 11.2131 42.6396 11.5511C42.5117 11.8892 42.4478 12.267 42.4478 12.6847C42.4478 13.1136 42.5131 13.4901 42.6438 13.8139C42.7745 14.1378 42.9677 14.3906 43.2234 14.5724C43.4819 14.7543 43.8001 14.8452 44.1779 14.8452ZM48.8526 16V9.45455H50.0842V10.4943H50.1523C50.2717 10.142 50.4819 9.86506 50.783 9.66335C51.087 9.45881 51.4308 9.35653 51.8143 9.35653C51.8938 9.35653 51.9876 9.35937 52.0955 9.36506C52.2063 9.37074 52.293 9.37784 52.3555 9.38636V10.6051C52.3043 10.5909 52.2134 10.5753 52.0827 10.5582C51.9521 10.5384 51.8214 10.5284 51.6907 10.5284C51.3896 10.5284 51.1211 10.5923 50.8853 10.7202C50.6523 10.8452 50.4677 11.0199 50.3313 11.2443C50.195 11.4659 50.1268 11.7187 50.1268 12.0028V16H48.8526ZM56.0447 16.1321C55.3999 16.1321 54.8445 15.9943 54.3786 15.7188C53.9155 15.4403 53.5575 15.0497 53.3047 14.5469C53.0547 14.0412 52.9297 13.4489 52.9297 12.7699C52.9297 12.0994 53.0547 11.5085 53.3047 10.9972C53.5575 10.4858 53.9098 10.0866 54.3615 9.79972C54.8161 9.51278 55.3473 9.36932 55.9553 9.36932C56.3246 9.36932 56.6825 9.4304 57.0291 9.55256C57.3757 9.67472 57.6868 9.86648 57.9624 10.1278C58.2379 10.3892 58.4553 10.7287 58.6143 11.1463C58.7734 11.5611 58.853 12.0653 58.853 12.6591V13.1108H53.6499V12.1562H57.6044C57.6044 11.821 57.5362 11.5241 57.3999 11.2656C57.2635 11.0043 57.0717 10.7983 56.8246 10.6477C56.5803 10.4972 56.2933 10.4219 55.9638 10.4219C55.6058 10.4219 55.2933 10.5099 55.0263 10.6861C54.7621 10.8594 54.5575 11.0866 54.4126 11.3679C54.2706 11.6463 54.1996 11.9489 54.1996 12.2756V13.0213C54.1996 13.4588 54.2763 13.831 54.4297 14.1378C54.5859 14.4446 54.8033 14.679 55.0817 14.8409C55.3601 15 55.6854 15.0795 56.0575 15.0795C56.299 15.0795 56.5192 15.0455 56.718 14.9773C56.9169 14.9062 57.0888 14.8011 57.2337 14.6619C57.3786 14.5227 57.4893 14.3509 57.5661 14.1463L58.772 14.3636C58.6754 14.7187 58.5021 15.0298 58.2521 15.2969C58.005 15.5611 57.6939 15.767 57.3189 15.9148C56.9467 16.0597 56.522 16.1321 56.0447 16.1321ZM65.1715 11.0526L64.0167 11.2571C63.9684 11.1094 63.8917 10.9687 63.7866 10.8352C63.6843 10.7017 63.5451 10.5923 63.369 10.5071C63.1928 10.4219 62.9727 10.3793 62.7085 10.3793C62.3477 10.3793 62.0465 10.4602 61.805 10.6222C61.5636 10.7812 61.4428 10.9872 61.4428 11.2401C61.4428 11.4588 61.5238 11.6349 61.6857 11.7685C61.8477 11.902 62.109 12.0114 62.4698 12.0966L63.5096 12.3352C64.1119 12.4744 64.5607 12.6889 64.8562 12.9787C65.1516 13.2685 65.2994 13.6449 65.2994 14.108C65.2994 14.5 65.1857 14.8494 64.9585 15.1562C64.734 15.4602 64.4201 15.6989 64.0167 15.8722C63.6161 16.0455 63.1516 16.1321 62.6232 16.1321C61.8903 16.1321 61.2923 15.9759 60.8292 15.6634C60.3661 15.348 60.082 14.9006 59.9769 14.321L61.2085 14.1335C61.2852 14.4545 61.4428 14.6974 61.6815 14.8622C61.9201 15.0241 62.2312 15.1051 62.6147 15.1051C63.0323 15.1051 63.3661 15.0185 63.6161 14.8452C63.8661 14.669 63.9911 14.4545 63.9911 14.2017C63.9911 13.9972 63.9144 13.8253 63.761 13.6861C63.6104 13.5469 63.3789 13.4418 63.0664 13.3707L61.9585 13.1278C61.3477 12.9886 60.896 12.767 60.6033 12.4631C60.3136 12.1591 60.1687 11.7741 60.1687 11.3082C60.1687 10.9219 60.2766 10.5838 60.4925 10.294C60.7085 10.0043 61.0067 9.77841 61.3874 9.61648C61.7681 9.4517 62.2042 9.36932 62.6957 9.36932C63.4031 9.36932 63.9599 9.52273 64.3661 9.82955C64.7724 10.1335 65.0408 10.5412 65.1715 11.0526ZM71.6051 11.0526L70.4503 11.2571C70.402 11.1094 70.3253 10.9687 70.2202 10.8352C70.1179 10.7017 69.9787 10.5923 69.8026 10.5071C69.6264 10.4219 69.4063 10.3793 69.142 10.3793C68.7813 10.3793 68.4801 10.4602 68.2386 10.6222C67.9972 10.7812 67.8764 10.9872 67.8764 11.2401C67.8764 11.4588 67.9574 11.6349 68.1193 11.7685C68.2813 11.902 68.5426 12.0114 68.9034 12.0966L69.9432 12.3352C70.5455 12.4744 70.9943 12.6889 71.2898 12.9787C71.5852 13.2685 71.733 13.6449 71.733 14.108C71.733 14.5 71.6193 14.8494 71.392 15.1562C71.1676 15.4602 70.8537 15.6989 70.4503 15.8722C70.0497 16.0455 69.5852 16.1321 69.0568 16.1321C68.3239 16.1321 67.7259 15.9759 67.2628 15.6634C66.7997 15.348 66.5156 14.9006 66.4105 14.321L67.642 14.1335C67.7188 14.4545 67.8764 14.6974 68.1151 14.8622C68.3537 15.0241 68.6648 15.1051 69.0483 15.1051C69.4659 15.1051 69.7997 15.0185 70.0497 14.8452C70.2997 14.669 70.4247 14.4545 70.4247 14.2017C70.4247 13.9972 70.348 13.8253 70.1946 13.6861C70.044 13.5469 69.8125 13.4418 69.5 13.3707L68.392 13.1278C67.7813 12.9886 67.3295 12.767 67.0369 12.4631C66.7472 12.1591 66.6023 11.7741 66.6023 11.3082C66.6023 10.9219 66.7102 10.5838 66.9261 10.294C67.142 10.0043 67.4403 9.77841 67.821 9.61648C68.2017 9.4517 68.6378 9.36932 69.1293 9.36932C69.8366 9.36932 70.3935 9.52273 70.7997 9.82955C71.206 10.1335 71.4744 10.5412 71.6051 11.0526Z" fill="#716D28"/>
</svg>
