<svg width="68" height="24" viewBox="0 0 68 24" fill="none" xmlns="http://www.w3.org/2000/svg">
<path d="M0 4C0 1.79086 1.79086 0 4 0H64C66.2091 0 68 1.79086 68 4V20C68 22.2091 66.2091 24 64 24H4C1.79086 24 0 22.2091 0 20V4Z" fill="#F2F9F8"/>
<path d="M4 0.5H64C65.933 0.5 67.5 2.067 67.5 4V20C67.5 21.933 65.933 23.5 64 23.5H4C2.067 23.5 0.5 21.933 0.5 20V4C0.5 2.067 2.067 0.5 4 0.5Z" stroke="#01795D" stroke-opacity="0.5"/>
<path d="M9.69602 16H8.2983L11.4389 7.27273H12.9602L16.1009 16H14.7031L12.2358 8.85795H12.1676L9.69602 16ZM9.9304 12.5824H14.4645V13.6903H9.9304V12.5824ZM22.038 9.45455L19.6644 16H18.3008L15.9229 9.45455H17.2908L18.9485 14.4915H19.0167L20.6701 9.45455H22.038ZM24.9528 16.1449C24.538 16.1449 24.163 16.0682 23.8278 15.9148C23.4925 15.7585 23.2269 15.5327 23.0309 15.2372C22.8377 14.9418 22.7411 14.5795 22.7411 14.1506C22.7411 13.7812 22.8121 13.4773 22.9542 13.2386C23.0962 13 23.288 12.8111 23.5295 12.6719C23.771 12.5327 24.0408 12.4276 24.3391 12.3565C24.6374 12.2855 24.9414 12.2315 25.2511 12.1946C25.6431 12.1491 25.9613 12.1122 26.2056 12.0838C26.4499 12.0526 26.6275 12.0028 26.7383 11.9347C26.8491 11.8665 26.9045 11.7557 26.9045 11.6023V11.5724C26.9045 11.2003 26.7994 10.9119 26.5891 10.7074C26.3817 10.5028 26.0721 10.4006 25.6602 10.4006C25.2312 10.4006 24.8931 10.4957 24.646 10.6861C24.4016 10.8736 24.2326 11.0824 24.1388 11.3125L22.9414 11.0398C23.0835 10.642 23.2908 10.321 23.5636 10.0767C23.8391 9.82955 24.1559 9.65057 24.5138 9.53977C24.8718 9.42614 25.2482 9.36932 25.6431 9.36932C25.9045 9.36932 26.1815 9.40057 26.4741 9.46307C26.7695 9.52273 27.0451 9.63352 27.3008 9.79545C27.5593 9.95739 27.771 10.1889 27.9357 10.4901C28.1005 10.7884 28.1829 11.1761 28.1829 11.6534V16H26.9386V15.1051H26.8874C26.805 15.2699 26.6815 15.4318 26.5167 15.5909C26.3519 15.75 26.1403 15.8821 25.8817 15.9872C25.6232 16.0923 25.3136 16.1449 24.9528 16.1449ZM25.2298 15.1222C25.582 15.1222 25.8832 15.0526 26.1332 14.9134C26.386 14.7741 26.5778 14.5923 26.7085 14.3679C26.842 14.1406 26.9087 13.8977 26.9087 13.6392V12.7955C26.8633 12.8409 26.7752 12.8835 26.6445 12.9233C26.5167 12.9602 26.3704 12.9929 26.2056 13.0213C26.0408 13.0469 25.8803 13.071 25.7241 13.0938C25.5678 13.1136 25.4371 13.1307 25.332 13.1449C25.0849 13.1761 24.859 13.2287 24.6545 13.3026C24.4528 13.3764 24.2908 13.483 24.1687 13.6222C24.0494 13.7585 23.9897 13.9403 23.9897 14.1676C23.9897 14.483 24.1062 14.7216 24.3391 14.8835C24.5721 15.0426 24.869 15.1222 25.2298 15.1222ZM29.88 16V9.45455H31.1541V16H29.88ZM30.5234 8.4446C30.3018 8.4446 30.1115 8.37074 29.9524 8.22301C29.7962 8.07244 29.718 7.89347 29.718 7.68608C29.718 7.47585 29.7962 7.29687 29.9524 7.14915C30.1115 6.99858 30.3018 6.9233 30.5234 6.9233C30.745 6.9233 30.9339 6.99858 31.0902 7.14915C31.2493 7.29687 31.3288 7.47585 31.3288 7.68608C31.3288 7.89347 31.2493 8.07244 31.0902 8.22301C30.9339 8.37074 30.745 8.4446 30.5234 8.4446ZM34.1424 7.27273V16H32.8683V7.27273H34.1424ZM37.7614 16.1449C37.3466 16.1449 36.9716 16.0682 36.6364 15.9148C36.3011 15.7585 36.0355 15.5327 35.8395 15.2372C35.6463 14.9418 35.5497 14.5795 35.5497 14.1506C35.5497 13.7812 35.6207 13.4773 35.7628 13.2386C35.9048 13 36.0966 12.8111 36.3381 12.6719C36.5795 12.5327 36.8494 12.4276 37.1477 12.3565C37.446 12.2855 37.75 12.2315 38.0597 12.1946C38.4517 12.1491 38.7699 12.1122 39.0142 12.0838C39.2585 12.0526 39.4361 12.0028 39.5469 11.9347C39.6577 11.8665 39.7131 11.7557 39.7131 11.6023V11.5724C39.7131 11.2003 39.608 10.9119 39.3977 10.7074C39.1903 10.5028 38.8807 10.4006 38.4688 10.4006C38.0398 10.4006 37.7017 10.4957 37.4545 10.6861C37.2102 10.8736 37.0412 11.0824 36.9474 11.3125L35.75 11.0398C35.892 10.642 36.0994 10.321 36.3722 10.0767C36.6477 9.82955 36.9645 9.65057 37.3224 9.53977C37.6804 9.42614 38.0568 9.36932 38.4517 9.36932C38.7131 9.36932 38.9901 9.40057 39.2827 9.46307C39.5781 9.52273 39.8537 9.63352 40.1094 9.79545C40.3679 9.95739 40.5795 10.1889 40.7443 10.4901C40.9091 10.7884 40.9915 11.1761 40.9915 11.6534V16H39.7472V15.1051H39.696C39.6136 15.2699 39.4901 15.4318 39.3253 15.5909C39.1605 15.75 38.9489 15.8821 38.6903 15.9872C38.4318 16.0923 38.1222 16.1449 37.7614 16.1449ZM38.0384 15.1222C38.3906 15.1222 38.6918 15.0526 38.9418 14.9134C39.1946 14.7741 39.3864 14.5923 39.517 14.3679C39.6506 14.1406 39.7173 13.8977 39.7173 13.6392V12.7955C39.6719 12.8409 39.5838 12.8835 39.4531 12.9233C39.3253 12.9602 39.179 12.9929 39.0142 13.0213C38.8494 13.0469 38.6889 13.071 38.5327 13.0938C38.3764 13.1136 38.2457 13.1307 38.1406 13.1449C37.8935 13.1761 37.6676 13.2287 37.4631 13.3026C37.2614 13.3764 37.0994 13.483 36.9773 13.6222C36.858 13.7585 36.7983 13.9403 36.7983 14.1676C36.7983 14.483 36.9148 14.7216 37.1477 14.8835C37.3807 15.0426 37.6776 15.1222 38.0384 15.1222ZM42.7908 16V7.27273H44.065V10.5156H44.1417C44.2156 10.3793 44.3221 10.2216 44.4613 10.0426C44.6005 9.86364 44.7937 9.70739 45.0408 9.57386C45.288 9.4375 45.6147 9.36932 46.021 9.36932C46.5494 9.36932 47.021 9.50284 47.4357 9.76989C47.8505 10.0369 48.1758 10.4219 48.4116 10.9247C48.6502 11.4276 48.7695 12.0327 48.7695 12.7401C48.7695 13.4474 48.6516 14.054 48.4158 14.5597C48.18 15.0625 47.8562 15.4503 47.4442 15.723C47.0323 15.9929 46.5621 16.1278 46.0337 16.1278C45.636 16.1278 45.3107 16.0611 45.0579 15.9276C44.8079 15.794 44.6119 15.6378 44.4698 15.4588C44.3278 15.2798 44.2184 15.1207 44.1417 14.9815H44.0352V16H42.7908ZM44.0394 12.7273C44.0394 13.1875 44.1062 13.5909 44.2397 13.9375C44.3732 14.2841 44.5664 14.5554 44.8192 14.7514C45.0721 14.9446 45.3817 15.0412 45.7482 15.0412C46.1289 15.0412 46.4471 14.9403 46.7028 14.7386C46.9585 14.5341 47.1516 14.2571 47.2823 13.9077C47.4158 13.5582 47.4826 13.1648 47.4826 12.7273C47.4826 12.2955 47.4173 11.9077 47.2866 11.5639C47.1587 11.2202 46.9656 10.9489 46.707 10.75C46.4513 10.5511 46.1317 10.4517 45.7482 10.4517C45.3789 10.4517 45.0664 10.5469 44.8107 10.7372C44.5579 10.9276 44.3661 11.1932 44.2354 11.5341C44.1048 11.875 44.0394 12.2727 44.0394 12.7273ZM51.4744 7.27273V16H50.2003V7.27273H51.4744ZM56.0096 16.1321C55.3647 16.1321 54.8093 15.9943 54.3434 15.7188C53.8803 15.4403 53.5224 15.0497 53.2695 14.5469C53.0195 14.0412 52.8945 13.4489 52.8945 12.7699C52.8945 12.0994 53.0195 11.5085 53.2695 10.9972C53.5224 10.4858 53.8746 10.0866 54.3263 9.79972C54.7809 9.51278 55.3121 9.36932 55.9201 9.36932C56.2894 9.36932 56.6474 9.4304 56.994 9.55256C57.3406 9.67472 57.6516 9.86648 57.9272 10.1278C58.2028 10.3892 58.4201 10.7287 58.5792 11.1463C58.7383 11.5611 58.8178 12.0653 58.8178 12.6591V13.1108H53.6147V12.1562H57.5692C57.5692 11.821 57.5011 11.5241 57.3647 11.2656C57.2283 11.0043 57.0366 10.7983 56.7894 10.6477C56.5451 10.4972 56.2582 10.4219 55.9286 10.4219C55.5707 10.4219 55.2582 10.5099 54.9911 10.6861C54.7269 10.8594 54.5224 11.0866 54.3775 11.3679C54.2354 11.6463 54.1644 11.9489 54.1644 12.2756V13.0213C54.1644 13.4588 54.2411 13.831 54.3945 14.1378C54.5508 14.4446 54.7681 14.679 55.0465 14.8409C55.3249 15 55.6502 15.0795 56.0224 15.0795C56.2638 15.0795 56.484 15.0455 56.6829 14.9773C56.8817 14.9062 57.0536 14.8011 57.1985 14.6619C57.3434 14.5227 57.4542 14.3509 57.5309 14.1463L58.7369 14.3636C58.6403 14.7187 58.467 15.0298 58.217 15.2969C57.9698 15.5611 57.6587 15.767 57.2837 15.9148C56.9116 16.0597 56.4869 16.1321 56.0096 16.1321Z" fill="#00795D"/>
</svg>
