<svg width="107" height="32" viewBox="0 0 107 32" fill="none" xmlns="http://www.w3.org/2000/svg">
<path d="M0 19.8939H6.26961C6.37548 21.3536 7.27522 22.2245 8.93623 22.2245C10.2187 22.2245 11.1876 21.7707 11.1876 20.6953C11.1876 19.2356 9.14388 19.0597 6.85996 18.7122C3.87985 18.2583 0.451902 17.461 0.451902 13.0082C0.451902 9.35683 4.15668 7.33693 8.48841 7.33693C13.8583 7.33693 16.6633 9.35274 16.9035 12.8324H10.7398C10.5647 11.5117 9.59576 11.2336 8.52507 11.2336C7.55611 11.2336 6.65638 11.618 6.65638 12.5216C6.65638 13.5316 8.28486 13.7401 10.292 14.0182C13.5123 14.472 17.5997 15.1998 17.5997 20.1392C17.5997 24.3834 13.7565 26.2276 8.90774 26.2276C3.6722 26.2236 0.0325694 23.9623 0 19.8939Z" fill="white"/>
<path d="M30.2326 25.6302V23.3365H30.1268C28.7751 25.1804 27.0449 26.1904 24.6185 26.1904C20.3926 26.1904 18.3163 23.406 18.3163 19.3375V7.89275H24.8627V17.7715C24.8627 19.6156 25.6607 20.5887 27.2159 20.5887C28.9135 20.5887 29.9191 19.3702 29.9191 17.4566V7.89275H36.4656V25.6302H30.2326Z" fill="white"/>
<path d="M38.1267 7.89312H44.3597V9.97842H44.4653C45.7479 8.31018 47.5473 7.33293 49.9737 7.33293C54.7168 7.33293 57.4566 11.5772 57.4566 16.7251C57.4566 22.5354 54.4073 26.2193 49.6969 26.2193C47.584 26.2193 45.9555 25.4181 44.779 23.9583H44.6731V31.5063H38.1267V7.89312ZM50.8002 17.0072C50.8002 14.2922 49.6927 12.5912 47.7509 12.5912C45.8089 12.5912 44.4246 14.468 44.4246 17.0072C44.4246 19.5464 45.7397 21.3905 47.7509 21.3905C49.7622 21.3905 50.8002 19.7222 50.8002 17.0072Z" fill="white"/>
<path d="M58.3848 7.89312H64.6178V9.97842H64.7237C66.006 8.31018 67.8055 7.33293 70.2318 7.33293C74.9749 7.33293 77.7147 11.5772 77.7147 16.7251C77.7147 22.5354 74.6654 26.2193 69.955 26.2193C67.8422 26.2193 66.2136 25.4181 65.0372 23.9583H64.9313V31.5063H58.3848V7.89312ZM71.0584 17.0072C71.0584 14.2922 69.9511 12.5912 68.0091 12.5912C66.067 12.5912 64.683 14.468 64.683 17.0072C64.683 19.5464 65.9979 21.3905 68.0091 21.3905C70.0203 21.3905 71.0584 19.7222 71.0584 17.0072Z" fill="white"/>
<path d="M78.6429 0.761963H85.3605V25.6305H78.6429V0.761963Z" fill="white"/>
<path d="M88.5115 26.4318H90.6938C92.147 26.4318 92.7375 26.0474 92.7375 25.1109C92.7375 24.555 92.3549 23.6145 91.9395 22.5719L86.2927 7.89275H93.1854L95.3675 15.0238C95.9212 16.8311 96.4055 19.3375 96.4055 19.3375H96.4747C96.4747 19.3375 96.996 16.8351 97.5495 15.0238L99.6952 7.89275H106.205L100.179 25.6302C98.6896 30.0136 96.6131 31.51 93.0467 31.51H88.5115V26.4318Z" fill="white"/>
</svg>
